<?xml version="1.0" encoding="UTF-8" standalone="no"?>
<!DOCTYPE svg PUBLIC "-//W3C//DTD SVG 1.1//EN" "http://www.w3.org/Graphics/SVG/1.1/DTD/svg11.dtd">
<svg width="100%" height="100%" viewBox="0 0 256 256" version="1.1" xmlns="http://www.w3.org/2000/svg" xmlns:xlink="http://www.w3.org/1999/xlink" xml:space="preserve" xmlns:serif="http://www.serif.com/" style="fill-rule:evenodd;clip-rule:evenodd;stroke-linejoin:round;stroke-miterlimit:2;">
    <rect id="thought_bubble_close" x="0" y="-0" width="256" height="256" style="fill:none;"/>
    <clipPath id="_clip1">
        <rect x="0" y="-0" width="256" height="256"/>
    </clipPath>
    <g clip-path="url(#_clip1)">
        <path d="M-4.637,27.05C-4.637,12.121 -16.758,-0 -31.687,-0C-46.616,-0 -58.736,12.121 -58.736,27.05C-66.201,14.121 -82.758,9.684 -95.687,17.149C-108.616,24.613 -113.052,41.17 -105.588,54.099C-118.517,46.635 -135.073,51.071 -142.538,64C-150.003,76.929 -145.566,93.486 -132.637,100.95C-147.566,100.95 -159.687,113.071 -159.687,128C-159.687,142.929 -147.566,155.05 -132.637,155.05C-145.566,162.514 -150.003,179.071 -142.538,192C-135.073,204.929 -118.517,209.365 -105.588,201.901C-113.052,214.83 -108.616,231.387 -95.687,238.851C-82.758,246.316 -66.201,241.879 -58.736,228.95C-58.736,243.879 -46.616,256 -31.687,256C-16.758,256 -4.637,243.879 -4.637,228.95C2.827,241.879 19.384,246.316 32.313,238.851C45.242,231.387 49.679,214.83 42.214,201.901C55.143,209.365 71.7,204.929 79.165,192C86.629,179.071 82.193,162.514 69.264,155.05C84.193,155.05 96.313,142.929 96.313,128C96.313,113.071 84.193,100.95 69.264,100.95C82.193,93.486 86.629,76.929 79.165,64C71.7,51.071 55.143,46.635 42.214,54.099C49.679,41.17 45.242,24.613 32.313,17.149C19.384,9.684 2.827,14.121 -4.637,27.05Z" style="fill:white;"/>
        <path d="M0.35,8.439C11.423,2.103 25.478,1.655 37.313,8.488C49.149,15.322 55.788,27.718 55.838,40.475C68.596,40.525 80.992,47.165 87.825,59C94.658,70.835 94.21,84.89 87.875,95.964C98.898,102.386 106.313,114.334 106.313,128C106.313,141.666 98.898,153.614 87.875,160.036C94.21,171.11 94.658,185.165 87.825,197C80.992,208.835 68.596,215.475 55.838,215.525C55.788,228.282 49.149,240.678 37.313,247.512C25.478,254.345 11.423,253.897 0.35,247.561C-6.072,258.585 -18.02,266 -31.687,266C-45.353,266 -57.301,258.585 -63.723,247.561C-74.796,253.897 -88.851,254.345 -100.687,247.512C-112.522,240.678 -119.162,228.282 -119.212,215.525C-131.969,215.475 -144.365,208.835 -151.198,197C-158.031,185.165 -157.583,171.11 -151.248,160.036C-162.271,153.614 -169.687,141.666 -169.687,128C-169.687,114.334 -162.271,102.386 -151.248,95.964C-157.583,84.89 -158.031,70.835 -151.198,59C-144.365,47.165 -131.969,40.525 -119.212,40.475C-119.162,27.718 -112.522,15.322 -100.687,8.488C-88.851,1.655 -74.796,2.103 -63.723,8.439C-57.301,-2.585 -45.353,-10 -31.687,-10C-18.02,-10 -6.072,-2.585 0.35,8.439ZM-4.637,27.05C-4.637,12.121 -16.758,-0 -31.687,-0C-46.616,-0 -58.736,12.121 -58.736,27.05C-66.201,14.121 -82.758,9.684 -95.687,17.149C-108.616,24.613 -113.052,41.17 -105.588,54.099C-118.517,46.635 -135.073,51.071 -142.538,64C-150.003,76.929 -145.566,93.486 -132.637,100.95C-147.566,100.95 -159.687,113.071 -159.687,128C-159.687,142.929 -147.566,155.05 -132.637,155.05C-145.566,162.514 -150.003,179.071 -142.538,192C-135.073,204.929 -118.517,209.365 -105.588,201.901C-113.052,214.83 -108.616,231.387 -95.687,238.851C-82.758,246.316 -66.201,241.879 -58.736,228.95C-58.736,243.879 -46.616,256 -31.687,256C-16.758,256 -4.637,243.879 -4.637,228.95C2.827,241.879 19.384,246.316 32.313,238.851C45.242,231.387 49.679,214.83 42.214,201.901C55.143,209.365 71.7,204.929 79.165,192C86.629,179.071 82.193,162.514 69.264,155.05C84.193,155.05 96.313,142.929 96.313,128C96.313,113.071 84.193,100.95 69.264,100.95C82.193,93.486 86.629,76.929 79.165,64C71.7,51.071 55.143,46.635 42.214,54.099C49.679,41.17 45.242,24.613 32.313,17.149C19.384,9.684 2.827,14.121 -4.637,27.05Z"/>
    </g>
</svg>
