<?xml version="1.0" encoding="UTF-8" standalone="no"?>
<!DOCTYPE svg PUBLIC "-//W3C//DTD SVG 1.1//EN" "http://www.w3.org/Graphics/SVG/1.1/DTD/svg11.dtd">
<svg width="100%" height="100%" viewBox="0 0 256 256" version="1.1" xmlns="http://www.w3.org/2000/svg" xmlns:xlink="http://www.w3.org/1999/xlink" xml:space="preserve" xmlns:serif="http://www.serif.com/" style="fill-rule:evenodd;clip-rule:evenodd;stroke-linecap:round;stroke-linejoin:round;stroke-miterlimit:1.5;">
    <rect id="neossb" x="0" y="0" width="256" height="256" style="fill:none;"/>
    <g>
        <clipPath id="_clip1">
            <rect x="0" y="0" width="256" height="256"/>
        </clipPath>
        <g clip-path="url(#_clip1)">
            <path id="Outline" d="M91.437,23.35L96.939,18.451C97.39,18.05 97.865,17.679 98.363,17.338C98.363,17.338 105.997,11.972 117.055,10.208C124.828,8.967 152.75,4.881 161.383,3.981C170.947,2.984 177.776,1.826 189.617,3.282C202.29,4.841 213.937,10.916 223.645,17.159C231.77,22.383 275.841,53.435 275.841,53.435C279.596,56.082 281.83,60.389 281.83,64.983L281.83,70.183C281.83,70.232 281.83,70.281 281.83,70.33L281.83,217.122C281.83,222.722 278.523,227.794 273.398,230.052C273.398,230.052 272.427,230.487 254.816,237.565C236.609,244.88 234.094,244.913 212.278,249.549C190.387,254.202 179.67,253.279 163.293,253.378C144.014,253.495 115.753,251.835 94.397,250.524C71.343,249.107 51.55,242.323 51.55,242.323C46.095,240.461 42.318,235.471 42.007,229.716C42.007,229.716 40.772,206.731 40.909,193.888C41.042,181.401 46.494,160.341 47.268,155.295C47.466,153.992 57.069,59.867 58.238,54.26C59.174,49.768 60.212,44.676 64.206,39.338C67.791,34.546 74.03,29.096 86.926,24.734C88.361,24.248 89.869,23.79 91.437,23.35ZM267.702,70.33L267.379,70.117L267.702,70.183L267.702,64.983C267.702,64.983 224.051,34.217 216.004,29.042C207.956,23.868 198.398,18.597 187.893,17.304C177.388,16.013 171.332,17.149 162.848,18.034C154.363,18.918 126.92,22.941 119.28,24.16C111.64,25.378 106.334,29.004 106.334,29.004L98.901,35.622L99.715,35.788C96.76,36.514 93.978,37.263 91.452,38.118C73.646,44.14 73.229,51.577 72.069,57.144C70.908,62.71 61.427,156.167 61.234,157.431C60.501,162.214 55.163,182.183 55.036,194.038C54.904,206.554 56.115,228.953 56.115,228.953C56.115,228.953 74.201,235.128 95.263,236.422C116.325,237.715 144.195,239.365 163.207,239.249C178.629,239.156 188.727,240.11 209.341,235.73C229.954,231.349 232.345,231.368 249.548,224.455C266.75,217.542 267.702,217.122 267.702,217.122L267.702,70.33ZM267.702,84.459L267.85,84.31C267.815,84.311 267.78,84.311 267.744,84.311L267.702,84.459Z"/>
            <path id="Roof-unit" serif:id="Roof unit" d="M98.901,35.622L106.334,29.004C106.334,29.004 111.64,25.378 119.28,24.16C126.92,22.941 154.363,18.918 162.848,18.034C171.332,17.149 177.388,16.013 187.893,17.304C198.398,18.597 207.956,23.868 216.004,29.042C224.051,34.217 267.702,64.983 267.702,64.983L267.702,70.183L98.901,35.622Z" style="fill:rgb(177,176,178);stroke:black;stroke-width:0.94px;"/>
            <path id="Body" d="M267.702,70.33L236.518,49.705C236.518,49.705 224.91,41.467 218.209,38.8C211.506,36.132 194.051,26.832 170.887,27.466C147.723,28.099 111.949,31.648 91.452,38.118C74.439,43.487 73.229,51.577 72.069,57.144C70.908,62.71 61.427,156.167 61.234,157.431C60.501,162.214 55.163,182.183 55.036,194.038C54.904,206.554 56.115,228.953 56.115,228.953C56.115,228.953 74.201,235.128 95.263,236.422C116.325,237.715 144.195,239.365 163.207,239.249C178.629,239.156 188.727,240.11 209.341,235.73C229.954,231.349 232.345,231.368 249.548,224.455C266.75,217.542 267.702,217.122 267.702,217.122L267.702,70.33Z" style="fill:rgb(254,218,24);"/>
            <path id="Coupling-surround" serif:id="Coupling surround" d="M156.321,239.151L156.727,205.508C156.727,205.508 117.267,205.958 98.901,204.955C80.535,203.952 63.772,201.573 63.772,201.573L63.675,230.491L66.377,231.4L66.479,204.742C66.479,204.742 87.668,206.896 98.901,207.593C110.133,208.29 153.978,208.895 153.978,208.895L153.978,239.178" style="stroke:black;stroke-width:0.94px;"/>
            <path id="Front-window" serif:id="Front window" d="M180.152,34.99C180.152,34.99 192.239,34.845 189.611,50.043C186.982,65.24 173.78,147.135 173.78,147.135C173.78,147.135 171.795,160.713 162.676,161.471C153.605,162.225 130.881,164.314 110.022,164.094C89.164,163.873 74.574,162.471 74.574,162.471C74.574,162.471 68.593,161.813 69.653,151.825C70.835,140.686 78.077,59.653 78.077,59.653C78.077,59.653 78.936,49.308 88.622,46.17C100.284,42.39 101.082,41.803 125.165,38.02C135.838,36.343 170.396,34.006 180.152,34.99Z" style="fill:rgb(167,227,244);stroke:black;stroke-width:5.65px;"/>
            <path id="Coupling" d="M125.385,217.817L125.385,234.599C125.385,236.539 123.815,238.027 121.881,237.919L92.125,236.279C90.192,236.171 88.622,234.511 88.622,232.571L88.622,215.789C88.622,213.849 90.192,212.361 92.125,212.468L121.881,214.109C123.815,214.217 125.385,215.877 125.385,217.817Z" style="fill:rgb(165,165,165);"/>
            <path id="Side-window" serif:id="Side window" d="M258.728,152.654L247.134,152.6L228.125,155.081L192.777,159.67L210.887,68.383C210.887,68.383 212.743,57.187 227.777,65.361C241.655,72.907 259.289,82.272 259.289,82.272L258.728,152.654Z" style="fill:rgb(167,227,244);stroke:black;stroke-width:5.65px;"/>
            <path id="Destination-sign" serif:id="Destination sign" d="M80.39,64.837C80.728,61.259 80.986,59.142 80.986,59.142C80.986,59.142 81.906,49.358 91.066,46.389C102.096,42.815 102.852,42.259 125.631,38.68C135.724,37.094 168.411,34.884 177.638,35.815C177.638,35.815 190.078,35.814 186.781,50.131C186.716,50.418 185.815,55.732 185.757,56.072L80.39,64.837Z" style="fill:rgb(53,53,53);"/>
            <g id="Face">
                <path id="Mouth" d="M96.933,134.992L104.499,147.713L114.694,135.014L127.324,147.678L142.369,135.029" style="fill:none;stroke:black;stroke-width:6.59px;"/>
                <path id="Right-eye" serif:id="Right eye" d="M152.723,106.913L152.723,112.353C152.723,118.068 148.084,122.708 142.369,122.708C136.655,122.708 132.015,118.068 132.015,112.353L132.015,106.913C132.015,101.198 136.655,96.559 142.369,96.559C148.084,96.559 152.723,101.198 152.723,106.913Z"/>
                <path id="Left-eye" serif:id="Left eye" d="M107.287,106.913L107.287,112.353C107.287,118.068 102.647,122.708 96.933,122.708C91.218,122.708 86.579,118.068 86.579,112.353L86.579,106.913C86.579,101.198 91.218,96.559 96.933,96.559C102.647,96.559 107.287,101.198 107.287,106.913Z"/>
            </g>
        </g>
    </g>
</svg>
