<?xml version="1.0" encoding="UTF-8" standalone="no"?>
<!DOCTYPE svg PUBLIC "-//W3C//DTD SVG 1.1//EN" "http://www.w3.org/Graphics/SVG/1.1/DTD/svg11.dtd">
<svg width="100%" height="100%" viewBox="0 0 256 256" version="1.1" xmlns="http://www.w3.org/2000/svg" xmlns:xlink="http://www.w3.org/1999/xlink" xml:space="preserve" xmlns:serif="http://www.serif.com/" style="fill-rule:evenodd;clip-rule:evenodd;stroke-linecap:round;stroke-linejoin:round;stroke-miterlimit:5;">
    <rect id="neofox_hug_dlr_heart" x="-0" y="0" width="256" height="256" style="fill:none;"/>
    <clipPath id="_clip1">
        <rect x="-0" y="0" width="256" height="256"/>
    </clipPath>
    <g clip-path="url(#_clip1)">
        <g id="Fox">
            <path id="Outline" d="M92.203,85.776L94.468,82.345L97.993,79.254L102.716,77.036L108.98,76.129L113.406,76.463L118.005,77.768C119.999,78.585 121.624,79.765 124.29,81.476C126.136,82.662 129.474,85.897 132.987,89.55C133.747,89.272 134.531,89.054 135.333,88.901C135.333,88.901 147.166,86.773 151.348,86.773C153.976,86.773 162.698,88.144 172.256,92.419C173.756,91.061 175.544,89.994 177.547,89.322C183.654,87.272 190.388,89.35 194.277,94.485L196.809,97.256C200.57,94.094 203.518,91.892 205.212,90.539C208.721,87.735 217.713,80.939 222.816,78.239L227.714,76.207L231.84,75.539L236.973,76.023L241.873,77.922L245.981,80.985L249.076,84.558C250.555,86.53 253.37,93.45 254.533,101.731C255.063,104.822 255.406,108.758 255.365,113.52C255.29,122.324 254.196,135.65 252.008,144.342C251.29,147.195 250.253,150.482 249.194,153.587C251.015,160.058 253.909,172.784 253.61,187.499C253.126,211.387 251.389,224.338 238.755,235.76C225.876,247.404 216.463,247.947 204.151,249.315C189.726,250.917 144.893,248.841 144.893,248.841C144.766,248.835 144.639,248.828 144.512,248.818C144.512,248.818 117.339,246.005 105.194,229.624C94.357,215.008 88.616,206.008 87.986,188.384C87.543,176.001 89.938,163.723 93.969,153.273C91.852,144.762 89.834,125.409 89.099,114.24C88.401,103.629 89.039,95.69 89.702,92.277L90.774,88.497L92.203,85.776ZM92.203,85.776L91.814,86.365C91.999,86.013 92.206,85.676 92.427,85.349L92.203,85.776ZM150.951,121.703C149.129,121.028 145.152,119.793 139.429,119.319C135.461,114.66 131.728,110.312 130.037,108.433C125.606,103.512 118.973,95.889 116.185,94.098C113.396,92.307 112.633,91.102 109.093,91.129C105.554,91.156 105.572,92.687 104.854,93.75C104.135,94.813 103.347,102.315 104.067,113.255C104.787,124.195 106.67,143.74 108.751,150.483C109.151,151.779 109.596,152.882 110.053,153.817C105.463,163.405 102.537,175.565 102.976,187.848C103.481,201.97 108.56,208.978 117.243,220.69C125.927,232.402 145.619,233.859 145.619,233.859C145.619,233.859 188.65,235.944 202.496,234.406C211.76,233.377 219.005,233.394 228.695,224.633C238.386,215.872 238.242,205.516 238.614,187.195C238.717,182.114 238.382,177.308 237.845,173.015C240.044,171.912 242.362,170.026 244.113,166.809C242.668,169.41 240.473,171.529 237.828,172.885C237.828,172.881 237.827,172.878 237.827,172.875C240.345,171.582 242.453,169.596 243.894,167.162C242.396,169.637 240.266,171.547 237.815,172.779C236.405,161.721 233.666,154.13 233.666,154.13L231.069,159.38C231.61,158.032 235.656,147.853 237.462,140.68C239.398,132.986 240.299,121.184 240.366,113.391C240.398,109.598 240.146,106.483 239.714,104.065C239.038,99.079 237.962,94.738 237.078,93.56C235.651,91.66 234.514,90.448 232.409,90.528C229.575,90.636 218.388,99.211 214.574,102.258C211.652,104.592 204.71,109.612 196.39,118.025C196.44,117.969 196.483,117.922 196.517,117.885C191.185,115.245 182.32,103.542 182.32,103.542C182.32,103.542 182.313,114.852 182.414,118.456C172.68,105.262 154.8,101.773 151.348,101.773C147.897,101.773 138.146,103.635 138.146,103.635C136.664,105.253 146.531,118.996 150.951,121.703C151.692,121.977 152.076,122.159 152.076,122.159C151.764,122.127 151.384,121.968 150.951,121.703ZM230.981,159.526L230.996,159.528L230.989,159.543L230.981,159.526ZM186.17,129.485C186.172,129.492 186.174,129.501 186.177,129.509L186.149,129.508L186.17,129.485Z"/>
            <g id="Left-ear" serif:id="Left ear">
                <path id="Outer" d="M231.009,159.529C231.009,159.529 235.525,148.374 237.462,140.68C239.398,132.986 240.299,121.184 240.366,113.391C240.433,105.598 238.504,95.461 237.078,93.56C235.651,91.66 234.514,90.448 232.409,90.528C229.575,90.636 218.388,99.211 214.574,102.258C210.511,105.503 198.673,113.943 186.168,129.477C187.256,133.671 215.016,157.899 231.009,159.529Z" style="fill:rgb(42,42,42);"/>
                <path id="Inner" d="M231.009,159.529C231.009,159.529 235.525,148.374 237.462,140.68C239.398,132.986 240.299,121.184 240.366,113.391C240.433,105.598 239.296,100.666 237.87,98.765C236.444,96.864 235.419,96.907 233.314,96.811C231.209,96.714 223.309,102.401 220.645,106.492C217.982,110.583 213.224,121.097 209.995,123.947C206.767,126.796 200.82,130.065 196.378,129.767C197.466,133.961 215.016,157.899 231.009,159.529Z" style="fill:rgb(235,220,204);"/>
            </g>
            <path id="Right-ear" serif:id="Right ear" d="M152.904,135.224C152.904,135.224 134.467,113.355 130.037,108.433C125.606,103.512 118.973,95.889 116.185,94.098C113.396,92.307 112.633,91.102 109.093,91.129C105.554,91.156 105.572,92.687 104.854,93.75C104.135,94.813 103.347,102.315 104.067,113.255C104.787,124.195 106.67,143.74 108.751,150.483C110.832,157.225 114.119,158.727 114.119,158.727L152.904,135.224Z" style="fill:rgb(42,42,42);"/>
            <path id="Body" d="M202.496,234.406C188.65,235.944 145.619,233.859 145.619,233.859C145.619,233.859 125.927,232.402 117.243,220.69C108.56,208.978 103.481,201.97 102.976,187.848C102.472,173.725 106.415,159.765 112.222,149.691C118.029,139.617 129.121,129.446 136.497,129.78C132.242,128.289 120.929,125.287 115.431,125.819C116.894,124.842 124.899,119.007 135.417,119.131C145.934,119.256 152.076,122.159 152.076,122.159C148.57,121.8 136.519,105.412 138.146,103.635C138.146,103.635 147.897,101.773 151.348,101.773C154.8,101.773 172.68,105.262 182.414,118.456C182.313,114.852 182.32,103.542 182.32,103.542C182.32,103.542 191.185,115.245 196.517,117.885C195.471,119.027 186.149,129.508 186.149,129.508L208.477,129.932L208.511,144.618L223.5,144.673L230.989,159.543L233.666,154.13C233.666,154.13 238.985,168.873 238.614,187.195C238.242,205.516 238.386,215.872 228.695,224.633C219.005,233.394 211.76,233.377 202.496,234.406Z" style="fill:rgb(247,150,91);"/>
            <g id="Face">
                <path id="Mouth" d="M186.349,197.002L171.363,212.346L156.092,197.071L144.926,212.347L137.058,197.136" style="fill:none;stroke:black;stroke-width:8px;"/>
                <path id="Nose" d="M148.449,180.256C148.449,183.389 150.992,185.933 154.125,185.933L158.282,185.933C161.415,185.933 163.958,183.389 163.958,180.256C163.958,177.124 161.415,174.58 158.282,174.58L154.125,174.58C150.992,174.58 148.449,177.124 148.449,180.256Z" style="fill:rgb(50,18,11);"/>
                <path id="Eye" d="M196.736,151.118L196.736,157.677C196.736,164.567 191.142,170.161 184.252,170.161C177.362,170.161 171.768,164.567 171.768,157.677L171.768,151.118C171.768,144.228 177.362,138.635 184.252,138.635C191.142,138.635 196.736,144.228 196.736,151.118Z"/>
            </g>
        </g>
        <g id="DLR">
            <g id="Body1" serif:id="Body">
                <g id="Outline1" serif:id="Outline">
                    <path d="M132.749,85.316L43.998,79.803C41.054,75.918 35.198,78.283 35.198,78.283L-1.812,88.482L-1.899,227.165C-1.899,227.165 23.146,236.425 34.22,239.73C45.294,243.034 46.503,231.406 46.503,231.406C46.503,231.406 46.674,228.645 46.936,224.136L106.165,220.184C112.098,222.399 136.318,231.385 148.252,234.935C161.912,239 161.476,224.329 161.476,224.329C161.476,224.329 161.385,189.485 160.929,183.132C160.473,176.778 159.628,164.128 159.115,157.225C158.602,150.321 154.177,121.317 154.177,121.317C154.177,121.317 150.291,98.477 147.134,89.994C143.977,81.511 138.034,83.949 138.034,83.949L132.749,85.316Z" style="fill:rgb(224,51,51);"/>
                    <path d="M48.946,65.081L131.3,70.197L134.278,69.427L132.339,70.072L139.821,68.625L144.111,69.031L148.971,70.637L152.963,73.09L156.44,76.435L159.178,80.396C159.889,81.656 160.573,83.099 161.192,84.762C164.625,93.987 168.964,118.801 168.964,118.801C168.979,118.885 168.992,118.97 169.005,119.054C169.005,119.054 173.545,148.989 174.074,156.113C174.588,163.027 175.434,175.695 175.891,182.058C176.337,188.286 176.465,221.211 176.475,224.044C176.491,224.77 176.504,227.861 175.662,231.521L173.594,237.476L169.604,243.389L165.223,247.068L160.226,249.449L154.729,250.562L149.247,250.434C147.63,250.233 145.874,249.878 143.974,249.312C133.27,246.127 112.898,238.678 103.954,235.365L60.111,238.291L59.745,239.777L57.189,244.834L53.92,248.849L48.987,252.532L44.51,254.391L39.607,255.262L34.675,255.115L29.931,254.103C18.578,250.716 -7.101,241.234 -7.101,241.234C-12.993,239.056 -16.903,233.437 -16.899,227.156L-16.812,88.472C-16.808,81.726 -12.301,75.813 -5.797,74.021L31.213,63.822L29.581,64.375L37.358,62.628L44.207,63.154L48.946,65.081ZM132.749,85.316L43.998,79.803C41.054,75.918 35.198,78.283 35.198,78.283L-1.812,88.482L-1.899,227.165C-1.899,227.165 23.146,236.425 34.22,239.73C45.294,243.034 46.503,231.406 46.503,231.406C46.503,231.406 46.674,228.645 46.936,224.136L106.165,220.184C112.098,222.399 136.318,231.385 148.252,234.935C161.912,239 161.476,224.329 161.476,224.329C161.476,224.329 161.385,189.485 160.929,183.132C160.473,176.778 159.628,164.128 159.115,157.225C158.602,150.321 154.177,121.317 154.177,121.317C154.177,121.317 150.291,98.477 147.134,89.994C143.977,81.511 138.034,83.949 138.034,83.949L132.749,85.316Z"/>
                </g>
                <path id="Left-panel" serif:id="Left panel" d="M132.377,85.412L138.034,83.949C138.034,83.949 143.977,81.511 147.134,89.994C150.291,98.477 154.177,121.317 154.177,121.317C154.177,121.317 158.602,150.321 159.115,157.225C159.628,164.128 160.473,176.778 160.929,183.132C161.385,189.485 161.476,224.329 161.476,224.329C161.476,224.329 161.912,239 148.252,234.935C134.591,230.871 104.831,219.685 104.831,219.685L115.876,84.251L132.377,85.412Z" style="fill:rgb(224,51,51);"/>
                <path id="Front" d="M43.953,79.8L137.852,85.633C137.852,85.633 141.441,85.803 142.488,89.681C143.534,93.558 150.014,133.313 151.974,144.111C156.733,170.321 155.584,216.887 155.584,216.887L46.226,224.184L43.953,79.8Z" style="fill:rgb(52,49,40);"/>
                <path id="Right-panel" serif:id="Right panel" d="M-1.899,88.492L-1.899,227.165C-1.899,227.165 23.146,236.425 34.22,239.73C45.294,243.034 46.503,231.406 46.503,231.406C46.503,231.406 49.775,178.561 49.598,157.665C49.422,136.769 47.379,102.44 47.379,102.44C47.379,102.44 46.847,92.555 45.467,83.624C44.087,74.693 35.198,78.283 35.198,78.283L-1.899,88.492Z" style="fill:rgb(224,51,51);"/>
            </g>
            <path id="Left-window" serif:id="Left window" d="M142.823,108.544C142.823,108.544 150.905,144.834 151.583,171.842C148.028,172.011 128.983,172.087 128.983,172.087C128.983,172.087 128.021,146.199 121.666,107.856C123.619,107.612 142.823,108.544 142.823,108.544Z" style="fill:rgb(167,227,244);"/>
            <path id="Middle-window" serif:id="Middle window" d="M110.752,107.232C110.752,107.232 116.461,146.081 117.138,173.09C113.584,173.259 93.338,173.347 93.338,173.347C93.338,173.347 92.759,144.708 87.938,106.236C89.892,105.991 110.752,107.232 110.752,107.232Z" style="fill:rgb(167,227,244);"/>
            <path id="Right-window" serif:id="Right window" d="M76.228,105.413C76.228,105.413 80.696,146.856 81.373,173.864C77.819,174.033 54.484,174.267 54.484,174.267C54.484,174.267 53.693,142.106 51.134,104.735C53.088,104.491 76.228,105.413 76.228,105.413Z" style="fill:rgb(167,227,244);"/>
            <path id="Mouth1" serif:id="Mouth" d="M127.195,185.402L119.565,198.23L109.283,185.424L96.546,198.195L81.373,185.439" style="fill:none;stroke:rgb(5,172,168);stroke-width:6.65px;stroke-miterlimit:1.5;"/>
            <path id="Right-eye" serif:id="Right eye" d="M131.979,157.508C133.33,161.462 136.607,162.712 139.092,162.734C141.886,162.759 144.893,161.906 146.799,157.166" style="fill:none;stroke:black;stroke-width:7px;stroke-miterlimit:1.5;"/>
            <path id="Left-eye" serif:id="Left eye" d="M59.331,158.053C60.84,162.471 64.501,163.867 67.277,163.892C70.399,163.92 73.758,162.966 75.887,157.671" style="fill:none;stroke:black;stroke-width:7px;stroke-miterlimit:1.5;"/>
        </g>
        <path id="Fox-arm" serif:id="Fox arm" d="M195.275,227.468L161.081,227.468C152.981,227.468 146.406,220.892 146.406,212.793C146.406,204.694 152.981,198.119 161.081,198.119L195.275,198.119" style="fill:rgb(247,150,91);stroke:black;stroke-width:10px;stroke-miterlimit:1.5;"/>
        <path id="Heart" d="M100.241,70.661L90.15,60.571C80.47,50.89 80.47,35.171 90.15,25.491C99.831,15.81 115.55,15.81 125.231,25.491L128,28.26L130.769,25.491C140.45,15.81 156.169,15.81 165.85,25.491C175.53,35.171 175.53,50.89 165.85,60.571L155.759,70.661C155.367,71.211 154.923,71.736 154.43,72.23L136.889,89.77C134.439,92.221 131.215,93.43 128,93.4C124.785,93.43 121.561,92.221 119.111,89.77L101.57,72.23C101.077,71.736 100.633,71.211 100.241,70.661Z" style="fill:rgb(239,124,148);stroke:black;stroke-width:15px;stroke-linejoin:miter;"/>
    </g>
</svg>
