<?xml version="1.0" encoding="UTF-8" standalone="no"?>
<!DOCTYPE svg PUBLIC "-//W3C//DTD SVG 1.1//EN" "http://www.w3.org/Graphics/SVG/1.1/DTD/svg11.dtd">
<svg width="100%" height="100%" viewBox="0 0 256 256" version="1.1" xmlns="http://www.w3.org/2000/svg" xmlns:xlink="http://www.w3.org/1999/xlink" xml:space="preserve" xmlns:serif="http://www.serif.com/" style="fill-rule:evenodd;clip-rule:evenodd;stroke-linecap:round;stroke-linejoin:round;stroke-miterlimit:1.5;">
    <rect id="neofinder" x="0" y="0" width="256" height="256" style="fill:none;"/>
    <g id="neofinder1" serif:id="neofinder">
        <path id="Blue-side" serif:id="Blue side" d="M230.493,43.752L230.493,211.804C230.493,218.409 225.131,223.772 218.525,223.772L37.475,223.772C30.869,223.772 25.507,218.409 25.507,211.804L25.507,43.752C25.507,37.146 30.869,31.783 37.475,31.783L218.525,31.783C225.131,31.783 230.493,37.146 230.493,43.752Z" style="fill:url(#_Linear1);"/>
        <path d="M245.493,43.752L245.493,211.804L244.945,217.225L243.366,222.307L240.876,226.893L237.593,230.872L233.614,234.155L229.029,236.645L223.946,238.224L218.525,238.772L37.475,238.772L32.054,238.224L26.971,236.645L22.386,234.155L18.407,230.872L15.124,226.893L12.634,222.307L11.055,217.225L10.507,211.804L10.507,43.752L11.055,38.331L12.634,33.248L15.124,28.663L18.407,24.684L22.386,21.401L26.971,18.911L32.054,17.332L37.475,16.783L218.525,16.783L223.946,17.332L229.029,18.911L233.614,21.401L237.593,24.684L240.876,28.663L243.366,33.248L244.945,38.331L245.493,43.752ZM230.493,43.752C230.493,37.146 225.131,31.783 218.525,31.783L37.475,31.783C30.869,31.783 25.507,37.146 25.507,43.752L25.507,211.804C25.507,218.409 30.869,223.772 37.475,223.772L218.525,223.772C225.131,223.772 230.493,218.409 230.493,211.804L230.493,43.752Z"/>
        <path id="Grey-side" serif:id="Grey side" d="M219.14,223.772L149.37,223.758C149.37,223.758 147.246,214.109 146.376,206.218C145.506,198.326 143.332,188.098 142.673,172.701C142.014,157.307 141.901,146.764 141.901,146.764C141.901,146.764 142.297,141.986 136.566,141.984C130.834,141.982 115.37,142.035 115.37,142.035C115.37,142.035 110.484,142.572 111.025,135.954C111.556,129.469 112.474,107.403 114.95,93.355C115.986,85.864 123.766,44.576 132.368,31.783L218.497,31.783C225.118,31.783 230.493,37.159 230.493,43.78L230.493,212.22C230.493,218.841 226.278,223.747 219.14,223.772Z" style="fill:url(#_Linear2);"/>
        <g id="Face">
            <path id="Mouth" d="M68.374,160.461L95.332,193.355L128,160.519L156.622,193.263L185.862,160.557" style="fill:none;stroke:black;stroke-width:15px;"/>
            <g id="Eyes">
                <path id="Right-eye" serif:id="Right eye" d="M185.862,88.114L185.862,96.06C185.862,104.407 179.086,111.184 170.738,111.184C162.391,111.184 155.614,104.407 155.614,96.06L155.614,88.114C155.614,79.766 162.391,72.99 170.738,72.99C179.086,72.99 185.862,79.766 185.862,88.114Z"/>
                <path id="Left-eye" serif:id="Left eye" d="M97.225,88.114L97.225,96.06C97.225,104.407 90.448,111.184 82.101,111.184C73.754,111.184 66.977,104.407 66.977,96.06L66.977,88.114C66.977,79.766 73.754,72.99 82.101,72.99C90.448,72.99 97.225,79.766 97.225,88.114Z"/>
            </g>
        </g>
    </g>
    <defs>
        <linearGradient id="_Linear1" x1="0" y1="0" x2="1" y2="0" gradientUnits="userSpaceOnUse" gradientTransform="matrix(1.17831e-14,191.989,-192.433,1.17559e-14,128,31.7834)"><stop offset="0" style="stop-color:rgb(25,212,252);stop-opacity:1"/><stop offset="1" style="stop-color:rgb(32,114,238);stop-opacity:1"/></linearGradient>
        <linearGradient id="_Linear2" x1="0" y1="0" x2="1" y2="0" gradientUnits="userSpaceOnUse" gradientTransform="matrix(1.17831e-14,192.433,-192.433,1.17831e-14,128,31.7834)"><stop offset="0" style="stop-color:rgb(247,247,247);stop-opacity:1"/><stop offset="1" style="stop-color:rgb(212,224,236);stop-opacity:1"/></linearGradient>
    </defs>
</svg>
