<?xml version="1.0" encoding="UTF-8" standalone="no"?>
<!DOCTYPE svg PUBLIC "-//W3C//DTD SVG 1.1//EN" "http://www.w3.org/Graphics/SVG/1.1/DTD/svg11.dtd">
<svg width="100%" height="100%" viewBox="0 0 256 256" version="1.1" xmlns="http://www.w3.org/2000/svg" xmlns:xlink="http://www.w3.org/1999/xlink" xml:space="preserve" xmlns:serif="http://www.serif.com/" style="fill-rule:evenodd;clip-rule:evenodd;stroke-linecap:round;stroke-linejoin:round;stroke-miterlimit:1.5;">
    <rect id="neofinder_woozy" x="0" y="0" width="256" height="256" style="fill:none;"/>
    <path id="Blue-side" serif:id="Blue side" d="M230.493,43.752L230.493,211.804C230.493,218.409 225.131,223.772 218.525,223.772L37.475,223.772C30.869,223.772 25.507,218.409 25.507,211.804L25.507,43.752C25.507,37.146 30.869,31.783 37.475,31.783L218.525,31.783C225.131,31.783 230.493,37.146 230.493,43.752Z" style="fill:url(#_Linear1);"/>
    <path d="M245.493,43.752L245.493,211.804L244.945,217.225L243.366,222.307L240.876,226.893L237.593,230.872L233.614,234.155L229.029,236.645L223.946,238.224L218.525,238.772L37.475,238.772L32.054,238.224L26.971,236.645L22.386,234.155L18.407,230.872L15.124,226.893L12.634,222.307L11.055,217.225L10.507,211.804L10.507,43.752L11.055,38.331L12.634,33.248L15.124,28.663L18.407,24.684L22.386,21.401L26.971,18.911L32.054,17.332L37.475,16.783L218.525,16.783L223.946,17.332L229.029,18.911L233.614,21.401L237.593,24.684L240.876,28.663L243.366,33.248L244.945,38.331L245.493,43.752ZM230.493,43.752C230.493,37.146 225.131,31.783 218.525,31.783L37.475,31.783C30.869,31.783 25.507,37.146 25.507,43.752L25.507,211.804C25.507,218.409 30.869,223.772 37.475,223.772L218.525,223.772C225.131,223.772 230.493,218.409 230.493,211.804L230.493,43.752Z"/>
    <path id="Grey-side" serif:id="Grey side" d="M219.14,223.772L149.37,223.758C149.37,223.758 147.246,214.109 146.376,206.218C145.506,198.326 143.332,188.098 142.673,172.701C142.014,157.307 141.901,146.764 141.901,146.764C141.901,146.764 142.297,141.986 136.566,141.984C130.834,141.982 115.37,142.035 115.37,142.035C115.37,142.035 110.484,142.572 111.025,135.954C111.556,129.469 112.474,107.403 114.95,93.355C115.986,85.864 123.766,44.576 132.368,31.783L218.497,31.783C225.118,31.783 230.493,37.159 230.493,43.78L230.493,212.22C230.493,218.841 226.278,223.747 219.14,223.772Z" style="fill:url(#_Linear2);"/>
    <g id="Face">
        <path id="Mouth" d="M66.977,159.719C69.202,171.08 74.471,186.423 85.482,186.539C97.632,186.668 105.379,165.3 117.529,165.348C131.603,165.402 138.861,194.792 156.179,194.085C175.474,193.296 180.248,176.231 185.862,159.773" style="fill:none;stroke:black;stroke-width:15px;"/>
        <g id="Eyes">
            <path id="Right-eye" serif:id="Right eye" d="M189.608,99.823C187.883,108.567 180.166,115.17 170.918,115.17C160.405,115.17 151.869,106.634 151.869,96.12L151.869,87.957C151.869,86.6 152.011,85.276 152.281,83.999L189.608,99.823Z"/>
            <path id="Left-eye" serif:id="Left eye" d="M99.546,78.977C100.796,81.541 101.497,84.42 101.497,87.462L101.497,95.773C101.497,106.479 92.806,115.17 82.101,115.17C71.396,115.17 62.705,106.479 62.705,95.773L62.705,88.849L99.546,78.977Z"/>
        </g>
        <g id="Eyebrows">
            <path id="Right-eyebrow" serif:id="Right eyebrow" d="M189.608,60.789C189.608,60.789 174.49,66.748 158.39,50.234" style="fill:none;stroke:black;stroke-width:10px;"/>
            <path id="Left-eyebrow" serif:id="Left eyebrow" d="M66.977,64.758C66.977,64.758 73.501,49.875 96.561,50.241" style="fill:none;stroke:black;stroke-width:10px;"/>
        </g>
    </g>
    <defs>
        <linearGradient id="_Linear1" x1="0" y1="0" x2="1" y2="0" gradientUnits="userSpaceOnUse" gradientTransform="matrix(1.17831e-14,191.989,-192.433,1.17559e-14,128,31.7834)"><stop offset="0" style="stop-color:rgb(25,212,252);stop-opacity:1"/><stop offset="1" style="stop-color:rgb(32,114,238);stop-opacity:1"/></linearGradient>
        <linearGradient id="_Linear2" x1="0" y1="0" x2="1" y2="0" gradientUnits="userSpaceOnUse" gradientTransform="matrix(1.17831e-14,192.433,-192.433,1.17831e-14,128,31.7834)"><stop offset="0" style="stop-color:rgb(247,247,247);stop-opacity:1"/><stop offset="1" style="stop-color:rgb(212,224,236);stop-opacity:1"/></linearGradient>
    </defs>
</svg>
