<?xml version="1.0" encoding="UTF-8" standalone="no"?>
<!DOCTYPE svg PUBLIC "-//W3C//DTD SVG 1.1//EN" "http://www.w3.org/Graphics/SVG/1.1/DTD/svg11.dtd">
<svg width="100%" height="100%" viewBox="0 0 256 256" version="1.1" xmlns="http://www.w3.org/2000/svg" xmlns:xlink="http://www.w3.org/1999/xlink" xml:space="preserve" xmlns:serif="http://www.serif.com/" style="fill-rule:evenodd;clip-rule:evenodd;stroke-linecap:round;stroke-linejoin:round;stroke-miterlimit:1.5;">
    <rect id="fox_plead_collar" x="0" y="0" width="256" height="256" style="fill:none;"/>
    <g id="fox_plead_collar1" serif:id="fox_plead_collar">
        <path id="Collar" d="M39.273,210.284C39.273,201.908 78.896,195.109 127.699,195.109C176.503,195.109 216.125,201.908 216.125,210.284L216.125,234.006C216.125,242.381 176.503,249.181 127.699,249.181C78.896,249.181 39.273,242.381 39.273,234.006L39.273,210.284ZM208.425,210.284C208.425,202.638 172.253,196.43 127.699,196.43C83.145,196.43 46.973,202.638 46.973,210.284C46.973,217.93 83.145,224.138 127.699,224.138C172.253,224.138 208.425,217.93 208.425,210.284Z" style="fill:rgb(249,7,3);"/>
        <ellipse id="Collar-shadow" serif:id="Collar shadow" cx="127.699" cy="211.257" rx="84.7" ry="13.315" style="fill:rgb(156,13,0);"/>
        <path id="Neck" d="M46.917,211.257L46.917,167.895L208.102,167.895L208.102,211.257C208.102,217.266 171.99,222.145 127.51,222.145C83.029,222.145 46.917,217.266 46.917,211.257Z" style="fill:rgb(226,128,1);"/>
        <g id="Collar-accessories" serif:id="Collar accessories">
            <path id="Buckle" d="M151.449,229.75L151.449,241.639C151.449,244.92 148.786,247.583 145.505,247.583L125.956,247.583C122.676,247.583 120.012,244.92 120.012,241.639L120.012,229.75C120.012,226.469 122.676,223.806 125.956,223.806L145.505,223.806C148.786,223.806 151.449,226.469 151.449,229.75Z" style="fill:none;stroke:rgb(167,145,136);stroke-width:4.5px;"/>
            <path id="Buckle-pin" serif:id="Buckle pin" d="M153.395,235.658C153.395,236.985 152.317,238.062 150.99,238.062L138.135,238.062C136.808,238.062 135.731,236.985 135.731,235.658C135.731,234.331 136.808,233.254 138.135,233.254L150.99,233.254C152.317,233.254 153.395,234.331 153.395,235.658Z" style="fill:rgb(167,145,136);"/>
            <path id="Ring" d="M101.683,248C96.006,248 91.422,242.471 91.422,235.01C91.422,227.549 96.031,221.492 101.708,221.492" style="fill:none;stroke:rgb(167,145,136);stroke-width:4.5px;"/>
            <circle id="Right-hole" serif:id="Right hole" cx="202.379" cy="229.736" r="4.535" style="fill:rgb(156,13,0);"/>
            <circle id="Middle-hole" serif:id="Middle hole" cx="185.564" cy="233.527" r="4.535" style="fill:rgb(156,13,0);"/>
            <circle id="Left-hole" serif:id="Left hole" cx="166.721" cy="235.695" r="4.535" style="fill:rgb(156,13,0);"/>
            <path id="Retaining-loop" serif:id="Retaining loop" d="M83.744,221.909L83.744,248L76.529,247.055L76.529,220.964L83.744,221.909Z" style="fill:rgb(156,13,0);"/>
        </g>
        <g id="Fops">
            <g id="Left-ear" serif:id="Left ear">
                <path d="M95.523,62.012C100.207,80.795 96.776,96.738 78,101.414C59.21,106.09 33.794,136.673 15.495,91.179C4.883,64.823 -4.383,9.571 6.15,6.945C16.684,4.325 90.847,43.229 95.523,62.012Z" style="fill:rgb(244,144,12);fill-rule:nonzero;"/>
                <path d="M81.331,65.948C88.164,76.894 68.299,98.41 57.36,105.25C46.413,112.09 36.727,101.321 25.944,73.834C21.232,61.813 14.086,29.208 18.093,26.703C22.093,24.204 74.491,55.001 81.331,65.948Z" style="fill:rgb(160,4,30);fill-rule:nonzero;"/>
            </g>
            <g id="Right-ear" serif:id="Right ear">
                <path id="Outer" d="M160.476,62.012C155.8,80.795 159.217,96.738 178.007,101.414C196.796,106.09 222.206,136.673 240.511,91.179C251.116,64.823 260.383,9.571 249.849,6.945C239.316,4.325 165.16,43.229 160.476,62.012Z" style="fill:rgb(244,144,12);fill-rule:nonzero;"/>
                <path id="Inner" d="M174.676,65.948C167.843,76.894 187.708,98.41 198.647,105.25C209.586,112.09 219.273,101.321 230.056,73.834C234.768,61.82 241.914,29.215 237.914,26.71C233.906,24.204 181.515,55.001 174.676,65.948Z" style="fill:rgb(160,4,30);fill-rule:nonzero;"/>
            </g>
            <path id="Left-fluff" serif:id="Left fluff" d="M128.05,58.119C80.918,42.411 46.406,72.168 18.093,128.816L33.801,128.816C33.801,128.816 18.093,144.517 10.236,168.082C25.944,160.225 33.801,160.225 33.801,160.225C33.801,160.225 25.944,175.94 25.944,183.797C49.509,168.082 73.068,168.082 88.776,191.648C104.484,215.213 128.05,191.648 128.05,160.232L128.05,58.119Z" style="fill:rgb(244,144,12);fill-rule:nonzero;"/>
            <path id="Right-fluff" serif:id="Right fluff" d="M128.05,58.119C175.174,42.411 209.693,72.168 237.999,128.808L222.298,128.808C222.298,128.808 237.999,144.509 245.849,168.075C230.149,160.217 222.298,160.217 222.298,160.217C222.298,160.217 230.149,175.933 230.149,183.79C206.583,168.075 183.024,168.075 167.316,191.641C151.601,215.206 128.043,191.641 128.043,160.225L128.05,58.119Z" style="fill:rgb(244,144,12);fill-rule:nonzero;"/>
            <path id="Snout" d="M128.05,51.25L128.028,51.25C47.36,51.257 59.666,82.346 68.314,134.04C76.954,185.755 87.175,222.445 128.05,222.445C168.911,222.445 179.117,185.755 187.772,134.04C196.405,82.339 208.704,51.257 128.05,51.25Z" style="fill:rgb(244,144,12);fill-rule:nonzero;"/>
            <path id="Snout-fluff" serif:id="Snout fluff" d="M246.967,177.598C246.369,136.972 180.768,150.943 175.174,156.445C167.316,164.16 167.288,211.285 128.035,211.285C88.776,211.285 80.918,164.16 73.068,156.445C67.467,150.943 7.346,146.46 8.827,177.598C24.535,169.74 33.794,172.018 33.794,172.018C33.794,172.018 23.652,177.897 25.14,191.833C47.972,181.456 58.648,182.936 71.104,189.164C79.737,214.95 101.039,234.238 128.05,234.238C155.046,234.238 176.064,214.352 184.69,188.573C195.067,179.676 211.081,182.345 230.355,191.534C232.433,178.488 222.298,172.018 222.298,172.018C222.298,172.018 231.266,169.74 246.967,177.598Z" style="fill:rgb(241,143,38);fill-rule:nonzero;"/>
            <path id="Snout-highlight" serif:id="Snout highlight" d="M245.857,168.075C239.422,148.73 180.768,139.15 175.174,144.652C167.316,152.367 167.288,199.491 128.035,199.491C88.776,199.491 80.918,152.367 73.068,144.652C67.467,139.15 16.684,148.73 10.236,168.075C25.944,160.217 33.801,160.217 33.801,160.217C33.801,160.217 25.944,175.933 25.944,183.79C44.947,171.121 63.943,168.687 78.819,180.573C87.452,206.359 101.039,222.445 128.05,222.445C155.046,222.445 168.619,206.367 177.245,180.587C192.135,168.68 211.145,171.121 230.156,183.79C230.156,175.933 222.305,160.217 222.305,160.217C222.305,160.217 230.156,160.225 245.857,168.075Z" style="fill:rgb(255,217,131);fill-rule:nonzero;"/>
            <path id="Nose" d="M106.256,190.167C98.989,191.648 120.783,218.409 128.05,218.409C135.309,218.409 157.103,191.648 149.843,190.167C142.576,188.687 113.523,188.687 106.256,190.167Z" style="fill:rgb(39,43,43);"/>
            <g id="Eyes">
                <g id="Right-eye" serif:id="Right eye">
                    <ellipse id="Eye-white" serif:id="Eye white" cx="162.742" cy="114.735" rx="23.518" ry="27.022" style="fill:white;"/>
                    <circle id="Pupil" cx="162.742" cy="105.579" r="17.867"/>
                    <path id="Eye-reflection-top" serif:id="Eye reflection top" d="M153.092,96.07C156.621,92.541 161.702,91.892 164.432,94.622C167.161,97.352 166.512,102.433 162.983,105.962C159.455,109.491 154.373,110.14 151.644,107.41C148.914,104.68 149.563,99.599 153.092,96.07Z" style="fill:white;"/>
                    <path id="Eye-reflection-bottom" serif:id="Eye reflection bottom" d="M171.437,109.883C171.437,109.883 170.387,113.507 166.67,114.3" style="fill:none;stroke:rgb(151,151,151);stroke-width:8px;"/>
                </g>
                <g id="Left-eye" serif:id="Left eye">
                    <ellipse id="Eye-white1" serif:id="Eye white" cx="93.038" cy="114.735" rx="23.518" ry="27.022" style="fill:white;"/>
                    <circle id="Pupil1" serif:id="Pupil" cx="93.038" cy="105.579" r="17.867"/>
                    <path id="Eye-reflection-top1" serif:id="Eye reflection top" d="M83.388,96.07C86.916,92.541 91.998,91.892 94.727,94.622C97.457,97.352 96.808,102.433 93.279,105.962C89.75,109.491 84.669,110.14 81.939,107.41C79.21,104.68 79.859,99.599 83.388,96.07Z" style="fill:white;"/>
                    <path id="Eye-reflection-bottom1" serif:id="Eye reflection bottom" d="M101.733,109.883C101.733,109.883 100.683,113.507 96.966,114.3" style="fill:none;stroke:rgb(151,151,151);stroke-width:8px;"/>
                </g>
            </g>
        </g>
    </g>
</svg>
