<?xml version="1.0" encoding="UTF-8" standalone="no"?>
<!DOCTYPE svg PUBLIC "-//W3C//DTD SVG 1.1//EN" "http://www.w3.org/Graphics/SVG/1.1/DTD/svg11.dtd">
<svg width="100%" height="100%" viewBox="0 0 256 256" version="1.1" xmlns="http://www.w3.org/2000/svg" xmlns:xlink="http://www.w3.org/1999/xlink" xml:space="preserve" xmlns:serif="http://www.serif.com/" style="fill-rule:evenodd;clip-rule:evenodd;stroke-linecap:round;stroke-linejoin:round;stroke-miterlimit:1.5;">
    <rect id="neocat_hug_bread_heart" x="-0" y="0" width="256" height="256" style="fill:none;"/>
    <clipPath id="_clip1">
        <rect x="-0" y="0" width="256" height="256"/>
    </clipPath>
    <g clip-path="url(#_clip1)">
        <g id="Cat">
            <path d="M195.23,110.069C195.23,110.069 182.085,104.101 168.315,104.399C154.546,104.697 141.833,109.146 141.833,109.146C138.25,107.882 110.458,96.237 110.458,96.237C110.458,96.237 99.742,93.811 99.562,104.586C99.383,115.362 99.62,148.121 99.62,148.121C99.62,148.121 89.672,166.491 90.624,184.582C91.576,202.674 102.61,217.906 108.071,222.953C113.533,228 129.612,235.099 138.988,234.971C148.363,234.842 203.432,235.321 203.432,235.321C203.432,235.321 220.002,234.879 230.533,221.369C241.064,207.86 239.018,201.854 239.018,197.756C239.018,193.657 239.091,169.975 239.091,169.975C239.091,169.975 237.801,157.69 235.989,153.81C234.177,149.931 232.105,145.517 232.105,145.517L238.133,107.83C238.133,107.83 240.355,101.502 236.54,98.191C232.726,94.881 226.486,96.926 226.486,96.926L195.23,110.069Z" style="fill:rgb(255,201,92);"/>
            <path d="M194.893,93.939L220.671,83.099C221.046,82.941 221.428,82.799 221.814,82.672L229.117,81.347L235.2,81.67L241.776,83.797L246.373,86.864L251.04,92.66L253.22,98.529L253.744,105.108L252.286,112.799L252.945,110.2C252.945,110.2 247.646,143.328 247.645,143.327C248.253,144.624 248.933,146.077 249.58,147.462C251.936,152.508 254.009,168.408 254.009,168.408C254.066,168.944 254.093,169.483 254.091,170.022C254.091,170.022 254.018,193.664 254.018,197.756C254.018,203.447 256.987,211.832 242.363,230.591C227.408,249.776 203.832,250.316 203.832,250.316C203.655,250.32 203.478,250.322 203.301,250.32C203.301,250.32 148.52,249.842 139.193,249.969C126.673,250.141 105.184,240.708 97.891,233.969C90.966,227.57 76.852,208.311 75.645,185.371C74.775,168.838 81.299,152.092 84.598,144.784C84.543,136.038 84.419,113.053 84.565,104.336L85.021,99.654L86.353,95.012L88.658,90.676L91.789,87.039L96.782,83.568L101.539,81.792L106.996,81.021L113.771,81.608C114.621,81.8 115.452,82.066 116.255,82.403C116.255,82.403 133.856,89.791 142.506,93.3C148.308,91.736 157.908,89.621 167.991,89.402C178.421,89.177 188.564,91.832 194.893,93.939ZM195.23,110.069C195.23,110.069 182.085,104.101 168.315,104.399C154.546,104.697 141.833,109.146 141.833,109.146C138.25,107.882 110.458,96.237 110.458,96.237C110.458,96.237 99.742,93.811 99.562,104.586C99.383,115.362 99.62,148.121 99.62,148.121C99.62,148.121 89.672,166.491 90.624,184.582C91.576,202.674 102.61,217.906 108.071,222.953C113.533,228 129.612,235.099 138.988,234.971C148.363,234.842 203.432,235.321 203.432,235.321C203.432,235.321 220.002,234.879 230.533,221.369C241.064,207.86 239.018,201.854 239.018,197.756C239.018,193.657 239.091,169.975 239.091,169.975C239.091,169.975 237.801,157.69 235.989,153.81C234.177,149.931 232.105,145.517 232.105,145.517L238.133,107.83C238.133,107.83 240.355,101.502 236.54,98.191C232.726,94.881 226.486,96.926 226.486,96.926L195.23,110.069Z"/>
            <g id="Face">
                <g id="Whiskers">
                    <path d="M205.864,188.545C207.164,191.063 210.265,192.051 212.783,190.75L229.266,182.235C231.784,180.934 232.772,177.834 231.472,175.316C230.171,172.798 227.071,171.809 224.553,173.11L208.069,181.626C205.551,182.926 204.563,186.027 205.864,188.545Z" style="fill:rgb(142,94,49);"/>
                    <path d="M116.486,190.753C115.185,193.271 112.085,194.259 109.567,192.958L95.793,185.843C93.275,184.542 92.287,181.442 93.587,178.924C94.888,176.406 97.989,175.417 100.506,176.718L114.28,183.834C116.798,185.135 117.787,188.235 116.486,190.753Z" style="fill:rgb(142,94,49);"/>
                    <path d="M205.798,199.742C204.423,202.22 205.318,205.348 207.797,206.723L224.02,215.725C226.498,217.1 229.627,216.204 231.002,213.726C232.377,211.248 231.481,208.119 229.003,206.744L212.779,197.743C210.301,196.368 207.173,197.263 205.798,199.742Z" style="fill:rgb(142,94,49);"/>
                    <path d="M116.551,201.95C117.926,204.428 117.031,207.556 114.553,208.931L106.852,213.204C104.373,214.579 101.245,213.684 99.87,211.205C98.495,208.727 99.391,205.599 101.869,204.224L109.57,199.951C112.048,198.576 115.176,199.472 116.551,201.95Z" style="fill:rgb(142,94,49);"/>
                </g>
                <path id="Eye" d="M200.503,148.844L200.503,155.403C200.503,162.293 194.909,167.886 188.019,167.886C181.129,167.886 175.535,162.293 175.535,155.403L175.535,148.844C175.535,141.954 181.129,136.36 188.019,136.36C194.909,136.36 200.503,141.954 200.503,148.844Z"/>
            </g>
        </g>
        <g id="Bread">
            <path id="Crust" d="M46.138,103.808C25.406,103.808 8.574,120.64 8.574,141.371C8.574,150.185 11.616,158.293 16.706,164.703L16.706,222.923C16.706,233.774 25.516,242.584 36.367,242.584L144.929,242.584C155.78,242.584 164.59,233.774 164.59,222.923L164.59,164.479C169.574,158.105 172.546,150.082 172.546,141.371C172.546,120.64 155.715,103.808 134.982,103.808L46.138,103.808Z" style="fill:rgb(209,160,132);stroke:black;stroke-width:15px;"/>
            <rect id="Shadow" x="25.282" y="162.875" width="69.168" height="10.464" style="fill:rgb(186,133,109);"/>
            <path id="Slice" d="M147.386,163.267C153.078,158.733 156.728,151.743 156.728,143.907C156.728,130.251 145.641,119.165 131.986,119.165L86.637,119.165C72.981,119.165 61.895,130.251 61.895,143.907C61.895,151.479 65.304,158.262 70.67,162.802L70.67,217.812C70.67,223.154 75.007,227.491 80.35,227.491L137.706,227.491C143.049,227.491 147.386,223.154 147.386,217.812L147.386,163.267Z" style="fill:rgb(252,233,186);"/>
            <g id="Face1" serif:id="Face">
                <path id="Mouth" d="M133.383,192.219L125.989,204.651L116.025,192.24L103.681,204.616L88.978,192.255" style="fill:none;stroke:black;stroke-width:6.86px;"/>
                <g id="Eyes">
                    <path id="Right-eye" serif:id="Right eye" d="M122.337,163.275C123.846,167.692 127.507,169.088 130.283,169.113C133.405,169.141 136.763,168.188 138.893,162.892" style="fill:none;stroke:black;stroke-width:7px;"/>
                    <path id="Left-eye" serif:id="Left eye" d="M86.055,163.275C87.564,167.692 91.225,169.088 94.001,169.113C97.122,169.141 100.481,168.188 102.611,162.892" style="fill:none;stroke:black;stroke-width:7px;"/>
                </g>
            </g>
        </g>
        <path id="Cat-arm" serif:id="Cat arm" d="M195.275,227.468L161.081,227.468C152.981,227.468 146.406,220.892 146.406,212.793C146.406,204.694 152.981,198.119 161.081,198.119L195.275,198.119" style="fill:rgb(255,201,92);stroke:black;stroke-width:10px;"/>
        <path id="Heart" d="M100.241,70.661L90.15,60.571C80.47,50.89 80.47,35.171 90.15,25.491C99.831,15.81 115.55,15.81 125.231,25.491L128,28.26L130.769,25.491C140.45,15.81 156.169,15.81 165.85,25.491C175.53,35.171 175.53,50.89 165.85,60.571L155.759,70.661C155.367,71.211 154.923,71.736 154.43,72.23L136.889,89.77C134.439,92.221 131.215,93.43 128,93.4C124.785,93.43 121.561,92.221 119.111,89.77L101.57,72.23C101.077,71.736 100.633,71.211 100.241,70.661Z" style="fill:rgb(239,124,148);stroke:black;stroke-width:15px;stroke-linejoin:miter;stroke-miterlimit:5;"/>
    </g>
</svg>
