<?xml version="1.0" encoding="UTF-8" standalone="no"?>
<!DOCTYPE svg PUBLIC "-//W3C//DTD SVG 1.1//EN" "http://www.w3.org/Graphics/SVG/1.1/DTD/svg11.dtd">
<svg width="100%" height="100%" viewBox="0 0 256 256" version="1.1" xmlns="http://www.w3.org/2000/svg" xmlns:xlink="http://www.w3.org/1999/xlink" xml:space="preserve" xmlns:serif="http://www.serif.com/" style="fill-rule:evenodd;clip-rule:evenodd;stroke-linecap:round;stroke-linejoin:round;stroke-miterlimit:1.5;">
    <rect id="neocat_hug_dlr_heart" x="-0" y="0" width="256" height="256" style="fill:none;"/>
    <clipPath id="_clip1">
        <rect x="-0" y="0" width="256" height="256"/>
    </clipPath>
    <g clip-path="url(#_clip1)">
        <g id="Cat">
            <path d="M195.23,110.069C195.23,110.069 182.085,104.101 168.315,104.399C154.546,104.697 141.833,109.146 141.833,109.146C138.25,107.882 110.458,96.237 110.458,96.237C110.458,96.237 99.742,93.811 99.562,104.586C99.383,115.362 99.62,148.121 99.62,148.121C99.62,148.121 89.672,166.491 90.624,184.582C91.576,202.674 102.61,217.906 108.071,222.953C113.533,228 129.612,235.099 138.988,234.971C148.363,234.842 203.432,235.321 203.432,235.321C203.432,235.321 220.002,234.879 230.533,221.369C241.064,207.86 239.018,201.854 239.018,197.756C239.018,193.657 239.091,169.975 239.091,169.975C239.091,169.975 237.801,157.69 235.989,153.81C234.177,149.931 232.105,145.517 232.105,145.517L238.133,107.83C238.133,107.83 240.355,101.502 236.54,98.191C232.726,94.881 226.486,96.926 226.486,96.926L195.23,110.069Z" style="fill:rgb(255,201,92);"/>
            <path d="M194.893,93.939L220.671,83.099C221.046,82.941 221.428,82.799 221.814,82.672L229.117,81.347L235.2,81.67L241.776,83.797L246.373,86.864L251.04,92.66L253.22,98.529L253.744,105.108L252.286,112.799L252.945,110.2C252.945,110.2 247.646,143.328 247.645,143.327C248.253,144.624 248.933,146.077 249.58,147.462C251.936,152.508 254.009,168.408 254.009,168.408C254.066,168.944 254.093,169.483 254.091,170.022C254.091,170.022 254.018,193.664 254.018,197.756C254.018,203.447 256.987,211.832 242.363,230.591C227.408,249.776 203.832,250.316 203.832,250.316C203.655,250.32 203.478,250.322 203.301,250.32C203.301,250.32 148.52,249.842 139.193,249.969C126.673,250.141 105.184,240.708 97.891,233.969C90.966,227.57 76.852,208.311 75.645,185.371C74.775,168.838 81.299,152.092 84.598,144.784C84.543,136.038 84.419,113.053 84.565,104.336L85.021,99.654L86.353,95.012L88.658,90.676L91.789,87.039L96.782,83.568L101.539,81.792L106.996,81.021L113.771,81.608C114.621,81.8 115.452,82.066 116.255,82.403C116.255,82.403 133.856,89.791 142.506,93.3C148.308,91.736 157.908,89.621 167.991,89.402C178.421,89.177 188.564,91.832 194.893,93.939ZM195.23,110.069C195.23,110.069 182.085,104.101 168.315,104.399C154.546,104.697 141.833,109.146 141.833,109.146C138.25,107.882 110.458,96.237 110.458,96.237C110.458,96.237 99.742,93.811 99.562,104.586C99.383,115.362 99.62,148.121 99.62,148.121C99.62,148.121 89.672,166.491 90.624,184.582C91.576,202.674 102.61,217.906 108.071,222.953C113.533,228 129.612,235.099 138.988,234.971C148.363,234.842 203.432,235.321 203.432,235.321C203.432,235.321 220.002,234.879 230.533,221.369C241.064,207.86 239.018,201.854 239.018,197.756C239.018,193.657 239.091,169.975 239.091,169.975C239.091,169.975 237.801,157.69 235.989,153.81C234.177,149.931 232.105,145.517 232.105,145.517L238.133,107.83C238.133,107.83 240.355,101.502 236.54,98.191C232.726,94.881 226.486,96.926 226.486,96.926L195.23,110.069Z"/>
            <g id="Face">
                <g id="Whiskers">
                    <path d="M205.864,188.545C207.164,191.063 210.265,192.051 212.783,190.75L229.266,182.235C231.784,180.934 232.772,177.834 231.472,175.316C230.171,172.798 227.071,171.809 224.553,173.11L208.069,181.626C205.551,182.926 204.563,186.027 205.864,188.545Z" style="fill:rgb(142,94,49);"/>
                    <path d="M116.486,190.753C115.185,193.271 112.085,194.259 109.567,192.958L95.793,185.843C93.275,184.542 92.287,181.442 93.587,178.924C94.888,176.406 97.989,175.417 100.506,176.718L114.28,183.834C116.798,185.135 117.787,188.235 116.486,190.753Z" style="fill:rgb(142,94,49);"/>
                    <path d="M205.798,199.742C204.423,202.22 205.318,205.348 207.797,206.723L224.02,215.725C226.498,217.1 229.627,216.204 231.002,213.726C232.377,211.248 231.481,208.119 229.003,206.744L212.779,197.743C210.301,196.368 207.173,197.263 205.798,199.742Z" style="fill:rgb(142,94,49);"/>
                    <path d="M116.551,201.95C117.926,204.428 117.031,207.556 114.553,208.931L106.852,213.204C104.373,214.579 101.245,213.684 99.87,211.205C98.495,208.727 99.391,205.599 101.869,204.224L109.57,199.951C112.048,198.576 115.176,199.472 116.551,201.95Z" style="fill:rgb(142,94,49);"/>
                </g>
                <path id="Eye" d="M200.503,148.844L200.503,155.403C200.503,162.293 194.909,167.886 188.019,167.886C181.129,167.886 175.535,162.293 175.535,155.403L175.535,148.844C175.535,141.954 181.129,136.36 188.019,136.36C194.909,136.36 200.503,141.954 200.503,148.844Z"/>
            </g>
        </g>
        <g id="DLR">
            <g id="Body">
                <g id="Outline">
                    <path d="M132.749,85.316L43.998,79.803C41.054,75.918 35.198,78.283 35.198,78.283L-1.812,88.482L-1.899,227.165C-1.899,227.165 23.146,236.425 34.22,239.73C45.294,243.034 46.503,231.406 46.503,231.406C46.503,231.406 46.674,228.645 46.936,224.136L106.165,220.184C112.098,222.399 136.318,231.385 148.252,234.935C161.912,239 161.476,224.329 161.476,224.329C161.476,224.329 161.385,189.485 160.929,183.132C160.473,176.778 159.628,164.128 159.115,157.225C158.602,150.321 154.177,121.317 154.177,121.317C154.177,121.317 150.291,98.477 147.134,89.994C143.977,81.511 138.034,83.949 138.034,83.949L132.749,85.316Z" style="fill:rgb(224,51,51);"/>
                    <path d="M48.946,65.081L131.3,70.197L134.278,69.427L132.339,70.072L139.821,68.625L144.111,69.031L148.971,70.637L152.963,73.09L156.44,76.435L159.178,80.396C159.889,81.656 160.573,83.099 161.192,84.762C164.625,93.987 168.964,118.801 168.964,118.801C168.979,118.885 168.992,118.97 169.005,119.054C169.005,119.054 173.545,148.989 174.074,156.113C174.588,163.027 175.434,175.695 175.891,182.058C176.337,188.286 176.465,221.211 176.475,224.044C176.491,224.77 176.504,227.861 175.662,231.521L173.594,237.476L169.604,243.389L165.223,247.068L160.226,249.449L154.729,250.562L149.247,250.434C147.63,250.233 145.874,249.878 143.974,249.312C133.27,246.127 112.898,238.678 103.954,235.365L60.111,238.291L59.745,239.777L57.189,244.834L53.92,248.849L48.987,252.532L44.51,254.391L39.607,255.262L34.675,255.115L29.931,254.103C18.578,250.716 -7.101,241.234 -7.101,241.234C-12.993,239.056 -16.903,233.437 -16.899,227.156L-16.812,88.472C-16.808,81.726 -12.301,75.813 -5.797,74.021L31.213,63.822L29.581,64.375L37.358,62.628L44.207,63.154L48.946,65.081ZM132.749,85.316L43.998,79.803C41.054,75.918 35.198,78.283 35.198,78.283L-1.812,88.482L-1.899,227.165C-1.899,227.165 23.146,236.425 34.22,239.73C45.294,243.034 46.503,231.406 46.503,231.406C46.503,231.406 46.674,228.645 46.936,224.136L106.165,220.184C112.098,222.399 136.318,231.385 148.252,234.935C161.912,239 161.476,224.329 161.476,224.329C161.476,224.329 161.385,189.485 160.929,183.132C160.473,176.778 159.628,164.128 159.115,157.225C158.602,150.321 154.177,121.317 154.177,121.317C154.177,121.317 150.291,98.477 147.134,89.994C143.977,81.511 138.034,83.949 138.034,83.949L132.749,85.316Z"/>
                </g>
                <path id="Left-panel" serif:id="Left panel" d="M132.377,85.412L138.034,83.949C138.034,83.949 143.977,81.511 147.134,89.994C150.291,98.477 154.177,121.317 154.177,121.317C154.177,121.317 158.602,150.321 159.115,157.225C159.628,164.128 160.473,176.778 160.929,183.132C161.385,189.485 161.476,224.329 161.476,224.329C161.476,224.329 161.912,239 148.252,234.935C134.591,230.871 104.831,219.685 104.831,219.685L115.876,84.251L132.377,85.412Z" style="fill:rgb(224,51,51);"/>
                <path id="Front" d="M43.953,79.8L137.852,85.633C137.852,85.633 141.441,85.803 142.488,89.681C143.534,93.558 150.014,133.313 151.974,144.111C156.733,170.321 155.584,216.887 155.584,216.887L46.226,224.184L43.953,79.8Z" style="fill:rgb(52,49,40);"/>
                <path id="Right-panel" serif:id="Right panel" d="M-1.899,88.492L-1.899,227.165C-1.899,227.165 23.146,236.425 34.22,239.73C45.294,243.034 46.503,231.406 46.503,231.406C46.503,231.406 49.775,178.561 49.598,157.665C49.422,136.769 47.379,102.44 47.379,102.44C47.379,102.44 46.847,92.555 45.467,83.624C44.087,74.693 35.198,78.283 35.198,78.283L-1.899,88.492Z" style="fill:rgb(224,51,51);"/>
            </g>
            <path id="Left-window" serif:id="Left window" d="M142.823,108.544C142.823,108.544 150.905,144.834 151.583,171.842C148.028,172.011 128.983,172.087 128.983,172.087C128.983,172.087 128.021,146.199 121.666,107.856C123.619,107.612 142.823,108.544 142.823,108.544Z" style="fill:rgb(167,227,244);"/>
            <path id="Middle-window" serif:id="Middle window" d="M110.752,107.232C110.752,107.232 116.461,146.081 117.138,173.09C113.584,173.259 93.338,173.347 93.338,173.347C93.338,173.347 92.759,144.708 87.938,106.236C89.892,105.991 110.752,107.232 110.752,107.232Z" style="fill:rgb(167,227,244);"/>
            <path id="Right-window" serif:id="Right window" d="M76.228,105.413C76.228,105.413 80.696,146.856 81.373,173.864C77.819,174.033 54.484,174.267 54.484,174.267C54.484,174.267 53.693,142.106 51.134,104.735C53.088,104.491 76.228,105.413 76.228,105.413Z" style="fill:rgb(167,227,244);"/>
            <path id="Mouth" d="M127.195,185.402L119.565,198.23L109.283,185.424L96.546,198.195L81.373,185.439" style="fill:none;stroke:rgb(5,172,168);stroke-width:6.65px;"/>
            <path id="Right-eye" serif:id="Right eye" d="M131.979,157.508C133.33,161.462 136.607,162.712 139.092,162.734C141.886,162.759 144.893,161.906 146.799,157.166" style="fill:none;stroke:black;stroke-width:7px;"/>
            <path id="Left-eye" serif:id="Left eye" d="M59.331,158.053C60.84,162.471 64.501,163.867 67.277,163.892C70.399,163.92 73.758,162.966 75.887,157.671" style="fill:none;stroke:black;stroke-width:7px;"/>
        </g>
        <path id="Cat-arm" serif:id="Cat arm" d="M195.275,227.468L161.081,227.468C152.981,227.468 146.406,220.892 146.406,212.793C146.406,204.694 152.981,198.119 161.081,198.119L195.275,198.119" style="fill:rgb(255,201,92);stroke:black;stroke-width:10px;"/>
        <path id="Heart" d="M100.241,70.661L90.15,60.571C80.47,50.89 80.47,35.171 90.15,25.491C99.831,15.81 115.55,15.81 125.231,25.491L128,28.26L130.769,25.491C140.45,15.81 156.169,15.81 165.85,25.491C175.53,35.171 175.53,50.89 165.85,60.571L155.759,70.661C155.367,71.211 154.923,71.736 154.43,72.23L136.889,89.77C134.439,92.221 131.215,93.43 128,93.4C124.785,93.43 121.561,92.221 119.111,89.77L101.57,72.23C101.077,71.736 100.633,71.211 100.241,70.661Z" style="fill:rgb(239,124,148);stroke:black;stroke-width:15px;stroke-linejoin:miter;stroke-miterlimit:5;"/>
    </g>
</svg>
