<?xml version="1.0" encoding="UTF-8" standalone="no"?>
<!DOCTYPE svg PUBLIC "-//W3C//DTD SVG 1.1//EN" "http://www.w3.org/Graphics/SVG/1.1/DTD/svg11.dtd">
<svg width="100%" height="100%" viewBox="0 0 256 256" version="1.1" xmlns="http://www.w3.org/2000/svg" xmlns:xlink="http://www.w3.org/1999/xlink" xml:space="preserve" xmlns:serif="http://www.serif.com/" style="fill-rule:evenodd;clip-rule:evenodd;stroke-linecap:round;stroke-linejoin:round;stroke-miterlimit:5;">
    <rect id="neocat_hug_blue_dagn" x="-0" y="0" width="256" height="256" style="fill:none;"/>
    <clipPath id="_clip1">
        <rect x="-0" y="0" width="256" height="256"/>
    </clipPath>
    <g clip-path="url(#_clip1)">
        <g id="Cat">
            <path d="M170.892,113.739C170.892,113.739 157.748,107.772 143.978,108.07C130.208,108.367 117.495,112.817 117.495,112.817C113.913,111.553 86.121,99.908 86.121,99.908C86.121,99.908 75.405,97.481 75.225,108.257C75.045,119.033 75.283,151.791 75.283,151.791C75.283,151.791 65.335,170.162 66.287,188.253C67.239,206.345 78.272,221.576 83.734,226.623C89.195,231.67 105.274,238.77 114.65,238.642C124.026,238.513 179.094,238.992 179.094,238.992C179.094,238.992 195.664,238.549 206.196,225.04C216.727,211.531 214.68,205.525 214.68,201.426C214.68,197.328 214.754,173.646 214.754,173.646C214.754,173.646 213.464,161.36 211.652,157.481C209.84,153.601 207.767,149.188 207.767,149.188L213.796,111.501C213.796,111.501 216.017,105.173 212.203,101.862C208.389,98.552 202.148,100.597 202.148,100.597L170.892,113.739Z" style="fill:rgb(255,201,92);"/>
            <path d="M170.556,97.609L196.334,86.769C196.709,86.612 197.09,86.469 197.477,86.343L204.78,85.018L210.863,85.341L217.438,87.467L222.036,90.534L226.702,96.33L228.883,102.2L229.406,108.779L227.949,116.47L228.607,113.87C228.607,113.87 223.308,146.999 223.308,146.998C223.915,148.295 224.595,149.748 225.242,151.133C227.599,156.179 229.672,172.079 229.672,172.079C229.728,172.615 229.756,173.154 229.754,173.692C229.754,173.692 229.68,197.335 229.68,201.426C229.68,207.117 232.65,215.503 218.026,234.262C203.071,253.446 179.495,253.986 179.495,253.986C179.318,253.991 179.141,253.993 178.964,253.991C178.964,253.991 124.182,253.512 114.856,253.64C102.336,253.812 80.847,244.379 73.554,237.64C66.628,231.24 52.515,211.982 51.308,189.042C50.437,172.509 56.961,155.763 60.26,148.455C60.206,139.709 60.082,116.724 60.227,108.007L60.684,103.324L62.016,98.682L64.321,94.346L67.451,90.709L72.444,87.239L77.202,85.462L82.658,84.692L89.434,85.278C90.283,85.471 91.115,85.737 91.918,86.073C91.918,86.073 109.518,93.462 118.168,96.971C123.971,95.407 133.571,93.291 143.653,93.073C154.083,92.847 164.227,95.503 170.556,97.609ZM170.892,113.739C170.892,113.739 157.748,107.772 143.978,108.07C130.208,108.367 117.495,112.817 117.495,112.817C113.913,111.553 86.121,99.908 86.121,99.908C86.121,99.908 75.405,97.481 75.225,108.257C75.045,119.033 75.283,151.791 75.283,151.791C75.283,151.791 65.335,170.162 66.287,188.253C67.239,206.345 78.272,221.576 83.734,226.623C89.195,231.67 105.274,238.77 114.65,238.642C124.026,238.513 179.094,238.992 179.094,238.992C179.094,238.992 195.664,238.549 206.196,225.04C216.727,211.531 214.68,205.525 214.68,201.426C214.68,197.328 214.754,173.646 214.754,173.646C214.754,173.646 213.464,161.36 211.652,157.481C209.84,153.601 207.767,149.188 207.767,149.188L213.796,111.501C213.796,111.501 216.017,105.173 212.203,101.862C208.389,98.552 202.148,100.597 202.148,100.597L170.892,113.739Z"/>
            <g id="Face">
                <g id="Whiskers">
                    <path d="M181.526,192.215C182.827,194.733 185.927,195.722 188.445,194.421L204.929,185.905C207.447,184.605 208.435,181.504 207.134,178.986C205.834,176.468 202.733,175.48 200.215,176.781L183.731,185.296C181.214,186.597 180.225,189.698 181.526,192.215Z" style="fill:rgb(142,94,49);"/>
                    <path d="M92.148,194.424C90.848,196.942 87.747,197.93 85.229,196.629L71.455,189.513C68.937,188.213 67.949,185.112 69.25,182.594C70.551,180.076 73.651,179.088 76.169,180.389L89.943,187.505C92.461,188.805 93.449,191.906 92.148,194.424Z" style="fill:rgb(142,94,49);"/>
                    <path d="M181.46,203.412C180.085,205.891 180.981,209.019 183.459,210.394L199.683,219.395C202.161,220.77 205.289,219.875 206.664,217.397C208.039,214.918 207.144,211.79 204.665,210.415L188.442,201.413C185.964,200.038 182.835,200.934 181.46,203.412Z" style="fill:rgb(142,94,49);"/>
                    <path d="M92.214,205.62C93.589,208.099 92.693,211.227 90.215,212.602L82.514,216.875C80.036,218.25 76.908,217.354 75.533,214.876C74.158,212.398 75.053,209.27 77.531,207.895L85.232,203.622C87.711,202.247 90.839,203.142 92.214,205.62Z" style="fill:rgb(142,94,49);"/>
                </g>
                <g id="Eyes">
                    <path id="Right-Eye" serif:id="Right Eye" d="M174.165,155.514L174.165,162.073C174.165,168.963 168.572,174.557 161.682,174.557C154.792,174.557 149.198,168.963 149.198,162.073L149.198,155.514C149.198,148.624 154.792,143.031 161.682,143.031C168.572,143.031 174.165,148.624 174.165,155.514Z"/>
                    <path id="Left-Eye" serif:id="Left Eye" d="M121.411,155.514L121.411,162.073C121.411,168.963 115.818,174.557 108.928,174.557C102.038,174.557 96.444,168.963 96.444,162.073L96.444,155.514C96.444,148.624 102.038,143.031 108.928,143.031C115.818,143.031 121.411,148.624 121.411,155.514Z"/>
                </g>
            </g>
        </g>
        <g id="Dagn">
            <path id="Body" d="M116.928,256L28.929,256C28.929,256 19.105,217.723 19.172,179.381C19.24,141.039 26.585,92.346 67.217,73.02C61.854,68.475 33.816,50.101 35.564,24.047C37.311,22.201 41.684,25.004 41.684,25.004C41.684,25.004 81.945,49.276 88.355,51.941C86.207,48.99 74.686,34.559 76.55,16.883C78.72,14.612 82.765,17.314 82.765,17.314C82.765,17.314 104.445,36.741 117.415,42.792C130.385,48.843 160.183,52.496 166.45,63.263C170.858,70.834 169.165,71.31 172.699,72.549C180.967,75.449 216.059,80.66 216.059,80.66C216.059,80.66 224.906,81.92 224.965,91.154C225.024,100.388 220.113,110.617 216.239,116.159C212.366,121.701 203.822,129.583 197.404,129.629C190.987,129.675 123.293,129.881 123.293,129.881C123.293,129.881 111.985,127.823 101.25,138.838C90.515,149.852 93.485,156.385 93.268,161.896C93.051,167.407 94.547,184.802 101.482,201.83C108.417,218.858 116.928,256 116.928,256Z" style="fill:rgb(28,83,196);"/>
            <path d="M181.433,59.446C192.426,62.078 216.547,65.575 218.176,65.81L222.977,67.041L228.459,69.734L231.804,72.29L235.068,75.886L238.655,82.831L239.965,91.058C240.044,103.464 233.738,117.307 228.534,124.752C225.334,129.331 219.82,135.073 214.01,138.945C208.478,142.633 202.562,144.592 197.512,144.628C191.089,144.674 123.338,144.881 123.338,144.881C123.323,144.881 123.308,144.881 123.293,144.881L120.76,144.665C120.79,144.67 121.224,144.733 121.224,144.733C121.224,144.733 115.894,145.304 111.992,149.307C105.965,155.491 108.378,159.393 108.257,162.486C108.073,167.14 109.518,181.792 115.374,196.172C122.607,213.932 131.549,252.65 131.549,252.65C132.569,257.102 131.505,261.775 128.659,265.347C125.813,268.919 121.495,271 116.928,271L28.929,271C22.081,271 16.102,266.362 14.4,259.729C14.4,259.729 4.101,219.576 4.172,179.355C4.237,142.371 11.725,97.586 42.243,71.474C38.844,68.152 35.354,64.311 32.251,60.022C24.826,49.754 19.649,37.177 20.597,23.043C20.831,19.56 22.272,16.267 24.672,13.733L30.008,9.944L35.188,8.532L39.031,8.502L43.067,9.295L49.778,12.374L49.429,12.158C49.429,12.158 54.559,15.269 61.374,19.346C61.405,18.016 61.489,16.67 61.633,15.309C61.981,12.009 63.413,8.918 65.706,6.519L71.038,2.684L75.267,1.311L78.97,0.975L85.077,1.971L91.097,4.841C91.686,5.234 92.247,5.67 92.775,6.143C92.775,6.143 112.111,23.765 123.757,29.199C132.758,33.398 149.948,36.397 161.575,41.502C170.042,45.219 176.246,50.275 179.414,55.717C180.189,57.047 180.865,58.318 181.433,59.446ZM116.928,256C116.928,256 108.417,218.858 101.482,201.83C94.547,184.802 93.051,167.407 93.268,161.896C93.485,156.385 90.515,149.852 101.25,138.838C111.985,127.823 123.293,129.881 123.293,129.881C123.293,129.881 190.987,129.675 197.404,129.629C203.822,129.583 212.366,121.701 216.239,116.159C220.113,110.617 225.024,100.388 224.965,91.154C224.906,81.92 216.059,80.66 216.059,80.66C216.059,80.66 180.967,75.449 172.699,72.549C169.165,71.31 170.858,70.834 166.45,63.263C160.183,52.496 130.385,48.843 117.415,42.792C104.445,36.741 82.765,17.314 82.765,17.314C82.765,17.314 78.72,14.612 76.55,16.883C74.686,34.559 86.207,48.99 88.355,51.941C81.945,49.276 41.684,25.004 41.684,25.004C41.684,25.004 37.311,22.201 35.564,24.047C33.816,50.101 61.854,68.475 67.217,73.02C26.585,92.346 19.24,141.039 19.172,179.381C19.105,217.723 28.929,256 28.929,256L116.928,256Z"/>
            <g id="Face1" serif:id="Face">
                <path id="Mouth" d="M165.381,107.883L179.577,122.321L192.503,108.685L202.622,121.468L209.195,108.357" style="fill:none;stroke:rgb(0,11,37);stroke-width:10px;"/>
                <path id="Snout" d="M218.819,92.897C218.819,95.01 217.104,96.725 214.991,96.725L209.987,96.725C207.874,96.725 206.159,95.01 206.159,92.897C206.159,90.784 207.874,89.069 209.987,89.069L214.991,89.069C217.104,89.069 218.819,90.784 218.819,92.897Z" style="fill:rgb(0,21,71);"/>
                <path id="Eye" d="M116.333,76.415C119.03,84.257 125.573,86.735 130.533,86.779C136.112,86.829 142.114,85.137 145.919,75.736" style="fill:none;stroke:rgb(0,11,37);stroke-width:12px;stroke-miterlimit:1.5;"/>
            </g>
        </g>
        <path id="Cat-arm" serif:id="Cat arm" d="M151.6,227.93L117.405,227.93C109.306,227.93 102.731,221.355 102.731,213.256C102.731,205.157 109.306,198.581 117.405,198.581L151.6,198.581" style="fill:rgb(255,201,92);stroke:black;stroke-width:10px;stroke-miterlimit:1.5;"/>
    </g>
</svg>
