<?xml version="1.0" encoding="UTF-8" standalone="no"?>
<!DOCTYPE svg PUBLIC "-//W3C//DTD SVG 1.1//EN" "http://www.w3.org/Graphics/SVG/1.1/DTD/svg11.dtd">
<svg width="100%" height="100%" viewBox="0 0 256 256" version="1.1" xmlns="http://www.w3.org/2000/svg" xmlns:xlink="http://www.w3.org/1999/xlink" xml:space="preserve" xmlns:serif="http://www.serif.com/" style="fill-rule:evenodd;clip-rule:evenodd;stroke-linecap:round;stroke-linejoin:round;stroke-miterlimit:1.5;">
    <rect id="neodog_hug_dlr_heart" x="-0" y="0" width="256" height="256" style="fill:none;"/>
    <clipPath id="_clip1">
        <rect x="-0" y="0" width="256" height="256"/>
    </clipPath>
    <g clip-path="url(#_clip1)">
        <g id="Dog">
            <g id="Body">
                <path d="M102.521,174.248L102.521,191.701C102.521,214.677 121.178,233.329 144.146,233.329L204.662,233.329C221.063,233.329 234.376,220.014 234.376,203.618L234.376,174.16C234.376,141.225 207.638,114.496 174.705,114.496L162.273,114.496C129.299,114.496 102.521,141.269 102.521,174.248Z" style="fill:rgb(243,192,123);"/>
                <path d="M85.799,174.248L85.799,191.701C85.799,223.898 111.946,250.044 144.146,250.044L204.662,250.044C230.292,250.044 251.096,229.246 251.096,203.618L251.096,174.16C251.096,132.004 216.87,97.77 174.705,97.77L162.273,97.77C120.067,97.77 85.799,132.037 85.799,174.248ZM102.521,174.248C102.521,141.269 129.299,114.496 162.273,114.496L174.705,114.496C207.638,114.496 234.376,141.225 234.376,174.16L234.376,203.618C234.376,220.014 221.063,233.329 204.662,233.329L144.146,233.329C121.178,233.329 102.521,214.677 102.521,191.701L102.521,174.248Z"/>
            </g>
            <path id="Right-eye" serif:id="Right eye" d="M195.661,152.435L195.661,158.666C195.661,165.211 190.347,170.525 183.802,170.525C177.257,170.525 171.943,165.211 171.943,158.666L171.943,152.435C171.943,145.89 177.257,140.576 183.802,140.576C190.347,140.576 195.661,145.89 195.661,152.435Z"/>
            <g id="Right-ear" serif:id="Right ear">
                <path d="M238.591,102.372L238.591,161.763C238.591,161.763 235.821,169.113 232.155,163.647C228.48,158.18 191.351,102.806 191.351,102.806C191.351,102.806 187.657,95.76 194.906,96.702C202.164,97.644 208.129,100.59 214.971,100.553C221.813,100.507 232.783,98.226 232.783,98.226C232.783,98.226 238.923,97.044 238.591,102.372Z" style="fill:rgb(109,69,52);"/>
                <path d="M255.313,102.372L255.285,103.406L255.147,99.131L254.011,94.532L251.693,90.109L248.48,86.536L244.593,83.877L239.459,81.984L234.999,81.411L229.597,81.817C229.523,81.827 229.449,81.845 229.375,81.854C229.375,81.854 220.446,83.793 214.869,83.83C208.775,83.867 203.521,80.959 197.057,80.118L190.917,80.054L185.995,81.263L181.665,83.581L177.888,87.145L175.487,91.033L173.891,96.453L174.133,103.757L176.531,110.571C176.817,111.098 177.122,111.624 177.463,112.123C177.463,112.123 214.601,167.507 218.276,172.973L222.487,177.747L227.076,180.674L232.109,182.179L237.455,182.216L241.795,181.071L246.421,178.458L251.075,173.592L254.242,167.654C254.953,165.771 255.313,163.776 255.313,161.763L255.313,102.372ZM238.591,102.372L238.591,161.763C238.591,161.763 235.821,169.113 232.155,163.647C228.48,158.18 191.351,102.806 191.351,102.806C191.351,102.806 187.657,95.76 194.906,96.702C202.164,97.644 208.129,100.59 214.971,100.553C221.813,100.507 232.783,98.226 232.783,98.226C232.783,98.226 238.923,97.044 238.591,102.372Z"/>
            </g>
            <g id="Left-ear" serif:id="Left ear">
                <path d="M93.676,102.372L93.676,161.763C93.676,161.763 96.446,169.113 100.112,163.647C103.787,158.18 140.916,102.806 140.916,102.806C140.916,102.806 144.609,95.76 137.361,96.702C130.103,97.644 124.138,100.59 117.296,100.553C110.454,100.507 99.484,98.226 99.484,98.226C99.484,98.226 93.344,97.044 93.676,102.372Z" style="fill:rgb(109,69,52);"/>
                <path d="M76.982,103.406L76.954,102.372L76.954,161.763C76.954,163.776 77.314,165.771 78.025,167.654L81.192,173.592L85.846,178.458L90.472,181.071L94.812,182.216L100.158,182.179L105.191,180.674L109.78,177.747L113.99,172.973C117.665,167.507 154.804,112.123 154.804,112.123C155.145,111.624 155.45,111.098 155.736,110.571L158.134,103.757L158.376,96.453L156.78,91.033L154.379,87.145L150.602,83.581L146.272,81.263L141.35,80.054L135.21,80.118C128.746,80.959 123.492,83.867 117.398,83.83C111.82,83.793 102.891,81.854 102.891,81.854C102.818,81.845 102.744,81.827 102.67,81.817L97.268,81.411L92.808,81.984L87.674,83.877L83.787,86.536L80.573,90.109L78.256,94.532L77.12,99.131L76.982,103.406ZM93.676,102.372C93.344,97.044 99.484,98.226 99.484,98.226C99.484,98.226 110.454,100.507 117.296,100.553C124.138,100.59 130.103,97.644 137.361,96.702C144.609,95.76 140.916,102.806 140.916,102.806C140.916,102.806 103.787,158.18 100.112,163.647C96.446,169.113 93.676,161.763 93.676,161.763L93.676,102.372Z"/>
            </g>
        </g>
        <g id="DLR">
            <g id="Body1" serif:id="Body">
                <g id="Outline">
                    <path d="M132.749,85.316L43.998,79.803C41.054,75.918 35.198,78.283 35.198,78.283L-1.812,88.482L-1.899,227.165C-1.899,227.165 23.146,236.425 34.22,239.73C45.294,243.034 46.503,231.406 46.503,231.406C46.503,231.406 46.674,228.645 46.936,224.136L106.165,220.184C112.098,222.399 136.318,231.385 148.252,234.935C161.912,239 161.476,224.329 161.476,224.329C161.476,224.329 161.385,189.485 160.929,183.132C160.473,176.778 159.628,164.128 159.115,157.225C158.602,150.321 154.177,121.317 154.177,121.317C154.177,121.317 150.291,98.477 147.134,89.994C143.977,81.511 138.034,83.949 138.034,83.949L132.749,85.316Z" style="fill:rgb(224,51,51);"/>
                    <path d="M48.946,65.081L131.3,70.197L134.278,69.427L132.339,70.072L139.821,68.625L144.111,69.031L148.971,70.637L152.963,73.09L156.44,76.435L159.178,80.396C159.889,81.656 160.573,83.099 161.192,84.762C164.625,93.987 168.964,118.801 168.964,118.801C168.979,118.885 168.992,118.97 169.005,119.054C169.005,119.054 173.545,148.989 174.074,156.113C174.588,163.027 175.434,175.695 175.891,182.058C176.337,188.286 176.465,221.211 176.475,224.044C176.491,224.77 176.504,227.861 175.662,231.521L173.594,237.476L169.604,243.389L165.223,247.068L160.226,249.449L154.729,250.562L149.247,250.434C147.63,250.233 145.874,249.878 143.974,249.312C133.27,246.127 112.898,238.678 103.954,235.365L60.111,238.291L59.745,239.777L57.189,244.834L53.92,248.849L48.987,252.532L44.51,254.391L39.607,255.262L34.675,255.115L29.931,254.103C18.578,250.716 -7.101,241.234 -7.101,241.234C-12.993,239.056 -16.903,233.437 -16.899,227.156L-16.812,88.472C-16.808,81.726 -12.301,75.813 -5.797,74.021L31.213,63.822L29.581,64.375L37.358,62.628L44.207,63.154L48.946,65.081ZM132.749,85.316L43.998,79.803C41.054,75.918 35.198,78.283 35.198,78.283L-1.812,88.482L-1.899,227.165C-1.899,227.165 23.146,236.425 34.22,239.73C45.294,243.034 46.503,231.406 46.503,231.406C46.503,231.406 46.674,228.645 46.936,224.136L106.165,220.184C112.098,222.399 136.318,231.385 148.252,234.935C161.912,239 161.476,224.329 161.476,224.329C161.476,224.329 161.385,189.485 160.929,183.132C160.473,176.778 159.628,164.128 159.115,157.225C158.602,150.321 154.177,121.317 154.177,121.317C154.177,121.317 150.291,98.477 147.134,89.994C143.977,81.511 138.034,83.949 138.034,83.949L132.749,85.316Z"/>
                </g>
                <path id="Left-panel" serif:id="Left panel" d="M132.377,85.412L138.034,83.949C138.034,83.949 143.977,81.511 147.134,89.994C150.291,98.477 154.177,121.317 154.177,121.317C154.177,121.317 158.602,150.321 159.115,157.225C159.628,164.128 160.473,176.778 160.929,183.132C161.385,189.485 161.476,224.329 161.476,224.329C161.476,224.329 161.912,239 148.252,234.935C134.591,230.871 104.831,219.685 104.831,219.685L115.876,84.251L132.377,85.412Z" style="fill:rgb(224,51,51);"/>
                <path id="Front" d="M43.953,79.8L137.852,85.633C137.852,85.633 141.441,85.803 142.488,89.681C143.534,93.558 150.014,133.313 151.974,144.111C156.733,170.321 155.584,216.887 155.584,216.887L46.226,224.184L43.953,79.8Z" style="fill:rgb(52,49,40);"/>
                <path id="Right-panel" serif:id="Right panel" d="M-1.899,88.492L-1.899,227.165C-1.899,227.165 23.146,236.425 34.22,239.73C45.294,243.034 46.503,231.406 46.503,231.406C46.503,231.406 49.775,178.561 49.598,157.665C49.422,136.769 47.379,102.44 47.379,102.44C47.379,102.44 46.847,92.555 45.467,83.624C44.087,74.693 35.198,78.283 35.198,78.283L-1.899,88.492Z" style="fill:rgb(224,51,51);"/>
            </g>
            <path id="Left-window" serif:id="Left window" d="M142.823,108.544C142.823,108.544 150.905,144.834 151.583,171.842C148.028,172.011 128.983,172.087 128.983,172.087C128.983,172.087 128.021,146.199 121.666,107.856C123.619,107.612 142.823,108.544 142.823,108.544Z" style="fill:rgb(167,227,244);"/>
            <path id="Middle-window" serif:id="Middle window" d="M110.752,107.232C110.752,107.232 116.461,146.081 117.138,173.09C113.584,173.259 93.338,173.347 93.338,173.347C93.338,173.347 92.759,144.708 87.938,106.236C89.892,105.991 110.752,107.232 110.752,107.232Z" style="fill:rgb(167,227,244);"/>
            <path id="Right-window" serif:id="Right window" d="M76.228,105.413C76.228,105.413 80.696,146.856 81.373,173.864C77.819,174.033 54.484,174.267 54.484,174.267C54.484,174.267 53.693,142.106 51.134,104.735C53.088,104.491 76.228,105.413 76.228,105.413Z" style="fill:rgb(167,227,244);"/>
            <path id="Mouth" d="M127.195,185.402L119.565,198.23L109.283,185.424L96.546,198.195L81.373,185.439" style="fill:none;stroke:rgb(5,172,168);stroke-width:6.65px;"/>
            <path id="Right-eye1" serif:id="Right eye" d="M131.979,157.508C133.33,161.462 136.607,162.712 139.092,162.734C141.886,162.759 144.893,161.906 146.799,157.166" style="fill:none;stroke:black;stroke-width:7px;"/>
            <path id="Left-eye" serif:id="Left eye" d="M59.331,158.053C60.84,162.471 64.501,163.867 67.277,163.892C70.399,163.92 73.758,162.966 75.887,157.671" style="fill:none;stroke:black;stroke-width:7px;"/>
        </g>
        <path id="Dog-arm" serif:id="Dog arm" d="M195.275,227.468L161.081,227.468C152.981,227.468 146.406,220.892 146.406,212.793C146.406,204.694 152.981,198.119 161.081,198.119L195.275,198.119" style="fill:rgb(243,192,123);stroke:black;stroke-width:10px;"/>
        <path id="Heart" d="M100.241,70.661L90.15,60.571C80.47,50.89 80.47,35.171 90.15,25.491C99.831,15.81 115.55,15.81 125.231,25.491L128,28.26L130.769,25.491C140.45,15.81 156.169,15.81 165.85,25.491C175.53,35.171 175.53,50.89 165.85,60.571L155.759,70.661C155.367,71.211 154.923,71.736 154.43,72.23L136.889,89.77C134.439,92.221 131.215,93.43 128,93.4C124.785,93.43 121.561,92.221 119.111,89.77L101.57,72.23C101.077,71.736 100.633,71.211 100.241,70.661Z" style="fill:rgb(239,124,148);stroke:black;stroke-width:15px;stroke-linejoin:miter;stroke-miterlimit:5;"/>
    </g>
</svg>
