<?xml version="1.0" encoding="UTF-8" standalone="no"?>
<!DOCTYPE svg PUBLIC "-//W3C//DTD SVG 1.1//EN" "http://www.w3.org/Graphics/SVG/1.1/DTD/svg11.dtd">
<svg width="100%" height="100%" viewBox="0 0 256 256" version="1.1" xmlns="http://www.w3.org/2000/svg" xmlns:xlink="http://www.w3.org/1999/xlink" xml:space="preserve" xmlns:serif="http://www.serif.com/" style="fill-rule:evenodd;clip-rule:evenodd;stroke-linecap:round;stroke-linejoin:round;stroke-miterlimit:5;">
    <rect id="neofox_hug_bread" x="0" y="0" width="256" height="256" style="fill:none;"/>
    <g id="Fox">
        <path id="Outline" d="M92.203,85.776L94.468,82.345L97.993,79.254L102.716,77.036L108.98,76.129L113.406,76.463L118.005,77.768C119.999,78.585 121.624,79.765 124.29,81.476C126.136,82.662 129.474,85.897 132.987,89.55C133.747,89.272 134.531,89.054 135.333,88.901C135.333,88.901 147.166,86.773 151.348,86.773C153.976,86.773 162.698,88.144 172.256,92.419C173.756,91.061 175.544,89.994 177.547,89.322C183.654,87.272 190.388,89.35 194.277,94.485L196.809,97.256C200.57,94.094 203.518,91.892 205.212,90.539C208.721,87.735 217.713,80.939 222.816,78.239L227.714,76.207L231.84,75.539L236.973,76.023L241.873,77.922L245.981,80.985L249.076,84.558C250.555,86.53 253.37,93.45 254.533,101.731C255.063,104.822 255.406,108.758 255.365,113.52C255.29,122.324 254.196,135.65 252.008,144.342C251.29,147.195 250.253,150.482 249.194,153.587C251.015,160.058 253.909,172.784 253.61,187.499C253.126,211.387 251.389,224.338 238.755,235.76C225.876,247.404 216.463,247.947 204.151,249.315C189.726,250.917 144.893,248.841 144.893,248.841C144.766,248.835 144.639,248.828 144.512,248.818C144.512,248.818 117.339,246.005 105.194,229.624C94.357,215.008 88.616,206.008 87.986,188.384C87.543,176.001 89.938,163.723 93.969,153.273C91.852,144.762 89.834,125.409 89.099,114.24C88.401,103.629 89.039,95.69 89.702,92.277L90.774,88.497L92.203,85.776ZM92.203,85.776L91.814,86.365C91.999,86.013 92.206,85.676 92.427,85.349L92.203,85.776ZM150.951,121.703C149.129,121.028 145.152,119.793 139.429,119.319C135.461,114.66 131.728,110.312 130.037,108.433C125.606,103.512 118.973,95.889 116.185,94.098C113.396,92.307 112.633,91.102 109.093,91.129C105.554,91.156 105.572,92.687 104.854,93.75C104.135,94.813 103.347,102.315 104.067,113.255C104.787,124.195 106.67,143.74 108.751,150.483C109.151,151.779 109.596,152.882 110.053,153.817C105.463,163.405 102.537,175.565 102.976,187.848C103.481,201.97 108.56,208.978 117.243,220.69C125.927,232.402 145.619,233.859 145.619,233.859C145.619,233.859 188.65,235.944 202.496,234.406C211.76,233.377 219.005,233.394 228.695,224.633C238.386,215.872 238.242,205.516 238.614,187.195C238.717,182.114 238.382,177.308 237.845,173.015C240.044,171.912 242.362,170.026 244.113,166.809C242.668,169.41 240.473,171.529 237.828,172.885C237.828,172.881 237.827,172.878 237.827,172.875C240.345,171.582 242.454,169.595 243.895,167.16C242.397,169.636 240.266,171.546 237.815,172.779C236.405,161.721 233.666,154.13 233.666,154.13L231.069,159.38C231.61,158.032 235.656,147.853 237.462,140.68C239.398,132.986 240.299,121.184 240.366,113.391C240.398,109.598 240.146,106.483 239.714,104.065C239.038,99.079 237.962,94.738 237.078,93.56C235.651,91.66 234.514,90.448 232.409,90.528C229.575,90.636 218.388,99.211 214.574,102.258C211.652,104.592 204.71,109.612 196.39,118.025C196.44,117.969 196.483,117.922 196.517,117.885C191.185,115.245 182.32,103.542 182.32,103.542C182.32,103.542 182.313,114.852 182.414,118.456C172.68,105.262 154.8,101.773 151.348,101.773C147.897,101.773 138.146,103.635 138.146,103.635C136.664,105.253 146.531,118.996 150.951,121.703C151.692,121.977 152.076,122.159 152.076,122.159C151.764,122.127 151.384,121.968 150.951,121.703ZM186.17,129.485C186.172,129.492 186.174,129.501 186.177,129.509L186.149,129.508L186.17,129.485ZM230.981,159.526L230.996,159.528L230.989,159.543L230.981,159.526Z"/>
        <g id="Left-ear" serif:id="Left ear">
            <path id="Outer" d="M231.009,159.529C231.009,159.529 235.525,148.374 237.462,140.68C239.398,132.986 240.299,121.184 240.366,113.391C240.433,105.598 238.504,95.461 237.078,93.56C235.651,91.66 234.514,90.448 232.409,90.528C229.575,90.636 218.388,99.211 214.574,102.258C210.511,105.503 198.673,113.943 186.168,129.477C187.256,133.671 215.016,157.899 231.009,159.529Z" style="fill:rgb(42,42,42);"/>
            <path id="Inner" d="M231.009,159.529C231.009,159.529 235.525,148.374 237.462,140.68C239.398,132.986 240.299,121.184 240.366,113.391C240.433,105.598 239.296,100.666 237.87,98.765C236.444,96.864 235.419,96.907 233.314,96.811C231.209,96.714 223.309,102.401 220.645,106.492C217.982,110.583 213.224,121.097 209.995,123.947C206.767,126.796 200.82,130.065 196.378,129.767C197.466,133.961 215.016,157.899 231.009,159.529Z" style="fill:rgb(235,220,204);"/>
        </g>
        <path id="Right-ear" serif:id="Right ear" d="M152.904,135.224C152.904,135.224 134.467,113.355 130.037,108.433C125.606,103.512 118.973,95.889 116.185,94.098C113.396,92.307 112.633,91.102 109.093,91.129C105.554,91.156 105.572,92.687 104.854,93.75C104.135,94.813 103.347,102.315 104.067,113.255C104.787,124.195 106.67,143.74 108.751,150.483C110.832,157.225 114.119,158.727 114.119,158.727L152.904,135.224Z" style="fill:rgb(42,42,42);"/>
        <path id="Body" d="M202.496,234.406C188.65,235.944 145.619,233.859 145.619,233.859C145.619,233.859 125.927,232.402 117.243,220.69C108.56,208.978 103.481,201.97 102.976,187.848C102.472,173.725 106.415,159.765 112.222,149.691C118.029,139.617 129.121,129.446 136.497,129.78C132.242,128.289 120.929,125.287 115.431,125.819C116.894,124.842 124.899,119.007 135.417,119.131C145.934,119.256 152.076,122.159 152.076,122.159C148.57,121.8 136.519,105.412 138.146,103.635C138.146,103.635 147.897,101.773 151.348,101.773C154.8,101.773 172.68,105.262 182.414,118.456C182.313,114.852 182.32,103.542 182.32,103.542C182.32,103.542 191.185,115.245 196.517,117.885C195.471,119.027 186.149,129.508 186.149,129.508L208.477,129.932L208.511,144.618L223.5,144.673L230.989,159.543L233.666,154.13C233.666,154.13 238.985,168.873 238.614,187.195C238.242,205.516 238.386,215.872 228.695,224.633C219.005,233.394 211.76,233.377 202.496,234.406Z" style="fill:rgb(247,150,91);"/>
        <g id="Face">
            <path id="Mouth" d="M186.349,197.002L171.363,212.346L156.092,197.071L144.926,212.347L137.058,197.136" style="fill:none;stroke:black;stroke-width:8px;"/>
            <path id="Nose" d="M148.449,180.256C148.449,183.389 150.992,185.933 154.125,185.933L158.282,185.933C161.415,185.933 163.958,183.389 163.958,180.256C163.958,177.124 161.415,174.58 158.282,174.58L154.125,174.58C150.992,174.58 148.449,177.124 148.449,180.256Z" style="fill:rgb(50,18,11);"/>
            <path id="Eye" d="M196.736,151.118L196.736,157.677C196.736,164.567 191.142,170.161 184.252,170.161C177.362,170.161 171.768,164.567 171.768,157.677L171.768,151.118C171.768,144.228 177.362,138.635 184.252,138.635C191.142,138.635 196.736,144.228 196.736,151.118Z"/>
        </g>
    </g>
    <g id="Bread">
        <path id="Crust" d="M46.138,103.808C25.406,103.808 8.574,120.64 8.574,141.371C8.574,150.185 11.616,158.293 16.706,164.703L16.706,222.923C16.706,233.774 25.516,242.584 36.367,242.584L144.929,242.584C155.78,242.584 164.59,233.774 164.59,222.923L164.59,164.479C169.574,158.105 172.546,150.082 172.546,141.371C172.546,120.64 155.715,103.808 134.982,103.808L46.138,103.808Z" style="fill:rgb(209,160,132);stroke:black;stroke-width:15px;stroke-miterlimit:1.5;"/>
        <rect id="Shadow" x="25.282" y="162.875" width="69.168" height="10.464" style="fill:rgb(186,133,109);"/>
        <path id="Slice" d="M147.386,163.267C153.078,158.733 156.728,151.743 156.728,143.907C156.728,130.251 145.641,119.165 131.986,119.165L86.637,119.165C72.981,119.165 61.895,130.251 61.895,143.907C61.895,151.479 65.304,158.262 70.67,162.802L70.67,217.812C70.67,223.154 75.007,227.491 80.35,227.491L137.706,227.491C143.049,227.491 147.386,223.154 147.386,217.812L147.386,163.267Z" style="fill:rgb(252,233,186);"/>
        <g id="Face1" serif:id="Face">
            <path id="Mouth1" serif:id="Mouth" d="M133.383,192.219L125.989,204.651L116.025,192.24L103.681,204.616L88.978,192.255" style="fill:none;stroke:black;stroke-width:6.86px;stroke-miterlimit:1.5;"/>
            <g id="Eyes">
                <path id="Right-eye" serif:id="Right eye" d="M122.337,163.275C123.846,167.692 127.507,169.088 130.283,169.113C133.405,169.141 136.763,168.188 138.893,162.892" style="fill:none;stroke:black;stroke-width:7px;stroke-miterlimit:1.5;"/>
                <path id="Left-eye" serif:id="Left eye" d="M86.055,163.275C87.564,167.692 91.225,169.088 94.001,169.113C97.122,169.141 100.481,168.188 102.611,162.892" style="fill:none;stroke:black;stroke-width:7px;stroke-miterlimit:1.5;"/>
            </g>
        </g>
    </g>
    <path id="Fox-arm" serif:id="Fox arm" d="M195.275,227.468L161.081,227.468C152.981,227.468 146.406,220.892 146.406,212.793C146.406,204.694 152.981,198.119 161.081,198.119L195.275,198.119" style="fill:rgb(247,150,91);stroke:black;stroke-width:10px;stroke-miterlimit:1.5;"/>
</svg>
