<?xml version="1.0" encoding="UTF-8" standalone="no"?>
<!DOCTYPE svg PUBLIC "-//W3C//DTD SVG 1.1//EN" "http://www.w3.org/Graphics/SVG/1.1/DTD/svg11.dtd">
<svg width="100%" height="100%" viewBox="0 0 256 256" version="1.1" xmlns="http://www.w3.org/2000/svg" xmlns:xlink="http://www.w3.org/1999/xlink" xml:space="preserve" xmlns:serif="http://www.serif.com/" style="fill-rule:evenodd;clip-rule:evenodd;stroke-linecap:round;stroke-linejoin:round;stroke-miterlimit:5;">
    <rect id="neofox_hug_blue_dagn" x="-0" y="0" width="256" height="256" style="fill:none;"/>
    <clipPath id="_clip1">
        <rect x="-0" y="0" width="256" height="256"/>
    </clipPath>
    <g clip-path="url(#_clip1)">
        <g id="Fox">
            <path id="Outline" d="M61.084,90.062L60.695,90.651C60.88,90.298 61.087,89.962 61.308,89.635L61.084,90.062ZM61.084,90.062L63.349,86.631L66.874,83.539L71.597,81.322L77.861,80.415L82.287,80.748L86.885,82.053C88.88,82.871 90.505,84.05 93.17,85.762C95.017,86.948 98.355,90.182 101.868,93.835C102.627,93.557 103.412,93.34 104.214,93.187C104.214,93.187 116.047,91.059 120.229,91.059C122.857,91.059 131.579,92.429 141.136,96.705C142.636,95.347 144.425,94.28 146.428,93.607C152.535,91.558 159.268,93.636 163.158,98.77L165.69,101.542C169.451,98.379 172.399,96.177 174.092,94.824C177.602,92.02 186.594,85.225 191.697,82.524L196.595,80.492L200.72,79.825L205.854,80.308L210.753,82.207L214.862,85.271L217.956,88.843C219.436,90.815 222.25,97.735 223.414,106.016C223.944,109.108 224.287,113.044 224.246,117.806C224.17,126.609 223.077,139.935 220.889,148.627C219.966,152.292 218.916,155.588 218.022,158.144C219.966,165.104 222.776,177.73 222.491,191.785C222.006,215.672 220.27,228.623 207.635,240.046C194.756,251.689 185.344,252.233 173.032,253.6C158.607,255.202 113.774,253.127 113.774,253.127C113.647,253.121 113.52,253.113 113.393,253.104C113.393,253.104 86.22,250.29 74.075,233.909C63.238,219.293 57.497,210.293 56.867,192.669C56.424,180.287 58.819,168.008 62.849,157.558C60.733,149.047 58.715,129.694 57.98,118.525C57.282,107.914 57.92,99.975 58.583,96.563L59.655,92.783L61.084,90.062ZM119.832,125.988C118.01,125.314 114.033,124.079 108.31,123.605C104.341,118.946 100.609,114.597 98.918,112.719C94.487,107.797 87.854,100.174 85.065,98.384C82.277,96.593 81.514,95.388 77.974,95.415C74.435,95.441 74.453,96.973 73.735,98.036C73.016,99.098 72.228,106.601 72.948,117.54C73.668,128.48 75.55,148.026 77.632,154.768C78.032,156.065 78.477,157.167 78.934,158.103C74.344,167.69 71.418,179.85 71.857,192.133C72.362,206.256 77.441,213.264 86.124,224.976C94.807,236.688 114.5,238.145 114.5,238.145C114.5,238.145 157.531,240.229 171.377,238.692C180.641,237.663 187.885,237.68 197.576,228.919C207.267,220.158 207.123,209.802 207.494,191.48C207.866,173.159 202.17,157.652 202.17,157.652C202.17,157.652 204.537,152.138 206.342,144.966C208.279,137.272 209.18,125.469 209.247,117.677C209.279,113.884 209.027,110.769 208.595,108.351C207.919,103.365 206.842,99.024 205.958,97.846C204.532,95.945 203.395,94.734 201.29,94.814C198.456,94.922 187.269,103.497 183.455,106.544C180.533,108.877 173.59,113.897 165.27,122.31C165.321,122.254 165.364,122.207 165.397,122.171C160.066,119.53 151.201,107.828 151.201,107.828C151.201,107.828 151.194,119.138 151.295,122.742C141.561,109.548 123.681,106.059 120.229,106.059C116.778,106.059 107.027,107.92 107.027,107.92C105.545,109.539 115.411,123.281 119.832,125.988C120.573,126.263 120.957,126.444 120.957,126.444C120.645,126.412 120.264,126.253 119.832,125.988ZM155.051,133.77C155.053,133.778 155.055,133.786 155.057,133.794L155.03,133.794L155.051,133.77Z"/>
            <g id="Left-ear" serif:id="Left ear">
                <path id="Outer" d="M199.89,163.815C199.89,163.815 204.406,152.66 206.342,144.966C208.279,137.272 209.18,125.469 209.247,117.677C209.314,109.884 207.385,99.747 205.958,97.846C204.532,95.945 203.395,94.734 201.29,94.814C198.456,94.922 187.269,103.497 183.455,106.544C179.392,109.789 167.554,118.228 155.049,133.762C156.136,137.957 183.897,162.185 199.89,163.815Z" style="fill:rgb(42,42,42);"/>
                <path id="Inner" d="M199.89,163.815C199.89,163.815 204.406,152.66 206.342,144.966C208.279,137.272 209.18,125.469 209.247,117.677C209.314,109.884 208.177,104.951 206.751,103.051C205.324,101.15 204.299,101.193 202.195,101.096C200.09,101 192.19,106.686 189.526,110.777C186.863,114.868 182.104,125.383 178.876,128.232C175.647,131.082 169.701,134.35 165.259,134.052C166.346,138.246 183.897,162.185 199.89,163.815Z" style="fill:rgb(235,220,204);"/>
            </g>
            <path id="Right-ear" serif:id="Right ear" d="M121.785,139.509C121.785,139.509 103.348,117.64 98.918,112.719C94.487,107.797 87.854,100.174 85.065,98.384C82.277,96.593 81.514,95.388 77.974,95.415C74.435,95.441 74.453,96.973 73.735,98.036C73.016,99.098 72.228,106.601 72.948,117.54C73.668,128.48 75.55,148.026 77.632,154.768C79.713,161.51 82.999,163.013 82.999,163.013L121.785,139.509Z" style="fill:rgb(42,42,42);"/>
            <path id="Body" d="M171.377,238.692C157.531,240.229 114.5,238.145 114.5,238.145C114.5,238.145 94.807,236.688 86.124,224.976C77.441,213.264 72.362,206.256 71.857,192.133C71.353,178.011 75.296,164.051 81.103,153.976C86.909,143.902 98.002,133.731 105.377,134.065C101.123,132.574 89.81,129.573 84.312,130.105C85.775,129.128 93.78,123.293 104.298,123.417C114.815,123.541 120.957,126.444 120.957,126.444C117.45,126.086 105.4,109.697 107.027,107.92C107.027,107.92 116.778,106.059 120.229,106.059C123.681,106.059 141.561,109.548 151.295,122.742C151.194,119.138 151.201,107.828 151.201,107.828C151.201,107.828 160.066,119.53 165.397,122.171C164.351,123.312 155.03,133.794 155.03,133.794L177.358,134.217L177.391,148.904L192.381,148.958L199.87,163.828L202.354,157.482C202.354,157.482 207.866,173.159 207.494,191.48C207.123,209.802 207.267,220.158 197.576,228.919C187.885,237.68 180.641,237.663 171.377,238.692Z" style="fill:rgb(247,150,91);"/>
            <g id="Face">
                <path id="Nose" d="M117.33,184.542C117.33,187.675 119.873,190.218 123.006,190.218L127.163,190.218C130.295,190.218 132.839,187.675 132.839,184.542C132.839,181.409 130.295,178.866 127.163,178.866L123.006,178.866C119.873,178.866 117.33,181.409 117.33,184.542Z" style="fill:rgb(50,18,11);"/>
                <g id="Eyes">
                    <path id="Right-eye" serif:id="Right eye" d="M165.617,155.404L165.617,161.963C165.617,168.853 160.023,174.446 153.133,174.446C146.243,174.446 140.649,168.853 140.649,161.963L140.649,155.404C140.649,148.514 146.243,142.92 153.133,142.92C160.023,142.92 165.617,148.514 165.617,155.404Z"/>
                    <path id="Left-eye" serif:id="Left eye" d="M115.617,155.404L115.617,161.963C115.617,168.853 110.023,174.446 103.133,174.446C96.243,174.446 90.649,168.853 90.649,161.963L90.649,155.404C90.649,148.514 96.243,142.92 103.133,142.92C110.023,142.92 115.617,148.514 115.617,155.404Z"/>
                </g>
            </g>
        </g>
        <g id="Dagn">
            <path id="Body1" serif:id="Body" d="M116.928,256L28.929,256C28.929,256 19.105,217.723 19.172,179.381C19.24,141.039 26.585,92.346 67.217,73.02C61.854,68.475 33.816,50.101 35.564,24.047C37.311,22.201 41.684,25.004 41.684,25.004C41.684,25.004 81.945,49.276 88.355,51.941C86.207,48.99 74.686,34.559 76.55,16.883C78.72,14.612 82.765,17.314 82.765,17.314C82.765,17.314 104.445,36.741 117.415,42.792C130.385,48.843 160.183,52.496 166.45,63.263C170.858,70.834 169.165,71.31 172.699,72.549C180.967,75.449 216.059,80.66 216.059,80.66C216.059,80.66 224.906,81.92 224.965,91.154C225.024,100.388 220.113,110.617 216.239,116.159C212.366,121.701 203.822,129.583 197.404,129.629C190.987,129.675 123.293,129.881 123.293,129.881C123.293,129.881 111.985,127.823 101.25,138.838C90.515,149.852 93.485,156.385 93.268,161.896C93.051,167.407 94.547,184.802 101.482,201.83C108.417,218.858 116.928,256 116.928,256Z" style="fill:rgb(28,83,196);"/>
            <path d="M181.433,59.446C192.426,62.078 216.547,65.575 218.176,65.81L222.977,67.041L228.459,69.734L231.804,72.29L235.068,75.886L238.655,82.831L239.965,91.058C240.044,103.464 233.738,117.307 228.534,124.752C225.334,129.331 219.82,135.073 214.01,138.945C208.478,142.633 202.562,144.592 197.512,144.628C191.089,144.674 123.338,144.881 123.338,144.881C123.323,144.881 123.308,144.881 123.293,144.881L120.76,144.665C120.79,144.67 121.224,144.733 121.224,144.733C121.224,144.733 115.894,145.304 111.992,149.307C105.965,155.491 108.378,159.393 108.257,162.486C108.073,167.14 109.518,181.792 115.374,196.172C122.607,213.932 131.549,252.65 131.549,252.65C132.569,257.102 131.505,261.775 128.659,265.347C125.813,268.919 121.495,271 116.928,271L28.929,271C22.081,271 16.102,266.362 14.4,259.729C14.4,259.729 4.101,219.576 4.172,179.355C4.237,142.371 11.725,97.586 42.243,71.474C38.844,68.152 35.354,64.311 32.251,60.022C24.826,49.754 19.649,37.177 20.597,23.043C20.831,19.56 22.272,16.267 24.672,13.733L30.008,9.944L35.188,8.532L39.031,8.502L43.067,9.295L49.778,12.374L49.429,12.158C49.429,12.158 54.559,15.269 61.374,19.346C61.405,18.016 61.489,16.67 61.633,15.309C61.981,12.009 63.413,8.918 65.706,6.519L71.038,2.684L75.267,1.311L78.97,0.975L85.077,1.971L91.097,4.841C91.686,5.234 92.247,5.67 92.775,6.143C92.775,6.143 112.111,23.765 123.757,29.199C132.758,33.398 149.948,36.397 161.575,41.502C170.042,45.219 176.246,50.275 179.414,55.717C180.189,57.047 180.865,58.318 181.433,59.446ZM116.928,256C116.928,256 108.417,218.858 101.482,201.83C94.547,184.802 93.051,167.407 93.268,161.896C93.485,156.385 90.515,149.852 101.25,138.838C111.985,127.823 123.293,129.881 123.293,129.881C123.293,129.881 190.987,129.675 197.404,129.629C203.822,129.583 212.366,121.701 216.239,116.159C220.113,110.617 225.024,100.388 224.965,91.154C224.906,81.92 216.059,80.66 216.059,80.66C216.059,80.66 180.967,75.449 172.699,72.549C169.165,71.31 170.858,70.834 166.45,63.263C160.183,52.496 130.385,48.843 117.415,42.792C104.445,36.741 82.765,17.314 82.765,17.314C82.765,17.314 78.72,14.612 76.55,16.883C74.686,34.559 86.207,48.99 88.355,51.941C81.945,49.276 41.684,25.004 41.684,25.004C41.684,25.004 37.311,22.201 35.564,24.047C33.816,50.101 61.854,68.475 67.217,73.02C26.585,92.346 19.24,141.039 19.172,179.381C19.105,217.723 28.929,256 28.929,256L116.928,256Z"/>
            <g id="Face1" serif:id="Face">
                <path id="Mouth" d="M165.381,107.883L179.577,122.321L192.503,108.685L202.622,121.468L209.195,108.357" style="fill:none;stroke:rgb(0,11,37);stroke-width:10px;"/>
                <path id="Snout" d="M218.819,92.897C218.819,95.01 217.104,96.725 214.991,96.725L209.987,96.725C207.874,96.725 206.159,95.01 206.159,92.897C206.159,90.784 207.874,89.069 209.987,89.069L214.991,89.069C217.104,89.069 218.819,90.784 218.819,92.897Z" style="fill:rgb(0,21,71);"/>
                <path id="Eye" d="M116.333,76.415C119.03,84.257 125.573,86.735 130.533,86.779C136.112,86.829 142.114,85.137 145.919,75.736" style="fill:none;stroke:rgb(0,11,37);stroke-width:12px;stroke-miterlimit:1.5;"/>
            </g>
        </g>
        <path id="Fox-arm" serif:id="Fox arm" d="M149.002,231.753L114.807,231.753C106.708,231.753 100.133,225.178 100.133,217.079C100.133,208.98 106.708,202.404 114.807,202.404L149.002,202.404" style="fill:rgb(247,150,91);stroke:black;stroke-width:10px;stroke-miterlimit:1.5;"/>
    </g>
</svg>
