<?xml version="1.0" encoding="UTF-8" standalone="no"?>
<!DOCTYPE svg PUBLIC "-//W3C//DTD SVG 1.1//EN" "http://www.w3.org/Graphics/SVG/1.1/DTD/svg11.dtd">
<svg width="100%" height="100%" viewBox="0 0 256 256" version="1.1" xmlns="http://www.w3.org/2000/svg" xmlns:xlink="http://www.w3.org/1999/xlink" xml:space="preserve" xmlns:serif="http://www.serif.com/" style="fill-rule:evenodd;clip-rule:evenodd;stroke-linecap:round;">
    <rect id="neomouse_hug_bee" x="0" y="0" width="256" height="256" style="fill:none;"/>
    <clipPath id="_clip1">
        <rect x="0" y="0" width="256" height="256"/>
    </clipPath>
    <g clip-path="url(#_clip1)">
        <g id="Mouse">
            <path id="Body" d="M88.327,180.544L88.327,189.208C88.327,193.347 88.902,197.345 89.955,201.14C89.955,201.143 89.955,201.146 89.956,201.148C90.073,201.568 90.184,201.991 90.312,202.405C95.581,221.005 110.905,235.29 130.102,239.054C130.764,239.191 131.433,239.31 132.108,239.41C134.749,239.821 137.456,240.038 140.215,240.038L163.857,240.038C165.477,240.038 167.981,240.184 169.561,240.041L193.758,240.041C213.72,240.041 228.884,223.739 228.884,203.778L228.884,172.068C228.988,140.88 210.748,115.847 151.848,115.847C111.243,115.847 89.156,151.851 88.327,180.544Z" style="fill:rgb(227,222,219);fill-rule:nonzero;stroke:black;stroke-width:15px;"/>
            <g id="Left-ear" serif:id="Left ear">
                <path id="Fill" d="M112.545,82.724C112.219,82.706 111.922,82.749 111.656,82.853C110.97,83.123 98.678,80.074 88.219,100.998C81.125,115.19 86.755,135.222 99.065,140.647C99.761,140.954 100.413,141.229 101.084,141.519C101.085,141.518 101.112,141.465 101.113,141.464C113.574,145.442 136.49,132.931 136.212,126.439C136.212,126.431 136.214,126.437 136.214,126.431C128.002,96.429 117.279,82.993 112.545,82.724Z" style="fill:rgb(233,175,175);fill-rule:nonzero;"/>
                <path id="Inner-line" serif:id="Inner line" d="M109.253,77.313C105.115,84.448 100.268,95.586 111.43,112.136C120.924,126.212 136.106,120.765 136.106,120.765" style="fill:none;fill-rule:nonzero;stroke:rgb(160,44,44);stroke-opacity:0.21;stroke-width:11.13px;stroke-linecap:butt;"/>
                <path id="Outline" d="M113.241,68.133C112.71,68.106 112.128,68.188 111.57,68.213C111.585,68.224 111.647,68.258 111.667,68.258C111.949,68.264 111.761,68.261 111.462,68.249C111.317,68.243 110.914,68.258 110.71,68.253C109.289,68.391 107.827,68.656 106.318,69.248C107.593,68.748 108.476,68.464 109.197,68.262C108.869,68.269 108.726,68.247 108.36,68.268C105.641,68.42 101.908,69.03 97.914,70.717C89.924,74.092 81.525,81.698 75.145,94.462C69.677,105.402 69.336,117.348 72.277,127.999C75.217,138.651 81.692,148.964 93.169,154.022C93.584,154.205 93.971,154.373 94.381,154.555C99.417,144.827 100.954,141.846 101.084,141.519C100.413,141.229 99.761,140.954 99.065,140.647C86.755,135.222 81.125,115.19 88.219,100.998C98.678,80.074 110.97,83.123 111.656,82.853C111.922,82.749 112.219,82.706 112.545,82.724C117.279,82.993 128.003,96.428 136.214,126.429C136.215,126.39 136.223,126.376 136.223,126.376C141.533,125.599 144.727,123.344 144.532,116.284C144.692,116.099 148.178,115.917 148.396,115.958C144.307,102.654 139.717,92.453 135.015,84.901C132.121,80.253 129.296,76.578 125.644,73.469C123.818,71.915 121.784,70.437 118.779,69.299C117.277,68.731 115.375,68.241 113.241,68.133Z" style="fill-rule:nonzero;"/>
            </g>
            <g id="Right-ear" serif:id="Right ear">
                <path id="Fill1" serif:id="Fill" d="M207.476,82.901C201.839,83.09 189.271,96.318 179.533,127.487C179.551,127.497 179.642,127.52 179.641,127.527C179.641,127.527 179.686,127.646 179.71,127.704C184.324,139.312 208.017,145.538 221.519,140.448C221.522,140.454 221.524,140.461 221.527,140.468C222.329,140.177 223.109,139.9 223.942,139.591C238.441,134.21 245.074,114.342 236.718,100.265C224.398,79.511 209.326,83.305 208.517,83.038C208.204,82.934 207.855,82.888 207.476,82.901L207.476,82.901Z" style="fill:rgb(233,175,175);fill-rule:nonzero;"/>
                <path id="Inner-line1" serif:id="Inner line" d="M211.616,77.712C216.501,84.431 221.193,99.021 207.813,114.499C194.166,130.287 178.185,120.965 178.185,120.965" style="fill:none;fill-rule:nonzero;stroke:rgb(160,44,44);stroke-opacity:0.21;stroke-width:11.13px;stroke-linecap:butt;"/>
                <path id="Outline1" serif:id="Outline" d="M207.21,68.118C201.833,68.045 197.933,70.553 194.898,72.683C190.852,75.524 187.522,79.11 184.159,83.662C178.397,91.464 172.764,102.216 167.75,116.569C169.238,116.627 171.287,116.927 171.642,116.944C169.063,125.465 178.949,127.173 179.533,127.487C189.271,96.318 201.839,83.09 207.476,82.901C207.855,82.888 208.204,82.934 208.517,83.038C209.326,83.305 224.398,79.511 236.718,100.265C245.074,114.342 238.441,134.21 223.942,139.591C223.109,139.9 222.329,140.177 221.527,140.468C223.182,145.051 225.245,149.522 226.532,154.205C227.376,153.891 228.164,153.614 229.027,153.294C253.166,144.335 262.456,114.991 249.286,92.805C241.591,79.842 231.359,72.718 222.633,70.009C218.269,68.655 214.386,68.318 211.585,68.308C211.022,68.306 210.767,68.338 210.3,68.355C210.59,68.423 211.105,68.592 211.465,68.69C210.932,68.561 210.412,68.455 209.903,68.371C209.396,68.395 208.687,68.406 208.388,68.428C208.071,68.451 207.86,68.462 208.087,68.451C208.166,68.447 208.194,68.325 208.334,68.222C207.963,68.194 207.568,68.122 207.21,68.118ZM172.375,146.397C173.484,147.944 174.681,149.423 176.018,150.814C177.549,152.407 179.299,153.833 181.167,155.088C177.951,152.42 174.968,149.473 172.375,146.397Z" style="fill-rule:nonzero;"/>
            </g>
            <path id="Right-eye" serif:id="Right eye" d="M195.661,154.382L195.661,160.612C195.661,167.158 190.347,172.472 183.802,172.472C177.257,172.472 171.943,167.158 171.943,160.612L171.943,154.382C171.943,147.836 177.257,142.522 183.802,142.522C190.347,142.522 195.661,147.836 195.661,154.382Z"/>
            <g id="Whiskers">
                <path id="path21" d="M187.915,185.609C200.575,175.78 232.056,173.938 247.929,185.241" style="fill:none;fill-rule:nonzero;stroke:rgb(105,104,102);stroke-opacity:0.72;stroke-width:7.73px;stroke-linejoin:round;"/>
                <path id="path23" d="M196.607,197.209C210.49,193.549 231.828,193.777 249.144,206.118" style="fill:none;fill-rule:nonzero;stroke:rgb(105,104,102);stroke-opacity:0.72;stroke-width:7.73px;stroke-linejoin:round;"/>
            </g>
        </g>
        <g id="Bee">
            <path id="Wings-outline" serif:id="Wings outline" d="M117.671,163.06C117.191,163.682 116.685,164.289 116.152,164.881C103.374,179.095 76.549,180.17 56.466,163.537C35.819,146.436 33.081,119.995 46.218,105.381C54.979,95.636 70.166,91.975 85.38,96.01C93.709,83.393 107.056,76.354 119.567,77.857C138.121,80.086 152.879,100.58 148.895,125.661C145.772,145.322 132.25,159.448 117.671,163.06ZM108.473,148.825C108.602,148.844 108.732,148.861 108.862,148.877C120.32,150.253 131.621,138.796 134.081,123.307C136.541,107.819 129.236,94.127 117.778,92.75C106.948,91.449 96.26,101.612 93.043,115.807C80.407,107.253 65.054,106.866 57.374,115.409C49.011,124.711 52.892,141.1 66.034,151.984C79.176,162.869 96.635,164.155 104.997,154.853C106.597,153.073 107.748,151.035 108.473,148.825Z"/>
            <path id="Body1" serif:id="Body" d="M106.103,125.73C62.71,109.377 19.883,121.211 10.526,152.141C1.169,183.071 28.802,221.459 72.195,237.812C115.589,254.165 158.415,242.331 167.773,211.401C177.13,180.471 149.497,142.083 106.103,125.73Z" style="fill:rgb(254,194,7);"/>
            <g id="Stripes">
                <path d="M75.248,122.321C76.231,122.875 14.788,132.343 23.038,201.303C-25.748,118.355 73.562,115.663 75.248,122.321Z" style="fill:rgb(85,85,85);"/>
                <path d="M23.183,202.008C13.359,135.853 73.613,121.835 72.882,119.961L97.339,124.461C97.339,124.461 23.945,138.281 37.213,215.889L25.291,202.8" style="fill:rgb(254,194,7);"/>
                <path d="M54.078,228.958L37.34,215.863C24.003,138.167 98.322,121.461 98.327,121.49L111.874,126.746C111.99,126.746 36.134,149.455 54.078,228.958Z" style="fill:rgb(85,85,85);"/>
                <path d="M110.875,127.014L126.04,135.37C126.04,135.37 53.559,158.72 70.571,237.326L54.543,229.979C33.286,152.912 111.795,127.513 113.137,128.26" style="fill:rgb(254,194,7);"/>
                <path d="M129.12,136.301L141.107,145.56C141.107,145.56 72.991,160.291 88.165,241.844L70.571,237.326C51.117,156.675 127.081,137.621 129.12,136.301Z" style="fill:rgb(85,85,85);"/>
            </g>
            <path id="Body-outline" serif:id="Body outline" d="M106.103,125.73C62.71,109.377 19.883,121.211 10.526,152.141C1.169,183.071 28.802,221.459 72.195,237.812C115.589,254.165 158.415,242.331 167.773,211.401C177.13,180.471 149.497,142.083 106.103,125.73Z" style="fill:none;stroke:black;stroke-width:15px;stroke-linejoin:round;stroke-miterlimit:1.5;"/>
            <g id="Wings">
                <path id="Back-wing" serif:id="Back wing" d="M117.778,92.75C106.319,91.374 95.019,102.831 92.559,118.319C90.099,133.808 97.404,147.5 108.862,148.877C120.32,150.253 131.621,138.796 134.081,123.307C136.541,107.819 129.236,94.127 117.778,92.75Z" style="fill:rgb(167,167,167);"/>
                <path id="Front-wing" serif:id="Front wing" d="M57.374,115.409C49.011,124.711 52.892,141.1 66.034,151.984C79.176,162.869 96.635,164.155 104.997,154.853C113.359,145.551 109.478,129.162 96.336,118.277C83.194,107.393 65.736,106.107 57.374,115.409Z" style="fill:rgb(195,195,195);"/>
            </g>
            <g id="Face">
                <path id="Mouth" d="M149.164,205.945L145.488,216.559L135.965,208.681L128.515,220.028L115.395,212.929" style="fill:none;stroke:black;stroke-width:5px;stroke-linejoin:round;stroke-miterlimit:1.5;"/>
                <path id="Right-eye1" serif:id="Right eye" d="M134.508,186.305C137.16,189.993 140.963,190.26 143.555,189.499C146.47,188.644 149.329,186.808 149.818,181.275" style="fill:none;stroke:black;stroke-width:7px;stroke-linejoin:round;stroke-miterlimit:1.5;"/>
                <path id="Left-eye" serif:id="Left eye" d="M104.008,195.121C106.661,198.809 110.464,199.076 113.056,198.316C115.971,197.46 118.83,195.625 119.319,190.092" style="fill:none;stroke:black;stroke-width:7px;stroke-linejoin:round;stroke-miterlimit:1.5;"/>
            </g>
        </g>
        <g id="Arm">
            <path id="Arm1" serif:id="Arm" d="M186.336,225.555L152.141,225.555C144.042,225.555 137.466,218.979 137.466,210.88C137.466,202.781 144.042,196.206 152.141,196.206L186.336,196.206" style="fill:rgb(227,222,219);stroke:black;stroke-width:10px;stroke-linejoin:round;stroke-miterlimit:1.5;"/>
            <path id="Paw" d="M161.488,201.232L151.763,201.232C146.294,201.232 142.571,206.006 142.562,210.805C142.552,215.654 146.312,220.528 151.315,220.528L161.533,220.528C163.298,217.464 164.172,214.081 164.162,210.743C164.152,207.405 163.258,204.113 161.488,201.232Z" style="fill:rgb(233,175,175);fill-rule:nonzero;"/>
        </g>
    </g>
</svg>
