<?xml version="1.0" encoding="UTF-8" standalone="no"?>
<!DOCTYPE svg PUBLIC "-//W3C//DTD SVG 1.1//EN" "http://www.w3.org/Graphics/SVG/1.1/DTD/svg11.dtd">
<svg width="100%" height="100%" viewBox="0 0 256 256" version="1.1" xmlns="http://www.w3.org/2000/svg" xmlns:xlink="http://www.w3.org/1999/xlink" xml:space="preserve" xmlns:serif="http://www.serif.com/" style="fill-rule:evenodd;clip-rule:evenodd;stroke-linecap:round;">
    <rect id="neomouse_hug_dlr_heart" x="-0" y="0" width="256" height="256" style="fill:none;"/>
    <clipPath id="_clip1">
        <rect x="-0" y="0" width="256" height="256"/>
    </clipPath>
    <g clip-path="url(#_clip1)">
        <g id="Mouse">
            <path id="Body" d="M88.327,180.544L88.327,189.208C88.327,193.347 88.902,197.345 89.955,201.14C89.955,201.143 89.955,201.146 89.956,201.148C90.073,201.568 90.184,201.991 90.312,202.405C95.581,221.005 110.905,235.29 130.102,239.054C130.764,239.191 131.433,239.31 132.108,239.41C134.749,239.821 137.456,240.038 140.215,240.038L163.857,240.038C165.477,240.038 167.981,240.184 169.561,240.041L193.758,240.041C213.72,240.041 228.884,223.739 228.884,203.778L228.884,172.068C228.988,140.88 210.748,115.847 151.848,115.847C111.243,115.847 89.156,151.851 88.327,180.544Z" style="fill:rgb(227,222,219);fill-rule:nonzero;stroke:black;stroke-width:15px;"/>
            <g id="Left-ear" serif:id="Left ear">
                <path id="Fill" d="M112.545,82.724C112.219,82.706 111.922,82.749 111.656,82.853C110.97,83.123 98.678,80.074 88.219,100.998C81.125,115.19 86.755,135.222 99.065,140.647C99.761,140.954 100.413,141.229 101.084,141.519C101.085,141.518 101.112,141.465 101.113,141.464C113.574,145.442 136.49,132.931 136.212,126.439C136.212,126.431 136.214,126.437 136.214,126.431C128.002,96.429 117.279,82.993 112.545,82.724Z" style="fill:rgb(233,175,175);fill-rule:nonzero;"/>
                <path id="Inner-line" serif:id="Inner line" d="M109.253,77.313C105.115,84.448 100.268,95.586 111.43,112.136C120.924,126.212 136.106,120.765 136.106,120.765" style="fill:none;fill-rule:nonzero;stroke:rgb(160,44,44);stroke-opacity:0.21;stroke-width:11.13px;stroke-linecap:butt;"/>
                <path id="Outline" d="M113.241,68.133C112.71,68.106 112.128,68.188 111.57,68.213C111.585,68.224 111.647,68.258 111.667,68.258C111.949,68.264 111.761,68.261 111.462,68.249C111.317,68.243 110.914,68.258 110.71,68.253C109.289,68.391 107.827,68.656 106.318,69.248C107.593,68.748 108.476,68.464 109.197,68.262C108.869,68.269 108.726,68.247 108.36,68.268C105.641,68.42 101.908,69.03 97.914,70.717C89.924,74.092 81.525,81.698 75.145,94.462C69.677,105.402 69.336,117.348 72.277,127.999C75.217,138.651 81.692,148.964 93.169,154.022C93.584,154.205 93.971,154.373 94.381,154.555C99.417,144.827 100.954,141.846 101.084,141.519C100.413,141.229 99.761,140.954 99.065,140.647C86.755,135.222 81.125,115.19 88.219,100.998C98.678,80.074 110.97,83.123 111.656,82.853C111.922,82.749 112.219,82.706 112.545,82.724C117.279,82.993 128.003,96.428 136.214,126.429C136.215,126.39 136.223,126.376 136.223,126.376C141.533,125.599 144.727,123.344 144.532,116.284C144.692,116.099 148.178,115.917 148.396,115.958C144.307,102.654 139.717,92.453 135.015,84.901C132.121,80.253 129.296,76.578 125.644,73.469C123.818,71.915 121.784,70.437 118.779,69.299C117.277,68.731 115.375,68.241 113.241,68.133Z" style="fill-rule:nonzero;"/>
            </g>
            <g id="Right-ear" serif:id="Right ear">
                <path id="Fill1" serif:id="Fill" d="M207.476,82.901C201.839,83.09 189.271,96.318 179.533,127.487C179.551,127.497 179.642,127.52 179.641,127.527C179.641,127.527 179.686,127.646 179.71,127.704C184.324,139.312 208.017,145.538 221.519,140.448C221.522,140.454 221.524,140.461 221.527,140.468C222.329,140.177 223.109,139.9 223.942,139.591C238.441,134.21 245.074,114.342 236.718,100.265C224.398,79.511 209.326,83.305 208.517,83.038C208.204,82.934 207.855,82.888 207.476,82.901L207.476,82.901Z" style="fill:rgb(233,175,175);fill-rule:nonzero;"/>
                <path id="Inner-line1" serif:id="Inner line" d="M211.616,77.712C216.501,84.431 221.193,99.021 207.813,114.499C194.166,130.287 178.185,120.965 178.185,120.965" style="fill:none;fill-rule:nonzero;stroke:rgb(160,44,44);stroke-opacity:0.21;stroke-width:11.13px;stroke-linecap:butt;"/>
                <path id="Outline1" serif:id="Outline" d="M207.21,68.118C201.833,68.045 197.933,70.553 194.898,72.683C190.852,75.524 187.522,79.11 184.159,83.662C178.397,91.464 172.764,102.216 167.75,116.569C169.238,116.627 171.287,116.927 171.642,116.944C169.063,125.465 178.949,127.173 179.533,127.487C189.271,96.318 201.839,83.09 207.476,82.901C207.855,82.888 208.204,82.934 208.517,83.038C209.326,83.305 224.398,79.511 236.718,100.265C245.074,114.342 238.441,134.21 223.942,139.591C223.109,139.9 222.329,140.177 221.527,140.468C223.182,145.051 225.245,149.522 226.532,154.205C227.376,153.891 228.164,153.614 229.027,153.294C253.166,144.335 262.456,114.991 249.286,92.805C241.591,79.842 231.359,72.718 222.633,70.009C218.269,68.655 214.386,68.318 211.585,68.308C211.022,68.306 210.767,68.338 210.3,68.355C210.59,68.423 211.105,68.592 211.465,68.69C210.932,68.561 210.412,68.455 209.903,68.371C209.396,68.395 208.687,68.406 208.388,68.428C208.071,68.451 207.86,68.462 208.087,68.451C208.166,68.447 208.194,68.325 208.334,68.222C207.963,68.194 207.568,68.122 207.21,68.118ZM172.375,146.397C173.484,147.944 174.681,149.423 176.018,150.814C177.549,152.407 179.299,153.833 181.167,155.088C177.951,152.42 174.968,149.473 172.375,146.397Z" style="fill-rule:nonzero;"/>
            </g>
            <path id="Right-eye" serif:id="Right eye" d="M195.661,154.382L195.661,160.612C195.661,167.158 190.347,172.472 183.802,172.472C177.257,172.472 171.943,167.158 171.943,160.612L171.943,154.382C171.943,147.836 177.257,142.522 183.802,142.522C190.347,142.522 195.661,147.836 195.661,154.382Z"/>
            <g id="Whiskers">
                <path id="path21" d="M187.915,185.609C200.575,175.78 232.056,173.938 247.929,185.241" style="fill:none;fill-rule:nonzero;stroke:rgb(105,104,102);stroke-opacity:0.72;stroke-width:7.73px;stroke-linejoin:round;"/>
                <path id="path23" d="M196.607,197.209C210.49,193.549 231.828,193.777 249.144,206.118" style="fill:none;fill-rule:nonzero;stroke:rgb(105,104,102);stroke-opacity:0.72;stroke-width:7.73px;stroke-linejoin:round;"/>
            </g>
        </g>
        <g id="DLR">
            <g id="Body1" serif:id="Body">
                <g id="Outline2" serif:id="Outline">
                    <path d="M132.749,85.316L43.998,79.803C41.054,75.918 35.198,78.283 35.198,78.283L-1.812,88.482L-1.899,227.165C-1.899,227.165 23.146,236.425 34.22,239.73C45.294,243.034 46.503,231.406 46.503,231.406C46.503,231.406 46.674,228.645 46.936,224.136L106.165,220.184C112.098,222.399 136.318,231.385 148.252,234.935C161.912,239 161.476,224.329 161.476,224.329C161.476,224.329 161.385,189.485 160.929,183.132C160.473,176.778 159.628,164.128 159.115,157.225C158.602,150.321 154.177,121.317 154.177,121.317C154.177,121.317 150.291,98.477 147.134,89.994C143.977,81.511 138.034,83.949 138.034,83.949L132.749,85.316Z" style="fill:rgb(224,51,51);"/>
                    <path d="M48.946,65.081L131.3,70.197L134.278,69.427L132.339,70.072L139.821,68.625L144.111,69.031L148.971,70.637L152.963,73.09L156.44,76.435L159.178,80.396C159.889,81.656 160.573,83.099 161.192,84.762C164.625,93.987 168.964,118.801 168.964,118.801C168.979,118.885 168.992,118.97 169.005,119.054C169.005,119.054 173.545,148.989 174.074,156.113C174.588,163.027 175.434,175.695 175.891,182.058C176.337,188.286 176.465,221.211 176.475,224.044C176.491,224.77 176.504,227.861 175.662,231.521L173.594,237.476L169.604,243.389L165.223,247.068L160.226,249.449L154.729,250.562L149.247,250.434C147.63,250.233 145.874,249.878 143.974,249.312C133.27,246.127 112.898,238.678 103.954,235.365L60.111,238.291L59.745,239.777L57.189,244.834L53.92,248.849L48.987,252.532L44.51,254.391L39.607,255.262L34.675,255.115L29.931,254.103C18.578,250.716 -7.101,241.234 -7.101,241.234C-12.993,239.056 -16.903,233.437 -16.899,227.156L-16.812,88.472C-16.808,81.726 -12.301,75.813 -5.797,74.021L31.213,63.822L29.581,64.375L37.358,62.628L44.207,63.154L48.946,65.081ZM132.749,85.316L43.998,79.803C41.054,75.918 35.198,78.283 35.198,78.283L-1.812,88.482L-1.899,227.165C-1.899,227.165 23.146,236.425 34.22,239.73C45.294,243.034 46.503,231.406 46.503,231.406C46.503,231.406 46.674,228.645 46.936,224.136L106.165,220.184C112.098,222.399 136.318,231.385 148.252,234.935C161.912,239 161.476,224.329 161.476,224.329C161.476,224.329 161.385,189.485 160.929,183.132C160.473,176.778 159.628,164.128 159.115,157.225C158.602,150.321 154.177,121.317 154.177,121.317C154.177,121.317 150.291,98.477 147.134,89.994C143.977,81.511 138.034,83.949 138.034,83.949L132.749,85.316Z"/>
                </g>
                <path id="Left-panel" serif:id="Left panel" d="M132.377,85.412L138.034,83.949C138.034,83.949 143.977,81.511 147.134,89.994C150.291,98.477 154.177,121.317 154.177,121.317C154.177,121.317 158.602,150.321 159.115,157.225C159.628,164.128 160.473,176.778 160.929,183.132C161.385,189.485 161.476,224.329 161.476,224.329C161.476,224.329 161.912,239 148.252,234.935C134.591,230.871 104.831,219.685 104.831,219.685L115.876,84.251L132.377,85.412Z" style="fill:rgb(224,51,51);"/>
                <path id="Front" d="M43.953,79.8L137.852,85.633C137.852,85.633 141.441,85.803 142.488,89.681C143.534,93.558 150.014,133.313 151.974,144.111C156.733,170.321 155.584,216.887 155.584,216.887L46.226,224.184L43.953,79.8Z" style="fill:rgb(52,49,40);"/>
                <path id="Right-panel" serif:id="Right panel" d="M-1.899,88.492L-1.899,227.165C-1.899,227.165 23.146,236.425 34.22,239.73C45.294,243.034 46.503,231.406 46.503,231.406C46.503,231.406 49.775,178.561 49.598,157.665C49.422,136.769 47.379,102.44 47.379,102.44C47.379,102.44 46.847,92.555 45.467,83.624C44.087,74.693 35.198,78.283 35.198,78.283L-1.899,88.492Z" style="fill:rgb(224,51,51);"/>
            </g>
            <path id="Left-window" serif:id="Left window" d="M142.823,108.544C142.823,108.544 150.905,144.834 151.583,171.842C148.028,172.011 128.983,172.087 128.983,172.087C128.983,172.087 128.021,146.199 121.666,107.856C123.619,107.612 142.823,108.544 142.823,108.544Z" style="fill:rgb(167,227,244);"/>
            <path id="Middle-window" serif:id="Middle window" d="M110.752,107.232C110.752,107.232 116.461,146.081 117.138,173.09C113.584,173.259 93.338,173.347 93.338,173.347C93.338,173.347 92.759,144.708 87.938,106.236C89.892,105.991 110.752,107.232 110.752,107.232Z" style="fill:rgb(167,227,244);"/>
            <path id="Right-window" serif:id="Right window" d="M76.228,105.413C76.228,105.413 80.696,146.856 81.373,173.864C77.819,174.033 54.484,174.267 54.484,174.267C54.484,174.267 53.693,142.106 51.134,104.735C53.088,104.491 76.228,105.413 76.228,105.413Z" style="fill:rgb(167,227,244);"/>
            <path id="Mouth" d="M127.195,185.402L119.565,198.23L109.283,185.424L96.546,198.195L81.373,185.439" style="fill:none;stroke:rgb(5,172,168);stroke-width:6.65px;stroke-linejoin:round;stroke-miterlimit:1.5;"/>
            <path id="Right-eye1" serif:id="Right eye" d="M131.979,157.508C133.33,161.462 136.607,162.712 139.092,162.734C141.886,162.759 144.893,161.906 146.799,157.166" style="fill:none;stroke:black;stroke-width:7px;stroke-linejoin:round;stroke-miterlimit:1.5;"/>
            <path id="Left-eye" serif:id="Left eye" d="M59.331,158.053C60.84,162.471 64.501,163.867 67.277,163.892C70.399,163.92 73.758,162.966 75.887,157.671" style="fill:none;stroke:black;stroke-width:7px;stroke-linejoin:round;stroke-miterlimit:1.5;"/>
        </g>
        <path id="Heart" d="M100.241,70.661L90.15,60.571C80.47,50.89 80.47,35.171 90.15,25.491C99.831,15.81 115.55,15.81 125.231,25.491L128,28.26L130.769,25.491C140.45,15.81 156.169,15.81 165.85,25.491C175.53,35.171 175.53,50.89 165.85,60.571L155.759,70.661C155.367,71.211 154.923,71.736 154.43,72.23L136.889,89.77C134.439,92.221 131.215,93.43 128,93.4C124.785,93.43 121.561,92.221 119.111,89.77L101.57,72.23C101.077,71.736 100.633,71.211 100.241,70.661Z" style="fill:rgb(239,124,148);stroke:black;stroke-width:15px;stroke-miterlimit:5;"/>
        <g id="Arm">
            <path id="Arm1" serif:id="Arm" d="M186.336,225.555L152.141,225.555C144.042,225.555 137.466,218.979 137.466,210.88C137.466,202.781 144.042,196.206 152.141,196.206L186.336,196.206" style="fill:rgb(227,222,219);stroke:black;stroke-width:10px;stroke-linejoin:round;stroke-miterlimit:1.5;"/>
            <path id="Paw" d="M161.488,201.232L151.763,201.232C146.294,201.232 142.571,206.006 142.562,210.805C142.552,215.654 146.312,220.528 151.315,220.528L161.533,220.528C163.298,217.464 164.172,214.081 164.162,210.743C164.152,207.405 163.258,204.113 161.488,201.232Z" style="fill:rgb(233,175,175);fill-rule:nonzero;"/>
        </g>
    </g>
</svg>
