<?xml version="1.0" encoding="UTF-8" standalone="no"?>
<!DOCTYPE svg PUBLIC "-//W3C//DTD SVG 1.1//EN" "http://www.w3.org/Graphics/SVG/1.1/DTD/svg11.dtd">
<svg width="100%" height="100%" viewBox="0 0 256 256" version="1.1" xmlns="http://www.w3.org/2000/svg" xmlns:xlink="http://www.w3.org/1999/xlink" xml:space="preserve" xmlns:serif="http://www.serif.com/" style="fill-rule:evenodd;clip-rule:evenodd;stroke-linecap:round;stroke-linejoin:round;stroke-miterlimit:1.5;">
    <rect id="neobread_hug_dog" x="0" y="0" width="256" height="256" style="fill:none;"/>
    <g id="Right-bread" serif:id="Right bread">
        <path id="Crust" d="M213.578,107.289C231.759,107.289 246.519,122.049 246.519,140.229C246.519,147.958 243.851,155.068 239.388,160.69L239.388,211.745C239.388,221.261 231.662,228.987 222.146,228.987L126.944,228.987C117.428,228.987 109.702,221.261 109.702,211.745L109.702,160.494C105.332,154.904 102.726,147.868 102.726,140.229C102.726,122.049 117.486,107.289 135.666,107.289L213.578,107.289Z" style="fill:rgb(209,160,132);stroke:black;stroke-width:15px;"/>
        <rect id="Shadow" x="171.212" y="159.086" width="60.449" height="9.176" style="fill:rgb(186,133,109);"/>
        <path id="Slice" d="M124.789,159.431C119.798,155.454 116.597,149.324 116.597,142.453C116.597,130.478 126.319,120.756 138.294,120.756L178.062,120.756C190.038,120.756 199.76,130.478 199.76,142.453C199.76,149.094 196.77,155.041 192.065,159.023L192.065,207.263C192.065,211.948 188.261,215.751 183.576,215.751L133.278,215.751C128.593,215.751 124.789,211.948 124.789,207.263L124.789,159.431Z" style="fill:rgb(252,233,186);"/>
        <g id="Face">
            <path id="Mouth" d="M137.069,184.819L143.553,195.722L152.291,184.838L163.116,195.691L176.01,184.851" style="fill:none;stroke:black;stroke-width:6.02px;"/>
            <g id="Eyes">
                <path id="Right-eye" serif:id="Right eye" d="M182.791,158.299L182.791,162.628C182.791,167.175 179.099,170.867 174.551,170.867C170.003,170.867 166.311,167.175 166.311,162.628L166.311,158.299C166.311,153.751 170.003,150.059 174.551,150.059C179.099,150.059 182.791,153.751 182.791,158.299Z"/>
                <path id="Left-eye" serif:id="Left eye" d="M150.045,158.263L150.045,162.592C150.045,167.14 146.353,170.832 141.806,170.832C137.258,170.832 133.566,167.14 133.566,162.592L133.566,158.263C133.566,153.716 137.258,150.024 141.806,150.024C146.353,150.024 150.045,153.716 150.045,158.263Z"/>
            </g>
        </g>
    </g>
    <g id="Dog">
        <path id="Body" d="M135.038,172.007L135.038,187.661C135.038,208.273 118.304,225.008 97.691,225.008L43.401,225.008C28.691,225.008 16.749,213.066 16.749,198.356L16.749,171.927C16.749,142.384 40.734,118.399 70.276,118.399L81.43,118.399C111.017,118.399 135.038,142.42 135.038,172.007Z" style="fill:rgb(243,192,123);"/>
        <path d="M150.038,172.007L150.038,187.661C150.038,216.552 126.582,240.008 97.691,240.008L43.401,240.008C20.413,240.008 1.749,221.344 1.749,198.356L1.749,171.927C1.749,134.106 32.455,103.399 70.276,103.399L81.43,103.399C119.296,103.399 150.038,134.142 150.038,172.007ZM135.038,172.007C135.038,142.42 111.017,118.399 81.43,118.399L70.276,118.399C40.734,118.399 16.749,142.384 16.749,171.927L16.749,198.356C16.749,213.066 28.691,225.008 43.401,225.008L97.691,225.008C118.304,225.008 135.038,208.273 135.038,187.661L135.038,172.007Z"/>
        <path id="Snoot" d="M113.801,190.126C113.801,200.858 105.088,209.572 94.355,209.572L75.222,209.572C64.489,209.572 55.775,200.858 55.775,190.126C55.775,179.393 64.489,170.679 75.222,170.679L94.355,170.679C105.088,170.679 113.801,179.393 113.801,190.126Z" style="fill:rgb(255,221,166);"/>
        <g id="Face1" serif:id="Face">
            <path id="Mouth1" serif:id="Mouth" d="M62.124,191.025L76.102,205.336L88.83,191.82L98.793,204.49L105.265,191.494" style="fill:none;stroke:rgb(55,39,12);stroke-width:10px;stroke-miterlimit:5;"/>
            <path id="Nose" d="M85.709,181.264C83.306,180.382 81.653,178.557 81.653,176.45C81.653,173.482 84.935,171.072 88.977,171.072C93.02,171.072 96.302,173.482 96.302,176.45C96.302,178.552 94.656,180.374 92.261,181.258L92.261,191.025L85.709,191.025L85.709,181.264Z" style="fill:rgb(55,39,12);"/>
            <g id="Eyes1" serif:id="Eyes">
                <path id="Right-eye1" serif:id="Right eye" d="M94.965,154.022C96.9,159.685 101.593,161.475 105.152,161.507C109.154,161.543 113.46,160.321 116.189,153.532" style="fill:none;stroke:black;stroke-width:12px;"/>
                <path id="Left-eye1" serif:id="Left eye" d="M52.373,154.498C54.539,160.84 59.796,162.844 63.781,162.88C68.263,162.92 73.085,161.552 76.142,153.949" style="fill:none;stroke:black;stroke-width:12px;"/>
            </g>
        </g>
        <path id="Right-ear" serif:id="Right ear" d="M142.971,107.529L142.971,160.806C142.971,160.806 140.486,167.4 137.192,162.497C133.898,157.594 100.585,107.919 100.585,107.919C100.585,107.919 97.272,101.595 103.779,102.439C110.286,103.283 115.644,105.93 121.779,105.892C127.915,105.855 137.753,103.812 137.753,103.812C137.753,103.812 143.268,102.745 142.971,107.529Z" style="fill:rgb(109,69,52);"/>
        <path d="M157.942,108.458L157.971,107.529L157.971,160.806C157.971,162.613 157.644,164.405 157.007,166.095L154.171,171.419L149.991,175.784L145.839,178.128L141.945,179.153L137.149,179.12L132.637,177.77L128.523,175.142L124.741,170.862C121.446,165.958 88.127,116.274 88.127,116.274C87.825,115.824 87.548,115.359 87.297,114.88L85.142,108.769L84.925,102.214L86.357,97.356L88.514,93.871L91.896,90.673L95.784,88.591L100.203,87.507L105.708,87.563C111.503,88.315 116.224,90.926 121.687,90.893C126.691,90.862 134.704,89.125 134.704,89.125C134.77,89.112 134.836,89.098 134.902,89.086L139.742,88.723L143.742,89.236L148.355,90.933L151.842,93.319L154.72,96.527L156.799,100.49L157.82,104.621L157.942,108.458ZM142.971,107.529C143.268,102.745 137.753,103.812 137.753,103.812C137.753,103.812 127.915,105.855 121.779,105.892C115.644,105.93 110.286,103.283 103.779,102.439C97.272,101.595 100.585,107.919 100.585,107.919C100.585,107.919 133.898,157.594 137.192,162.497C140.486,167.4 142.971,160.806 142.971,160.806L142.971,107.529Z"/>
        <path id="Left-ear" serif:id="Left ear" d="M15.653,107.529L15.653,160.806C15.653,160.806 18.138,167.4 21.432,162.497C24.726,157.594 58.039,107.919 58.039,107.919C58.039,107.919 61.352,101.595 54.844,102.439C48.337,103.283 42.979,105.93 36.844,105.892C30.709,105.855 20.87,103.812 20.87,103.812C20.87,103.812 15.356,102.745 15.653,107.529Z" style="fill:rgb(109,69,52);"/>
        <path d="M0.653,107.529L0.681,108.458L0.803,104.621L1.825,100.49L3.903,96.527L6.781,93.319L10.268,90.933L14.881,89.236L18.881,88.723L23.721,89.086C23.787,89.098 23.853,89.112 23.919,89.125C23.919,89.125 31.933,90.862 36.936,90.893C42.4,90.926 47.12,88.315 52.915,87.563L58.42,87.507L62.839,88.591L66.727,90.673L70.11,93.871L72.267,97.356L73.698,102.214L73.481,108.769L71.326,114.88C71.075,115.359 70.798,115.824 70.497,116.274C70.497,116.274 37.177,165.958 33.883,170.862L30.101,175.142L25.987,177.77L21.474,179.12L16.679,179.153L12.784,178.128L8.633,175.784L4.452,171.419L1.616,166.095C0.979,164.405 0.653,162.613 0.653,160.806L0.653,107.529ZM15.653,107.529L15.653,160.806C15.653,160.806 18.138,167.4 21.432,162.497C24.726,157.594 58.039,107.919 58.039,107.919C58.039,107.919 61.352,101.595 54.844,102.439C48.337,103.283 42.979,105.93 36.844,105.892C30.709,105.855 20.87,103.812 20.87,103.812C20.87,103.812 15.356,102.745 15.653,107.529Z"/>
    </g>
    <path id="Arm" d="M192.517,212.327L138.382,212.327C130.153,212.327 123.473,205.646 123.473,197.418C123.473,189.332 130.037,182.768 138.122,182.768L192.517,182.768" style="fill:rgb(209,160,132);stroke:black;stroke-width:10px;stroke-linecap:butt;"/>
</svg>
