<?xml version="1.0" encoding="UTF-8" standalone="no"?>
<!DOCTYPE svg PUBLIC "-//W3C//DTD SVG 1.1//EN" "http://www.w3.org/Graphics/SVG/1.1/DTD/svg11.dtd">
<svg width="100%" height="100%" viewBox="0 0 256 256" version="1.1" xmlns="http://www.w3.org/2000/svg" xmlns:xlink="http://www.w3.org/1999/xlink" xml:space="preserve" xmlns:serif="http://www.serif.com/" style="fill-rule:evenodd;clip-rule:evenodd;stroke-linecap:round;stroke-linejoin:round;stroke-miterlimit:1.5;">
    <rect id="neobread_hug_dlr" x="0" y="0" width="256" height="256" style="fill:none;"/>
    <clipPath id="_clip1">
        <rect x="0" y="0" width="256" height="256"/>
    </clipPath>
    <g clip-path="url(#_clip1)">
        <g id="Right-bread" serif:id="Right bread">
            <path id="Crust" d="M213.578,107.289C231.759,107.289 246.519,122.049 246.519,140.229C246.519,147.958 243.851,155.068 239.388,160.69L239.388,211.745C239.388,221.261 231.662,228.987 222.146,228.987L126.944,228.987C117.428,228.987 109.702,221.261 109.702,211.745L109.702,160.494C105.332,154.904 102.726,147.868 102.726,140.229C102.726,122.049 117.486,107.289 135.666,107.289L213.578,107.289Z" style="fill:rgb(209,160,132);stroke:black;stroke-width:15px;"/>
            <rect id="Shadow" x="171.212" y="159.086" width="60.449" height="9.176" style="fill:rgb(186,133,109);"/>
            <path id="Slice" d="M124.789,159.431C119.798,155.454 116.597,149.324 116.597,142.453C116.597,130.478 126.319,120.756 138.294,120.756L178.062,120.756C190.038,120.756 199.76,130.478 199.76,142.453C199.76,149.094 196.77,155.041 192.065,159.023L192.065,207.263C192.065,211.948 188.261,215.751 183.576,215.751L133.278,215.751C128.593,215.751 124.789,211.948 124.789,207.263L124.789,159.431Z" style="fill:rgb(252,233,186);"/>
            <g id="Face">
                <path id="Mouth" d="M137.069,184.819L143.553,195.722L152.291,184.838L163.116,195.691L176.01,184.851" style="fill:none;stroke:black;stroke-width:6.02px;"/>
                <g id="Eyes">
                    <path id="Right-eye" serif:id="Right eye" d="M182.791,158.299L182.791,162.628C182.791,167.175 179.099,170.867 174.551,170.867C170.003,170.867 166.311,167.175 166.311,162.628L166.311,158.299C166.311,153.751 170.003,150.059 174.551,150.059C179.099,150.059 182.791,153.751 182.791,158.299Z"/>
                    <path id="Left-eye" serif:id="Left eye" d="M150.045,158.263L150.045,162.592C150.045,167.14 146.353,170.832 141.806,170.832C137.258,170.832 133.566,167.14 133.566,162.592L133.566,158.263C133.566,153.716 137.258,150.024 141.806,150.024C146.353,150.024 150.045,153.716 150.045,158.263Z"/>
                </g>
            </g>
        </g>
        <g id="DLR">
            <g id="Body">
                <g id="Outline">
                    <path d="M124.501,93.9L42.438,88.802C39.717,85.21 34.302,87.397 34.302,87.397L0.081,96.827L0,225.059C0,225.059 23.158,233.621 33.397,236.677C43.637,239.732 44.755,228.98 44.755,228.98C44.755,228.98 44.913,226.428 45.155,222.258L99.92,218.604C105.406,220.652 127.801,228.96 138.835,232.243C151.466,236.002 151.063,222.436 151.063,222.436C151.063,222.436 150.979,190.219 150.557,184.344C150.136,178.469 149.354,166.772 148.88,160.389C148.406,154.006 144.314,127.188 144.314,127.188C144.314,127.188 140.721,106.069 137.801,98.225C134.882,90.381 129.387,92.636 129.387,92.636L124.501,93.9Z" style="fill:rgb(224,51,51);"/>
                    <path d="M47.223,74.071L123.052,78.781L125.631,78.114L123.693,78.759L131.031,77.336L135.228,77.734L139.983,79.305L143.884,81.702L147.27,84.959L149.922,88.795L151.859,92.993C155.055,101.58 159.101,124.672 159.101,124.672C159.116,124.756 159.129,124.841 159.142,124.925C159.142,124.925 163.348,152.674 163.839,159.278C164.314,165.671 165.097,177.386 165.519,183.271C165.952,189.305 166.063,222.397 166.063,222.397L166.056,221.991L165.281,229.34L163.286,235.083L159.409,240.827L155.137,244.414L150.264,246.736L144.917,247.819L139.617,247.696C138.065,247.503 136.38,247.163 134.557,246.621C124.73,243.697 106.106,236.893 97.71,233.785L58.228,236.419L58.055,237.122L55.583,242.012L52.406,245.914L47.597,249.504L43.229,251.318L38.457,252.166L33.677,252.024L29.108,251.05C18.59,247.912 -5.202,239.128 -5.202,239.128C-11.094,236.95 -15.004,231.331 -15,225.049L-14.919,96.818C-14.915,90.072 -10.408,84.158 -3.904,82.366L30.317,72.936L28.685,73.489L36.221,71.794L42.888,72.307L47.223,74.071ZM124.501,93.9L42.438,88.802C39.717,85.21 34.302,87.397 34.302,87.397L0.081,96.827L0,225.059C0,225.059 23.158,233.621 33.397,236.677C43.637,239.732 44.755,228.98 44.755,228.98C44.755,228.98 44.913,226.428 45.155,222.258L99.92,218.604C105.406,220.652 127.801,228.96 138.835,232.243C151.466,236.002 151.063,222.436 151.063,222.436C151.063,222.436 150.979,190.219 150.557,184.344C150.136,178.469 149.354,166.772 148.88,160.389C148.406,154.006 144.314,127.188 144.314,127.188C144.314,127.188 140.721,106.069 137.801,98.225C134.882,90.381 129.387,92.636 129.387,92.636L124.501,93.9Z"/>
                </g>
                <path id="Left-panel" serif:id="Left panel" d="M124.157,93.989L129.387,92.636C129.387,92.636 134.882,90.381 137.801,98.225C140.721,106.069 144.314,127.188 144.314,127.188C144.314,127.188 148.406,154.006 148.88,160.389C149.354,166.772 150.136,178.469 150.557,184.344C150.979,190.219 151.063,222.436 151.063,222.436C151.063,222.436 151.466,236.002 138.835,232.243C126.204,228.485 98.687,218.142 98.687,218.142L108.899,92.915L124.157,93.989Z" style="fill:rgb(224,51,51);"/>
                <path id="Front" d="M42.397,88.8L129.219,94.193C129.219,94.193 132.538,94.351 133.505,97.936C134.473,101.521 140.465,138.28 142.277,148.264C146.677,172.498 145.614,215.555 145.614,215.555L44.499,222.302L42.397,88.8Z" style="fill:rgb(52,49,40);"/>
                <path id="Right-panel" serif:id="Right panel" d="M0,96.836L0,225.059C0,225.059 23.158,233.621 33.397,236.677C43.637,239.732 44.755,228.98 44.755,228.98C44.755,228.98 47.78,180.118 47.617,160.797C47.454,141.475 45.564,109.734 45.564,109.734C45.564,109.734 45.073,100.594 43.797,92.336C42.521,84.078 34.302,87.397 34.302,87.397L0,96.836Z" style="fill:rgb(224,51,51);"/>
            </g>
            <path id="Left-window" serif:id="Left window" d="M133.816,115.377C133.816,115.377 141.289,148.932 141.915,173.905C138.628,174.062 121.019,174.131 121.019,174.131C121.019,174.131 120.129,150.195 114.253,114.742C116.059,114.516 133.816,115.377 133.816,115.377Z" style="fill:rgb(167,227,244);"/>
            <path id="Middle-window" serif:id="Middle window" d="M104.161,114.164C104.161,114.164 109.44,150.086 110.067,175.059C106.78,175.215 88.06,175.297 88.06,175.297C88.06,175.297 87.525,148.816 83.067,113.243C84.874,113.017 104.161,114.164 104.161,114.164Z" style="fill:rgb(167,227,244);"/>
            <path id="Right-window" serif:id="Right window" d="M72.239,112.482C72.239,112.482 76.371,150.802 76.997,175.775C73.71,175.931 52.134,176.148 52.134,176.148C52.134,176.148 51.403,146.41 49.037,111.856C50.843,111.63 72.239,112.482 72.239,112.482Z" style="fill:rgb(167,227,244);"/>
            <path id="Mouth1" serif:id="Mouth" d="M119.366,186.443L112.31,198.305L102.803,186.464L91.026,198.272L76.997,186.477" style="fill:none;stroke:rgb(5,172,168);stroke-width:6.15px;"/>
            <path id="Right-eye1" serif:id="Right eye" d="M123.789,160.651C125.038,164.308 128.068,165.463 130.365,165.484C132.949,165.507 135.729,164.718 137.491,160.335" style="fill:none;stroke:black;stroke-width:7px;"/>
            <path id="Left-eye1" serif:id="Left eye" d="M56.616,161.156C58.011,165.24 61.397,166.531 63.963,166.554C66.85,166.58 69.955,165.698 71.924,160.802" style="fill:none;stroke:black;stroke-width:7px;"/>
        </g>
        <path id="Arm" d="M192.517,212.327L138.382,212.327C130.153,212.327 123.473,205.646 123.473,197.418C123.473,189.332 130.037,182.768 138.122,182.768L192.517,182.768" style="fill:rgb(209,160,132);stroke:black;stroke-width:10px;stroke-linecap:butt;"/>
    </g>
</svg>
