<?xml version="1.0" encoding="UTF-8" standalone="no"?>
<!DOCTYPE svg PUBLIC "-//W3C//DTD SVG 1.1//EN" "http://www.w3.org/Graphics/SVG/1.1/DTD/svg11.dtd">
<svg width="100%" height="100%" viewBox="0 0 256 256" version="1.1" xmlns="http://www.w3.org/2000/svg" xmlns:xlink="http://www.w3.org/1999/xlink" xml:space="preserve" xmlns:serif="http://www.serif.com/" style="fill-rule:evenodd;clip-rule:evenodd;stroke-linecap:round;stroke-linejoin:round;stroke-miterlimit:1.5;">
    <rect id="neobread_hug_dagn" x="0" y="0" width="256" height="256" style="fill:none;"/>
    <clipPath id="_clip1">
        <rect x="0" y="0" width="256" height="256"/>
    </clipPath>
    <g clip-path="url(#_clip1)">
        <g id="Bread">
            <path id="Crust" d="M172.867,124.953C191.048,124.954 205.808,139.714 205.808,157.894C205.808,165.623 203.14,172.733 198.677,178.354L198.677,229.41C198.677,238.926 190.951,246.652 181.435,246.652L86.233,246.652C76.717,246.652 68.991,238.926 68.991,229.41L68.991,178.158C64.621,172.568 62.015,165.533 62.015,157.894C62.015,139.714 76.775,124.954 94.956,124.953L172.867,124.953Z" style="fill:rgb(209,160,132);stroke:black;stroke-width:15px;"/>
            <rect id="Shadow" x="130.501" y="176.751" width="60.449" height="9.176" style="fill:rgb(186,133,109);"/>
            <path id="Slice" d="M84.078,177.095C79.087,173.119 75.886,166.989 75.886,160.118C75.886,148.143 85.608,138.42 97.584,138.42L137.352,138.42C149.327,138.42 159.049,148.143 159.049,160.118C159.049,166.758 156.059,172.706 151.354,176.687L151.354,224.927C151.354,229.612 147.55,233.416 142.865,233.416L92.567,233.416C87.882,233.416 84.078,229.612 84.078,224.927L84.078,177.095Z" style="fill:rgb(252,233,186);"/>
            <g id="Face">
                <path id="Mouth" d="M96.358,202.484L102.842,213.386L111.581,202.503L122.405,213.356L135.299,202.516" style="fill:none;stroke:black;stroke-width:6.02px;"/>
                <g id="Eyes">
                    <path id="Right-eye" serif:id="Right eye" d="M142.08,175.963L142.08,180.292C142.08,184.84 138.388,188.532 133.84,188.532C129.293,188.532 125.601,184.84 125.601,180.292L125.601,175.963C125.601,171.416 129.293,167.724 133.84,167.724C138.388,167.724 142.08,171.416 142.08,175.963Z"/>
                    <path id="Left-eye" serif:id="Left eye" d="M109.335,175.928L109.335,180.257C109.335,184.805 105.643,188.497 101.095,188.497C96.547,188.497 92.855,184.805 92.855,180.257L92.855,175.928C92.855,171.381 96.547,167.689 101.095,167.689C105.643,167.689 109.335,171.381 109.335,175.928Z"/>
                </g>
            </g>
        </g>
        <g id="Dagn">
            <path id="Body" d="M120.136,256.866L25.801,256.866C25.801,256.866 16.673,229.723 16.744,189.127C16.815,148.531 24.541,96.976 67.274,76.513C61.633,71.701 32.145,52.247 33.983,24.661C35.821,22.707 40.42,25.674 40.42,25.674C40.42,25.674 82.763,51.374 89.504,54.195C87.246,51.07 75.129,35.791 77.089,17.076C79.371,14.672 83.625,17.532 83.625,17.532C83.625,17.532 106.427,38.102 120.067,44.508C133.707,50.915 165.046,54.783 171.638,66.183C176.274,74.199 174.493,74.703 178.21,76.015C186.906,79.085 223.812,84.603 223.812,84.603C223.812,84.603 233.116,85.937 233.178,95.714C233.24,105.49 228.075,116.321 224.002,122.189C219.928,128.056 210.942,136.401 204.193,136.45C197.443,136.498 126.249,136.717 126.249,136.717C126.249,136.717 114.356,134.538 103.066,146.2C91.776,157.863 94.9,164.78 94.672,170.614C94.444,176.449 96.017,194.867 103.31,212.896C110.604,230.925 120.136,256.866 120.136,256.866Z" style="fill:rgb(255,201,92);"/>
            <path d="M186.892,62.917C198.357,65.724 224.246,69.508 225.943,69.755L230.856,71.024L236.473,73.801L239.888,76.428L243.209,80.111L246.848,87.204L248.178,95.618C248.26,108.553 241.713,122.98 236.323,130.743C233.006,135.522 227.289,141.513 221.266,145.555C215.576,149.372 209.494,151.412 204.301,151.449C197.546,151.498 126.295,151.717 126.295,151.717C126.279,151.717 126.264,151.717 126.249,151.717L123.698,151.498C123.725,151.503 124.11,151.561 124.11,151.561C124.11,151.561 118.175,152.159 113.843,156.634C107.215,163.48 109.794,167.775 109.66,171.201C109.465,176.183 110.987,191.874 117.216,207.271C124.584,225.486 134.215,251.692 134.215,251.692C135.906,256.293 135.242,261.431 132.436,265.45C129.63,269.47 125.038,271.866 120.136,271.866L25.801,271.866C19.359,271.866 13.636,267.753 11.583,261.647C11.583,261.647 1.668,232.589 1.744,189.101C1.813,149.885 9.71,102.291 42.242,74.925C38.471,71.278 34.555,67.005 31.1,62.195C23.413,51.494 18.035,38.395 19.016,23.664C19.247,20.195 20.676,16.915 23.057,14.383L28.424,10.549L33.664,9.112L37.567,9.082L41.681,9.896L48.553,13.07L48.203,12.851C48.203,12.851 54.167,16.492 61.889,21.136C61.882,19.292 61.971,17.416 62.171,15.513C62.515,12.226 63.935,9.145 66.21,6.748L71.586,2.857L75.868,1.458L79.629,1.115L85.85,2.136L91.996,5.085C92.585,5.481 93.145,5.919 93.673,6.395C93.673,6.395 114.128,25.147 126.444,30.931C135.915,35.38 153.999,38.558 166.233,43.965C174.954,47.819 181.361,53.032 184.624,58.674C185.507,60.202 186.268,61.654 186.892,62.917ZM120.136,256.866C120.136,256.866 110.604,230.925 103.31,212.896C96.017,194.867 94.444,176.449 94.672,170.614C94.9,164.78 91.776,157.863 103.066,146.2C114.356,134.538 126.249,136.717 126.249,136.717C126.249,136.717 197.443,136.498 204.193,136.45C210.942,136.401 219.928,128.056 224.002,122.189C228.075,116.321 233.24,105.49 233.178,95.714C233.116,85.937 223.812,84.603 223.812,84.603C223.812,84.603 186.906,79.085 178.21,76.015C174.493,74.703 176.274,74.199 171.638,66.183C165.046,54.783 133.707,50.915 120.067,44.508C106.427,38.102 83.625,17.532 83.625,17.532C83.625,17.532 79.371,14.672 77.089,17.076C75.129,35.791 87.246,51.07 89.504,54.195C82.763,51.374 40.42,25.674 40.42,25.674C40.42,25.674 35.821,22.707 33.983,24.661C32.145,52.247 61.633,71.701 67.274,76.513C24.541,96.976 16.815,148.531 16.744,189.127C16.673,229.723 25.801,256.866 25.801,256.866L120.136,256.866Z"/>
            <g id="Face1" serif:id="Face">
                <path id="Mouth1" serif:id="Mouth" d="M170.241,113.85L185.236,129.202L198.89,114.702L209.578,128.295L216.521,114.353" style="fill:none;stroke:rgb(70,41,26);stroke-width:10px;stroke-miterlimit:5;"/>
                <path id="Snout" d="M226.686,97.913C226.686,100.16 224.862,101.984 222.616,101.984L217.385,101.984C215.138,101.984 213.314,100.16 213.314,97.913C213.314,95.667 215.138,93.843 217.385,93.843L222.616,93.843C224.862,93.843 226.686,95.667 226.686,97.913Z" style="fill:rgb(142,94,49);"/>
                <path id="Eye" d="M118.432,80.387C121.281,88.725 128.192,91.361 133.431,91.408C139.324,91.46 145.664,89.661 149.684,79.665" style="fill:none;stroke:black;stroke-width:12px;"/>
            </g>
        </g>
        <path id="Arm" d="M151.807,229.991L97.671,229.991C89.442,229.991 82.762,223.311 82.762,215.083C82.762,206.997 89.326,200.433 97.411,200.433L151.807,200.433" style="fill:rgb(209,160,132);stroke:black;stroke-width:10px;stroke-linecap:butt;"/>
    </g>
</svg>
