<?xml version="1.0" encoding="UTF-8" standalone="no"?>
<!DOCTYPE svg PUBLIC "-//W3C//DTD SVG 1.1//EN" "http://www.w3.org/Graphics/SVG/1.1/DTD/svg11.dtd">
<svg width="100%" height="100%" viewBox="0 0 256 256" version="1.1" xmlns="http://www.w3.org/2000/svg" xmlns:xlink="http://www.w3.org/1999/xlink" xml:space="preserve" xmlns:serif="http://www.serif.com/" style="fill-rule:evenodd;clip-rule:evenodd;stroke-linecap:round;stroke-linejoin:round;stroke-miterlimit:1.5;">
    <defs>
        <filter id="eye_glow" width="10" height="10" x="-5" y="-5">
            <feGaussianBlur in="SourceGraphic" result="blur1" stdDeviation="10"/>
            <feGaussianBlur in="SourceGraphic" result="blur2" stdDeviation="5"/>
            <feComposite in="SourceGraphic" in2="blur1" result="comp1"/>
            <feComposite in="comp1" in2="blur2"/>
        </filter>
    </defs>
    <rect id="neobread_bot" x="0" y="0" width="256" height="256" style="fill:none;"/>
    <path id="Antenna-outline" serif:id="Antenna outline" d="M156.938,20.7C156.938,18.948 158.36,17.526 160.111,17.526L166.993,17.526C168.745,17.526 170.167,18.948 170.167,20.7L170.167,26.229C170.167,27.981 168.745,29.403 166.993,29.403L160.111,29.403C158.36,29.403 156.938,27.981 156.938,26.229L156.938,20.7ZM156.853,33.517C156.853,31.596 158.413,30.037 160.333,30.037L166.602,30.037C168.523,30.037 170.082,31.596 170.082,33.517L170.082,71.485C170.082,73.406 168.523,74.965 166.602,74.965L160.333,74.965C158.413,74.965 156.853,73.406 156.853,71.485L156.853,33.517Z" style="fill:rgb(88,211,215);"/>
    <path d="M142.634,29.665L141.938,26.229L141.938,20.7L143.374,13.618L147.261,7.85L153.03,3.962L160.111,2.526L166.993,2.526L174.075,3.962L179.843,7.85L183.731,13.618L185.167,20.7L185.167,26.229L184.385,30.082L185.082,33.517L185.082,71.485L183.622,78.686L179.669,84.552L173.803,88.505L166.602,89.965L160.333,89.965L153.132,88.505L147.266,84.552L143.313,78.686L141.853,71.485L141.853,33.517L142.634,29.665ZM156.853,33.517L156.853,71.485C156.853,73.406 158.413,74.965 160.333,74.965L166.602,74.965C168.523,74.965 170.082,73.406 170.082,71.485L170.082,33.517C170.082,31.596 168.523,30.037 166.602,30.037L160.333,30.037C158.413,30.037 156.853,31.596 156.853,33.517ZM163.166,15.037L163.938,15.037C163.811,14.993 163.682,14.952 163.552,14.912C163.422,14.952 163.294,14.993 163.166,15.037ZM156.938,20.7L156.938,26.229C156.938,27.981 158.36,29.403 160.111,29.403L166.993,29.403C168.745,29.403 170.167,27.981 170.167,26.229L170.167,20.7C170.167,18.948 168.745,17.526 166.993,17.526L160.111,17.526C158.36,17.526 156.938,18.948 156.938,20.7Z"/>
    <path id="Crust" d="M185.469,58.94C212.29,58.941 234.064,80.715 234.064,107.536C234.064,118.937 230.129,129.427 223.544,137.719L223.544,213.038C223.544,227.076 212.147,238.474 198.109,238.474L57.663,238.474C43.625,238.474 32.228,227.076 32.228,213.038L32.228,137.43C25.78,129.184 21.936,118.805 21.936,107.536C21.936,80.715 43.71,58.941 70.531,58.94L185.469,58.94Z" style="fill:rgb(209,160,132);stroke:black;stroke-width:15px;"/>
    <rect id="Shadow" x="156.853" y="133.63" width="59.487" height="15.248" style="fill:rgb(186,133,109);"/>
    <path id="Slice" d="M51.66,135.116C43.875,128.913 38.882,119.352 38.882,108.634C38.882,89.955 54.047,74.79 72.726,74.79L134.757,74.79C153.436,74.79 168.601,89.955 168.601,108.634C168.601,118.992 163.938,128.269 156.598,134.479L156.598,209.725C156.598,217.033 150.665,222.966 143.357,222.966L64.901,222.966C57.593,222.966 51.66,217.033 51.66,209.725L51.66,135.116Z" style="fill:rgb(252,233,186);"/>
    <g id="Face">
        <path id="Mouth" d="M72.6,173.316L82.166,189.4L95.057,173.344L111.025,189.355L130.047,173.363" style="fill:none;stroke:black;stroke-width:8.88px;"/>
        <g id="Eyes">
            <path id="Right-eye" serif:id="Right eye" d="M141.367,134.274L141.367,141.328C141.367,148.739 135.351,154.755 127.941,154.755C120.53,154.755 114.514,148.739 114.514,141.328L114.514,134.274C114.514,126.864 120.53,120.847 127.941,120.847C135.351,120.847 141.367,126.864 141.367,134.274Z"/>
            <path id="Left-eye" serif:id="Left eye" d="M88.008,134.217L88.008,141.271C88.008,148.681 81.992,154.697 74.582,154.697C67.171,154.697 61.155,148.681 61.155,141.271L61.155,134.217C61.155,126.806 67.171,120.79 74.582,120.79C81.992,120.79 88.008,126.806 88.008,134.217Z"/>
        </g>
        <path id="Visor" d="M127.691,160.574L131.544,160.146C134.54,159.718 136.938,159.033 139.164,157.919C143.702,155.608 146.613,151.84 147.555,146.789C147.897,145.162 147.983,144.391 147.983,142.764C147.983,136.428 145.757,130.606 141.39,125.041C135.739,117.934 128.033,113.653 118.272,112.197C107.519,110.961 96.66,110.961 85.907,112.197C76.146,113.653 68.44,117.934 62.789,125.041C58.423,130.606 56.197,136.428 56.197,142.764C56.197,144.391 56.282,145.162 56.625,146.789C58.08,154.152 63.474,158.69 72.293,160.146C75.29,160.659 73.407,160.574 101.49,160.659L127.691,160.574Z" style="fill:rgb(53,53,53);fill-rule:nonzero;"/>
        <g id="Eyes1" serif:id="Eyes">
            <path id="Right-eye1" serif:id="Right eye" filter="url(#eye_glow)" d="M134.015,134.81L134.015,140.971C134.015,147.444 128.76,152.699 122.287,152.699C115.815,152.699 110.56,147.444 110.56,140.971L110.56,134.81C110.56,128.338 115.815,123.083 122.287,123.083C128.76,123.083 134.015,128.338 134.015,134.81Z" style="fill:rgb(88,211,215);"/>
            <path id="Left-eye1" serif:id="Left eye" filter="url(#eye_glow)" d="M93.482,134.81L93.482,140.971C93.482,147.444 88.227,152.699 81.755,152.699C75.282,152.699 70.027,147.444 70.027,140.971L70.027,134.81C70.027,128.338 75.282,123.083 81.755,123.083C88.227,123.083 93.482,128.338 93.482,134.81Z" style="fill:rgb(88,211,215);"/>
        </g>
    </g>
    <g id="Antenna">
        <path id="light" d="M156.938,20.501L156.938,26.428C156.938,28.07 158.271,29.403 159.913,29.403L167.192,29.403C168.834,29.403 170.167,28.07 170.167,26.428L170.167,20.501C170.167,18.859 168.834,17.526 167.192,17.526L159.913,17.526C158.271,17.526 156.938,18.859 156.938,20.501Z" style="fill:rgb(88,211,215);"/>
        <path id="stem" d="M156.853,33.299L156.853,71.703C156.853,73.503 158.315,74.965 160.116,74.965L166.82,74.965C168.62,74.965 170.082,73.503 170.082,71.703L170.082,33.299C170.082,31.499 168.62,30.037 166.82,30.037L160.116,30.037C158.315,30.037 156.853,31.499 156.853,33.299Z" style="fill:rgb(160,160,160);"/>
    </g>
</svg>
