<?xml version="1.0" encoding="UTF-8" standalone="no"?>
<!DOCTYPE svg PUBLIC "-//W3C//DTD SVG 1.1//EN" "http://www.w3.org/Graphics/SVG/1.1/DTD/svg11.dtd">
<svg width="100%" height="100%" viewBox="0 0 256 256" version="1.1" xmlns="http://www.w3.org/2000/svg" xmlns:xlink="http://www.w3.org/1999/xlink" xml:space="preserve" xmlns:serif="http://www.serif.com/" style="fill-rule:evenodd;clip-rule:evenodd;stroke-linecap:round;stroke-linejoin:round;stroke-miterlimit:1.5;">
    <rect id="neobread_spoons" x="-0" y="0" width="256" height="256" style="fill:none;"/>
    <path id="Crust" d="M192.734,26.885C222.946,26.885 247.473,51.413 247.473,81.624C247.473,94.467 243.041,106.282 235.623,115.623L235.623,200.464C235.623,216.277 222.785,229.115 206.972,229.115L48.771,229.115C32.958,229.115 20.12,216.277 20.12,200.464L20.12,115.297C12.857,106.008 8.527,94.318 8.527,81.624C8.527,51.413 33.054,26.885 63.266,26.885L192.734,26.885Z" style="fill:rgb(209,160,132);stroke:black;stroke-width:15px;"/>
    <rect id="Shadow" x="122.332" y="112.959" width="105.66" height="15.248" style="fill:rgb(186,133,109);"/>
    <path id="Slice" d="M42.009,112.691C33.24,105.704 27.616,94.934 27.616,82.861C27.616,61.82 44.698,44.738 65.738,44.738L135.611,44.738C156.652,44.738 173.734,61.82 173.734,82.861C173.734,94.528 168.481,104.979 160.213,111.974L160.213,196.732C160.213,204.964 153.53,211.647 145.299,211.647L56.924,211.647C48.692,211.647 42.009,204.964 42.009,196.732L42.009,112.691Z" style="fill:rgb(252,233,186);"/>
    <g id="Face">
        <path id="Mouth" d="M67.596,155.72L78.372,173.837L92.892,155.752L110.879,173.787L132.306,155.773" style="fill:none;stroke:black;stroke-width:10px;"/>
        <g id="Eyes">
            <path id="Right-eye" serif:id="Right eye" d="M143.057,111.742L143.057,119.688C143.057,128.036 136.28,134.813 127.933,134.813C119.586,134.813 112.809,128.036 112.809,119.688L112.809,111.742C112.809,103.395 119.586,96.618 127.933,96.618C136.28,96.618 143.057,103.395 143.057,111.742Z"/>
            <path id="Left-eye" serif:id="Left eye" d="M82.953,111.678L82.953,119.624C82.953,127.971 76.176,134.748 67.828,134.748C59.481,134.748 52.704,127.971 52.704,119.624L52.704,111.678C52.704,103.331 59.481,96.554 67.828,96.554C76.176,96.554 82.953,103.331 82.953,111.678Z"/>
        </g>
    </g>
    <path id="Left-spoon" serif:id="Left spoon" d="M37.2,145.957C25.184,145.21 14.376,135.578 10.736,118.625C7.908,105.448 14.727,79.625 29.279,76.501C43.831,73.377 60.647,94.127 63.475,107.304C67.106,124.219 61.18,137.429 50.556,143.068L68.818,228.144C69.318,230.475 68.228,232.688 66.385,233.084L59.704,234.518C57.861,234.914 55.958,233.343 55.458,231.012L37.2,145.957Z" style="fill:rgb(185,185,185);"/>
    <path d="M29.243,154.153C16.522,150.449 5.428,139.158 1.448,120.619C-0.61,111.034 1.345,95.897 7.207,84.529C11.849,75.528 18.903,69.012 27.285,67.213C35.667,65.413 44.773,68.46 52.7,74.763C62.712,82.724 70.706,95.725 72.764,105.31C76.735,123.81 71.239,138.65 61.173,147.262L78.107,226.15L78.437,229.002L78.212,231.844L77.409,234.63L75.959,237.301L72.837,240.428L70.745,241.606L68.378,242.373L61.698,243.806L59.225,244.079L56.834,243.863L52.704,242.293L50.285,240.452L48.41,238.241L47.038,235.742L46.169,233.005L29.243,154.153ZM37.2,145.957L55.458,231.012C55.958,233.343 57.861,234.914 59.704,234.518L66.385,233.084C68.228,232.688 69.318,230.475 68.818,228.144L50.556,143.068C61.18,137.429 67.106,124.219 63.475,107.304C60.647,94.127 43.831,73.377 29.279,76.501C14.727,79.625 7.908,105.448 10.736,118.625C14.376,135.578 25.184,145.21 37.2,145.957Z"/>
    <path id="Right-spoon" serif:id="Right spoon" d="M165.364,147.028C177.403,146.886 188.682,137.81 193.17,121.062C196.658,108.044 191.147,81.911 176.771,78.058C162.394,74.206 144.555,94.083 141.067,107.101C136.59,123.812 141.844,137.303 152.17,143.47L129.65,227.519C129.033,229.822 130.01,232.087 131.831,232.575L138.431,234.344C140.252,234.832 142.232,233.358 142.849,231.055L165.364,147.028Z" style="fill:rgb(185,185,185);"/>
    <path d="M172.898,155.614L152.025,233.514L151.019,236.204L149.524,238.631L147.539,240.744L145.031,242.461L140.827,243.821L138.428,243.916L135.972,243.52L129.373,241.752L127.047,240.867L125.017,239.585L122.057,236.305L120.743,233.564L120.082,230.742L120,227.892L120.473,225.06C120.473,225.06 141.356,147.124 141.356,147.124C131.736,138.016 126.994,122.918 131.891,104.642C134.428,95.173 143.067,82.591 153.466,75.144C161.701,69.248 170.949,66.663 179.23,68.882C187.51,71.101 194.227,77.963 198.41,87.187C203.693,98.835 204.883,114.051 202.346,123.521C197.438,141.836 185.79,152.555 172.898,155.614ZM165.364,147.028C177.403,146.886 188.682,137.81 193.17,121.062C196.658,108.044 191.147,81.911 176.771,78.058C162.394,74.206 144.555,94.083 141.067,107.101C136.59,123.812 141.844,137.303 152.17,143.47L129.65,227.519C129.033,229.822 130.01,232.087 131.831,232.575L138.431,234.344C140.252,234.832 142.232,233.358 142.849,231.055L165.364,147.028Z"/>
    <path id="Right-hand" serif:id="Right hand" d="M183.018,186.65L158.968,172.764C148.938,166.973 136.093,170.415 130.303,180.445C124.613,190.3 127.994,202.921 137.85,208.612L162.217,222.68" style="fill:rgb(209,160,132);stroke:black;stroke-width:10px;stroke-linecap:butt;"/>
    <path id="Right-hand1" serif:id="Right hand" d="M18.166,190.361L42.217,176.475C52.247,170.684 65.091,174.126 70.882,184.156C76.572,194.011 73.19,206.632 63.335,212.322L38.968,226.39" style="fill:rgb(209,160,132);stroke:black;stroke-width:10px;stroke-linecap:butt;"/>
</svg>
