<?xml version="1.0" encoding="UTF-8" standalone="no"?>
<!DOCTYPE svg PUBLIC "-//W3C//DTD SVG 1.1//EN" "http://www.w3.org/Graphics/SVG/1.1/DTD/svg11.dtd">
<svg width="100%" height="100%" viewBox="0 0 256 256" version="1.1" xmlns="http://www.w3.org/2000/svg" xmlns:xlink="http://www.w3.org/1999/xlink" xml:space="preserve" xmlns:serif="http://www.serif.com/" style="fill-rule:evenodd;clip-rule:evenodd;stroke-linecap:round;stroke-linejoin:round;stroke-miterlimit:1.5;">
    <rect id="neobread_nom_homework" x="0" y="0" width="256" height="256" style="fill:none;"/>
    <clipPath id="_clip1">
        <rect x="0" y="0" width="256" height="256"/>
    </clipPath>
    <g clip-path="url(#_clip1)">
        <path id="Crust" d="M192.734,26.885C222.946,26.885 247.473,51.413 247.473,81.624C247.473,94.467 243.041,106.282 235.623,115.623L235.623,200.464C235.623,216.277 222.785,229.115 206.972,229.115L48.771,229.115C32.958,229.115 20.12,216.277 20.12,200.464L20.12,115.297C12.857,106.008 8.527,94.318 8.527,81.624C8.527,51.413 33.054,26.885 63.266,26.885L192.734,26.885Z" style="fill:rgb(209,160,132);stroke:black;stroke-width:15px;"/>
        <rect id="Shadow" x="122.332" y="112.959" width="105.66" height="15.248" style="fill:rgb(186,133,109);"/>
        <path id="Slice" d="M42.009,112.691C33.24,105.704 27.616,94.934 27.616,82.861C27.616,61.82 44.698,44.738 65.738,44.738L135.611,44.738C156.652,44.738 173.734,61.82 173.734,82.861C173.734,94.528 168.481,104.979 160.213,111.974L160.213,196.732C160.213,204.964 153.53,211.647 145.299,211.647L56.924,211.647C48.692,211.647 42.009,204.964 42.009,196.732L42.009,112.691Z" style="fill:rgb(252,233,186);"/>
        <g id="Eyes">
            <g id="Right-eye" serif:id="Right eye">
                <circle id="Eye-white" serif:id="Eye white" cx="130.968" cy="115.715" r="23.779" style="fill:white;"/>
                <circle id="Pupil" cx="127.906" cy="112.691" r="20.392"/>
                <path id="Eye-reflection-top" serif:id="Eye reflection top" d="M116.892,101.838C120.92,97.81 126.719,97.069 129.835,100.185C132.95,103.3 132.21,109.1 128.182,113.127C124.154,117.155 118.355,117.896 115.239,114.78C112.124,111.665 112.864,105.865 116.892,101.838Z" style="fill:white;"/>
                <path id="Eye-reflection-bottom" serif:id="Eye reflection bottom" d="M137.831,117.603C137.831,117.603 136.632,121.739 132.389,122.644" style="fill:none;stroke:rgb(151,151,151);stroke-width:8px;"/>
            </g>
            <g id="Left-eye" serif:id="Left eye">
                <circle id="Eye-white1" serif:id="Eye white" cx="70.382" cy="115.715" r="23.779" style="fill:white;"/>
                <circle id="Pupil1" serif:id="Pupil" cx="67.32" cy="112.691" r="20.392"/>
                <path id="Eye-reflection-top1" serif:id="Eye reflection top" d="M56.306,101.838C60.333,97.81 66.133,97.069 69.248,100.185C72.364,103.3 71.623,109.1 67.595,113.127C63.568,117.155 57.768,117.896 54.653,114.78C51.537,111.665 52.278,105.865 56.306,101.838Z" style="fill:white;"/>
                <path id="Eye-reflection-bottom1" serif:id="Eye reflection bottom" d="M77.244,117.603C77.244,117.603 76.045,121.739 71.803,122.644" style="fill:none;stroke:rgb(151,151,151);stroke-width:8px;"/>
            </g>
        </g>
        <g id="Homework">
            <path id="Paper" d="M146.761,169.456L146.761,280.49C146.761,284.227 143.727,287.261 139.99,287.261L53.322,287.261C49.585,287.261 46.551,284.227 46.551,280.49L46.551,169.456C46.551,165.719 49.585,162.685 53.322,162.685L139.99,162.685C143.727,162.685 146.761,165.719 146.761,169.456Z" style="fill:rgb(251,251,251);"/>
            <path d="M156.761,169.456L156.761,280.49L156.42,283.861L155.437,287.022L153.889,289.874L151.848,292.348L149.374,294.389L146.522,295.937L143.361,296.92L139.99,297.261L53.322,297.261L49.951,296.92L46.79,295.937L43.938,294.389L41.464,292.348L39.423,289.874L37.875,287.022L36.892,283.861L36.551,280.49L36.551,169.456L36.892,166.086L37.875,162.924L39.423,160.072L41.464,157.598L43.938,155.557L46.79,154.009L49.951,153.027L53.322,152.685L139.99,152.685L143.361,153.027L146.522,154.009L149.374,155.557L151.848,157.598L153.889,160.072L155.437,162.924L156.42,166.086L156.761,169.456ZM146.761,169.456C146.761,165.719 143.727,162.685 139.99,162.685L53.322,162.685C49.585,162.685 46.551,165.719 46.551,169.456L46.551,280.49C46.551,284.227 49.585,287.261 53.322,287.261L139.99,287.261C143.727,287.261 146.761,284.227 146.761,280.49L146.761,169.456Z"/>
            <g id="Writing">
                <path d="M96.656,177.369C96.656,179.454 94.963,181.146 92.878,181.146L57.971,181.146C55.886,181.146 54.193,179.454 54.193,177.369C54.193,175.283 55.886,173.591 57.971,173.591L92.878,173.591C94.963,173.591 96.656,175.283 96.656,177.369Z" style="fill:rgb(17,70,175);"/>
                <path d="M141.65,192.616C141.65,194.281 140.298,195.633 138.633,195.633L57.21,195.633C55.545,195.633 54.193,194.281 54.193,192.616C54.193,190.95 55.545,189.598 57.21,189.598L138.633,189.598C140.298,189.598 141.65,190.95 141.65,192.616Z" style="fill:rgb(17,70,175);"/>
                <path d="M141.65,202.641C141.65,204.287 140.314,205.623 138.669,205.623L57.175,205.623C55.529,205.623 54.193,204.287 54.193,202.641C54.193,200.995 55.529,199.659 57.175,199.659L138.669,199.659C140.314,199.659 141.65,200.995 141.65,202.641Z" style="fill:rgb(17,70,175);"/>
                <path d="M141.65,228.348C141.65,229.997 140.311,231.336 138.662,231.336L57.181,231.336C55.532,231.336 54.193,229.997 54.193,228.348C54.193,226.698 55.532,225.359 57.181,225.359L138.662,225.359C140.311,225.359 141.65,226.698 141.65,228.348Z" style="fill:rgb(17,70,175);"/>
                <path d="M141.65,238.355C141.65,240.008 140.308,241.35 138.655,241.35L57.188,241.35C55.535,241.35 54.193,240.008 54.193,238.355C54.193,236.701 55.535,235.359 57.188,235.359L138.655,235.359C140.308,235.359 141.65,236.701 141.65,238.355Z" style="fill:rgb(17,70,175);"/>
                <path d="M119.994,248.349C119.994,249.999 118.654,251.338 117.004,251.338L57.182,251.338C55.532,251.338 54.193,249.999 54.193,248.349C54.193,246.699 55.532,245.359 57.182,245.359L117.004,245.359C118.654,245.359 119.994,246.699 119.994,248.349Z" style="fill:rgb(17,70,175);"/>
                <path d="M80.767,213.844C80.767,215.502 79.421,216.849 77.762,216.849L57.198,216.849C55.539,216.849 54.193,215.502 54.193,213.844C54.193,212.186 55.539,210.839 57.198,210.839L77.762,210.839C79.421,210.839 80.767,212.186 80.767,213.844Z" style="fill:rgb(17,70,175);"/>
                <path d="M141.65,177.369C141.65,179.454 139.957,181.146 137.872,181.146L122.11,181.146C120.024,181.146 118.332,179.454 118.332,177.369C118.332,175.283 120.024,173.591 122.11,173.591L137.872,173.591C139.957,173.591 141.65,175.283 141.65,177.369Z" style="fill:rgb(17,70,175);"/>
            </g>
        </g>
        <path id="Food-hider" serif:id="Food hider" d="M65.575,150.689L130.285,150.742C132.385,150.743 134.261,152.058 134.979,154.031C135.698,156.005 135.106,158.217 133.498,159.569L112.072,177.582C110.084,179.253 107.148,179.125 105.314,177.286C105.314,177.286 91.27,163.205 91.27,163.205L80.245,176.936C79.219,178.214 77.632,178.908 75.997,178.793C74.362,178.679 72.887,177.77 72.049,176.361L61.274,158.245C60.354,156.699 60.336,154.778 61.226,153.215C62.116,151.652 63.776,150.687 65.575,150.689Z" style="fill:rgb(252,233,186);"/>
        <path id="Mouth" d="M65.596,155.72L76.372,173.837L90.892,155.752L108.879,173.787L130.306,155.773" style="fill:none;stroke:black;stroke-width:10px;"/>
    </g>
</svg>
