<svg xmlns="http://www.w3.org/2000/svg" version="1.2" viewBox="0 0 2048 2048">
    <script>
        console.log("Start logging")
        const flower_colors = ["violet", "indigo", "purple", "pink", "deeppink", "fuchsia", "orchid", "plum", "rosybrown", "palevioletred"]
        document.addEventListener("DOMContentLoaded", (event) => {
            document.querySelectorAll("use").forEach(function(currentVal){
                let flower_index = Math.floor(Math.random()*flower_colors.length);
                console.log(flower_index)
                console.log(flower_colors[flower_index])
                currentVal.setAttribute("color", flower_colors[flower_index])
            })
        })
    </script>
    <defs>
        <symbol id="hex">
            <path fill="yellow" stroke="goldenrod" stroke-width="10" stroke-linejoin="round" d="M5 55 l 86.6025 -50 l 86.6025 50 v 100 l -86.6025 50 l -86.6025 -50 z" />
            <circle fill="currentColor" cx="91.6025" cy="105" r="80" />
        </symbol>
    </defs>
    <rect id="neobeebread" x="0" y="0" width="2048" height="2048" fill="none" />
    <path id="outline" fill="black" d="M1584 197c-10 0-19 4-28 8l-87 44c-4 1-9 0-12-2l-52-30-17-9c-6-3-12-4-19-5-10-1-20 2-30 6l-79 40c-4 2-8 1-11-1l-10-6-58-33c-8-5-18-6-28-6-9 1-18 3-26 8l-67 34-11 5c-4 1-8 0-11-2l-19-11-51-29c-15-7-32-6-47 0l-14 8-67 33c-3 1-8 0-11-2l-42-24-27-15c-7-4-15-5-23-5-9 0-19 3-28 8l-78 39c-3 1-8 0-11-2l-27-16-43-24-12-4c-11-2-24-1-34 4l-11 6-103 51-99 50-12 8-39 22-48 28c-10 7-17 17-21 28-2 7-3 15-3 23l1 117 3 15c5 12 14 23 26 29l17 10 57 33c3 2 4 7 4 11v44c-1 5-4 8-8 10l-77 45a57 57 0 0 0-23 42v17l1 109c1 12 7 25 16 34 5 5 10 8 16 11l70 41c4 2 5 7 5 11v85c2 16 10 30 23 39l10 7 64 37c4 2 5 7 5 11v51c-1 5-4 8-8 10l-71 41a58 58 0 0 0-23 48v80c-1 4-4 8-8 9l-76 45c-8 5-15 14-19 23-3 8-5 17-5 26l1 118c0 7 2 15 6 21a58 58 0 0 0 27 26l101 58a58 58 0 0 0 55-4l68-40c4-2 9-1 12 2l75 43c15 6 32 5 46-1l14-8 62-36h10l5 3 73 42c14 6 32 5 46-1l14-8 87-51 10-4 46-20 67-29c4-1 8 1 11 3 2 2 2 5 3 7 2 16 11 30 23 38l12 8 98 56c6 3 12 4 18 5 13 1 26-2 37-9l69-40c4-2 8-1 12 2l58 33 16 9a54 54 0 0 0 55-5l101-58 88-39 125-54c16-9 28-27 28-46v-129c-1-16-9-30-22-40l-11-7-2-1-107-62-13-4c-13-2-27 0-39 7l-69 35c-4 1-9 0-12-3l-27-16-6-4c-2-2-2-6-2-9v-37c1-4 4-8 8-9l37-23 35-21c14-11 21-29 21-46v-78c0-4 4-8 8-10l68-40c13-6 23-18 28-31 3-9 3-18 3-28V860c-2-15-10-29-22-39l-26-16-52-30c-3-2-5-6-4-10v-43c1-4 4-7 8-9l52-31 13-6a55 55 0 0 0 31-53v-87c1-4 4-7 8-9l41-25c12-5 24-9 35-16 15-10 24-28 24-46v-41l-1-85c0-10-4-20-10-29-5-7-11-13-19-18l-18-10-96-55c-8-4-17-5-25-5z" />
    <g id="depth" transform="translate(430 354) scale(1.17495)">
        <path id="a" fill="#8b6914" fill-opacity="1" stroke="goldenrod" stroke-linejoin="round" stroke-width="8.5" d="m888 985 186-85v104l-186 82z"/>
        <use href="#a" transform="translate(-179 -310)"/>
        <use href="#a" transform="translate(-87 -463)"/>
        <use href="#a" transform="translate(-87 -772)"/>
        <use href="#a" transform="translate(4 -930)"/>
        <use href="#a" transform="translate(-176 -622)"/>
        <use href="#a" transform="translate(-264 -154)"/>
        <use href="#a" transform="translate(-526 -3)"/>
        <use href="#b" transform="translate(-169 -2)"/>
        <path id="b" fill="#8b6914" fill-opacity="1" stroke="goldenrod" stroke-linejoin="round" stroke-width="8.5" d="m802 934 86 51 186-85-94-54z"/>
        <use href="#b" transform="translate(-88 -465)"/>
        <use href="#b" transform="translate(-897 -927)"/>
        <use href="#b" transform="translate(-718 -927)"/>
        <use href="#b" transform="translate(-542 -927)"/>
        <use href="#b" transform="translate(-362 -927)"/>
        <use href="#b" transform="translate(-184 -927)"/>
        <use href="#b" transform="translate(4 -932)"/>
        <path id="c" fill="#8b6914" fill-opacity="1" stroke="goldenrod" stroke-linejoin="round" stroke-width="8.5" d="m623 831 187-85 86-51-187 81Z"/>
        <use href="#c" transform="translate(88 -152)"/>
        <use href="#c" transform="translate(153 -607)"/>
        <use href="#c" transform="translate(89 -463)"/>
        <use href="#c" transform="translate(-275 158)"/>
    </g>
    <g id="bee_bread" transform="matrix(1.1749538,0,0,1.1749538,218.34278,353.77057)">
        <use href="#hex" x="0" y="0" width="100%" height="100%" />
        <use href="#hex" x="178.205" y="0" width="100%" height="100%" />
        <use href="#hex" x="356.41" y="0" width="100%" height="100%" />
        <use href="#hex" x="534.615" y="0" width="100%" height="100%" />
        <use href="#hex" x="712.82" y="0" width="100%" height="100%" />
        <use href="#hex" x="891.025" y="0" width="100%" height="100%" />
        <use href="#hex" x="91.603" y="155" width="100%" height="100%" />
        <use href="#hex" x="269.808" y="155" width="100%" height="100%" />
        <use href="#hex" x="448.013" y="155" width="100%" height="100%" />
        <use href="#hex" x="626.218" y="155" width="100%" height="100%" />
        <use href="#hex" x="804.423" y="155" width="100%" height="100%" />
        <use href="#hex" x="0" y="310" width="100%" height="100%" />
        <use href="#hex" x="178.205" y="310" width="100%" height="100%" />
        <use href="#hex" x="356.41" y="310" width="100%" height="100%" />
        <use href="#hex" x="534.615" y="310" width="100%" height="100%" />
        <use href="#hex" x="712.82" y="310" width="100%" height="100%" />
        <use href="#hex" x="91.603" y="465" width="100%" height="100%" />
        <use href="#hex" x="269.808" y="465" width="100%" height="100%" />
        <use href="#hex" x="448.013" y="465" width="100%" height="100%" />
        <use href="#hex" x="626.218" y="465" width="100%" height="100%" />
        <use href="#hex" x="804.423" y="465" width="100%" height="100%" />
        <use href="#hex" x="178.205" y="620" width="100%" height="100%" />
        <use href="#hex" x="356.41" y="620" width="100%" height="100%" />
        <use href="#hex" x="534.615" y="620" width="100%" height="100%" />
        <use href="#hex" x="712.82" y="620" width="100%" height="100%" />
        <use href="#hex" x="91.603" y="775" width="100%" height="100%" />
        <use href="#hex" x="269.808" y="775" width="100%" height="100%" />
        <use href="#hex" x="448.013" y="775" width="100%" height="100%" />
        <use href="#hex" x="626.218" y="775" width="100%" height="100%" />
        <use href="#hex" x="0" y="930" width="100%" height="100%" />
        <use href="#hex" x="178.205" y="930" width="100%" height="100%" />
        <use href="#hex" x="356.41" y="930" width="100%" height="100%" />
        <use href="#hex" x="712.82" y="930" width="100%" height="100%" />
        <use href="#hex" x="891.025" y="930" width="100%" height="100%" />
    </g>
    <g id="face">
        <path id="mouth" fill="none" stroke="black" stroke-width="80" stroke-linecap="round" stroke-linejoin="round" d="M 525 1246L 611 1391L 727 1246L 871 1390L 1042 1246"/>
        <path id="right_eye" fill="black" stroke="none" d="M 664 893L 664 957C 664 1024 609 1078 543 1078C 476 1078 422 1024 422 957L 422 893C 422 827 476 772 543 772C 609 772 664 827 664 893Z"/>
        <path id="left_eye" fill="black" stroke="none" d="M 1144 894L 1144 958C 1144 1024 1090 1078 1023 1078C 957 1078 902 1024 902 958L 902 894C 902 827 957 773 1023 773C 1090 773 1144 827 1144 894Z" />
    </g>
</svg>