<?xml version="1.0" encoding="UTF-8" standalone="no"?>
<!DOCTYPE svg PUBLIC "-//W3C//DTD SVG 1.1//EN" "http://www.w3.org/Graphics/SVG/1.1/DTD/svg11.dtd">
<svg width="100%" height="100%" viewBox="0 0 256 256" version="1.1" xmlns="http://www.w3.org/2000/svg" xmlns:xlink="http://www.w3.org/1999/xlink" xml:space="preserve" xmlns:serif="http://www.serif.com/" style="fill-rule:evenodd;clip-rule:evenodd;stroke-linecap:round;stroke-linejoin:round;stroke-miterlimit:1.5;">
    <rect id="neobread_nom_cookie" x="0" y="0" width="256" height="256" style="fill:none;"/>
    <path id="Crust" d="M192.734,26.885C222.946,26.885 247.473,51.413 247.473,81.624C247.473,94.467 243.041,106.282 235.623,115.623L235.623,200.464C235.623,216.277 222.785,229.115 206.972,229.115L48.771,229.115C32.958,229.115 20.12,216.277 20.12,200.464L20.12,115.297C12.857,106.008 8.527,94.318 8.527,81.624C8.527,51.413 33.054,26.885 63.266,26.885L192.734,26.885Z" style="fill:rgb(209,160,132);stroke:black;stroke-width:15px;"/>
    <rect id="Shadow" x="122.332" y="112.959" width="105.66" height="15.248" style="fill:rgb(186,133,109);"/>
    <path id="Slice" d="M42.009,112.691C33.24,105.704 27.616,94.934 27.616,82.861C27.616,61.82 44.698,44.738 65.738,44.738L135.611,44.738C156.652,44.738 173.734,61.82 173.734,82.861C173.734,94.528 168.481,104.979 160.213,111.974L160.213,196.732C160.213,204.964 153.53,211.647 145.299,211.647L56.924,211.647C48.692,211.647 42.009,204.964 42.009,196.732L42.009,112.691Z" style="fill:rgb(252,233,186);"/>
    <g id="Eyes">
        <g id="Right-eye" serif:id="Right eye">
            <circle id="Eye-white" serif:id="Eye white" cx="130.968" cy="115.715" r="23.779" style="fill:white;"/>
            <circle id="Pupil" cx="127.906" cy="112.691" r="20.392"/>
            <path id="Eye-reflection-top" serif:id="Eye reflection top" d="M116.892,101.838C120.92,97.81 126.719,97.069 129.835,100.185C132.95,103.3 132.21,109.1 128.182,113.127C124.154,117.155 118.355,117.896 115.239,114.78C112.124,111.665 112.864,105.865 116.892,101.838Z" style="fill:white;"/>
            <path id="Eye-reflection-bottom" serif:id="Eye reflection bottom" d="M137.831,117.603C137.831,117.603 136.632,121.739 132.389,122.644" style="fill:none;stroke:rgb(151,151,151);stroke-width:8px;"/>
        </g>
        <g id="Left-eye" serif:id="Left eye">
            <circle id="Eye-white1" serif:id="Eye white" cx="70.382" cy="115.715" r="23.779" style="fill:white;"/>
            <circle id="Pupil1" serif:id="Pupil" cx="67.32" cy="112.691" r="20.392"/>
            <path id="Eye-reflection-top1" serif:id="Eye reflection top" d="M56.306,101.838C60.333,97.81 66.133,97.069 69.248,100.185C72.364,103.3 71.623,109.1 67.595,113.127C63.568,117.155 57.768,117.896 54.653,114.78C51.537,111.665 52.278,105.865 56.306,101.838Z" style="fill:white;"/>
            <path id="Eye-reflection-bottom1" serif:id="Eye reflection bottom" d="M77.244,117.603C77.244,117.603 76.045,121.739 71.803,122.644" style="fill:none;stroke:rgb(151,151,151);stroke-width:8px;"/>
        </g>
    </g>
    <g id="Cookie">
        <circle id="Cookie-base" serif:id="Cookie base" cx="97.926" cy="203.948" r="41.263" style="fill:rgb(160,121,77);"/>
        <path d="M97.926,152.685C126.219,152.685 149.189,175.655 149.189,203.948C149.189,232.241 126.219,255.211 97.926,255.211C69.633,255.211 46.663,232.241 46.663,203.948C46.663,175.655 69.633,152.685 97.926,152.685ZM97.926,162.685C75.153,162.685 56.663,181.175 56.663,203.948C56.663,226.722 75.153,245.211 97.926,245.211C120.699,245.211 139.189,226.722 139.189,203.948C139.189,181.175 120.699,162.685 97.926,162.685Z"/>
        <g id="Chocolate-chips" serif:id="Chocolate chips">
            <path d="M73.436,200.683L73.436,210.527C73.436,212.999 71.429,215.006 68.957,215.006C66.485,215.006 64.479,212.999 64.479,210.527L64.479,200.683C64.479,198.211 66.485,196.204 68.957,196.204C71.429,196.204 73.436,198.211 73.436,200.683Z" style="fill:rgb(73,51,35);"/>
            <path d="M125.179,212.091L125.179,221.935C125.179,224.407 123.172,226.414 120.7,226.414C118.228,226.414 116.221,224.407 116.221,221.935L116.221,212.091C116.221,209.619 118.228,207.612 120.7,207.612C123.172,207.612 125.179,209.619 125.179,212.091Z" style="fill:rgb(73,51,35);"/>
            <path d="M99.104,208.359L89.259,208.359C86.787,208.359 84.781,206.352 84.781,203.88C84.781,201.409 86.787,199.402 89.259,199.402L99.104,199.402C101.576,199.402 103.583,201.409 103.583,203.88C103.583,206.352 101.576,208.359 99.104,208.359Z" style="fill:rgb(73,51,35);"/>
            <path d="M103.583,225.996L103.583,231.509C103.583,234.038 101.529,236.091 99,236.091L94.719,236.091C89.234,236.091 84.781,231.638 84.781,226.153C84.781,221.521 88.541,217.76 93.173,217.76L95.347,217.76C99.893,217.76 103.583,221.451 103.583,225.996Z" style="fill:rgb(73,51,35);"/>
            <path d="M120.585,197.965L115.073,197.965C112.543,197.965 110.49,195.911 110.49,193.382L110.49,189.101C110.49,183.616 114.943,179.162 120.428,179.162C125.06,179.162 128.821,182.923 128.821,187.555L128.821,189.729C128.821,194.274 125.131,197.965 120.585,197.965Z" style="fill:rgb(73,51,35);"/>
            <path d="M77.854,183.544L77.854,178.031C77.854,175.502 79.907,173.449 82.437,173.449L86.718,173.449C92.203,173.449 96.656,177.902 96.656,183.387C96.656,188.019 92.895,191.78 88.264,191.78L86.089,191.78C81.544,191.78 77.854,188.089 77.854,183.544Z" style="fill:rgb(73,51,35);"/>
        </g>
    </g>
    <path id="Food-hider" serif:id="Food hider" d="M65.575,150.689L130.285,150.742C132.385,150.743 134.261,152.058 134.979,154.031C135.698,156.005 135.106,158.217 133.498,159.569L112.072,177.582C110.084,179.253 107.148,179.125 105.314,177.286C105.314,177.286 91.27,163.205 91.27,163.205L80.245,176.936C79.219,178.214 77.632,178.908 75.997,178.793C74.362,178.679 72.887,177.77 72.049,176.361L61.274,158.245C60.354,156.699 60.336,154.778 61.226,153.215C62.116,151.652 63.776,150.687 65.575,150.689Z" style="fill:rgb(252,233,186);"/>
    <path id="Mouth" d="M65.596,155.72L76.372,173.837L90.892,155.752L108.879,173.787L130.306,155.773" style="fill:none;stroke:black;stroke-width:10px;"/>
</svg>
