<?xml version="1.0" encoding="UTF-8" standalone="no"?>
<!DOCTYPE svg PUBLIC "-//W3C//DTD SVG 1.1//EN" "http://www.w3.org/Graphics/SVG/1.1/DTD/svg11.dtd">
<svg width="100%" height="100%" viewBox="0 0 256 256" version="1.1" xmlns="http://www.w3.org/2000/svg" xmlns:xlink="http://www.w3.org/1999/xlink" xml:space="preserve" xmlns:serif="http://www.serif.com/" style="fill-rule:evenodd;clip-rule:evenodd;stroke-linecap:round;stroke-linejoin:round;stroke-miterlimit:1.5;">
    <rect id="neobread_heart_eyes" x="0" y="0" width="256" height="256" style="fill:none;"/>
    <clipPath id="_clip1">
        <rect x="0" y="0" width="256" height="256"/>
    </clipPath>
    <g clip-path="url(#_clip1)">
        <path id="Crust" d="M192.734,26.885C222.946,26.885 247.473,51.413 247.473,81.624C247.473,94.467 243.041,106.282 235.623,115.623L235.623,200.464C235.623,216.277 222.785,229.115 206.972,229.115L48.771,229.115C32.958,229.115 20.12,216.277 20.12,200.464L20.12,115.297C12.857,106.008 8.527,94.318 8.527,81.624C8.527,51.413 33.054,26.885 63.266,26.885L192.734,26.885Z" style="fill:rgb(209,160,132);stroke:black;stroke-width:15px;"/>
        <rect id="Shadow" x="122.332" y="112.959" width="105.66" height="15.248" style="fill:rgb(186,133,109);"/>
        <path id="Slice" d="M42.009,112.691C33.24,105.704 27.616,94.934 27.616,82.861C27.616,61.82 44.698,44.738 65.738,44.738L135.611,44.738C156.652,44.738 173.734,61.82 173.734,82.861C173.734,94.528 168.481,104.979 160.213,111.974L160.213,196.732C160.213,204.964 153.53,211.647 145.299,211.647L56.924,211.647C48.692,211.647 42.009,204.964 42.009,196.732L42.009,112.691Z" style="fill:rgb(252,233,186);"/>
        <g id="Face">
            <g id="Mouth">
                <path id="Mouth-backgorund" serif:id="Mouth backgorund" d="M123.9,160.688C123.9,171.755 114.915,180.74 103.848,180.74L87.896,180.74C76.689,180.74 67.59,171.642 67.59,160.434C67.59,154.023 72.795,148.817 79.207,148.817L112.028,148.817C118.58,148.817 123.9,154.136 123.9,160.688Z" style="fill:rgb(160,25,25);"/>
                <path id="Mouth-backgorund1" serif:id="Mouth backgorund" d="M93.162,180.74C92.529,179.557 92.186,178.294 92.186,176.982C92.186,170.317 101.023,164.907 111.908,164.907C115.976,164.907 119.757,165.662 122.899,166.957C120.264,174.958 112.726,180.74 103.848,180.74L93.162,180.74Z" style="fill:rgb(216,72,72);"/>
            </g>
            <g id="Eyes">
                <path id="Left-eye" serif:id="Left eye" d="M36.999,124.4L29.363,116.764C22.037,109.438 22.037,97.542 29.363,90.216C36.689,82.89 48.585,82.89 55.911,90.216L58.006,92.312L60.102,90.216C67.428,82.89 79.324,82.89 86.65,90.216C93.976,97.542 93.976,109.438 86.65,116.764L79.014,124.4C78.717,124.816 78.381,125.214 78.008,125.587L64.734,138.861C62.879,140.716 60.439,141.631 58.006,141.608C55.574,141.631 53.134,140.716 51.279,138.861L38.005,125.587C37.632,125.214 37.296,124.816 36.999,124.4Z" style="fill:rgb(239,124,148);stroke:black;stroke-width:10px;stroke-linejoin:miter;stroke-miterlimit:5;"/>
                <path id="Right-eye" serif:id="Right eye" d="M109.999,124.4L102.363,116.764C95.037,109.438 95.037,97.542 102.363,90.216C109.689,82.89 121.585,82.89 128.911,90.216L131.007,92.312L133.102,90.216C140.428,82.89 152.324,82.89 159.65,90.216C166.976,97.542 166.976,109.438 159.65,116.764L152.014,124.4C151.717,124.816 151.381,125.214 151.008,125.587L137.734,138.861C135.88,140.716 133.439,141.631 131.007,141.608C128.574,141.631 126.134,140.716 124.279,138.861L111.006,125.587C110.632,125.214 110.297,124.816 109.999,124.4Z" style="fill:rgb(239,124,148);stroke:black;stroke-width:10px;stroke-linejoin:miter;stroke-miterlimit:5;"/>
            </g>
        </g>
    </g>
</svg>
