<?xml version="1.0" encoding="UTF-8" standalone="no"?>
<!DOCTYPE svg PUBLIC "-//W3C//DTD SVG 1.1//EN" "http://www.w3.org/Graphics/SVG/1.1/DTD/svg11.dtd">
<svg width="100%" height="100%" viewBox="0 0 256 256" version="1.1" xmlns="http://www.w3.org/2000/svg" xmlns:xlink="http://www.w3.org/1999/xlink" xml:space="preserve" xmlns:serif="http://www.serif.com/" style="fill-rule:evenodd;clip-rule:evenodd;stroke-linecap:round;stroke-linejoin:round;stroke-miterlimit:1.5;">
    <rect id="neobread_thought_bubble" x="0" y="0" width="256" height="256" style="fill:none;"/>
    <clipPath id="_clip1">
        <rect x="0" y="0" width="256" height="256"/>
    </clipPath>
    <g clip-path="url(#_clip1)">
        <g id="Bread">
            <path id="Hand-outline" serif:id="Hand outline" d="M70.015,213.196L70.015,232.428C70.015,239.95 63.909,246.057 56.387,246.057L26.317,246.057C18.795,246.057 12.689,239.95 12.689,232.428L12.689,205.171C12.689,198.956 16.859,193.707 22.551,192.071L22.551,179.5C22.551,174.438 26.66,170.33 31.721,170.33C36.782,170.33 40.891,174.438 40.891,179.5L40.891,191.543L91.326,191.543C97.302,191.543 102.153,196.394 102.153,202.37C102.153,208.345 97.302,213.196 91.326,213.196L70.015,213.196Z" style="fill:none;stroke:black;stroke-width:15px;"/>
            <path id="Crust" d="M166.991,57.515C192.98,57.515 214.08,78.615 214.08,104.604C214.08,115.652 210.267,125.816 203.886,133.852L203.886,206.836C203.886,220.439 192.842,231.483 179.239,231.483L43.147,231.483C29.544,231.483 18.5,220.439 18.5,206.836L18.5,133.571C12.252,125.58 8.527,115.524 8.527,104.604C8.527,78.615 29.626,57.515 55.616,57.515L166.991,57.515Z" style="fill:rgb(209,160,132);stroke:black;stroke-width:15px;"/>
            <rect id="Shadow" x="106.428" y="131.56" width="90.894" height="13.117" style="fill:rgb(186,133,109);"/>
            <path id="Slice" d="M37.33,131.329C29.786,125.318 24.948,116.054 24.948,105.668C24.948,87.568 39.643,72.873 57.743,72.873L117.851,72.873C135.951,72.873 150.646,87.568 150.646,105.668C150.646,115.705 146.127,124.695 139.015,130.712L139.015,203.625C139.015,210.706 133.266,216.455 126.185,216.455L50.16,216.455C43.079,216.455 37.33,210.706 37.33,203.625L37.33,131.329Z" style="fill:rgb(252,233,186);"/>
            <g id="Face">
                <path id="Mouth" d="M68.56,179.247L82.252,165.926L99.228,179.6" style="fill:none;stroke:black;stroke-width:10px;"/>
                <g id="Eyes">
                    <path id="Right-eye" serif:id="Right eye" d="M124.762,130.672L124.762,137.507C124.762,144.688 118.933,150.518 111.752,150.518C104.571,150.518 98.742,144.688 98.742,137.507L98.742,130.672C98.742,123.491 104.571,117.661 111.752,117.661C118.933,117.661 124.762,123.491 124.762,130.672Z"/>
                    <path id="Left-eye" serif:id="Left eye" d="M73.058,130.616L73.058,137.452C73.058,144.632 67.228,150.462 60.047,150.462C52.866,150.462 47.037,144.632 47.037,137.452L47.037,130.616C47.037,123.435 52.866,117.606 60.047,117.606C67.228,117.606 73.058,123.435 73.058,130.616Z"/>
                </g>
            </g>
            <path id="Hand" d="M70.015,213.196L70.015,232.428C70.015,239.95 63.909,246.057 56.387,246.057L26.317,246.057C18.795,246.057 12.689,239.95 12.689,232.428L12.689,205.171C12.689,198.956 16.859,193.707 22.551,192.071L22.551,179.5C22.551,174.438 26.66,170.33 31.721,170.33C36.782,170.33 40.891,174.438 40.891,179.5L40.891,191.543L91.326,191.543C97.302,191.543 102.153,196.394 102.153,202.37C102.153,208.345 97.302,213.196 91.326,213.196L70.015,213.196Z" style="fill:rgb(186,133,109);stroke:black;stroke-width:10px;"/>
        </g>
        <path d="M262.466,27.05C262.466,12.121 274.587,0 289.516,0C304.445,0 316.566,12.121 316.566,27.05C324.03,14.121 340.587,9.684 353.516,17.149C366.445,24.613 370.881,41.17 363.417,54.099C376.346,46.635 392.903,51.071 400.367,64C407.832,76.929 403.395,93.486 390.467,100.95C405.396,100.95 417.516,113.071 417.516,128C417.516,142.929 405.396,155.05 390.467,155.05C403.395,162.514 407.832,179.071 400.367,192C392.903,204.929 376.346,209.365 363.417,201.901C370.881,214.83 366.445,231.387 353.516,238.851C340.587,246.316 324.03,241.879 316.566,228.95C316.566,243.879 304.445,256 289.516,256C274.587,256 262.466,243.879 262.466,228.95C255.002,241.879 238.445,246.316 225.516,238.851C212.587,231.387 208.151,214.83 215.615,201.901C202.686,209.365 186.129,204.929 178.665,192C171.2,179.071 175.637,162.514 188.566,155.05C173.637,155.05 161.516,142.929 161.516,128C161.516,113.071 173.637,100.95 188.566,100.95C175.637,93.486 171.2,76.929 178.665,64C186.129,51.071 202.686,46.635 215.615,54.099C208.151,41.17 212.587,24.613 225.516,17.149C238.445,9.684 255.002,14.121 262.466,27.05Z" style="fill:white;"/>
        <path d="M257.48,8.439C263.902,-2.585 275.85,-10 289.516,-10C303.182,-10 315.13,-2.585 321.552,8.439C332.626,2.103 346.681,1.655 358.516,8.488C370.351,15.322 376.991,27.718 377.041,40.475C389.799,40.525 402.194,47.165 409.028,59C415.861,70.835 415.413,84.89 409.078,95.964C420.101,102.386 427.516,114.334 427.516,128C427.516,141.666 420.101,153.614 409.078,160.036C415.413,171.11 415.861,185.165 409.028,197C402.194,208.835 389.799,215.475 377.041,215.525C376.991,228.282 370.351,240.678 358.516,247.512C346.681,254.345 332.626,253.897 321.552,247.561C315.13,258.585 303.182,266 289.516,266C275.85,266 263.902,258.585 257.48,247.561C246.406,253.897 232.351,254.345 220.516,247.512C208.681,240.678 202.041,228.282 201.991,215.525C189.234,215.475 176.838,208.835 170.005,197C163.171,185.165 163.619,171.11 169.955,160.036C158.931,153.614 151.516,141.666 151.516,128C151.516,114.334 158.931,102.386 169.955,95.964C163.619,84.89 163.171,70.835 170.005,59C176.838,47.165 189.234,40.525 201.991,40.475C202.041,27.718 208.681,15.322 220.516,8.488C232.351,1.655 246.406,2.103 257.48,8.439ZM262.466,27.05C255.002,14.121 238.445,9.684 225.516,17.149C212.587,24.613 208.151,41.17 215.615,54.099C202.686,46.635 186.129,51.071 178.665,64C171.2,76.929 175.637,93.486 188.566,100.95C173.637,100.95 161.516,113.071 161.516,128C161.516,142.929 173.637,155.05 188.566,155.05C175.637,162.514 171.2,179.071 178.665,192C186.129,204.929 202.686,209.365 215.615,201.901C208.151,214.83 212.587,231.387 225.516,238.851C238.445,246.316 255.002,241.879 262.466,228.95C262.466,243.879 274.587,256 289.516,256C304.445,256 316.566,243.879 316.566,228.95C324.03,241.879 340.587,246.316 353.516,238.851C366.445,231.387 370.881,214.83 363.417,201.901C376.346,209.365 392.903,204.929 400.367,192C407.832,179.071 403.395,162.514 390.467,155.05C405.396,155.05 417.516,142.929 417.516,128C417.516,113.071 405.396,100.95 390.467,100.95C403.395,93.486 407.832,76.929 400.367,64C392.903,51.071 376.346,46.635 363.417,54.099C370.881,41.17 366.445,24.613 353.516,17.149C340.587,9.684 324.03,14.121 316.566,27.05C316.566,12.121 304.445,-0 289.516,-0C274.587,-0 262.466,12.121 262.466,27.05Z"/>
        <path d="M137.113,29.407C137.604,26.854 140.039,24.841 142.92,24.841C145.802,24.841 148.236,26.854 148.728,29.407C150.881,27.949 154.025,28.247 156.063,30.285C158.1,32.323 158.399,35.467 156.941,37.62C159.494,38.111 161.506,40.546 161.506,43.427C161.506,46.309 159.494,48.743 156.941,49.235C158.399,51.388 158.1,54.532 156.063,56.57C154.025,58.607 150.881,58.906 148.728,57.448C148.236,60.001 145.802,62.013 142.92,62.013C140.039,62.013 137.604,60.001 137.113,57.448C134.96,58.906 131.816,58.607 129.778,56.57C127.74,54.532 127.442,51.388 128.9,49.235C126.347,48.743 124.334,46.309 124.334,43.427C124.334,40.546 126.347,38.111 128.9,37.62C127.442,35.467 127.74,32.323 129.778,30.285C131.816,28.247 134.96,27.949 137.113,29.407Z" style="fill:white;"/>
        <path d="M118.111,33.151L118.091,32.794L119.541,27.702L122.707,23.214L127.195,20.048L132.287,18.598L132.644,18.618L132.882,18.351L137.508,15.776L142.92,14.841L148.332,15.776L152.958,18.351L153.197,18.618L153.554,18.598L158.646,20.048L163.134,23.214L166.299,27.702L167.75,32.794L167.73,33.151L167.997,33.389L170.571,38.015L171.506,43.427L170.571,48.839L167.997,53.466L167.73,53.704L167.75,54.061L166.299,59.153L163.134,63.641L158.646,66.806L153.554,68.257L153.197,68.237L152.958,68.504L148.332,71.078L142.92,72.013L137.508,71.078L132.882,68.504L132.644,68.237L132.287,68.257L127.195,66.806L122.707,63.641L119.541,59.153L118.091,54.061L118.111,53.704L117.844,53.466L115.269,48.839L114.334,43.427L115.269,38.015L117.844,33.389L118.111,33.151ZM137.113,29.407C134.96,27.949 131.816,28.247 129.778,30.285C127.74,32.323 127.442,35.467 128.9,37.62C126.347,38.111 124.334,40.546 124.334,43.427C124.334,46.309 126.347,48.743 128.9,49.235C127.442,51.388 127.74,54.532 129.778,56.57C131.816,58.607 134.96,58.906 137.113,57.448C137.604,60.001 140.039,62.013 142.92,62.013C145.802,62.013 148.236,60.001 148.728,57.448C150.881,58.906 154.025,58.607 156.063,56.57C158.1,54.532 158.399,51.388 156.941,49.235C159.494,48.743 161.506,46.309 161.506,43.427C161.506,40.546 159.494,38.111 156.941,37.62C158.399,35.467 158.1,32.323 156.063,30.285C154.025,28.247 150.881,27.949 148.728,29.407C148.236,26.854 145.802,24.841 142.92,24.841C140.039,24.841 137.604,26.854 137.113,29.407Z"/>
        <path d="M88.718,58.775C89.055,57.02 90.729,55.636 92.71,55.636C94.691,55.636 96.364,57.02 96.702,58.775C98.182,57.773 100.344,57.978 101.744,59.379C103.145,60.779 103.35,62.941 102.348,64.421C104.103,64.759 105.486,66.432 105.486,68.413C105.486,70.394 104.103,72.067 102.348,72.405C103.35,73.885 103.145,76.047 101.744,77.447C100.344,78.848 98.182,79.053 96.702,78.051C96.364,79.806 94.691,81.189 92.71,81.189C90.729,81.189 89.055,79.806 88.718,78.051C87.238,79.053 85.076,78.848 83.675,77.447C82.275,76.047 82.07,73.885 83.072,72.405C81.317,72.067 79.933,70.394 79.933,68.413C79.933,66.432 81.317,64.759 83.072,64.421C82.07,62.941 82.275,60.779 83.675,59.379C85.076,57.978 87.238,57.773 88.718,58.775Z" style="fill:white;"/>
        <path d="M72.713,60.13L73.814,56.263L76.604,52.307L80.56,49.517L84.427,48.416L87.94,46.461L92.71,45.636L97.48,46.461L100.993,48.416L104.86,49.517L108.815,52.307L111.605,56.263L112.707,60.13L114.662,63.643L115.486,68.413L114.662,73.183L112.707,76.696L111.605,80.563L108.815,84.518L104.86,87.308L100.993,88.41L97.48,90.365L92.71,91.189L87.94,90.365L84.427,88.41L80.56,87.308L76.604,84.518L73.814,80.563L72.713,76.696L70.758,73.183L69.933,68.413L70.758,63.643L72.713,60.13ZM88.718,58.775C87.238,57.773 85.076,57.978 83.675,59.379C82.275,60.779 82.07,62.941 83.072,64.421C81.317,64.759 79.933,66.432 79.933,68.413C79.933,70.394 81.317,72.067 83.072,72.405C82.07,73.885 82.275,76.047 83.675,77.447C85.076,78.848 87.238,79.053 88.718,78.051C89.055,79.806 90.729,81.189 92.71,81.189C94.691,81.189 96.364,79.806 96.702,78.051C98.182,79.053 100.344,78.848 101.744,77.447C103.145,76.047 103.35,73.885 102.348,72.405C104.103,72.067 105.486,70.394 105.486,68.413C105.486,66.432 104.103,64.759 102.348,64.421C103.35,62.941 103.145,60.779 101.744,59.379C100.344,57.978 98.182,57.773 96.702,58.775C96.364,57.02 94.691,55.636 92.71,55.636C90.729,55.636 89.055,57.02 88.718,58.775Z"/>
    </g>
</svg>
