<?xml version="1.0" encoding="UTF-8" standalone="no"?>
<!DOCTYPE svg PUBLIC "-//W3C//DTD SVG 1.1//EN" "http://www.w3.org/Graphics/SVG/1.1/DTD/svg11.dtd">
<svg width="100%" height="100%" viewBox="0 0 256 256" version="1.1" xmlns="http://www.w3.org/2000/svg" xmlns:xlink="http://www.w3.org/1999/xlink" xml:space="preserve" xmlns:serif="http://www.serif.com/" style="fill-rule:evenodd;clip-rule:evenodd;stroke-linecap:round;stroke-linejoin:round;stroke-miterlimit:1.5;">
    <rect id="neobread_magnifying_glass" x="0" y="0" width="256" height="256" style="fill:none;"/>
    <path id="Crust" d="M192.734,26.885C222.946,26.885 247.473,51.413 247.473,81.624C247.473,94.467 243.041,106.282 235.623,115.623L235.623,200.464C235.623,216.277 222.785,229.115 206.972,229.115L48.771,229.115C32.958,229.115 20.12,216.277 20.12,200.464L20.12,115.297C12.857,106.008 8.527,94.318 8.527,81.624C8.527,51.413 33.054,26.885 63.266,26.885L192.734,26.885Z" style="fill:rgb(209,160,132);stroke:black;stroke-width:15px;"/>
    <rect id="Shadow" x="122.332" y="112.959" width="105.66" height="15.248" style="fill:rgb(186,133,109);"/>
    <path id="Slice" d="M42.009,112.691C33.24,105.704 27.616,94.934 27.616,82.861C27.616,61.82 44.698,44.738 65.738,44.738L135.611,44.738C156.652,44.738 173.734,61.82 173.734,82.861C173.734,94.528 168.481,104.979 160.213,111.974L160.213,196.732C160.213,204.964 153.53,211.647 145.299,211.647L56.924,211.647C48.692,211.647 42.009,204.964 42.009,196.732L42.009,112.691Z" style="fill:rgb(252,233,186);"/>
    <g id="Eyes">
        <path id="Right-eye" serif:id="Right eye" d="M144.221,116.158L144.221,121.067C144.221,131.863 135.456,140.628 124.66,140.628C113.864,140.628 105.099,131.863 105.099,121.067L105.099,116.158C105.099,105.362 113.864,96.597 124.66,96.597C135.456,96.597 144.221,105.362 144.221,116.158Z"/>
        <path id="Left-eye" serif:id="Left eye" d="M53.272,104.84L79.05,119.751L53.12,131.015" style="fill:none;stroke:black;stroke-width:12.61px;"/>
    </g>
    <g id="Magnifying-glass" serif:id="Magnifying glass">
        <path id="Outline" d="M162.108,152.592C163.914,154.427 165.403,156.636 166.443,159.163L182.631,198.479C186.939,208.941 181.942,220.933 171.48,225.24C161.018,229.548 149.027,224.551 144.719,214.089L128.531,174.773C127.566,172.429 127.068,170.009 126.993,167.616C104.909,168.558 83.58,155.797 74.684,134.189C63.327,106.607 76.5,74.993 104.083,63.636C131.665,52.279 163.279,65.453 174.636,93.035C183.334,114.16 177.64,137.648 162.108,152.592ZM135.332,156.351C135.351,157.199 135.523,158.057 135.865,158.888L137.666,163.26C136.757,165.664 136.723,168.404 137.778,170.965L153.966,210.282C156.172,215.64 162.314,218.2 167.673,215.993C173.031,213.787 175.591,207.645 173.384,202.286L157.196,162.97C155.924,159.88 153.343,157.721 150.359,156.87L148.968,153.493C148.618,152.641 148.12,151.895 147.517,151.27C165.77,140.216 173.765,117.184 165.389,96.843C156.134,74.363 130.369,63.627 107.89,72.883C85.411,82.139 74.675,107.903 83.931,130.382C92.358,150.85 114.473,161.582 135.332,156.351Z"/>
        <path id="Handle" d="M157.196,162.97L173.384,202.286C175.591,207.645 173.031,213.787 167.673,215.993C162.314,218.2 156.172,215.64 153.966,210.282L137.778,170.965C135.571,165.607 138.131,159.465 143.489,157.258C148.848,155.052 154.99,157.611 157.196,162.97Z" style="fill:rgb(42,42,42);"/>
        <path id="Attachment-point" serif:id="Attachment point" d="M137.666,163.26L135.865,158.888C134.376,155.272 136.103,151.127 139.719,149.639C143.335,148.15 147.479,149.877 148.968,153.493L150.359,156.87C148.167,156.244 145.758,156.324 143.489,157.258C140.692,158.41 138.657,160.635 137.666,163.26Z" style="fill:rgb(151,151,151);"/>
        <path id="Glass" d="M111.582,81.849C129.112,74.631 149.205,83.004 156.423,100.534C163.641,118.065 155.268,138.157 137.738,145.375C120.207,152.593 100.115,144.221 92.897,126.69C85.679,109.16 94.051,89.067 111.582,81.849Z" style="fill:rgb(180,238,255);fill-opacity:0.4;"/>
        <path id="Ring" d="M107.89,72.883C130.369,63.627 156.134,74.363 165.389,96.843C174.645,119.322 163.909,145.086 141.43,154.342C118.951,163.597 93.186,152.861 83.931,130.382C74.675,107.903 85.411,82.139 107.89,72.883ZM112.52,84.129C96.248,90.829 88.476,109.479 95.176,125.752C101.876,142.024 120.527,149.796 136.799,143.096C153.072,136.396 160.843,117.745 154.143,101.473C147.443,85.2 128.793,77.429 112.52,84.129Z" style="fill:rgb(151,151,151);"/>
    </g>
    <path id="Right-hand" serif:id="Right hand" d="M203.945,204.701L182.765,222.663C173.932,230.153 160.679,229.064 153.188,220.231C145.828,211.551 146.899,198.529 155.578,191.169L177.037,172.971" style="fill:rgb(209,160,132);stroke:black;stroke-width:10px;stroke-linecap:butt;"/>
</svg>
