<?xml version="1.0" encoding="UTF-8" standalone="no"?>
<!DOCTYPE svg PUBLIC "-//W3C//DTD SVG 1.1//EN" "http://www.w3.org/Graphics/SVG/1.1/DTD/svg11.dtd">
<svg width="100%" height="100%" viewBox="0 0 256 256" version="1.1" xmlns="http://www.w3.org/2000/svg" xmlns:xlink="http://www.w3.org/1999/xlink" xml:space="preserve" xmlns:serif="http://www.serif.com/" style="fill-rule:evenodd;clip-rule:evenodd;stroke-linecap:round;stroke-linejoin:round;stroke-miterlimit:1.5;">
    <rect id="neobread_zipped_mouth" x="0" y="0" width="256" height="256" style="fill:none;"/>
    <path id="Crust" d="M192.734,26.885C222.946,26.885 247.473,51.413 247.473,81.624C247.473,94.467 243.041,106.282 235.623,115.623L235.623,200.464C235.623,216.277 222.785,229.115 206.972,229.115L48.771,229.115C32.958,229.115 20.12,216.277 20.12,200.464L20.12,115.297C12.857,106.008 8.527,94.318 8.527,81.624C8.527,51.413 33.054,26.885 63.266,26.885L192.734,26.885Z" style="fill:rgb(209,160,132);stroke:black;stroke-width:15px;"/>
    <rect id="Shadow" x="122.332" y="112.959" width="105.66" height="15.248" style="fill:rgb(186,133,109);"/>
    <path id="Slice" d="M42.009,112.691C33.24,105.704 27.616,94.934 27.616,82.861C27.616,61.82 44.698,44.738 65.738,44.738L135.611,44.738C156.652,44.738 173.734,61.82 173.734,82.861C173.734,94.528 168.481,104.979 160.213,111.974L160.213,196.732C160.213,204.964 153.53,211.647 145.299,211.647L56.924,211.647C48.692,211.647 42.009,204.964 42.009,196.732L42.009,112.691Z" style="fill:rgb(252,233,186);"/>
    <g id="Zip">
        <g id="Teeth">
            <path d="M62.912,154.862L62.912,166.106C62.912,167.776 61.556,169.131 59.887,169.131L53.837,169.131C52.168,169.131 50.813,167.776 50.813,166.106L50.813,154.862C50.813,153.193 52.168,151.837 53.837,151.837L59.887,151.837C61.556,151.837 62.912,153.193 62.912,154.862Z" style="fill:rgb(85,85,85);"/>
            <path d="M74.011,163.509L74.011,174.753C74.011,176.422 72.656,177.778 70.986,177.778L64.937,177.778C63.267,177.778 61.912,176.422 61.912,174.753L61.912,163.509C61.912,161.84 63.267,160.484 64.937,160.484L70.986,160.484C72.656,160.484 74.011,161.84 74.011,163.509Z" style="fill:rgb(85,85,85);"/>
            <path d="M85.11,154.862L85.11,166.106C85.11,167.776 83.755,169.131 82.085,169.131L76.036,169.131C74.366,169.131 73.011,167.776 73.011,166.106L73.011,154.862C73.011,153.193 74.366,151.837 76.036,151.837L82.085,151.837C83.755,151.837 85.11,153.193 85.11,154.862Z" style="fill:rgb(85,85,85);"/>
            <path d="M96.209,163.509L96.209,174.753C96.209,176.422 94.854,177.778 93.185,177.778L87.135,177.778C85.465,177.778 84.11,176.422 84.11,174.753L84.11,163.509C84.11,161.84 85.465,160.484 87.135,160.484L93.185,160.484C94.854,160.484 96.209,161.84 96.209,163.509Z" style="fill:rgb(85,85,85);"/>
            <path d="M107.308,154.862L107.308,166.106C107.308,167.776 105.953,169.131 104.284,169.131L98.234,169.131C96.565,169.131 95.209,167.776 95.209,166.106L95.209,154.862C95.209,153.193 96.565,151.837 98.234,151.837L104.284,151.837C105.953,151.837 107.308,153.193 107.308,154.862Z" style="fill:rgb(85,85,85);"/>
            <path d="M118.408,163.509L118.408,174.753C118.408,176.422 117.052,177.778 115.383,177.778L109.333,177.778C107.664,177.778 106.308,176.422 106.308,174.753L106.308,163.509C106.308,161.84 107.664,160.484 109.333,160.484L115.383,160.484C117.052,160.484 118.408,161.84 118.408,163.509Z" style="fill:rgb(85,85,85);"/>
            <path d="M129.507,154.862L129.507,166.106C129.507,167.776 128.151,169.131 126.482,169.131L120.432,169.131C118.763,169.131 117.408,167.776 117.408,166.106L117.408,154.862C117.408,153.193 118.763,151.837 120.432,151.837L126.482,151.837C128.151,151.837 129.507,153.193 129.507,154.862Z" style="fill:rgb(85,85,85);"/>
            <path d="M140.606,163.509L140.606,174.753C140.606,176.422 139.251,177.778 137.581,177.778L131.532,177.778C129.862,177.778 128.507,176.422 128.507,174.753L128.507,163.509C128.507,161.84 129.862,160.484 131.532,160.484L137.581,160.484C139.251,160.484 140.606,161.84 140.606,163.509Z" style="fill:rgb(85,85,85);"/>
        </g>
        <path d="M163.993,196.322L144.843,184.959C136.746,180.155 134.074,169.681 138.878,161.585C143.682,153.488 154.156,150.816 162.252,155.62L181.402,166.983C189.498,171.787 192.171,182.261 187.367,190.357C182.563,198.453 172.089,201.126 163.993,196.322ZM181.067,186.619C183.654,182.26 182.215,176.622 177.856,174.035C173.497,171.449 167.859,172.888 165.272,177.247C162.686,181.605 164.125,187.244 168.484,189.83C172.842,192.417 178.481,190.978 181.067,186.619Z" style="fill:rgb(85,85,85);"/>
    </g>
    <g id="Eyes">
        <path id="Right-eye" serif:id="Right eye" d="M143.057,111.742L143.057,119.688C143.057,128.036 136.28,134.813 127.933,134.813C119.586,134.813 112.809,128.036 112.809,119.688L112.809,111.742C112.809,103.395 119.586,96.618 127.933,96.618C136.28,96.618 143.057,103.395 143.057,111.742Z"/>
        <path id="Left-eye" serif:id="Left eye" d="M82.953,111.678L82.953,119.624C82.953,127.971 76.176,134.748 67.828,134.748C59.481,134.748 52.704,127.971 52.704,119.624L52.704,111.678C52.704,103.331 59.481,96.554 67.828,96.554C76.176,96.554 82.953,103.331 82.953,111.678Z"/>
    </g>
</svg>
