<?xml version="1.0" encoding="UTF-8" standalone="no"?>
<!DOCTYPE svg PUBLIC "-//W3C//DTD SVG 1.1//EN" "http://www.w3.org/Graphics/SVG/1.1/DTD/svg11.dtd">
<svg width="100%" height="100%" viewBox="0 0 256 256" version="1.1" xmlns="http://www.w3.org/2000/svg" xmlns:xlink="http://www.w3.org/1999/xlink" xml:space="preserve" xmlns:serif="http://www.serif.com/" style="fill-rule:evenodd;clip-rule:evenodd;stroke-linecap:round;stroke-linejoin:round;stroke-miterlimit:10;">
    <rect id="neobread_meeting" x="0" y="0" width="256" height="256" style="fill:none;"/>
    <g id="Buttons">
        <g id="More-button" serif:id="More button">
            <circle id="Background" cx="216.401" cy="237.509" r="13.001" style="fill:white;stroke:black;stroke-width:1px;"/>
            <g id="Icon">
                <circle cx="216.401" cy="237.509" r="1.978"/>
                <circle cx="221.458" cy="237.509" r="1.978"/>
                <circle cx="211.345" cy="237.509" r="1.978"/>
            </g>
        </g>
        <g id="Share-screen-button" serif:id="Share screen button">
            <circle id="Background1" serif:id="Background" cx="178.201" cy="237.509" r="13.001" style="fill:white;stroke:black;stroke-width:1px;"/>
            <g id="Icon1" serif:id="Icon">
                <path id="Screen" d="M184.997,232.753L184.997,240.264C184.997,240.736 184.614,241.119 184.142,241.119L172.261,241.119C171.789,241.119 171.406,240.736 171.406,240.264L171.406,232.753C171.406,232.281 171.789,231.898 172.261,231.898L184.142,231.898C184.614,231.898 184.997,232.281 184.997,232.753Z" style="fill:none;stroke:black;stroke-width:2px;"/>
                <path id="Arrow" d="M177.217,237.755L175.39,237.755L178.201,234.944L181.013,237.755L179.185,237.755L179.185,244.499L177.217,244.499L177.217,237.755Z"/>
            </g>
        </g>
        <g id="Leave-button" serif:id="Leave button">
            <path id="Background2" serif:id="Background" d="M152.999,237.448C152.999,244.624 147.173,250.45 139.998,250.45L116.002,250.45C108.827,250.45 103.001,244.624 103.001,237.448C103.001,230.273 108.827,224.447 116.002,224.447L139.998,224.447C147.173,224.447 152.999,230.273 152.999,237.448Z" style="fill:rgb(255,92,92);stroke:black;stroke-width:1px;"/>
            <path id="Icon2" serif:id="Icon" d="M118.453,243.609C118.453,243.609 112.727,239.004 112.728,238.985C112.788,234.798 119.605,231.408 127.993,231.408C136.381,231.408 143.198,234.798 143.258,238.985C143.258,239.004 137.533,243.609 137.533,243.609L132.949,240.963L133.782,235.656C131.971,235.384 130.017,235.231 127.993,235.231C125.968,235.231 124.015,235.384 122.203,235.656L123.037,240.963L118.453,243.609Z" style="fill:white;"/>
        </g>
        <g id="Video-button" serif:id="Video button">
            <circle id="Background3" serif:id="Background" cx="77.816" cy="237.509" r="13.001" style="fill:white;stroke:black;stroke-width:1px;"/>
            <g id="Icon3" serif:id="Icon">
                <path id="Lens" d="M81.56,237.509L85.3,233.948L85.3,241.069L81.56,237.509Z"/>
                <path id="Camera" d="M81.856,233.753L81.856,241.264C81.856,241.736 81.473,242.119 81.002,242.119L73.284,242.119C72.813,242.119 72.43,241.736 72.43,241.264L72.43,233.753C72.43,233.281 72.813,232.898 73.284,232.898L81.002,232.898C81.473,232.898 81.856,233.281 81.856,233.753Z" style="fill:none;stroke:black;stroke-width:2px;"/>
            </g>
        </g>
        <g id="Mic-button" serif:id="Mic button">
            <circle id="Background4" serif:id="Background" cx="39.601" cy="237.001" r="13.001" style="fill:white;stroke:black;stroke-width:1px;"/>
            <g id="Icon4" serif:id="Icon">
                <path id="Base" d="M38.882,241.431C36.883,241.09 35.363,239.349 35.363,237.253L36.422,237.253C36.422,239.009 37.846,240.433 39.601,240.433C41.357,240.433 42.781,239.009 42.781,237.253L43.84,237.253C43.84,239.325 42.355,241.049 40.391,241.419L40.391,243.564L38.882,243.564L38.882,241.431Z"/>
                <path id="Mic" d="M41.341,233.192L41.341,237.402C41.341,238.362 40.561,239.142 39.601,239.142C38.641,239.142 37.862,238.362 37.862,237.402L37.862,233.192C37.862,232.232 38.641,231.453 39.601,231.453C40.561,231.453 41.341,232.232 41.341,233.192Z"/>
            </g>
        </g>
    </g>
    <g id="Bread">
        <path id="Crust" d="M182.943,26.127C208.585,26.127 229.403,46.945 229.403,72.586C229.403,83.487 225.641,93.515 219.345,101.443L219.345,173.452C219.345,186.873 208.449,197.77 195.028,197.77L60.755,197.77C47.333,197.77 36.437,186.873 36.437,173.452L36.437,101.167C30.273,93.283 26.597,83.36 26.597,72.586C26.597,46.945 47.415,26.127 73.057,26.127L182.943,26.127Z" style="fill:rgb(209,160,132);stroke:black;stroke-width:15px;stroke-miterlimit:1.5;"/>
        <rect id="Shadow" x="123.19" y="99.182" width="88.697" height="12.942" style="fill:rgb(186,133,109);"/>
        <path id="Slice" d="M55.015,98.954C47.573,93.024 42.799,83.883 42.799,73.636C42.799,55.778 57.297,41.28 75.155,41.28L134.46,41.28C152.318,41.28 166.817,55.778 166.817,73.636C166.817,83.539 162.358,92.409 155.341,98.346L155.341,170.285C155.341,177.271 149.669,182.943 142.682,182.943L67.674,182.943C60.688,182.943 55.015,177.271 55.015,170.285L55.015,98.954Z" style="fill:rgb(252,233,186);"/>
        <g id="Face">
            <path id="Mouth" d="M75.035,135.476L84.18,150.853L96.505,135.503L111.771,150.81L129.957,135.521" style="fill:none;stroke:black;stroke-width:8.49px;stroke-miterlimit:1.5;"/>
            <g id="Eyes">
                <path id="Right-eye" serif:id="Right eye" d="M140.78,98.15L140.78,104.894C140.78,111.978 135.028,117.73 127.943,117.73C120.859,117.73 115.107,111.978 115.107,104.894L115.107,98.15C115.107,91.065 120.859,85.313 127.943,85.313C135.028,85.313 140.78,91.065 140.78,98.15Z"/>
                <path id="Left-eye" serif:id="Left eye" d="M89.766,98.095L89.766,104.839C89.766,111.924 84.014,117.675 76.929,117.675C69.845,117.675 64.093,111.924 64.093,104.839L64.093,98.095C64.093,91.01 69.845,85.258 76.929,85.258C84.014,85.258 89.766,91.01 89.766,98.095Z"/>
            </g>
        </g>
    </g>
    <path id="Camera-outline" serif:id="Camera outline" d="M251,17.834L251,206.063C251,213.146 245.249,218.896 238.166,218.896L17.834,218.896C10.751,218.896 5,213.146 5,206.063L5,17.834C5,10.751 10.751,5 17.834,5L238.166,5C245.249,5 251,10.751 251,17.834Z" style="fill:none;stroke:black;stroke-width:2px;"/>
    <g id="Name">
        <path d="M96.341,198.047L96.341,208.627C96.341,211.546 93.971,213.917 91.051,213.917L14.666,213.917C11.747,213.917 9.376,211.546 9.376,208.627L9.376,198.047C9.376,195.127 11.747,192.757 14.666,192.757L91.051,192.757C93.971,192.757 96.341,195.127 96.341,198.047Z" style="fill-opacity:0.5;"/>
        <path d="M16.486,209.056L16.486,197.427L18.77,197.427L23.53,205.193L23.53,197.427L25.711,197.427L25.711,209.056L23.355,209.056L18.667,201.473L18.667,209.056L16.486,209.056Z" style="fill:white;fill-rule:nonzero;"/>
        <path d="M33.057,206.375L35.278,206.748C34.992,207.562 34.541,208.182 33.925,208.608C33.309,209.034 32.538,209.246 31.613,209.246C30.148,209.246 29.064,208.768 28.361,207.811C27.805,207.044 27.528,206.076 27.528,204.907C27.528,203.511 27.893,202.418 28.622,201.627C29.352,200.837 30.275,200.441 31.391,200.441C32.644,200.441 33.633,200.855 34.358,201.683C35.082,202.51 35.429,203.778 35.397,205.486L29.812,205.486C29.828,206.147 30.008,206.662 30.352,207.029C30.695,207.397 31.124,207.581 31.637,207.581C31.986,207.581 32.279,207.485 32.517,207.295C32.755,207.105 32.935,206.798 33.057,206.375ZM33.184,204.122C33.168,203.477 33.001,202.986 32.684,202.651C32.367,202.315 31.981,202.147 31.526,202.147C31.039,202.147 30.637,202.324 30.32,202.678C30.003,203.033 29.847,203.514 29.852,204.122L33.184,204.122Z" style="fill:white;fill-rule:nonzero;"/>
        <path d="M36.698,204.725C36.698,203.985 36.88,203.268 37.245,202.575C37.61,201.882 38.127,201.354 38.796,200.989C39.465,200.624 40.212,200.441 41.037,200.441C42.311,200.441 43.356,200.855 44.17,201.683C44.985,202.51 45.392,203.556 45.392,204.82C45.392,206.095 44.981,207.151 44.158,207.989C43.336,208.827 42.301,209.246 41.053,209.246C40.281,209.246 39.544,209.072 38.844,208.723C38.143,208.374 37.61,207.862 37.245,207.188C36.88,206.514 36.698,205.693 36.698,204.725ZM38.982,204.844C38.982,205.679 39.181,206.319 39.577,206.764C39.974,207.208 40.463,207.43 41.045,207.43C41.627,207.43 42.114,207.208 42.508,206.764C42.902,206.319 43.099,205.674 43.099,204.828C43.099,204.003 42.902,203.368 42.508,202.924C42.114,202.48 41.627,202.258 41.045,202.258C40.463,202.258 39.974,202.48 39.577,202.924C39.181,203.368 38.982,204.008 38.982,204.844Z" style="fill:white;fill-rule:nonzero;"/>
        <path d="M47.042,209.056L47.042,197.427L49.271,197.427L49.271,201.615C49.958,200.833 50.773,200.441 51.714,200.441C52.74,200.441 53.589,200.813 54.26,201.556C54.932,202.299 55.268,203.366 55.268,204.757C55.268,206.195 54.925,207.303 54.241,208.08C53.556,208.858 52.724,209.246 51.746,209.246C51.265,209.246 50.79,209.126 50.322,208.886C49.854,208.645 49.451,208.289 49.112,207.819L49.112,209.056L47.042,209.056ZM49.255,204.661C49.255,205.534 49.393,206.179 49.668,206.597C50.054,207.189 50.567,207.485 51.206,207.485C51.698,207.485 52.117,207.275 52.464,206.855C52.81,206.434 52.983,205.772 52.983,204.868C52.983,203.905 52.809,203.211 52.46,202.785C52.111,202.36 51.664,202.147 51.119,202.147C50.585,202.147 50.141,202.354 49.786,202.77C49.432,203.185 49.255,203.815 49.255,204.661Z" style="fill:white;fill-rule:nonzero;"/>
        <path d="M59.195,209.056L56.965,209.056L56.965,200.632L59.036,200.632L59.036,201.83C59.39,201.264 59.709,200.891 59.992,200.711C60.275,200.531 60.596,200.441 60.956,200.441C61.463,200.441 61.952,200.581 62.423,200.862L61.733,202.805C61.357,202.562 61.008,202.44 60.686,202.44C60.374,202.44 60.109,202.526 59.893,202.698C59.676,202.87 59.505,203.181 59.381,203.63C59.257,204.08 59.195,205.021 59.195,206.454L59.195,209.056Z" style="fill:white;fill-rule:nonzero;"/>
        <path d="M68.261,206.375L70.483,206.748C70.197,207.562 69.746,208.182 69.13,208.608C68.514,209.034 67.743,209.246 66.818,209.246C65.353,209.246 64.269,208.768 63.565,207.811C63.01,207.044 62.732,206.076 62.732,204.907C62.732,203.511 63.097,202.418 63.827,201.627C64.557,200.837 65.48,200.441 66.596,200.441C67.849,200.441 68.838,200.855 69.562,201.683C70.287,202.51 70.633,203.778 70.602,205.486L65.017,205.486C65.033,206.147 65.213,206.662 65.556,207.029C65.9,207.397 66.329,207.581 66.841,207.581C67.191,207.581 67.484,207.485 67.722,207.295C67.96,207.105 68.14,206.798 68.261,206.375ZM68.388,204.122C68.372,203.477 68.206,202.986 67.889,202.651C67.571,202.315 67.185,202.147 66.73,202.147C66.244,202.147 65.842,202.324 65.525,202.678C65.207,203.033 65.051,203.514 65.057,204.122L68.388,204.122Z" style="fill:white;fill-rule:nonzero;"/>
        <path d="M74.084,203.202L72.061,202.837C72.289,202.023 72.68,201.42 73.235,201.028C73.79,200.637 74.615,200.441 75.71,200.441C76.704,200.441 77.445,200.559 77.931,200.794C78.418,201.03 78.76,201.328 78.958,201.691C79.157,202.053 79.256,202.718 79.256,203.686L79.232,206.288C79.232,207.028 79.268,207.574 79.339,207.926C79.411,208.277 79.544,208.654 79.74,209.056L77.535,209.056C77.476,208.908 77.405,208.689 77.32,208.398C77.283,208.265 77.257,208.178 77.241,208.136C76.86,208.506 76.453,208.784 76.019,208.969C75.586,209.154 75.123,209.246 74.631,209.246C73.764,209.246 73.08,209.011 72.581,208.54C72.081,208.07 71.831,207.475 71.831,206.756C71.831,206.28 71.945,205.855 72.172,205.482C72.4,205.11 72.718,204.824 73.128,204.626C73.538,204.427 74.129,204.254 74.901,204.106C75.943,203.91 76.665,203.728 77.067,203.559L77.067,203.337C77.067,202.908 76.961,202.603 76.749,202.42C76.538,202.238 76.138,202.147 75.551,202.147C75.155,202.147 74.845,202.225 74.623,202.381C74.401,202.537 74.221,202.811 74.084,203.202ZM77.067,205.01C76.781,205.106 76.329,205.219 75.71,205.352C75.091,205.484 74.687,205.613 74.496,205.74C74.206,205.947 74.06,206.208 74.06,206.526C74.06,206.838 74.176,207.107 74.409,207.335C74.642,207.562 74.938,207.676 75.298,207.676C75.7,207.676 76.083,207.544 76.448,207.279C76.718,207.078 76.895,206.832 76.979,206.541C77.037,206.351 77.067,205.989 77.067,205.455L77.067,205.01Z" style="fill:white;fill-rule:nonzero;"/>
        <path d="M89.18,209.056L87.109,209.056L87.109,207.819C86.765,208.3 86.36,208.658 85.892,208.893C85.423,209.129 84.952,209.246 84.476,209.246C83.508,209.246 82.679,208.856 81.989,208.076C81.299,207.296 80.954,206.208 80.954,204.812C80.954,203.384 81.289,202.299 81.961,201.556C82.633,200.813 83.481,200.441 84.507,200.441C85.449,200.441 86.263,200.833 86.951,201.615L86.951,197.427L89.18,197.427L89.18,209.056ZM83.23,204.661C83.23,205.56 83.354,206.211 83.603,206.613C83.963,207.195 84.465,207.485 85.11,207.485C85.623,207.485 86.059,207.267 86.419,206.831C86.779,206.395 86.958,205.743 86.958,204.876C86.958,203.908 86.784,203.211 86.435,202.785C86.086,202.36 85.639,202.147 85.094,202.147C84.565,202.147 84.123,202.357 83.766,202.777C83.409,203.198 83.23,203.826 83.23,204.661Z" style="fill:white;fill-rule:nonzero;"/>
    </g>
</svg>
