<?xml version="1.0" encoding="UTF-8" standalone="no"?>
<!DOCTYPE svg PUBLIC "-//W3C//DTD SVG 1.1//EN" "http://www.w3.org/Graphics/SVG/1.1/DTD/svg11.dtd">
<svg width="100%" height="100%" viewBox="0 0 256 256" version="1.1" xmlns="http://www.w3.org/2000/svg" xmlns:xlink="http://www.w3.org/1999/xlink" xml:space="preserve" xmlns:serif="http://www.serif.com/" style="fill-rule:evenodd;clip-rule:evenodd;stroke-linecap:round;stroke-linejoin:round;stroke-miterlimit:1.5;">
    <rect id="neobread_no_spoons" x="0" y="0" width="256" height="256" style="fill:none;"/>
    <path id="Crust" d="M192.734,26.885C222.946,26.885 247.473,51.413 247.473,81.624C247.473,94.467 243.041,106.282 235.623,115.623L235.623,200.464C235.623,216.277 222.785,229.115 206.972,229.115L48.771,229.115C32.958,229.115 20.12,216.277 20.12,200.464L20.12,115.297C12.857,106.008 8.527,94.318 8.527,81.624C8.527,51.413 33.054,26.885 63.266,26.885L192.734,26.885Z" style="fill:rgb(209,160,132);stroke:black;stroke-width:15px;"/>
    <rect id="Shadow" x="122.332" y="112.959" width="105.66" height="15.248" style="fill:rgb(186,133,109);"/>
    <path id="Slice" d="M42.009,112.691C33.24,105.704 27.616,94.934 27.616,82.861C27.616,61.82 44.698,44.738 65.738,44.738L135.611,44.738C156.652,44.738 173.734,61.82 173.734,82.861C173.734,94.528 168.481,104.979 160.213,111.974L160.213,196.732C160.213,204.964 153.53,211.647 145.299,211.647L56.924,211.647C48.692,211.647 42.009,204.964 42.009,196.732L42.009,112.691Z" style="fill:rgb(252,233,186);"/>
    <g id="Face">
        <path id="Mouth" d="M80.9,165.801L96.48,150.643L115.798,166.202" style="fill:none;stroke:black;stroke-width:10px;"/>
        <g id="Eyes">
            <path id="Right-eye" serif:id="Right eye" d="M144.745,113.777L144.745,117.213C144.745,127.031 136.774,135.002 126.956,135.002C117.138,135.002 109.167,127.031 109.167,117.213L109.167,109.59C109.167,106.687 109.863,103.946 111.099,101.524L144.745,113.777Z"/>
            <path id="Left-eye" serif:id="Left eye" d="M83.396,101.713C84.491,104.067 85.103,106.692 85.103,109.457L85.103,117.346C85.103,127.505 76.854,135.754 66.694,135.754C56.535,135.754 48.286,127.505 48.286,117.346L48.286,114.555L83.396,101.713Z"/>
        </g>
    </g>
    <path id="Left-spoon" serif:id="Left spoon" d="M10.641,118.157L1.314,119.959C0.006,113.194 0.554,103.878 3.079,95.066L12.211,97.683C10.134,104.934 9.565,112.59 10.641,118.157ZM13.879,92.785L5.054,89.268C8.898,79.623 15.308,71.766 23.15,68.506L26.796,77.279C21.049,79.667 16.696,85.718 13.879,92.785ZM31.827,76.192L31.529,66.697C40.024,66.43 49.104,70.954 56.579,78.172L49.98,85.006C44.506,79.72 38.049,75.997 31.827,76.192ZM53.513,88.786L60.763,82.647C66.682,89.636 71.01,97.899 72.604,104.606L63.362,106.804C62.049,101.284 58.385,94.539 53.513,88.786ZM64.242,111.902L73.677,110.793C74.842,120.711 73.18,129.407 69.655,136.371L61.178,132.081C63.957,126.591 65.161,119.72 64.242,111.902ZM58.416,136.449L65.907,142.291C64.481,144.119 62.896,145.779 61.172,147.258L62.279,152.417L52.991,154.411L50.556,143.068C53.599,141.452 56.257,139.216 58.416,136.449ZM54.208,160.083L63.497,158.089L68.367,180.776L59.078,182.77L54.208,160.083ZM60.296,188.442L69.584,186.448L74.454,209.135L65.166,211.128L60.296,188.442ZM66.383,216.8L75.672,214.806L78.107,226.15L78.437,229.002L78.212,231.844L77.409,234.63L75.959,237.301L72.837,240.428L70.745,241.606L68.378,242.373L61.698,243.806L59.225,244.079L56.834,243.863L52.704,242.293L50.285,240.452L48.41,238.241L47.038,235.742L46.169,233.005L43.735,221.665L53.023,219.671L55.458,231.012C55.958,233.343 57.861,234.914 59.704,234.518L66.385,233.084C68.228,232.688 69.318,230.475 68.818,228.144L66.383,216.8ZM51.806,214.001L42.518,215.995L37.649,193.313L46.937,191.32L51.806,214.001ZM45.72,185.649L36.432,187.643L31.563,164.962L40.852,162.968L45.72,185.649ZM39.634,157.298L30.346,159.292C30.346,159.292 29.242,154.15 29.242,154.15C27.061,153.512 24.935,152.651 22.884,151.57L27.312,143.165C30.415,144.8 33.758,145.743 37.2,145.957L39.634,157.298ZM23,140.317L17.029,147.706C10.964,142.805 5.886,135.556 2.875,126.028L11.934,123.166C14.307,130.678 18.219,136.453 23,140.317Z" style="fill:rgb(255,92,92);"/>
    <path id="Right-spoon" serif:id="Right spoon" d="M145.851,219.852L155.027,222.311L152.025,233.514L151.019,236.204L149.524,238.631L147.539,240.744L145.031,242.461L140.827,243.821L138.428,243.916L135.972,243.52L129.373,241.752L127.047,240.867L125.017,239.585L122.057,236.305L120.743,233.564L120.082,230.742L120,227.892L120.473,225.06L123.476,213.854L132.652,216.312L129.65,227.519C129.033,229.822 130.01,232.087 131.831,232.575L138.431,234.344C140.252,234.832 142.232,233.358 142.849,231.055L145.851,219.852ZM134.154,210.709L124.977,208.25L130.983,185.837L140.159,188.296L134.154,210.709ZM141.661,182.693L132.484,180.234L138.49,157.821L147.666,160.28L141.661,182.693ZM149.168,154.676L139.991,152.218C139.991,152.218 141.357,147.121 141.357,147.121C139.709,145.557 138.21,143.819 136.878,141.921L144.654,136.463C146.67,139.336 149.212,141.703 152.17,143.47L149.168,154.676ZM142.114,131.962L133.433,135.821C130.263,128.688 129.04,119.919 130.703,110.073L140.07,111.655C138.759,119.417 139.615,126.34 142.114,131.962ZM141.206,106.607L132.086,103.947C134.016,97.329 138.754,89.295 145.017,82.612L151.949,89.108C146.794,94.608 142.794,101.16 141.206,106.607ZM155.668,85.511L149.421,78.353C157.25,71.521 166.546,67.46 175.017,68.154L174.241,77.622C168.037,77.114 161.401,80.507 155.668,85.511ZM179.212,78.96L183.294,70.382C190.963,74.032 196.969,82.202 200.323,92.028L191.332,95.097C188.874,87.896 184.831,81.635 179.212,78.96ZM192.751,100.073L202.003,97.919C204.082,106.846 204.16,116.178 202.513,122.869L193.288,120.599C194.643,115.094 194.461,107.418 192.751,100.073ZM191.745,125.537L200.648,128.852C197.162,138.216 191.725,145.2 185.422,149.789L179.83,142.109C184.8,138.491 188.997,132.92 191.745,125.537ZM175.38,144.737L179.38,153.354C177.277,154.33 175.11,155.083 172.899,155.611L171.538,160.69L162.362,158.232L165.364,147.028C168.812,146.987 172.198,146.214 175.38,144.737ZM160.861,163.834L170.037,166.292L164.033,188.7L154.857,186.241L160.861,163.834ZM153.356,191.843L162.532,194.301L156.528,216.709L147.352,214.25L153.356,191.843Z" style="fill:rgb(255,92,92);"/>
    <path id="Right-hand" serif:id="Right hand" d="M183.018,186.65L158.968,172.764C148.938,166.973 136.093,170.415 130.303,180.445C124.613,190.3 127.994,202.921 137.85,208.612L162.217,222.68" style="fill:rgb(209,160,132);stroke:black;stroke-width:10px;stroke-linecap:butt;"/>
    <path id="Right-hand1" serif:id="Right hand" d="M18.166,190.361L42.217,176.475C52.247,170.684 65.091,174.126 70.882,184.156C76.572,194.011 73.19,206.632 63.335,212.322L38.968,226.39" style="fill:rgb(209,160,132);stroke:black;stroke-width:10px;stroke-linecap:butt;"/>
</svg>
