<?xml version="1.0" encoding="UTF-8" standalone="no"?>
<!DOCTYPE svg PUBLIC "-//W3C//DTD SVG 1.1//EN" "http://www.w3.org/Graphics/SVG/1.1/DTD/svg11.dtd">
<svg width="100%" height="100%" viewBox="0 0 256 256" version="1.1" xmlns="http://www.w3.org/2000/svg" xmlns:xlink="http://www.w3.org/1999/xlink" xml:space="preserve" xmlns:serif="http://www.serif.com/" style="fill-rule:evenodd;clip-rule:evenodd;stroke-linecap:round;stroke-linejoin:round;stroke-miterlimit:1.5;">
    <rect id="neobread_in_mug" x="0" y="0" width="256" height="256" style="fill:none;"/>
    <g id="Mug">
        <path id="Outer-mug" serif:id="Outer mug" d="M12.512,193.018L12.512,78.872L196.414,78.872L196.414,79.084C221.574,79.084 242,99.618 242,133.908C242,168.086 221.709,189.946 196.664,190.13L196.664,188.945C196.664,219.321 155.35,243.982 104.463,243.982C55.872,243.982 16.009,221.495 12.512,193.018ZM196.414,167.169C212.276,167.169 225.153,155.526 225.153,133.908C225.153,112.291 212.276,102.046 196.414,102.046L196.414,167.169Z" style="fill:rgb(219,219,219);"/>
        <ellipse id="Rim" cx="104.463" cy="78.872" rx="92.2" ry="55.037" style="fill:rgb(238,238,238);"/>
        <ellipse id="Inner-mug" serif:id="Inner mug" cx="104.463" cy="78.872" rx="83.469" ry="49.825" style="fill:rgb(153,153,153);"/>
        <path id="Coffee" d="M25.858,95.659C37.411,76.408 68.261,62.621 104.463,62.621C140.665,62.621 171.515,76.408 183.069,95.659C171.515,114.909 140.665,128.697 104.463,128.697C68.261,128.697 37.411,114.909 25.858,95.659Z" style="fill:rgb(129,58,6);"/>
        <path id="Mug-outline" serif:id="Mug outline" d="M205.719,69.862C231.602,74.263 252,97.15 252,133.908C252,170.714 231.383,194.811 205.401,199.351C202.693,210.382 195.709,220.622 185.178,229.195C166.949,244.035 137.624,253.982 104.463,253.982C72.858,253.982 44.731,244.959 26.41,231.27C12.701,221.028 4.288,208.096 2.587,194.237C2.537,193.833 2.512,193.426 2.512,193.018L2.512,83.521L2.512,83.516C2.347,81.981 2.263,80.432 2.263,78.872C2.263,63.909 9.97,49.839 23.749,38.622C41.977,23.781 71.302,13.835 104.463,13.835C137.624,13.835 166.949,23.781 185.178,38.622C196.152,47.555 203.274,58.299 205.719,69.862ZM196.664,188.945L196.664,190.13C221.709,189.946 242,168.086 242,133.908C242,99.731 221.708,79.22 196.663,79.085L196.664,78.872C196.664,48.496 155.35,23.835 104.463,23.835C53.577,23.835 12.263,48.496 12.263,78.872C12.263,80.242 12.347,81.6 12.512,82.945L12.512,193.018C16.009,221.495 55.872,243.982 104.463,243.982C155.35,243.982 196.664,219.321 196.664,188.945ZM196.414,167.169L196.414,102.046C212.276,102.046 225.153,112.291 225.153,133.908C225.153,155.526 212.276,167.169 196.414,167.169ZM206.414,154.166C211.764,150.473 215.153,143.493 215.153,133.908C215.153,126.318 213.272,120.596 209.619,116.9C208.655,115.925 207.579,115.109 206.414,114.443L206.414,154.166Z"/>
    </g>
    <g id="Bread">
        <clipPath id="_clip1">
            <path d="M16.574,74.655L16.92,-6.565L188.829,-5.833L188.483,75.387C188.362,103.705 149.75,126.532 102.31,126.33C54.87,126.127 16.454,102.973 16.574,74.655Z"/>
        </clipPath>
        <g clip-path="url(#_clip1)">
            <path id="Crust" d="M137.72,39C153.947,39 167.121,52.174 167.121,68.401C167.121,75.299 164.74,81.645 160.756,86.662L160.756,132.231C160.756,140.725 153.861,147.62 145.368,147.62L60.396,147.62C51.903,147.62 45.008,140.725 45.008,132.231L45.008,86.487C41.107,81.498 38.781,75.219 38.781,68.401C38.781,52.174 51.955,39 68.182,39L137.72,39Z" style="fill:rgb(209,160,132);stroke:black;stroke-width:10px;"/>
            <rect id="Shadow" x="99.907" y="85.231" width="56.093" height="8.19" style="fill:rgb(186,133,109);"/>
            <path id="Slice" d="M56.764,85.087C52.054,81.334 49.034,75.55 49.034,69.065C49.034,57.764 58.209,48.589 69.51,48.589L107.039,48.589C118.34,48.589 127.515,57.764 127.515,69.065C127.515,75.332 124.694,80.945 120.253,84.702L120.253,130.227C120.253,134.648 116.664,138.237 112.242,138.237L64.775,138.237C60.354,138.237 56.764,134.648 56.764,130.227L56.764,85.087Z" style="fill:rgb(252,233,186);"/>
            <g id="Face">
                <g id="Eyes">
                    <path id="Right-eye" serif:id="Right eye" d="M111.038,84.578L111.038,88.846C111.038,93.329 107.398,96.969 102.915,96.969C98.432,96.969 94.792,93.329 94.792,88.846L94.792,84.578C94.792,80.095 98.432,76.455 102.915,76.455C107.398,76.455 111.038,80.095 111.038,84.578Z"/>
                    <path id="Left-eye" serif:id="Left eye" d="M78.755,84.543L78.755,88.811C78.755,93.294 75.116,96.934 70.632,96.934C66.149,96.934 62.509,93.294 62.509,88.811L62.509,84.543C62.509,80.06 66.149,76.42 70.632,76.42C75.116,76.42 78.755,80.06 78.755,84.543Z"/>
                </g>
            </g>
        </g>
    </g>
    <path id="Coffee-front" serif:id="Coffee front" d="M175.405,86.001C178.489,89.047 181.068,92.305 183.069,95.731C171.515,115.522 140.665,129.697 104.463,129.697C68.261,129.697 37.411,115.522 25.858,95.731C27.858,92.305 30.437,89.047 33.522,86.001C48.254,100.545 74.529,114.587 104.463,114.587C134.397,114.587 160.672,100.545 175.405,86.001Z" style="fill:rgb(129,58,6);"/>
</svg>
