<?xml version="1.0" encoding="UTF-8" standalone="no"?>
<!DOCTYPE svg PUBLIC "-//W3C//DTD SVG 1.1//EN" "http://www.w3.org/Graphics/SVG/1.1/DTD/svg11.dtd">
<svg width="100%" height="100%" viewBox="0 0 256 256" version="1.1" xmlns="http://www.w3.org/2000/svg" xmlns:xlink="http://www.w3.org/1999/xlink" xml:space="preserve" xmlns:serif="http://www.serif.com/" style="fill-rule:evenodd;clip-rule:evenodd;stroke-linecap:round;stroke-linejoin:round;stroke-miterlimit:1.5;">
    <rect id="neobread_hug_neomouse_heart" x="0" y="0" width="256" height="256" style="fill:none;"/>
    <clipPath id="_clip1">
        <rect x="0" y="0" width="256" height="256"/>
    </clipPath>
    <g clip-path="url(#_clip1)">
        <g id="Right-bread" serif:id="Right bread">
            <path id="Crust" d="M213.578,107.289C231.759,107.289 246.519,122.049 246.519,140.229C246.519,147.958 243.851,155.068 239.388,160.69L239.388,211.745C239.388,221.261 231.662,228.987 222.146,228.987L126.944,228.987C117.428,228.987 109.702,221.261 109.702,211.745L109.702,160.494C105.332,154.904 102.726,147.868 102.726,140.229C102.726,122.049 117.486,107.289 135.666,107.289L213.578,107.289Z" style="fill:rgb(209,160,132);stroke:black;stroke-width:15px;"/>
            <rect id="Shadow" x="171.212" y="159.086" width="60.449" height="9.176" style="fill:rgb(186,133,109);"/>
            <path id="Slice" d="M124.789,159.431C119.798,155.454 116.597,149.324 116.597,142.453C116.597,130.478 126.319,120.756 138.294,120.756L178.062,120.756C190.038,120.756 199.76,130.478 199.76,142.453C199.76,149.094 196.77,155.041 192.065,159.023L192.065,207.263C192.065,211.948 188.261,215.751 183.576,215.751L133.278,215.751C128.593,215.751 124.789,211.948 124.789,207.263L124.789,159.431Z" style="fill:rgb(252,233,186);"/>
            <g id="Face">
                <path id="Mouth" d="M137.069,184.819L143.553,195.722L152.291,184.838L163.116,195.691L176.01,184.851" style="fill:none;stroke:black;stroke-width:6.02px;"/>
                <g id="Eyes">
                    <path id="Right-eye" serif:id="Right eye" d="M182.791,158.299L182.791,162.628C182.791,167.175 179.099,170.867 174.551,170.867C170.003,170.867 166.311,167.175 166.311,162.628L166.311,158.299C166.311,153.751 170.003,150.059 174.551,150.059C179.099,150.059 182.791,153.751 182.791,158.299Z"/>
                    <path id="Left-eye" serif:id="Left eye" d="M150.045,158.263L150.045,162.592C150.045,167.14 146.353,170.832 141.806,170.832C137.258,170.832 133.566,167.14 133.566,162.592L133.566,158.263C133.566,153.716 137.258,150.024 141.806,150.024C146.353,150.024 150.045,153.716 150.045,158.263Z"/>
                </g>
            </g>
        </g>
        <g id="Mouse">
            <path id="Body" d="M153.178,179.701L153.178,187.491C153.178,191.211 152.662,194.806 151.716,198.217C151.715,198.22 151.715,198.222 151.714,198.225C151.61,198.602 151.51,198.982 151.394,199.355C146.657,216.076 132.881,228.918 115.623,232.302C115.028,232.425 114.426,232.532 113.82,232.622C111.446,232.991 109.012,233.186 106.531,233.186L85.277,233.186C83.821,233.186 81.57,233.318 80.149,233.189L58.397,233.189C40.451,233.189 26.818,218.534 26.818,200.589L26.818,172.081C26.724,144.043 43.122,121.539 96.074,121.539C132.578,121.539 152.434,153.906 153.178,179.701Z" style="fill:rgb(227,222,219);fill-rule:nonzero;stroke:black;stroke-width:13.26px;stroke-linejoin:miter;stroke-miterlimit:4;"/>
            <g id="Right-ear" serif:id="Right ear">
                <path id="Fill" d="M131.407,91.762C131.7,91.745 131.967,91.784 132.206,91.878C132.823,92.12 143.873,89.379 153.276,108.19C159.653,120.949 154.592,138.957 143.525,143.834C142.899,144.11 142.314,144.358 141.71,144.618C141.71,144.617 141.685,144.57 141.684,144.568C130.482,148.144 109.881,136.897 110.13,131.061C110.131,131.054 110.129,131.06 110.129,131.054C117.511,104.082 127.151,92.004 131.407,91.762Z" style="fill:rgb(233,175,175);fill-rule:nonzero;"/>
                <path id="Inner-line" serif:id="Inner line" d="M134.367,86.897C138.087,93.311 142.444,103.324 132.409,118.203C123.874,130.857 110.225,125.96 110.225,125.96" style="fill:none;fill-rule:nonzero;stroke:rgb(160,44,44);stroke-opacity:0.21;stroke-width:10px;stroke-linecap:butt;stroke-linejoin:miter;stroke-miterlimit:4;"/>
                <path id="Outline" d="M130.781,78.644C131.259,78.62 131.782,78.694 132.283,78.716C132.27,78.726 132.214,78.757 132.196,78.757C131.942,78.762 132.112,78.759 132.381,78.748C132.511,78.743 132.873,78.757 133.056,78.752C134.334,78.876 135.648,79.114 137.005,79.647C135.859,79.197 135.065,78.942 134.417,78.76C134.712,78.767 134.84,78.747 135.169,78.766C137.613,78.902 140.969,79.45 144.56,80.967C151.743,84.002 159.294,90.839 165.03,102.314C169.945,112.149 170.251,122.888 167.608,132.464C164.964,142.04 159.143,151.311 148.826,155.859C148.453,156.023 148.105,156.174 147.736,156.338C143.209,147.592 141.827,144.912 141.71,144.618C142.314,144.358 142.899,144.11 143.525,143.834C154.592,138.957 159.653,120.949 153.276,108.19C143.873,89.379 132.823,92.12 132.206,91.878C131.967,91.784 131.7,91.745 131.407,91.762C127.151,92.004 117.511,104.082 110.129,131.052C110.127,131.017 110.12,131.004 110.12,131.004C105.346,130.306 102.475,128.279 102.65,121.932C102.506,121.766 99.373,121.602 99.177,121.639C102.852,109.678 106.98,100.508 111.206,93.719C113.808,89.54 116.348,86.236 119.631,83.441C121.272,82.044 123.101,80.716 125.802,79.693C127.153,79.181 128.863,78.741 130.781,78.644Z" style="fill-rule:nonzero;"/>
            </g>
            <g id="Left-ear" serif:id="Left ear">
                <path id="Fill1" serif:id="Fill" d="M46.064,91.921C51.131,92.091 62.43,103.983 71.185,132.004C71.168,132.013 71.087,132.033 71.088,132.04C71.088,132.04 71.047,132.146 71.026,132.199C66.877,142.634 45.578,148.232 33.439,143.655C33.437,143.661 33.435,143.667 33.432,143.674C32.711,143.412 32.01,143.163 31.261,142.885C18.226,138.047 12.264,120.186 19.776,107.531C30.851,88.873 44.401,92.284 45.128,92.044C45.41,91.951 45.723,91.909 46.064,91.921L46.064,91.921Z" style="fill:rgb(233,175,175);fill-rule:nonzero;"/>
                <path id="Inner-line1" serif:id="Inner line" d="M42.343,87.255C37.951,93.296 33.733,106.412 45.761,120.327C58.03,134.521 72.396,126.14 72.396,126.14" style="fill:none;fill-rule:nonzero;stroke:rgb(160,44,44);stroke-opacity:0.21;stroke-width:10px;stroke-linecap:butt;stroke-linejoin:miter;stroke-miterlimit:4;"/>
                <path id="Outline1" serif:id="Outline" d="M46.303,78.63C51.137,78.565 54.643,80.82 57.371,82.735C61.009,85.289 64.003,88.512 67.026,92.605C72.206,99.619 77.27,109.285 81.777,122.188C80.44,122.24 78.598,122.51 78.278,122.525C80.597,130.186 71.71,131.721 71.185,132.004C62.43,103.983 51.131,92.091 46.064,91.921C45.723,91.909 45.41,91.951 45.128,92.044C44.401,92.284 30.851,88.873 19.776,107.531C12.264,120.186 18.226,138.047 31.261,142.885C32.01,143.163 32.711,143.412 33.432,143.674C31.944,147.794 30.09,151.813 28.933,156.023C28.174,155.74 27.466,155.492 26.69,155.203C4.989,147.149 -3.363,120.77 8.477,100.824C15.395,89.171 24.593,82.766 32.438,80.331C36.361,79.113 39.852,78.81 42.37,78.801C42.876,78.8 43.105,78.829 43.525,78.844C43.265,78.905 42.802,79.057 42.478,79.145C42.957,79.029 43.424,78.934 43.883,78.858C44.338,78.879 44.975,78.889 45.244,78.909C45.529,78.93 45.718,78.94 45.515,78.93C45.444,78.926 45.418,78.816 45.292,78.724C45.626,78.699 45.982,78.635 46.303,78.63Z" style="fill-rule:nonzero;"/>
            </g>
            <g id="Face1" serif:id="Face">
                <path id="Mouth1" serif:id="Mouth" d="M124.031,195.629L115.461,209.298L104.238,195.136L90.481,209.549L73.575,195.429" style="fill:none;fill-rule:nonzero;stroke:rgb(105,104,102);stroke-width:7.02px;stroke-miterlimit:4;"/>
                <path id="Nose" d="M110.248,184.778L108.673,184.778" style="fill:none;fill-rule:nonzero;stroke:rgb(222,135,135);stroke-width:10.51px;stroke-miterlimit:4;"/>
                <g id="Eyes1" serif:id="Eyes">
                    <path id="Right-eye1" serif:id="Right eye" d="M133.621,157.407C128.432,167.339 117.683,168.292 111.805,158.02" style="fill:none;fill-rule:nonzero;stroke:black;stroke-opacity:0.8;stroke-width:10.51px;stroke-miterlimit:4;"/>
                    <path id="Left-eye1" serif:id="Left eye" d="M65.894,157.676C72.006,168.915 84.669,169.91 91.592,158.254" style="fill:none;fill-rule:nonzero;stroke:black;stroke-opacity:0.8;stroke-width:10.51px;stroke-miterlimit:4;"/>
                </g>
            </g>
            <g id="Whiskers">
                <path id="path1591" d="M62.226,187.202C51.136,178.592 23.559,176.979 9.655,186.88" style="fill:none;fill-rule:nonzero;stroke:rgb(105,104,102);stroke-opacity:0.72;stroke-width:6.77px;stroke-miterlimit:4;"/>
                <path id="path1593" d="M54.612,197.364C42.451,194.158 23.759,194.358 8.59,205.168" style="fill:none;fill-rule:nonzero;stroke:rgb(105,104,102);stroke-opacity:0.72;stroke-width:6.77px;stroke-miterlimit:4;"/>
                <path id="path1595" d="M136.783,187.445C152.564,177.776 166.1,179.611 173.029,184.752" style="fill:none;fill-rule:nonzero;stroke:rgb(105,104,102);stroke-opacity:0.72;stroke-width:6.77px;stroke-miterlimit:4;"/>
                <path id="path1597" d="M139.504,200.297C147.777,195.192 158.893,192.313 169.285,200.158" style="fill:none;fill-rule:nonzero;stroke:rgb(105,104,102);stroke-opacity:0.72;stroke-width:6.77px;stroke-miterlimit:4;"/>
            </g>
        </g>
        <path id="Arm" d="M192.517,212.327L138.382,212.327C130.153,212.327 123.473,205.646 123.473,197.418C123.473,189.332 130.037,182.768 138.122,182.768L192.517,182.768" style="fill:rgb(209,160,132);stroke:black;stroke-width:10px;stroke-linecap:butt;"/>
        <path id="Heart" d="M100.241,60.968L90.15,50.877C80.47,41.197 80.47,25.478 90.15,15.797C99.831,6.116 115.55,6.116 125.231,15.797L128,18.566L130.769,15.797C140.45,6.116 156.169,6.116 165.85,15.797C175.53,25.478 175.53,41.197 165.85,50.877L155.759,60.968C155.367,61.518 154.923,62.043 154.43,62.536L136.889,80.076C134.439,82.527 131.215,83.737 128,83.706C124.785,83.737 121.561,82.527 119.111,80.076L101.57,62.536C101.077,62.043 100.633,61.518 100.241,60.968Z" style="fill:rgb(239,124,148);stroke:black;stroke-width:15px;stroke-linejoin:miter;stroke-miterlimit:5;"/>
    </g>
</svg>
