<?xml version="1.0" encoding="UTF-8" standalone="no"?>
<!DOCTYPE svg PUBLIC "-//W3C//DTD SVG 1.1//EN" "http://www.w3.org/Graphics/SVG/1.1/DTD/svg11.dtd">
<svg width="100%" height="100%" viewBox="0 0 256 256" version="1.1" xmlns="http://www.w3.org/2000/svg" xmlns:xlink="http://www.w3.org/1999/xlink" xml:space="preserve" xmlns:serif="http://www.serif.com/" style="fill-rule:evenodd;clip-rule:evenodd;stroke-linecap:round;stroke-linejoin:round;stroke-miterlimit:1.5;">
    <rect id="neobread_bee" x="0" y="0" width="256" height="256" style="fill:none;"/>
    <path id="Wings-outline" serif:id="Wings outline" d="M114.841,87.192C99.959,89.585 81.92,81.837 71.323,64.894C57.815,43.299 63.399,18.592 79.657,9.262C90.631,2.965 105.731,4.247 118.373,12.657C130.847,2.942 146.322,0.355 158.243,5.926C176.102,14.271 183.926,39.761 171.564,63.644C159.538,86.876 134.349,96.407 116.978,88.289C116.247,87.948 115.535,87.582 114.841,87.192ZM117.746,70.488C119.284,72.248 121.15,73.682 123.328,74.7C134.715,80.021 150.36,71.977 158.243,56.748C166.125,41.52 163.28,24.836 151.893,19.515C141.435,14.628 127.384,21.015 119.055,33.888C110.505,22.021 96.629,16.817 87.123,22.272C77.064,28.045 75.683,43.578 84.04,56.939C92.397,70.3 107.348,76.461 117.406,70.689C117.521,70.624 117.634,70.557 117.746,70.488Z"/>
    <path id="Crust" d="M181.872,69.83C207.014,69.83 227.425,90.242 227.425,115.384C227.425,126.071 223.737,135.904 217.564,143.678L217.564,214.282C217.564,227.442 206.88,238.126 193.721,238.126L62.066,238.126C48.906,238.126 38.222,227.442 38.222,214.282L38.222,143.407C32.178,135.676 28.575,125.947 28.575,115.384C28.575,90.242 48.986,69.83 74.128,69.83L181.872,69.83Z" style="fill:rgb(209,160,132);stroke:black;stroke-width:15px;"/>
    <g id="Stripes">
        <path d="M193.721,231.884L62.066,231.884C52.351,231.884 44.464,223.997 44.464,214.282L44.464,200.723L211.323,200.723L211.323,214.282C211.323,223.997 203.435,231.884 193.721,231.884Z" style="fill:rgb(254,194,7);"/>
        <rect x="44.464" y="169.562" width="166.859" height="31.161" style="fill:rgb(85,85,85);"/>
        <path d="M42.265,138.4L213.735,138.4C213.392,138.874 213.039,139.339 212.676,139.797C211.8,140.9 211.323,142.268 211.323,143.678L211.323,169.562L44.464,169.562L44.464,143.407C44.464,142.013 43.998,140.66 43.139,139.562C42.841,139.181 42.549,138.793 42.265,138.4Z" style="fill:rgb(254,194,7);"/>
        <path d="M34.816,115.384C34.816,112.591 35.108,109.867 35.662,107.239L220.338,107.239C220.892,109.867 221.184,112.591 221.184,115.384C221.184,119.802 220.453,124.051 219.107,128.016C217.834,131.763 216.012,135.256 213.735,138.4L42.265,138.4C39.988,135.256 38.166,131.763 36.893,128.016C35.546,124.051 34.816,119.802 34.816,115.384Z" style="fill:rgb(85,85,85);"/>
        <path d="M73.443,76.077L182.557,76.077C199.276,76.364 213.467,87.11 218.86,102.047C219.467,103.727 219.962,105.461 220.338,107.239L35.662,107.239C36.038,105.461 36.533,103.727 37.14,102.047C42.533,87.11 56.724,76.364 73.443,76.077Z" style="fill:rgb(254,194,7);"/>
    </g>
    <path id="Slice" d="M56.439,141.237C49.141,135.423 44.46,126.46 44.46,116.413C44.46,98.903 58.676,84.687 76.186,84.687L134.334,84.687C151.844,84.687 166.06,98.903 166.06,116.413C166.06,126.123 161.688,134.819 154.808,140.641L154.808,211.177C154.808,218.027 149.246,223.588 142.396,223.588L68.851,223.588C62,223.588 56.439,218.027 56.439,211.177L56.439,141.237Z" style="fill:rgb(252,233,186);"/>
    <g id="Face">
        <path id="Mouth" d="M76.068,177.047L85.035,192.123L97.119,177.073L112.088,192.082L129.919,177.091" style="fill:none;stroke:black;stroke-width:8.32px;"/>
        <g id="Eyes">
            <path id="Right-eye" serif:id="Right eye" d="M140.531,140.448L140.531,147.061C140.531,154.008 134.891,159.647 127.944,159.647C120.998,159.647 115.358,154.008 115.358,147.061L115.358,140.448C115.358,133.502 120.998,127.862 127.944,127.862C134.891,127.862 140.531,133.502 140.531,140.448Z"/>
            <path id="Left-eye" serif:id="Left eye" d="M90.512,140.394L90.512,147.007C90.512,153.954 84.872,159.593 77.925,159.593C70.979,159.593 65.339,153.954 65.339,147.007L65.339,140.394C65.339,133.448 70.979,127.808 77.925,127.808C84.872,127.808 90.512,133.448 90.512,140.394Z"/>
        </g>
    </g>
    <g id="Wings">
        <path id="Back-wing" serif:id="Back wing" d="M87.123,22.272C97.181,16.5 112.132,22.661 120.489,36.022C128.846,49.383 127.465,64.917 117.406,70.689C107.348,76.461 92.397,70.3 84.04,56.939C75.683,43.578 77.064,28.045 87.123,22.272Z" style="fill:rgb(167,167,167);"/>
        <path id="Front-wing" serif:id="Front wing" d="M151.893,19.515C163.28,24.836 166.125,41.52 158.243,56.748C150.36,71.977 134.715,80.021 123.328,74.7C111.941,69.379 109.096,52.695 116.979,37.467C124.861,22.238 140.506,14.194 151.893,19.515Z" style="fill:rgb(195,195,195);"/>
    </g>
</svg>
