<?xml version="1.0" encoding="UTF-8" standalone="no"?>
<!DOCTYPE svg PUBLIC "-//W3C//DTD SVG 1.1//EN" "http://www.w3.org/Graphics/SVG/1.1/DTD/svg11.dtd">
<svg width="100%" height="100%" viewBox="0 0 256 256" version="1.1" xmlns="http://www.w3.org/2000/svg" xmlns:xlink="http://www.w3.org/1999/xlink" xml:space="preserve" xmlns:serif="http://www.serif.com/" style="fill-rule:evenodd;clip-rule:evenodd;stroke-linecap:round;stroke-linejoin:round;stroke-miterlimit:1.5;">
    <rect id="neobread_hold" x="0" y="0" width="256" height="256" style="fill:none;"/>
    <path id="Hand" d="M153.811,159.603L77.103,159.603C65.236,159.603 52.816,170.758 52.816,170.758L18.604,204.97L52.932,239.299L87.091,205.14L153.877,205.14L232.332,177.759C236.274,176.375 238.351,172.052 236.968,168.11C233.725,158.87 223.591,154.001 214.351,157.244L168.095,173.477C167.874,165.782 161.559,159.603 153.811,159.603Z" style="fill:white;"/>
    <path d="M175.697,155.56L209.586,143.667C226.319,137.795 244.672,146.613 250.544,163.346L251.584,167.657L251.741,171.991L251.065,176.185L249.616,180.125L247.446,183.718L244.594,186.867L241.112,189.453L237.097,191.335L237.074,191.343L158.618,218.725C157.094,219.257 155.491,219.528 153.877,219.528L93.051,219.528L63.106,249.473C57.487,255.092 48.377,255.092 42.758,249.473L8.43,215.144C2.811,209.525 2.811,200.415 8.43,194.796L42.642,160.584C42.824,160.402 43.011,160.225 43.202,160.053C43.202,160.053 60.671,145.215 77.103,145.215L153.811,145.215L159.478,145.778L164.797,147.4L169.612,149.962L173.812,153.345L175.697,155.56ZM153.811,159.603L77.103,159.603C65.236,159.603 52.816,170.758 52.816,170.758L18.604,204.97L52.932,239.299L87.091,205.14L153.877,205.14L232.332,177.759C236.274,176.375 238.351,172.052 236.968,168.11C233.725,158.87 223.591,154.001 214.351,157.244L168.095,173.477C167.874,165.782 161.559,159.603 153.811,159.603Z"/>
    <g id="Bread">
        <path id="Crust" d="M176.277,22.755C196.856,22.756 213.563,39.463 213.563,60.041C213.563,68.789 210.543,76.837 205.491,83.2L205.491,140.99C205.491,151.761 196.746,160.506 185.975,160.506L78.216,160.506C67.445,160.506 58.7,151.761 58.7,140.99L58.7,82.978C53.753,76.651 50.803,68.688 50.803,60.041C50.803,39.463 67.51,22.756 88.089,22.755L176.277,22.755Z" style="fill:rgb(209,160,132);stroke:black;stroke-width:10.22px;"/>
        <rect id="Shadow" x="128.322" y="81.385" width="71.971" height="10.386" style="fill:rgb(186,133,109);"/>
        <path id="Slice" d="M73.61,81.203C67.637,76.443 63.806,69.107 63.806,60.884C63.806,46.552 75.441,34.916 89.773,34.916L137.367,34.916C151.699,34.916 163.335,46.552 163.335,60.884C163.335,68.831 159.757,75.949 154.125,80.714L154.125,138.448C154.125,144.055 149.573,148.607 143.966,148.607L83.769,148.607C78.162,148.607 73.61,144.055 73.61,138.448L73.61,81.203Z" style="fill:rgb(252,233,186);"/>
        <g id="Face">
            <path id="Mouth" d="M89.676,110.512L97.016,122.853L106.907,110.534L119.159,122.819L133.754,110.549" style="fill:none;stroke:black;stroke-width:6.81px;"/>
            <g id="Eyes">
                <path id="Right-eye" serif:id="Right eye" d="M142.439,80.557L142.439,85.969C142.439,91.655 137.823,96.271 132.137,96.271C126.452,96.271 121.835,91.655 121.835,85.969L121.835,80.557C121.835,74.871 126.452,70.255 132.137,70.255C137.823,70.255 142.439,74.871 142.439,80.557Z"/>
                <path id="Left-eye" serif:id="Left eye" d="M101.498,80.513L101.498,85.925C101.498,91.611 96.882,96.227 91.197,96.227C85.511,96.227 80.895,91.611 80.895,85.925L80.895,80.513C80.895,74.827 85.511,70.211 91.197,70.211C96.882,70.211 101.498,74.827 101.498,80.513Z"/>
            </g>
        </g>
    </g>
    <g id="Hand-coverup" serif:id="Hand coverup">
        <path id="Main" d="M87.091,205.14L52.804,170.77L52.816,170.758C52.816,170.758 65.236,159.603 77.103,159.603L153.811,159.603C161.559,159.603 167.874,165.782 168.095,173.477L153.877,205.14L87.091,205.14Z" style="fill:white;"/>
        <path d="M42.642,160.584C42.824,160.402 43.011,160.225 43.202,160.053C43.202,160.053 60.671,145.215 77.103,145.215L153.811,145.215L159.478,145.778L164.797,147.4L169.612,149.962L173.812,153.345L175.697,155.56L209.586,143.667C226.319,137.795 223.591,154.001 214.351,157.244L168.095,173.477C167.874,165.782 161.559,159.603 153.811,159.603L77.103,159.603C65.236,159.603 52.816,170.758 52.816,170.758L52.804,170.77L42.642,160.584Z"/>
    </g>
    <path id="Thumb" d="M97.008,154.581L157.395,154.581C163.985,154.581 169.336,161.213 169.336,169.382C169.336,177.551 163.985,184.182 157.395,184.182L97.008,184.182" style="fill:white;stroke:black;stroke-width:10.07px;"/>
</svg>
