<?xml version="1.0" encoding="UTF-8" standalone="no"?>
<!DOCTYPE svg PUBLIC "-//W3C//DTD SVG 1.1//EN" "http://www.w3.org/Graphics/SVG/1.1/DTD/svg11.dtd">
<svg width="100%" height="100%" viewBox="0 0 256 256" version="1.1" xmlns="http://www.w3.org/2000/svg" xmlns:xlink="http://www.w3.org/1999/xlink" xml:space="preserve" xmlns:serif="http://www.serif.com/" style="fill-rule:evenodd;clip-rule:evenodd;stroke-linecap:round;stroke-linejoin:round;stroke-miterlimit:1.5;">
    <rect id="neobread_nom_potato" x="0" y="0" width="256" height="256" style="fill:none;"/>
    <path id="Crust" d="M192.734,26.885C222.946,26.885 247.473,51.413 247.473,81.624C247.473,94.467 243.041,106.282 235.623,115.623L235.623,200.464C235.623,216.277 222.785,229.115 206.972,229.115L48.771,229.115C32.958,229.115 20.12,216.277 20.12,200.464L20.12,115.297C12.857,106.008 8.527,94.318 8.527,81.624C8.527,51.413 33.054,26.885 63.266,26.885L192.734,26.885Z" style="fill:rgb(209,160,132);stroke:black;stroke-width:15px;"/>
    <rect id="Shadow" x="122.332" y="112.959" width="105.66" height="15.248" style="fill:rgb(186,133,109);"/>
    <path id="Slice" d="M42.009,112.691C33.24,105.704 27.616,94.934 27.616,82.861C27.616,61.82 44.698,44.738 65.738,44.738L135.611,44.738C156.652,44.738 173.734,61.82 173.734,82.861C173.734,94.528 168.481,104.979 160.213,111.974L160.213,196.732C160.213,204.964 153.53,211.647 145.299,211.647L56.924,211.647C48.692,211.647 42.009,204.964 42.009,196.732L42.009,112.691Z" style="fill:rgb(252,233,186);"/>
    <g id="Eyes">
        <g id="Right-eye" serif:id="Right eye">
            <circle id="Eye-white" serif:id="Eye white" cx="130.968" cy="115.715" r="23.779" style="fill:white;"/>
            <circle id="Pupil" cx="127.906" cy="112.691" r="20.392"/>
            <path id="Eye-reflection-top" serif:id="Eye reflection top" d="M116.892,101.838C120.92,97.81 126.719,97.069 129.835,100.185C132.95,103.3 132.21,109.1 128.182,113.127C124.154,117.155 118.355,117.896 115.239,114.78C112.124,111.665 112.864,105.865 116.892,101.838Z" style="fill:white;"/>
            <path id="Eye-reflection-bottom" serif:id="Eye reflection bottom" d="M137.831,117.603C137.831,117.603 136.632,121.739 132.389,122.644" style="fill:none;stroke:rgb(151,151,151);stroke-width:8px;"/>
        </g>
        <g id="Left-eye" serif:id="Left eye">
            <circle id="Eye-white1" serif:id="Eye white" cx="70.382" cy="115.715" r="23.779" style="fill:white;"/>
            <circle id="Pupil1" serif:id="Pupil" cx="67.32" cy="112.691" r="20.392"/>
            <path id="Eye-reflection-top1" serif:id="Eye reflection top" d="M56.306,101.838C60.333,97.81 66.133,97.069 69.248,100.185C72.364,103.3 71.623,109.1 67.595,113.127C63.568,117.155 57.768,117.896 54.653,114.78C51.537,111.665 52.278,105.865 56.306,101.838Z" style="fill:white;"/>
            <path id="Eye-reflection-bottom1" serif:id="Eye reflection bottom" d="M77.244,117.603C77.244,117.603 76.045,121.739 71.803,122.644" style="fill:none;stroke:rgb(151,151,151);stroke-width:8px;"/>
        </g>
    </g>
    <g id="Potato">
        <path id="Body" d="M91.486,232.909C91.486,232.909 77.273,240.797 71.243,241.905C65.308,242.994 63.63,243.5 57.941,242.592C52.253,241.684 44.022,237.9 40.185,232.793C36.348,227.687 32.583,221.22 32.583,213.838C32.583,206.456 34.702,197.053 40.518,192.303C46.333,187.554 52.592,188.351 56.575,186.397C59.111,185.153 65.835,182.546 69.4,174.389C71.32,169.995 76.314,162.355 86.646,161.649C96.978,160.943 102.857,163.015 107.452,166.975C111.954,170.856 119.277,181.418 119.415,189.948C119.553,198.479 118.473,205.223 115.811,209.918C113.149,214.613 110.613,221.243 91.486,232.909Z" style="fill:rgb(184,136,90);"/>
        <path d="M96.339,241.653C96.339,241.653 79.957,250.471 73.049,251.74C65.608,253.107 63.497,253.605 56.365,252.467C48.576,251.224 37.445,245.793 32.191,238.801C27.165,232.113 22.583,223.506 22.583,213.838C22.583,203.707 26.211,191.076 34.193,184.558C38.482,181.055 42.887,179.496 47.002,178.554C48.948,178.109 50.781,178.101 52.17,177.419C53.715,176.661 58.065,175.354 60.237,170.384C63.086,163.865 70.635,152.72 85.965,151.672C99.946,150.717 107.764,154.041 113.981,159.401C119.904,164.507 129.233,178.562 129.414,189.787C129.588,200.522 127.86,208.94 124.51,214.849C121.45,220.248 118.686,228.032 96.693,241.447C96.576,241.518 96.458,241.587 96.339,241.653ZM91.486,232.909C110.613,221.243 113.149,214.613 115.811,209.918C118.473,205.223 119.553,198.479 119.415,189.948C119.277,181.418 111.954,170.856 107.452,166.975C102.857,163.015 96.978,160.943 86.646,161.649C76.314,162.355 71.32,169.995 69.4,174.389C65.835,182.546 59.111,185.153 56.575,186.397C52.592,188.351 46.333,187.554 40.518,192.303C34.702,197.053 32.583,206.456 32.583,213.838C32.583,221.22 36.348,227.687 40.185,232.793C44.022,237.9 52.253,241.684 57.941,242.592C63.63,243.5 65.308,242.994 71.243,241.905C77.273,240.797 91.486,232.909 91.486,232.909Z"/>
        <g id="Eyes1" serif:id="Eyes">
            <path d="M41.542,203.853C42.795,201.682 44.773,200.474 45.957,201.157C47.14,201.841 47.083,204.158 45.83,206.329C44.576,208.5 42.598,209.708 41.415,209.024C40.231,208.341 40.288,206.024 41.542,203.853Z" style="fill:rgb(135,91,82);"/>
            <path d="M61.931,228.83C63.381,229.667 64.188,230.989 63.731,231.779C63.275,232.57 61.727,232.532 60.277,231.695C58.827,230.857 58.02,229.536 58.476,228.745C58.933,227.955 60.481,227.993 61.931,228.83Z" style="fill:rgb(135,91,82);"/>
            <path d="M86.988,228.432C85.718,230.631 83.714,231.855 82.515,231.163C81.316,230.471 81.374,228.123 82.644,225.924C83.913,223.725 85.918,222.501 87.116,223.193C88.315,223.885 88.258,226.233 86.988,228.432Z" style="fill:rgb(135,91,82);"/>
            <path d="M108.996,191.769C109.034,188.07 110.702,185.083 112.719,185.104C114.735,185.125 116.341,188.145 116.303,191.844C116.265,195.544 114.596,198.53 112.58,198.509C110.564,198.488 108.958,195.468 108.996,191.769Z" style="fill:rgb(135,91,82);"/>
            <path d="M102.955,213.892C102.58,215.291 101.831,218.088 100.409,219.206C98.987,220.325 96.894,219.764 95.175,217.804C93.867,216.404 92.972,213.466 92.487,211.087C94.096,209.27 96.341,207.173 98.173,206.615C100.642,205.777 102.735,206.338 103.407,208.017C104.079,209.696 103.33,212.494 102.955,213.892Z" style="fill:rgb(135,91,82);"/>
            <path d="M58.641,192.512C59.043,191.516 59.846,189.525 60.993,188.83C62.14,188.134 63.63,188.736 64.719,190.333C65.556,191.481 65.951,193.724 66.094,195.518C64.746,196.711 62.905,198.052 61.506,198.299C59.614,198.693 58.123,198.092 57.78,196.796C57.436,195.499 58.239,193.508 58.641,192.512Z" style="fill:rgb(135,91,82);"/>
            <path d="M95.065,176.299C100.4,177.895 104.103,181.289 103.33,183.874C102.556,186.459 97.597,187.261 92.263,185.665C86.928,184.068 83.225,180.674 83.998,178.089C84.772,175.505 89.731,174.702 95.065,176.299Z" style="fill:rgb(135,91,82);"/>
        </g>
    </g>
    <path id="Food-hider" serif:id="Food hider" d="M65.575,150.689L130.285,150.742C132.385,150.743 134.261,152.058 134.979,154.031C135.698,156.005 135.106,158.217 133.498,159.569L112.072,177.582C110.084,179.253 107.148,179.125 105.314,177.286C105.314,177.286 91.27,163.205 91.27,163.205L80.245,176.936C79.219,178.214 77.632,178.908 75.997,178.793C74.362,178.679 72.887,177.77 72.049,176.361L61.274,158.245C60.354,156.699 60.336,154.778 61.226,153.215C62.116,151.652 63.776,150.687 65.575,150.689Z" style="fill:rgb(252,233,186);"/>
    <path id="Mouth" d="M65.596,155.72L76.372,173.837L90.892,155.752L108.879,173.787L130.306,155.773" style="fill:none;stroke:black;stroke-width:10px;"/>
</svg>
