<?xml version="1.0" encoding="UTF-8" standalone="no"?>
<!DOCTYPE svg PUBLIC "-//W3C//DTD SVG 1.1//EN" "http://www.w3.org/Graphics/SVG/1.1/DTD/svg11.dtd">
<svg width="100%" height="100%" viewBox="0 0 256 256" version="1.1" xmlns="http://www.w3.org/2000/svg" xmlns:xlink="http://www.w3.org/1999/xlink" xml:space="preserve" xmlns:serif="http://www.serif.com/" style="fill-rule:evenodd;clip-rule:evenodd;stroke-linecap:round;stroke-linejoin:round;stroke-miterlimit:1.5;">
    <rect id="neobread_bandaid" x="0" y="0" width="256" height="256" style="fill:none;"/>
    <path id="Crust" d="M192.734,26.885C222.946,26.885 247.473,51.413 247.473,81.624C247.473,94.467 243.041,106.282 235.623,115.623L235.623,200.464C235.623,216.277 222.785,229.115 206.972,229.115L48.771,229.115C32.958,229.115 20.12,216.277 20.12,200.464L20.12,115.297C12.857,106.008 8.527,94.318 8.527,81.624C8.527,51.413 33.054,26.885 63.266,26.885L192.734,26.885Z" style="fill:rgb(209,160,132);stroke:black;stroke-width:15px;"/>
    <rect id="Shadow" x="122.332" y="112.959" width="105.66" height="15.248" style="fill:rgb(186,133,109);"/>
    <path id="Slice" d="M42.009,112.691C33.24,105.704 27.616,94.934 27.616,82.861C27.616,61.82 44.698,44.738 65.738,44.738L135.611,44.738C156.652,44.738 173.734,61.82 173.734,82.861C173.734,94.528 168.481,104.979 160.213,111.974L160.213,196.732C160.213,204.964 153.53,211.647 145.299,211.647L56.924,211.647C48.692,211.647 42.009,204.964 42.009,196.732L42.009,112.691Z" style="fill:rgb(252,233,186);"/>
    <g id="Face">
        <path id="Mouth" d="M78.141,170.189L93.721,155.03L113.039,170.59" style="fill:none;stroke:black;stroke-width:10px;"/>
        <g id="Eyes">
            <path id="Right-eye" serif:id="Right eye" d="M141.986,118.164L141.986,121.6C141.986,131.419 134.015,139.39 124.197,139.39C114.379,139.39 106.408,131.419 106.408,121.6L106.408,113.978C106.408,111.075 107.104,108.333 108.34,105.912L141.986,118.164Z"/>
            <path id="Left-eye" serif:id="Left eye" d="M80.637,106.1C81.732,108.455 82.344,111.079 82.344,113.845L82.344,121.733C82.344,131.893 74.095,140.141 63.935,140.141C53.776,140.141 45.527,131.893 45.527,121.733L45.527,118.943L80.637,106.1Z"/>
        </g>
    </g>
    <g id="Plasters">
        <path id="Plasters-outline" serif:id="Plasters outline" d="M154.64,81.36L151.787,78.508C141.78,68.501 141.78,52.252 151.787,42.245C161.794,32.238 178.043,32.238 188.049,42.245L190.902,45.098L193.754,42.245C203.761,32.238 220.01,32.238 230.017,42.245C240.023,52.252 240.023,68.501 230.017,78.508L227.164,81.36L230.017,84.212C240.023,94.219 240.023,110.468 230.017,120.475C220.01,130.481 203.761,130.481 193.754,120.475L190.902,117.622L188.049,120.475C178.043,130.481 161.794,130.481 151.787,120.475C141.78,110.468 141.78,94.219 151.787,84.212L154.64,81.36ZM168.782,81.36L158.858,91.283C152.754,97.388 152.754,107.299 158.858,113.404C164.962,119.508 174.874,119.508 180.978,113.404L190.902,103.48L200.825,113.404C206.93,119.508 216.841,119.508 222.946,113.404C229.05,107.299 229.05,97.388 222.946,91.283L213.022,81.36L222.946,71.436C229.05,65.332 229.05,55.42 222.946,49.316C216.841,43.212 206.93,43.212 200.825,49.316L190.902,59.24L180.978,49.316C174.874,43.212 164.962,43.212 158.858,49.316C152.754,55.42 152.754,65.332 158.858,71.436L168.782,81.36Z"/>
        <g id="Bottom-plaster" serif:id="Bottom plaster">
            <path id="Sticky" d="M222.946,113.404C216.841,119.508 206.93,119.508 200.825,113.404L158.858,71.436C152.754,65.332 152.754,55.42 158.858,49.316C164.962,43.212 174.874,43.212 180.978,49.316L222.946,91.283C229.05,97.388 229.05,107.299 222.946,113.404Z" style="fill:rgb(220,160,104);"/>
            <path id="Lump" d="M204.709,87.837L197.379,95.167C195.356,97.19 192.071,97.19 190.048,95.167L177.094,82.214C175.071,80.191 175.071,76.906 177.094,74.883L184.425,67.552C186.448,65.529 189.733,65.529 191.756,67.552L204.709,80.506C206.732,82.529 206.732,85.814 204.709,87.837Z" style="fill:rgb(255,233,202);"/>
            <g id="Bottom-spots" serif:id="Bottom spots">
                <circle cx="219.681" cy="106.493" r="2.566" style="fill:rgb(255,233,202);"/>
                <circle cx="217.535" cy="98.795" r="2.566" style="fill:rgb(255,233,202);"/>
                <circle cx="215.389" cy="91.097" r="2.566" style="fill:rgb(255,233,202);"/>
                <circle cx="207.691" cy="108.497" r="2.566" style="fill:rgb(255,233,202);"/>
                <circle cx="214.549" cy="111.626" r="2.566" style="fill:rgb(255,233,202);"/>
                <circle cx="212.403" cy="103.927" r="2.566" style="fill:rgb(255,233,202);"/>
                <circle cx="210.257" cy="96.229" r="2.566" style="fill:rgb(255,233,202);"/>
                <circle cx="205.125" cy="101.361" r="2.566" style="fill:rgb(255,233,202);"/>
                <circle cx="199.993" cy="105.931" r="2.566" style="fill:rgb(255,233,202);"/>
            </g>
            <g id="Top-spots" serif:id="Top spots">
                <circle cx="161.914" cy="56.072" r="2.565" style="fill:rgb(255,233,202);"/>
                <circle cx="164.059" cy="63.767" r="2.565" style="fill:rgb(255,233,202);"/>
                <circle cx="166.204" cy="71.462" r="2.565" style="fill:rgb(255,233,202);"/>
                <circle cx="173.9" cy="54.069" r="2.565" style="fill:rgb(255,233,202);"/>
                <circle cx="167.044" cy="50.942" r="2.565" style="fill:rgb(255,233,202);"/>
                <circle cx="169.189" cy="58.637" r="2.565" style="fill:rgb(255,233,202);"/>
                <circle cx="171.335" cy="66.332" r="2.565" style="fill:rgb(255,233,202);"/>
                <circle cx="176.465" cy="61.202" r="2.565" style="fill:rgb(255,233,202);"/>
                <circle cx="181.595" cy="56.634" r="2.565" style="fill:rgb(255,233,202);"/>
            </g>
        </g>
        <g id="Top-plaster" serif:id="Top plaster">
            <path id="Sticky1" serif:id="Sticky" d="M158.858,113.404C152.754,107.299 152.754,97.388 158.858,91.283L200.825,49.316C206.93,43.212 216.841,43.212 222.946,49.316C229.05,55.42 229.05,65.332 222.946,71.436L180.978,113.404C174.874,119.508 164.962,119.508 158.858,113.404Z" style="fill:rgb(240,191,142);"/>
            <path id="Lump1" serif:id="Lump" d="M182.224,97.368L174.893,90.038C172.87,88.015 172.87,84.73 174.893,82.707L192.249,65.351C194.272,63.328 197.557,63.328 199.58,65.351L206.91,72.682C208.933,74.705 208.933,77.99 206.91,80.012L189.554,97.368C187.532,99.391 184.247,99.391 182.224,97.368Z" style="fill:rgb(255,233,202);"/>
            <g id="Bottom-spots1" serif:id="Bottom spots">
                <path d="M163.202,110.139C163.202,108.723 164.352,107.573 165.768,107.573C167.185,107.573 168.334,108.723 168.334,110.139C168.334,111.555 167.185,112.705 165.768,112.705C164.352,112.705 163.202,111.555 163.202,110.139Z" style="fill:rgb(255,233,202);"/>
                <path d="M170.9,107.993C170.9,106.577 172.05,105.427 173.466,105.427C174.883,105.427 176.032,106.577 176.032,107.993C176.032,109.409 174.883,110.559 173.466,110.559C172.05,110.559 170.9,109.409 170.9,107.993Z" style="fill:rgb(255,233,202);"/>
                <path d="M178.598,105.847C178.598,104.431 179.748,103.281 181.165,103.281C182.581,103.281 183.731,104.431 183.731,105.847C183.731,107.263 182.581,108.413 181.165,108.413C179.748,108.413 178.598,107.263 178.598,105.847Z" style="fill:rgb(255,233,202);"/>
                <path d="M161.198,98.149C161.198,96.733 162.348,95.583 163.764,95.583C165.181,95.583 166.33,96.733 166.33,98.149C166.33,99.565 165.181,100.715 163.764,100.715C162.348,100.715 161.198,99.565 161.198,98.149Z" style="fill:rgb(255,233,202);"/>
                <path d="M158.07,105.007C158.07,103.59 159.22,102.441 160.636,102.441C162.052,102.441 163.202,103.59 163.202,105.007C163.202,106.423 162.052,107.573 160.636,107.573C159.22,107.573 158.07,106.423 158.07,105.007Z" style="fill:rgb(255,233,202);"/>
                <path d="M165.768,102.861C165.768,101.445 166.918,100.295 168.334,100.295C169.751,100.295 170.9,101.445 170.9,102.861C170.9,104.277 169.751,105.427 168.334,105.427C166.918,105.427 165.768,104.277 165.768,102.861Z" style="fill:rgb(255,233,202);"/>
                <path d="M173.466,100.715C173.466,99.299 174.616,98.149 176.032,98.149C177.449,98.149 178.598,99.299 178.598,100.715C178.598,102.131 177.449,103.281 176.032,103.281C174.616,103.281 173.466,102.131 173.466,100.715Z" style="fill:rgb(255,233,202);"/>
                <path d="M168.334,95.583C168.334,94.167 169.484,93.017 170.9,93.017C172.317,93.017 173.466,94.167 173.466,95.583C173.466,96.999 172.317,98.149 170.9,98.149C169.484,98.149 168.334,96.999 168.334,95.583Z" style="fill:rgb(255,233,202);"/>
                <path d="M163.764,90.451C163.764,89.034 164.914,87.885 166.33,87.885C167.747,87.885 168.897,89.034 168.897,90.451C168.897,91.867 167.747,93.017 166.33,93.017C164.914,93.017 163.764,91.867 163.764,90.451Z" style="fill:rgb(255,233,202);"/>
            </g>
            <g id="Top-spots1" serif:id="Top spots">
                <path d="M218.755,52.372C218.755,53.788 217.606,54.937 216.19,54.937C214.774,54.937 213.625,53.788 213.625,52.372C213.625,50.957 214.774,49.807 216.19,49.807C217.606,49.807 218.755,50.957 218.755,52.372Z" style="fill:rgb(255,233,202);"/>
                <path d="M211.06,54.517C211.06,55.933 209.91,57.082 208.495,57.082C207.079,57.082 205.93,55.933 205.93,54.517C205.93,53.102 207.079,51.952 208.495,51.952C209.91,51.952 211.06,53.102 211.06,54.517Z" style="fill:rgb(255,233,202);"/>
                <path d="M203.365,56.662C203.365,58.078 202.215,59.228 200.8,59.228C199.384,59.228 198.235,58.078 198.235,56.662C198.235,55.247 199.384,54.097 200.8,54.097C202.215,54.097 203.365,55.247 203.365,56.662Z" style="fill:rgb(255,233,202);"/>
                <path d="M220.758,64.358C220.758,65.773 219.609,66.923 218.193,66.923C216.777,66.923 215.628,65.773 215.628,64.358C215.628,62.942 216.777,61.793 218.193,61.793C219.609,61.793 220.758,62.942 220.758,64.358Z" style="fill:rgb(255,233,202);"/>
                <path d="M223.885,57.502C223.885,58.918 222.736,60.067 221.32,60.067C219.904,60.067 218.755,58.918 218.755,57.502C218.755,56.087 219.904,54.937 221.32,54.937C222.736,54.937 223.885,56.087 223.885,57.502Z" style="fill:rgb(255,233,202);"/>
                <path d="M216.19,59.647C216.19,61.063 215.041,62.212 213.625,62.212C212.209,62.212 211.06,61.063 211.06,59.647C211.06,58.232 212.209,57.082 213.625,57.082C215.041,57.082 216.19,58.232 216.19,59.647Z" style="fill:rgb(255,233,202);"/>
                <path d="M208.495,61.793C208.495,63.208 207.345,64.358 205.93,64.358C204.514,64.358 203.365,63.208 203.365,61.793C203.365,60.377 204.514,59.228 205.93,59.228C207.345,59.228 208.495,60.377 208.495,61.793Z" style="fill:rgb(255,233,202);"/>
                <path d="M213.625,66.923C213.625,68.338 212.476,69.488 211.06,69.488C209.644,69.488 208.495,68.338 208.495,66.923C208.495,65.507 209.644,64.358 211.06,64.358C212.476,64.358 213.625,65.507 213.625,66.923Z" style="fill:rgb(255,233,202);"/>
                <path d="M218.193,72.053C218.193,73.468 217.044,74.618 215.628,74.618C214.212,74.618 213.063,73.468 213.063,72.053C213.063,70.637 214.212,69.488 215.628,69.488C217.044,69.488 218.193,70.637 218.193,72.053Z" style="fill:rgb(255,233,202);"/>
            </g>
        </g>
    </g>
</svg>
