<?xml version="1.0" encoding="UTF-8" standalone="no"?>
<!DOCTYPE svg PUBLIC "-//W3C//DTD SVG 1.1//EN" "http://www.w3.org/Graphics/SVG/1.1/DTD/svg11.dtd">
<svg width="100%" height="100%" viewBox="0 0 256 256" version="1.1" xmlns="http://www.w3.org/2000/svg" xmlns:xlink="http://www.w3.org/1999/xlink" xml:space="preserve" xmlns:serif="http://www.serif.com/" style="fill-rule:evenodd;clip-rule:evenodd;stroke-linejoin:round;stroke-miterlimit:2;">
    <rect id="neodog_train_wagon" x="0" y="0" width="256" height="256" style="fill:none;"/>
    <path id="Wagon-outline" serif:id="Wagon outline" d="M205.572,223.666C206.232,225.795 206.587,228.057 206.587,230.401C206.587,242.949 196.4,253.136 183.853,253.136C171.305,253.136 161.118,242.949 161.118,230.401C161.118,228.057 161.473,225.795 162.134,223.666L92.79,223.666C93.45,225.795 93.806,228.057 93.806,230.401C93.806,242.949 83.619,253.136 71.071,253.136C58.523,253.136 48.336,242.949 48.336,230.401C48.336,228.057 48.692,225.795 49.352,223.666L20.245,223.666C15.827,223.666 12.245,220.085 12.245,215.666L12.245,137.873C12.245,133.455 15.827,129.873 20.245,129.873L235.755,129.873C240.173,129.873 243.755,133.455 243.755,137.873L243.755,215.666C243.755,220.085 240.173,223.666 235.755,223.666L205.572,223.666ZM71.071,215.666C62.939,215.666 56.336,222.269 56.336,230.401C56.336,238.533 62.939,245.136 71.071,245.136C79.203,245.136 85.806,238.533 85.806,230.401C85.806,222.269 79.203,215.666 71.071,215.666ZM183.853,215.666C175.72,215.666 169.118,222.269 169.118,230.401C169.118,238.533 175.72,245.136 183.853,245.136C191.985,245.136 198.587,238.533 198.587,230.401C198.587,222.269 191.985,215.666 183.853,215.666ZM235.755,215.666L235.755,137.873L20.245,137.873L20.245,215.666L235.755,215.666Z"/>
    <path d="M208.134,225.666C208.431,227.199 208.587,228.782 208.587,230.401C208.587,244.053 197.504,255.136 183.853,255.136C170.201,255.136 159.118,244.053 159.118,230.401C159.118,228.782 159.274,227.199 159.571,225.666L95.352,225.666C95.65,227.199 95.806,228.782 95.806,230.401C95.806,244.053 84.723,255.136 71.071,255.136C57.42,255.136 46.336,244.053 46.336,230.401C46.336,228.782 46.492,227.199 46.79,225.666L20.245,225.666C14.722,225.666 10.245,221.189 10.245,215.666L10.245,137.873C10.245,132.35 14.722,127.873 20.245,127.873L235.755,127.873C241.278,127.873 245.755,132.35 245.755,137.873L245.755,215.666C245.755,221.189 241.278,225.666 235.755,225.666L208.134,225.666ZM235.755,215.666L235.755,137.873L20.245,137.873L20.245,215.666L235.755,215.666ZM183.853,215.666C175.72,215.666 169.118,222.269 169.118,230.401C169.118,238.533 175.72,245.136 183.853,245.136C191.985,245.136 198.587,238.533 198.587,230.401C198.587,222.269 191.985,215.666 183.853,215.666ZM71.071,215.666C62.939,215.666 56.336,222.269 56.336,230.401C56.336,238.533 62.939,245.136 71.071,245.136C79.203,245.136 85.806,238.533 85.806,230.401C85.806,222.269 79.203,215.666 71.071,215.666Z"/>
    <g id="Right-wheel" serif:id="Right wheel">
        <path d="M183.853,207.666C196.4,207.666 206.587,217.853 206.587,230.401C206.587,242.949 196.4,253.136 183.853,253.136C171.305,253.136 161.118,242.949 161.118,230.401C161.118,217.853 171.305,207.666 183.853,207.666ZM183.853,215.666C175.72,215.666 169.118,222.269 169.118,230.401C169.118,238.533 175.72,245.136 183.853,245.136C191.985,245.136 198.587,238.533 198.587,230.401C198.587,222.269 191.985,215.666 183.853,215.666Z"/>
        <circle cx="183.853" cy="230.401" r="14.735" style="fill:none;stroke:rgb(212,44,0);stroke-width:5px;"/>
        <path d="M183.853,215.666L183.853,245.136" style="fill:none;stroke:rgb(212,44,0);stroke-width:5px;stroke-linecap:round;stroke-miterlimit:1.5;"/>
        <path d="M171.092,223.034L196.613,237.768" style="fill:none;stroke:rgb(212,44,0);stroke-width:5px;stroke-linecap:round;stroke-miterlimit:1.5;"/>
        <path d="M171.092,237.768L196.613,223.034" style="fill:none;stroke:rgb(212,44,0);stroke-width:5px;stroke-linecap:round;stroke-miterlimit:1.5;"/>
    </g>
    <g id="Left-wheel" serif:id="Left wheel">
        <path d="M71.071,207.666C83.619,207.666 93.806,217.853 93.806,230.401C93.806,242.949 83.619,253.136 71.071,253.136C58.523,253.136 48.336,242.949 48.336,230.401C48.336,217.853 58.523,207.666 71.071,207.666ZM71.071,215.666C62.939,215.666 56.336,222.269 56.336,230.401C56.336,238.533 62.939,245.136 71.071,245.136C79.203,245.136 85.806,238.533 85.806,230.401C85.806,222.269 79.203,215.666 71.071,215.666Z"/>
        <circle cx="71.071" cy="230.401" r="14.735" style="fill:none;stroke:rgb(212,44,0);stroke-width:5px;"/>
        <path d="M71.071,215.666L71.071,245.136" style="fill:none;stroke:rgb(212,44,0);stroke-width:5px;stroke-linecap:round;stroke-miterlimit:1.5;"/>
        <path d="M58.31,223.034L83.832,237.768" style="fill:none;stroke:rgb(212,44,0);stroke-width:5px;stroke-linecap:round;stroke-miterlimit:1.5;"/>
        <path d="M58.31,237.768L83.832,223.034" style="fill:none;stroke:rgb(212,44,0);stroke-width:5px;stroke-linecap:round;stroke-miterlimit:1.5;"/>
    </g>
    <path id="Coal" d="M18.238,143.878C18.354,143.895 18.469,143.914 18.583,143.936C18.505,143.474 18.464,142.999 18.464,142.514C18.464,137.839 22.261,134.042 26.936,134.042C27.057,134.042 27.176,134.045 27.295,134.05C26.108,132.41 25.409,130.395 25.409,128.218C25.409,122.718 29.873,118.254 35.373,118.254C37.235,118.254 38.98,118.766 40.472,119.657C40.626,119.215 40.818,118.79 41.043,118.385C40.648,117.323 40.431,116.174 40.431,114.975C40.431,109.579 44.812,105.198 50.208,105.198C53.742,105.198 56.841,107.078 58.558,109.891C59.182,109.766 59.826,109.7 60.486,109.7C60.798,109.7 61.107,109.715 61.411,109.744C61.586,109.721 61.762,109.703 61.939,109.691C63.563,106.39 66.961,104.117 70.885,104.117C72.748,104.117 74.492,104.629 75.984,105.52C77.101,102.329 80.14,100.037 83.711,100.037C85,100.037 86.219,100.336 87.304,100.867C88.928,97.718 92.214,95.563 95.998,95.563C98.014,95.563 99.888,96.174 101.444,97.221L101.447,97.221C103.31,97.221 105.054,97.734 106.546,98.625C107.663,95.434 110.702,93.142 114.273,93.142C115.561,93.142 116.781,93.441 117.866,93.972C119.49,90.823 122.775,88.668 126.56,88.668C127.541,88.668 128.489,88.813 129.383,89.082C130.417,84.793 134.283,81.603 138.888,81.603C142.672,81.603 145.957,83.758 147.582,86.907C148.667,86.375 149.886,86.077 151.175,86.077C154.745,86.077 157.785,88.368 158.902,91.56C160.394,90.668 162.138,90.156 164.001,90.156C168.857,90.156 172.907,93.638 173.787,98.24C175.54,96.581 177.905,95.563 180.506,95.563C184.291,95.563 187.576,97.718 189.2,100.867C190.285,100.336 191.505,100.037 192.793,100.037C196.364,100.037 199.403,102.329 200.52,105.52C202.012,104.629 203.756,104.117 205.619,104.117C211.118,104.117 215.583,108.581 215.583,114.081C215.583,116.258 214.883,118.273 213.696,119.913C213.815,119.908 213.935,119.905 214.055,119.905C218.731,119.905 222.527,123.702 222.527,128.377C222.527,128.862 222.486,129.337 222.408,129.799C222.937,129.699 223.484,129.646 224.042,129.646C228.854,129.646 232.76,133.552 232.76,138.364C232.76,140.631 227.745,155.806 226.325,157.357C226.325,157.357 217.417,160.076 206.026,162.032C205.094,164.523 204.246,166.485 203.782,166.992C203.782,166.992 157.207,181.208 140.865,168.01L140.54,167.719C131.305,170.251 99.304,178.106 83.524,170.15C82.169,170.444 80.735,170.739 79.242,171.026L77.584,172.512C63.984,183.496 29.446,175.493 18.238,172.498L18.238,143.878Z" style="fill:rgb(31,30,30);stroke:black;stroke-width:3px;stroke-linecap:round;stroke-miterlimit:1.5;"/>
    <g id="Dog">
        <g id="Body">
            <path d="M71.567,93.307L71.567,108.703C71.567,128.971 88.025,145.425 108.286,145.425L161.671,145.425C176.139,145.425 187.883,133.679 187.883,119.216L187.883,93.23C187.883,64.176 164.296,40.597 135.244,40.597L124.277,40.597C95.189,40.597 71.567,64.215 71.567,93.307Z" style="fill:rgb(243,192,123);"/>
            <path d="M56.816,93.307L56.816,108.703C56.816,137.106 79.881,160.17 108.286,160.17L161.671,160.17C184.28,160.17 202.633,141.824 202.633,119.216L202.633,93.23C202.633,56.041 172.44,25.842 135.244,25.842L124.277,25.842C87.045,25.842 56.816,56.07 56.816,93.307ZM71.567,93.307C71.567,64.215 95.189,40.597 124.277,40.597L135.244,40.597C164.296,40.597 187.883,64.176 187.883,93.23L187.883,119.216C187.883,133.679 176.139,145.425 161.671,145.425L108.286,145.425C88.025,145.425 71.567,128.971 71.567,108.703L71.567,93.307Z"/>
        </g>
        <g id="Snoot">
            <path d="M90.59,107.015C90.59,117.976 99.483,126.869 110.436,126.869L129.961,126.869C140.913,126.869 149.805,117.976 149.805,107.015C149.805,96.066 140.913,87.173 129.961,87.173L110.436,87.173C99.483,87.173 90.59,96.066 90.59,107.015Z" style="fill:rgb(255,221,166);"/>
        </g>
        <g id="Face">
            <path id="Mouth" d="M97.431,108.466L105.022,121.229L115.251,108.489L127.923,121.194L143.018,108.504" style="fill:none;stroke:rgb(55,39,12);stroke-width:7.04px;stroke-linecap:round;stroke-miterlimit:1.5;"/>
            <path id="Nose" d="M118.155,99.817C120.518,98.954 122.143,97.162 122.143,95.085C122.143,92.169 118.916,89.798 114.943,89.798C110.966,89.798 107.739,92.169 107.739,95.085C107.739,97.154 109.357,98.946 111.716,99.817L111.716,109.421L118.155,109.421L118.155,99.817Z" style="fill:rgb(55,39,12);"/>
            <g id="Eyes">
                <path id="Right-eye" serif:id="Right eye" d="M153.731,74.065L153.731,79.561C153.731,85.335 149.043,90.023 143.269,90.023C137.495,90.023 132.807,85.335 132.807,79.561L132.807,74.065C132.807,68.291 137.495,63.603 143.269,63.603C149.043,63.603 153.731,68.291 153.731,74.065Z"/>
                <path id="Left-eye" serif:id="Left eye" d="M107.484,73.845L107.484,79.341C107.484,85.115 102.796,89.803 97.022,89.803C91.248,89.803 86.56,85.115 86.56,79.341L86.56,73.845C86.56,68.071 91.248,63.383 97.022,63.383C102.796,63.383 107.484,68.071 107.484,73.845Z"/>
            </g>
        </g>
        <g id="Right-ear" serif:id="Right ear">
            <path d="M191.955,29.901L191.955,82.293C191.955,82.293 189.511,88.777 186.277,83.955C183.035,79.133 150.282,30.284 150.282,30.284C150.282,30.284 147.024,24.069 153.418,24.9C159.82,25.731 165.082,28.329 171.118,28.296C177.154,28.256 186.831,26.244 186.831,26.244C186.831,26.244 192.248,25.201 191.955,29.901Z" style="fill:rgb(109,69,52);"/>
            <path d="M206.706,29.901L206.682,30.813L206.56,27.042L205.558,22.986L203.513,19.084L200.679,15.931L197.249,13.586L192.72,11.916L188.786,11.411L184.021,11.769C183.956,11.777 183.891,11.794 183.825,11.802C183.825,11.802 175.949,13.512 171.029,13.545C165.653,13.577 161.018,11.012 155.316,10.27L149.899,10.213L145.558,11.28L141.737,13.325L138.406,16.469L136.288,19.898L134.88,24.68L135.093,31.123L137.208,37.134C137.461,37.599 137.73,38.063 138.031,38.503C138.031,38.503 170.793,87.36 174.034,92.182L177.749,96.393L181.797,98.976L186.237,100.303L190.953,100.336L194.781,99.326L198.862,97.021L202.968,92.728L205.761,87.49C206.389,85.829 206.706,84.069 206.706,82.293L206.706,29.901ZM191.955,29.901L191.955,82.293C191.955,82.293 189.511,88.777 186.277,83.955C183.035,79.133 150.282,30.284 150.282,30.284C150.282,30.284 147.024,24.069 153.418,24.9C159.82,25.731 165.082,28.329 171.118,28.296C177.154,28.256 186.831,26.244 186.831,26.244C186.831,26.244 192.248,25.201 191.955,29.901Z"/>
        </g>
        <g id="Left-ear" serif:id="Left ear">
            <path d="M63.764,29.901L63.764,82.293C63.764,82.293 66.208,88.777 69.442,83.955C72.684,79.133 105.437,30.284 105.437,30.284C105.437,30.284 108.695,24.069 102.301,24.9C95.899,25.731 90.637,28.329 84.601,28.296C78.565,28.256 68.888,26.244 68.888,26.244C68.888,26.244 63.471,25.201 63.764,29.901Z" style="fill:rgb(109,69,52);"/>
            <path d="M49.037,30.813L49.013,29.901L49.013,82.293C49.013,84.069 49.33,85.829 49.958,87.49L52.752,92.728L56.857,97.021L60.938,99.326L64.766,100.336L69.483,100.303L73.922,98.976L77.97,96.393L81.685,92.182C84.927,87.36 117.688,38.503 117.688,38.503C117.99,38.063 118.258,37.599 118.511,37.134L120.626,31.123L120.84,24.68L119.431,19.898L117.313,16.469L113.982,13.325L110.162,11.28L105.82,10.213L100.403,10.27C94.701,11.012 90.066,13.577 84.69,13.545C79.77,13.512 71.894,11.802 71.894,11.802C71.829,11.794 71.763,11.777 71.698,11.769L66.933,11.411L62.999,11.916L58.47,13.586L55.041,15.931L52.206,19.084L50.161,22.986L49.159,27.042L49.037,30.813ZM63.764,29.901C63.471,25.201 68.888,26.244 68.888,26.244C68.888,26.244 78.565,28.256 84.601,28.296C90.637,28.329 95.899,25.731 102.301,24.9C108.695,24.069 105.437,30.284 105.437,30.284C105.437,30.284 72.684,79.133 69.442,83.955C66.208,88.777 63.764,82.293 63.764,82.293L63.764,29.901Z"/>
        </g>
    </g>
    <rect id="Front-panel" serif:id="Front panel" x="18.889" y="138.728" width="218.694" height="74.379" style="fill:rgb(157,30,30);"/>
    <path d="M242.584,138.728L242.584,213.107C242.584,215.868 240.345,218.107 237.584,218.107L18.889,218.107C16.128,218.107 13.889,215.868 13.889,213.107L13.889,138.728C13.889,135.967 16.128,133.728 18.889,133.728L237.584,133.728C240.345,133.728 242.584,135.967 242.584,138.728ZM237.584,138.728L18.889,138.728L18.889,213.107L237.584,213.107L237.584,138.728Z"/>
    <g id="Panel-shadows" serif:id="Panel shadows">
        <path d="M19.177,149.839L237.723,149.839" style="fill:none;stroke:rgb(93,17,17);stroke-width:3px;stroke-miterlimit:1.5;"/>
        <path d="M19.177,167.793L237.723,167.793" style="fill:none;stroke:rgb(93,17,17);stroke-width:3px;stroke-miterlimit:1.5;"/>
        <path d="M19.177,185.747L237.723,185.747" style="fill:none;stroke:rgb(93,17,17);stroke-width:3px;stroke-miterlimit:1.5;"/>
        <path d="M19.177,203.7L237.723,203.7" style="fill:none;stroke:rgb(93,17,17);stroke-width:3px;stroke-miterlimit:1.5;"/>
    </g>
    <path id="Right-buffer" serif:id="Right buffer" d="M249.624,199.404L249.624,206.067L244.508,206.067L244.508,199.404L249.624,199.404ZM252.611,192.573L252.611,212.897L250.976,212.897L250.976,192.573L252.611,192.573Z"/>
    <path d="M247.976,196.404L247.976,192.573C247.976,190.916 249.319,189.573 250.976,189.573L252.611,189.573C254.268,189.573 255.611,190.916 255.611,192.573L255.611,212.897C255.611,214.554 254.268,215.897 252.611,215.897L250.976,215.897C249.319,215.897 247.976,214.554 247.976,212.897L247.976,209.067L244.508,209.067C242.852,209.067 241.508,207.723 241.508,206.067L241.508,199.404C241.508,197.747 242.852,196.404 244.508,196.404L247.976,196.404ZM249.624,199.404L244.508,199.404L244.508,206.067L249.624,206.067L249.624,199.404ZM252.611,192.573L250.976,192.573L250.976,212.897L252.611,212.897L252.611,192.573Z"/>
    <path id="Left-buffer" serif:id="Left buffer" d="M6.405,199.404L6.405,206.067L11.521,206.067L11.521,199.404L6.405,199.404ZM3.419,192.573L3.419,212.897L5.054,212.897L5.054,192.573L3.419,192.573Z"/>
    <path d="M8.054,196.404L11.521,196.404C13.178,196.404 14.521,197.747 14.521,199.404L14.521,206.067C14.521,207.723 13.178,209.067 11.521,209.067L8.054,209.067L8.054,212.897C8.054,214.554 6.71,215.897 5.054,215.897L3.419,215.897C1.762,215.897 0.419,214.554 0.419,212.897L0.419,192.573C0.419,190.916 1.762,189.573 3.419,189.573L5.054,189.573C6.71,189.573 8.054,190.916 8.054,192.573L8.054,196.404ZM6.405,199.404L6.405,206.067L11.521,206.067L11.521,199.404L6.405,199.404ZM3.419,192.573L3.419,212.897L5.054,212.897L5.054,192.573L3.419,192.573Z"/>
</svg>
