<?xml version="1.0" encoding="UTF-8" standalone="no"?>
<!DOCTYPE svg PUBLIC "-//W3C//DTD SVG 1.1//EN" "http://www.w3.org/Graphics/SVG/1.1/DTD/svg11.dtd">
<svg width="100%" height="100%" viewBox="0 0 256 256" version="1.1" xmlns="http://www.w3.org/2000/svg" xmlns:xlink="http://www.w3.org/1999/xlink" xml:space="preserve" xmlns:serif="http://www.serif.com/" style="fill-rule:evenodd;clip-rule:evenodd;stroke-linecap:round;stroke-linejoin:round;stroke-miterlimit:1.5;">
    <rect id="neodog_hug_bee_heart" x="0" y="0" width="256" height="256" style="fill:none;"/>
    <clipPath id="_clip1">
        <rect x="0" y="0" width="256" height="256"/>
    </clipPath>
    <g clip-path="url(#_clip1)">
        <g id="Dog">
            <g id="Body">
                <path d="M102.521,174.248L102.521,191.701C102.521,214.677 121.178,233.329 144.146,233.329L204.662,233.329C221.063,233.329 234.376,220.014 234.376,203.618L234.376,174.16C234.376,141.225 207.638,114.496 174.705,114.496L162.273,114.496C129.299,114.496 102.521,141.269 102.521,174.248Z" style="fill:rgb(243,192,123);"/>
                <path d="M85.799,174.248L85.799,191.701C85.799,223.898 111.946,250.044 144.146,250.044L204.662,250.044C230.292,250.044 251.096,229.246 251.096,203.618L251.096,174.16C251.096,132.004 216.87,97.77 174.705,97.77L162.273,97.77C120.067,97.77 85.799,132.037 85.799,174.248ZM102.521,174.248C102.521,141.269 129.299,114.496 162.273,114.496L174.705,114.496C207.638,114.496 234.376,141.225 234.376,174.16L234.376,203.618C234.376,220.014 221.063,233.329 204.662,233.329L144.146,233.329C121.178,233.329 102.521,214.677 102.521,191.701L102.521,174.248Z"/>
            </g>
            <path id="Right-eye" serif:id="Right eye" d="M195.661,152.435L195.661,158.666C195.661,165.211 190.347,170.525 183.802,170.525C177.257,170.525 171.943,165.211 171.943,158.666L171.943,152.435C171.943,145.89 177.257,140.576 183.802,140.576C190.347,140.576 195.661,145.89 195.661,152.435Z"/>
            <g id="Right-ear" serif:id="Right ear">
                <path d="M238.591,102.372L238.591,161.763C238.591,161.763 235.821,169.113 232.155,163.647C228.48,158.18 191.351,102.806 191.351,102.806C191.351,102.806 187.657,95.76 194.906,96.702C202.164,97.644 208.129,100.59 214.971,100.553C221.813,100.507 232.783,98.226 232.783,98.226C232.783,98.226 238.923,97.044 238.591,102.372Z" style="fill:rgb(109,69,52);"/>
                <path d="M255.313,102.372L255.285,103.406L255.147,99.131L254.011,94.532L251.693,90.109L248.48,86.536L244.593,83.877L239.459,81.984L234.999,81.411L229.597,81.817C229.523,81.827 229.449,81.845 229.375,81.854C229.375,81.854 220.446,83.793 214.869,83.83C208.775,83.867 203.521,80.959 197.057,80.118L190.917,80.054L185.995,81.263L181.665,83.581L177.888,87.145L175.487,91.033L173.891,96.453L174.133,103.757L176.531,110.571C176.817,111.098 177.122,111.624 177.463,112.123C177.463,112.123 214.601,167.507 218.276,172.973L222.487,177.747L227.076,180.674L232.109,182.179L237.455,182.216L241.795,181.071L246.421,178.458L251.075,173.592L254.242,167.654C254.953,165.771 255.313,163.776 255.313,161.763L255.313,102.372ZM238.591,102.372L238.591,161.763C238.591,161.763 235.821,169.113 232.155,163.647C228.48,158.18 191.351,102.806 191.351,102.806C191.351,102.806 187.657,95.76 194.906,96.702C202.164,97.644 208.129,100.59 214.971,100.553C221.813,100.507 232.783,98.226 232.783,98.226C232.783,98.226 238.923,97.044 238.591,102.372Z"/>
            </g>
            <g id="Left-ear" serif:id="Left ear">
                <path d="M93.676,102.372L93.676,161.763C93.676,161.763 96.446,169.113 100.112,163.647C103.787,158.18 140.916,102.806 140.916,102.806C140.916,102.806 144.609,95.76 137.361,96.702C130.103,97.644 124.138,100.59 117.296,100.553C110.454,100.507 99.484,98.226 99.484,98.226C99.484,98.226 93.344,97.044 93.676,102.372Z" style="fill:rgb(109,69,52);"/>
                <path d="M76.982,103.406L76.954,102.372L76.954,161.763C76.954,163.776 77.314,165.771 78.025,167.654L81.192,173.592L85.846,178.458L90.472,181.071L94.812,182.216L100.158,182.179L105.191,180.674L109.78,177.747L113.99,172.973C117.665,167.507 154.804,112.123 154.804,112.123C155.145,111.624 155.45,111.098 155.736,110.571L158.134,103.757L158.376,96.453L156.78,91.033L154.379,87.145L150.602,83.581L146.272,81.263L141.35,80.054L135.21,80.118C128.746,80.959 123.492,83.867 117.398,83.83C111.82,83.793 102.891,81.854 102.891,81.854C102.818,81.845 102.744,81.827 102.67,81.817L97.268,81.411L92.808,81.984L87.674,83.877L83.787,86.536L80.573,90.109L78.256,94.532L77.12,99.131L76.982,103.406ZM93.676,102.372C93.344,97.044 99.484,98.226 99.484,98.226C99.484,98.226 110.454,100.507 117.296,100.553C124.138,100.59 130.103,97.644 137.361,96.702C144.609,95.76 140.916,102.806 140.916,102.806C140.916,102.806 103.787,158.18 100.112,163.647C96.446,169.113 93.676,161.763 93.676,161.763L93.676,102.372Z"/>
            </g>
        </g>
        <g id="Bee">
            <path id="Wings-outline" serif:id="Wings outline" d="M117.671,163.06C117.191,163.682 116.685,164.289 116.152,164.881C103.374,179.095 76.549,180.17 56.466,163.537C35.819,146.436 33.081,119.995 46.218,105.381C54.979,95.636 70.166,91.975 85.38,96.01C93.709,83.393 107.056,76.354 119.567,77.857C138.121,80.086 152.879,100.58 148.895,125.661C145.772,145.322 132.25,159.448 117.671,163.06ZM108.473,148.825C108.602,148.844 108.732,148.861 108.862,148.877C120.32,150.253 131.621,138.796 134.081,123.307C136.541,107.819 129.236,94.127 117.778,92.75C106.948,91.449 96.26,101.612 93.043,115.807C80.407,107.253 65.054,106.866 57.374,115.409C49.011,124.711 52.892,141.1 66.034,151.984C79.176,162.869 96.635,164.155 104.997,154.853C106.597,153.073 107.748,151.035 108.473,148.825Z"/>
            <path id="Body1" serif:id="Body" d="M106.103,125.73C62.71,109.377 19.883,121.211 10.526,152.141C1.169,183.071 28.802,221.459 72.195,237.812C115.589,254.165 158.415,242.331 167.773,211.401C177.13,180.471 149.497,142.083 106.103,125.73Z" style="fill:rgb(254,194,7);"/>
            <g id="Stripes">
                <path d="M75.248,122.321C76.231,122.875 14.788,132.343 23.038,201.303C-25.748,118.355 73.562,115.663 75.248,122.321Z" style="fill:rgb(85,85,85);"/>
                <path d="M23.183,202.008C13.359,135.853 73.613,121.835 72.882,119.961L97.339,124.461C97.339,124.461 23.945,138.281 37.213,215.889L25.291,202.8" style="fill:rgb(254,194,7);"/>
                <path d="M54.078,228.958L37.34,215.863C24.003,138.167 98.322,121.461 98.327,121.49L111.874,126.746C111.99,126.746 36.134,149.455 54.078,228.958Z" style="fill:rgb(85,85,85);"/>
                <path d="M110.875,127.014L126.04,135.37C126.04,135.37 53.559,158.72 70.571,237.326L54.543,229.979C33.286,152.912 111.795,127.513 113.137,128.26" style="fill:rgb(254,194,7);"/>
                <path d="M129.12,136.301L141.107,145.56C141.107,145.56 72.991,160.291 88.165,241.844L70.571,237.326C51.117,156.675 127.081,137.621 129.12,136.301Z" style="fill:rgb(85,85,85);"/>
            </g>
            <path id="Body-outline" serif:id="Body outline" d="M106.103,125.73C62.71,109.377 19.883,121.211 10.526,152.141C1.169,183.071 28.802,221.459 72.195,237.812C115.589,254.165 158.415,242.331 167.773,211.401C177.13,180.471 149.497,142.083 106.103,125.73Z" style="fill:none;stroke:black;stroke-width:15px;"/>
            <g id="Wings">
                <path id="Back-wing" serif:id="Back wing" d="M117.778,92.75C106.319,91.374 95.019,102.831 92.559,118.319C90.099,133.808 97.404,147.5 108.862,148.877C120.32,150.253 131.621,138.796 134.081,123.307C136.541,107.819 129.236,94.127 117.778,92.75Z" style="fill:rgb(167,167,167);"/>
                <path id="Front-wing" serif:id="Front wing" d="M57.374,115.409C49.011,124.711 52.892,141.1 66.034,151.984C79.176,162.869 96.635,164.155 104.997,154.853C113.359,145.551 109.478,129.162 96.336,118.277C83.194,107.393 65.736,106.107 57.374,115.409Z" style="fill:rgb(195,195,195);"/>
            </g>
            <g id="Face">
                <path id="Mouth" d="M149.164,205.945L145.488,216.559L135.965,208.681L128.515,220.028L115.395,212.929" style="fill:none;stroke:black;stroke-width:5px;"/>
                <path id="Right-eye1" serif:id="Right eye" d="M134.508,186.305C137.16,189.993 140.963,190.26 143.555,189.499C146.47,188.644 149.329,186.808 149.818,181.275" style="fill:none;stroke:black;stroke-width:7px;"/>
                <path id="Left-eye" serif:id="Left eye" d="M104.008,195.121C106.661,198.809 110.464,199.076 113.056,198.316C115.971,197.46 118.83,195.625 119.319,190.092" style="fill:none;stroke:black;stroke-width:7px;"/>
            </g>
        </g>
        <path id="Dog-arm" serif:id="Dog arm" d="M195.275,227.468L161.081,227.468C152.981,227.468 146.406,220.892 146.406,212.793C146.406,204.694 152.981,198.119 161.081,198.119L195.275,198.119" style="fill:rgb(243,192,123);stroke:black;stroke-width:10px;"/>
        <path id="Heart" d="M100.241,70.661L90.15,60.571C80.47,50.89 80.47,35.171 90.15,25.491C99.831,15.81 115.55,15.81 125.231,25.491L128,28.26L130.769,25.491C140.45,15.81 156.169,15.81 165.85,25.491C175.53,35.171 175.53,50.89 165.85,60.571L155.759,70.661C155.367,71.211 154.923,71.736 154.43,72.23L136.889,89.77C134.439,92.221 131.215,93.43 128,93.4C124.785,93.43 121.561,92.221 119.111,89.77L101.57,72.23C101.077,71.736 100.633,71.211 100.241,70.661Z" style="fill:rgb(239,124,148);stroke:black;stroke-width:15px;stroke-linejoin:miter;stroke-miterlimit:5;"/>
    </g>
</svg>
