<?xml version="1.0" encoding="UTF-8" standalone="no"?>
<svg
   xmlns:serif="http://www.serif.com/"
   xmlns:dc="http://purl.org/dc/elements/1.1/"
   xmlns:cc="http://creativecommons.org/ns#"
   xmlns:rdf="http://www.w3.org/1999/02/22-rdf-syntax-ns#"
   xmlns:svg="http://www.w3.org/2000/svg"
   xmlns="http://www.w3.org/2000/svg"
   xmlns:sodipodi="http://sodipodi.sourceforge.net/DTD/sodipodi-0.dtd"
   xmlns:inkscape="http://www.inkscape.org/namespaces/inkscape"
   width="2048"
   height="2048"
   viewBox="0 0 2048 2048"
   version="1.1"
   id="svg8"
   inkscape:version="1.0.2-2 (e86c870879, 2021-01-15)"
   sodipodi:docname="neoDLR_train.svg"
   inkscape:export-filename="../png/neoDLR_train.png"
   inkscape:export-xdpi="96"
   inkscape:export-ydpi="96">
  <defs
     id="defs2" />
  <sodipodi:namedview
     id="base"
     pagecolor="#ffffff"
     bordercolor="#666666"
     borderopacity="1.0"
     inkscape:pageopacity="0.0"
     inkscape:pageshadow="2"
     inkscape:zoom="0.35"
     inkscape:cx="423.64779"
     inkscape:cy="923.99937"
     inkscape:document-units="px"
     inkscape:current-layer="g2971"
     inkscape:document-rotation="0"
     showgrid="false"
     units="px"
     scale-x="1"
     inkscape:window-width="1920"
     inkscape:window-height="1001"
     inkscape:window-x="-9"
     inkscape:window-y="-9"
     inkscape:window-maximized="1" />
  <metadata
     id="metadata5">
    <rdf:RDF>
      <cc:Work
         rdf:about="">
        <dc:format>image/svg+xml</dc:format>
        <dc:type
           rdf:resource="http://purl.org/dc/dcmitype/StillImage" />
        <dc:title></dc:title>
        <cc:license
           rdf:resource="http://creativecommons.org/licenses/by-nc-sa/4.0/" />
      </cc:Work>
      <cc:License
         rdf:about="http://creativecommons.org/licenses/by-nc-sa/4.0/">
        <cc:permits
           rdf:resource="http://creativecommons.org/ns#Reproduction" />
        <cc:permits
           rdf:resource="http://creativecommons.org/ns#Distribution" />
        <cc:requires
           rdf:resource="http://creativecommons.org/ns#Notice" />
        <cc:requires
           rdf:resource="http://creativecommons.org/ns#Attribution" />
        <cc:prohibits
           rdf:resource="http://creativecommons.org/ns#CommercialUse" />
        <cc:permits
           rdf:resource="http://creativecommons.org/ns#DerivativeWorks" />
        <cc:requires
           rdf:resource="http://creativecommons.org/ns#ShareAlike" />
      </cc:License>
    </rdf:RDF>
  </metadata>
  <g
     inkscape:label="Layer 1"
     inkscape:groupmode="layer"
     id="layer1">
    <g
       style="clip-rule:evenodd;fill-rule:evenodd;stroke-linejoin:round;stroke-miterlimit:2"
       id="g2971"
       transform="scale(8)">
      <rect
         id="neofox_train_wagon"
         x="0"
         y="0"
         width="256"
         height="256"
         style="fill:none" />
      <path
         id="Wagon-outline"
         serif:id="Wagon outline"
         d="m 205.572,223.666 c 0.66,2.129 1.015,4.391 1.015,6.735 0,12.548 -10.187,22.735 -22.734,22.735 -12.548,0 -22.735,-10.187 -22.735,-22.735 0,-2.344 0.355,-4.606 1.016,-6.735 H 92.79 c 0.66,2.129 1.016,4.391 1.016,6.735 0,12.548 -10.187,22.735 -22.735,22.735 -12.548,0 -22.735,-10.187 -22.735,-22.735 0,-2.344 0.356,-4.606 1.016,-6.735 H 20.245 c -4.418,0 -8,-3.581 -8,-8 v -77.793 c 0,-4.418 3.582,-8 8,-8 h 215.51 c 4.418,0 8,3.582 8,8 v 77.793 c 0,4.419 -3.582,8 -8,8 z m -21.719,-8 c -8.133,0 -14.735,6.603 -14.735,14.735 0,8.132 6.602,14.735 14.735,14.735 8.132,0 14.734,-6.603 14.734,-14.735 0,-8.132 -6.602,-14.735 -14.734,-14.735 z m 51.902,0 V 137.873 H 20.245 v 77.793 z m -164.684,0 c -8.132,0 -14.735,6.603 -14.735,14.735 0,8.132 6.603,14.735 14.735,14.735 8.132,0 14.735,-6.603 14.735,-14.735 0,-8.132 -6.603,-14.735 -14.735,-14.735 z" />
      <path
         d="m 208.134,225.666 c 0.297,1.533 0.453,3.116 0.453,4.735 0,13.652 -11.083,24.735 -24.734,24.735 -13.652,0 -24.735,-11.083 -24.735,-24.735 0,-1.619 0.156,-3.202 0.453,-4.735 H 95.352 c 0.298,1.533 0.454,3.116 0.454,4.735 0,13.652 -11.083,24.735 -24.735,24.735 -13.651,0 -24.735,-11.083 -24.735,-24.735 0,-1.619 0.156,-3.202 0.454,-4.735 H 20.245 c -5.523,0 -10,-4.477 -10,-10 v -77.793 c 0,-5.523 4.477,-10 10,-10 h 215.51 c 5.523,0 10,4.477 10,10 v 77.793 c 0,5.523 -4.477,10 -10,10 z m -24.281,-10 c -8.133,0 -14.735,6.603 -14.735,14.735 0,8.132 6.602,14.735 14.735,14.735 8.132,0 14.734,-6.603 14.734,-14.735 0,-8.132 -6.602,-14.735 -14.734,-14.735 z m 51.902,0 V 137.873 H 20.245 v 77.793 z m -164.684,0 c -8.132,0 -14.735,6.603 -14.735,14.735 0,8.132 6.603,14.735 14.735,14.735 8.132,0 14.735,-6.603 14.735,-14.735 0,-8.132 -6.603,-14.735 -14.735,-14.735 z"
         id="path2867" />
      <g
         id="Right-wheel"
         serif:id="Right wheel">
        <path
   d="m 183.853,207.666 c 12.547,0 22.734,10.187 22.734,22.735 0,12.548 -10.187,22.735 -22.734,22.735 -12.548,0 -22.735,-10.187 -22.735,-22.735 0,-12.548 10.187,-22.735 22.735,-22.735 z m 0,8 c -8.133,0 -14.735,6.603 -14.735,14.735 0,8.132 6.602,14.735 14.735,14.735 8.132,0 14.734,-6.603 14.734,-14.735 0,-8.132 -6.602,-14.735 -14.734,-14.735 z"
   id="path2869" />

        <circle
   cx="183.853"
   cy="230.401"
   r="14.735"
   style="fill:none;stroke:#d42c00;stroke-width:5px"
   id="circle2871" />

        <path
   d="m 183.853,215.666 v 29.47"
   style="fill:none;stroke:#d42c00;stroke-width:5px;stroke-linecap:round;stroke-miterlimit:1.5"
   id="path2873" />

        <path
   d="m 171.092,223.034 25.521,14.734"
   style="fill:none;stroke:#d42c00;stroke-width:5px;stroke-linecap:round;stroke-miterlimit:1.5"
   id="path2875" />

        <path
   d="m 171.092,237.768 25.521,-14.734"
   style="fill:none;stroke:#d42c00;stroke-width:5px;stroke-linecap:round;stroke-miterlimit:1.5"
   id="path2877" />

    </g>
      <g
         id="Left-wheel"
         serif:id="Left wheel">
        <path
   d="m 71.071,207.666 c 12.548,0 22.735,10.187 22.735,22.735 0,12.548 -10.187,22.735 -22.735,22.735 -12.548,0 -22.735,-10.187 -22.735,-22.735 0,-12.548 10.187,-22.735 22.735,-22.735 z m 0,8 c -8.132,0 -14.735,6.603 -14.735,14.735 0,8.132 6.603,14.735 14.735,14.735 8.132,0 14.735,-6.603 14.735,-14.735 0,-8.132 -6.603,-14.735 -14.735,-14.735 z"
   id="path2880" />

        <circle
   cx="71.070999"
   cy="230.401"
   r="14.735"
   style="fill:none;stroke:#d42c00;stroke-width:5px"
   id="circle2882" />

        <path
   d="m 71.071,215.666 v 29.47"
   style="fill:none;stroke:#d42c00;stroke-width:5px;stroke-linecap:round;stroke-miterlimit:1.5"
   id="path2884" />

        <path
   d="m 58.31,223.034 25.522,14.734"
   style="fill:none;stroke:#d42c00;stroke-width:5px;stroke-linecap:round;stroke-miterlimit:1.5"
   id="path2886" />

        <path
   d="M 58.31,237.768 83.832,223.034"
   style="fill:none;stroke:#d42c00;stroke-width:5px;stroke-linecap:round;stroke-miterlimit:1.5"
   id="path2888" />

    </g>
      <path
         id="Coal"
         d="m 18.238,143.878 c 0.116,0.017 0.231,0.036 0.345,0.058 -0.078,-0.462 -0.119,-0.937 -0.119,-1.422 0,-4.675 3.797,-8.472 8.472,-8.472 0.121,0 0.24,0.003 0.359,0.008 -1.187,-1.64 -1.886,-3.655 -1.886,-5.832 0,-5.5 4.464,-9.964 9.964,-9.964 1.862,0 3.607,0.512 5.099,1.403 0.154,-0.442 0.346,-0.867 0.571,-1.272 -0.395,-1.062 -0.612,-2.211 -0.612,-3.41 0,-5.396 4.381,-9.777 9.777,-9.777 3.534,0 6.633,1.88 8.35,4.693 0.624,-0.125 1.268,-0.191 1.928,-0.191 0.312,0 0.621,0.015 0.925,0.044 0.175,-0.023 0.351,-0.041 0.528,-0.053 1.624,-3.301 5.022,-5.574 8.946,-5.574 1.863,0 3.607,0.512 5.099,1.403 1.117,-3.191 4.156,-5.483 7.727,-5.483 1.289,0 2.508,0.299 3.593,0.83 1.624,-3.149 4.91,-5.304 8.694,-5.304 2.016,0 3.89,0.611 5.446,1.658 h 0.003 c 1.863,0 3.607,0.513 5.099,1.404 1.117,-3.191 4.156,-5.483 7.727,-5.483 1.288,0 2.508,0.299 3.593,0.83 1.624,-3.149 4.909,-5.304 8.694,-5.304 0.981,0 1.929,0.145 2.823,0.414 1.034,-4.289 4.9,-7.479 9.505,-7.479 3.784,0 7.069,2.155 8.694,5.304 1.085,-0.532 2.304,-0.83 3.593,-0.83 3.57,0 6.61,2.291 7.727,5.483 1.492,-0.892 3.236,-1.404 5.099,-1.404 4.856,0 8.906,3.482 9.786,8.084 1.753,-1.659 4.118,-2.677 6.719,-2.677 3.785,0 7.07,2.155 8.694,5.304 1.085,-0.531 2.305,-0.83 3.593,-0.83 3.571,0 6.61,2.292 7.727,5.483 1.492,-0.891 3.236,-1.403 5.099,-1.403 5.499,0 9.964,4.464 9.964,9.964 0,2.177 -0.7,4.192 -1.887,5.832 0.119,-0.005 0.239,-0.008 0.359,-0.008 4.676,0 8.472,3.797 8.472,8.472 0,0.485 -0.041,0.96 -0.119,1.422 0.529,-0.1 1.076,-0.153 1.634,-0.153 4.812,0 8.718,3.906 8.718,8.718 0,2.267 -5.015,17.442 -6.435,18.993 0,0 -8.908,2.719 -20.299,4.675 -0.932,2.491 -1.78,4.453 -2.244,4.96 0,0 -46.575,14.216 -62.917,1.018 l -0.325,-0.291 c -9.235,2.532 -41.236,10.387 -57.016,2.431 -1.355,0.294 -2.789,0.589 -4.282,0.876 l -1.658,1.486 c -13.6,10.984 -48.138,2.981 -59.346,-0.014 z"
         style="fill:#1f1e1e;stroke:#000000;stroke-width:3px;stroke-linecap:round;stroke-miterlimit:1.5" />
      <g
         style="clip-rule:evenodd;fill-rule:evenodd;stroke-linecap:round;stroke-linejoin:round;stroke-miterlimit:1.5"
         id="g3173"
         transform="matrix(0.5744669,0,0,0.5744669,46.994227,15.623806)"
         inkscape:label="DLR">
        <rect
           id="NeoDLR"
           x="0"
           y="0"
           width="256"
           height="256"
           style="fill:none" />
        <g
           clip-path="url(#_clip1)"
           id="g3148">
        <g
   id="Body-6">
            <g
   id="Outline-7">
                <path
   d="m 74.072,28.517 119.914,-7.45 c 3.978,-5.248 11.89,-2.053 11.89,-2.053 l 50.006,13.78 0.118,187.38 c 0,0 -33.84,12.512 -48.802,16.977 -14.963,4.465 -16.597,-11.247 -16.597,-11.247 0,0 -0.23,-3.73 -0.584,-9.822 l -80.027,-5.34 c -8.016,2.993 -40.741,15.133 -56.865,19.931 -18.457,5.491 -17.868,-14.331 -17.868,-14.331 0,0 0.123,-47.078 0.739,-55.663 0.616,-8.585 1.758,-25.677 2.451,-35.004 0.693,-9.327 6.673,-48.517 6.673,-48.517 0,0 5.25,-30.86 9.516,-42.321 4.266,-11.462 12.295,-8.167 12.295,-8.167 z"
   style="fill:#e03333"
   id="path3133" />

                <path
   d="m 20.257,216.303 c 0,0 0.15,-47.953 0.778,-56.698 0.616,-8.594 1.76,-25.704 2.454,-35.042 0.709,-9.547 6.802,-49.667 6.802,-49.667 0.013,-0.085 0.027,-0.169 0.041,-0.254 0,0 5.704,-32.833 10.246,-45.037 3.641,-9.783 9.224,-13.987 13.824,-16.159 7.319,-3.455 14.055,-2.028 16.839,-1.155 l 4.279,1.107 c 0,0 112.658,-6.999 112.657,-6.998 3.371,-2.059 7.073,-3.042 10.695,-3.288 4.749,-0.323 9.182,0.844 11.294,1.525 l 49.701,13.696 c 6.504,1.792 11.011,7.705 11.015,14.451 L 271,220.165 c 0.004,6.281 -3.906,11.9 -9.798,14.078 0,0 -34.474,12.733 -49.715,17.281 -9.586,2.861 -16.566,1.135 -21.703,-1.691 -8.774,-4.827 -12.29,-14.803 -13.522,-19.636 -21.838,-1.457 -64.057,-4.274 -64.057,-4.274 -11.399,4.23 -39.99,14.72 -54.802,19.127 -11.282,3.357 -18.99,1.024 -24.367,-2.42 -5.49,-3.516 -8.977,-8.87 -10.83,-14.292 -1.838,-5.379 -1.956,-10.573 -1.949,-12.035 z M 74.072,28.517 66.931,26.67 c 0,0 -8.029,-3.295 -12.295,8.167 -4.266,11.461 -9.516,42.321 -9.516,42.321 0,0 -5.98,39.19 -6.673,48.517 -0.693,9.327 -1.835,26.419 -2.451,35.004 -0.616,8.585 -0.739,55.663 -0.739,55.663 0,0 -0.589,19.822 17.868,14.331 16.124,-4.798 48.849,-16.938 56.865,-19.931 l 80.027,5.34 c 0.354,6.092 0.584,9.822 0.584,9.822 0,0 1.634,15.712 16.597,11.247 C 222.16,232.686 256,220.174 256,220.174 l -0.118,-187.38 -50.006,-13.78 c 0,0 -7.912,-3.195 -11.89,2.053 z"
   id="path3135" />

            </g>

            <path
   id="Left-panel"
   serif:id="Left panel"
   d="M 74.574,28.647 66.931,26.67 c 0,0 -8.029,-3.295 -12.295,8.167 -4.266,11.461 -9.516,42.321 -9.516,42.321 0,0 -5.98,39.19 -6.673,48.517 -0.693,9.327 -1.835,26.419 -2.451,35.004 -0.616,8.585 -0.739,55.663 -0.739,55.663 0,0 -0.589,19.822 17.868,14.331 18.458,-5.492 58.668,-20.606 58.668,-20.606 L 96.869,27.078 Z"
   style="fill:#e03333" />

            <path
   id="Front"
   d="m 194.047,21.064 -126.87,7.881 c 0,0 -4.85,0.23 -6.264,5.469 -1.414,5.238 -10.169,58.953 -12.818,73.543 -6.429,35.412 -4.876,98.33 -4.876,98.33 l 147.757,9.859 z"
   style="fill:#343128" />

            <path
   id="Right-panel"
   serif:id="Right panel"
   d="m 256,32.807 v 187.367 c 0,0 -33.84,12.512 -48.802,16.977 -14.963,4.465 -16.597,-11.247 -16.597,-11.247 0,0 -4.42,-71.401 -4.181,-99.634 0.238,-28.234 2.998,-74.616 2.998,-74.616 0,0 0.719,-13.356 2.583,-25.423 1.865,-12.067 13.875,-7.217 13.875,-7.217 z"
   style="fill:#e03333" />

        </g>

        <path
   id="Left-window"
   serif:id="Left window"
   d="m 60.46,59.901 c 0,0 -10.92,49.032 -11.836,85.524 4.803,0.228 30.536,0.33 30.536,0.33 0,0 1.299,-34.977 9.886,-86.784 -2.639,-0.33 -28.586,0.93 -28.586,0.93 z"
   style="fill:#a7e3f4" />

        <path
   id="Middle-window"
   serif:id="Middle window"
   d="m 103.793,58.128 c 0,0 -7.714,52.491 -8.629,88.983 4.803,0.228 32.157,0.348 32.157,0.348 0,0 0.782,-38.696 7.296,-90.677 -2.64,-0.33 -30.824,1.346 -30.824,1.346 z"
   style="fill:#a7e3f4" />

        <path
   id="Right-window"
   serif:id="Right window"
   d="m 150.439,55.67 c 0,0 -6.036,55.995 -6.952,92.487 4.803,0.228 36.331,0.545 36.331,0.545 0,0 1.069,-43.455 4.526,-93.948 -2.639,-0.33 -33.905,0.916 -33.905,0.916 z"
   style="fill:#a7e3f4" />

        <path
   id="Mouth-3"
   d="m 81.576,163.746 10.309,17.333 13.893,-17.303 17.209,17.255 20.5,-17.235"
   style="fill:none;stroke:#05aca8;stroke-width:8.98px" />

        <path
   id="Right-eye-9"
   serif:id="Right eye"
   d="m 172.151,124.862 v 5.288 c 0,5.556 -4.511,10.067 -10.067,10.067 -5.555,0 -10.066,-4.511 -10.066,-10.067 v -5.288 c 0,-5.556 4.511,-10.066 10.066,-10.066 5.556,0 10.067,4.51 10.067,10.066 z" />

        <path
   id="Left-eye-8"
   serif:id="Left eye"
   d="m 74.549,124.862 v 5.288 c 0,5.556 -4.511,10.067 -10.066,10.067 -5.556,0 -10.066,-4.511 -10.066,-10.067 v -5.288 c 0,-5.556 4.51,-10.066 10.066,-10.066 5.555,0 10.066,4.51 10.066,10.066 z" />

    </g>
      </g>
      <rect
         id="Front-panel"
         serif:id="Front panel"
         x="18.889"
         y="138.728"
         width="218.694"
         height="74.378998"
         style="fill:#9d1e1e" />
      <path
         d="m 242.584,138.728 v 74.379 c 0,2.761 -2.239,5 -5,5 H 18.889 c -2.761,0 -5,-2.239 -5,-5 v -74.379 c 0,-2.761 2.239,-5 5,-5 h 218.695 c 2.761,0 5,2.239 5,5 z m -5,0 H 18.889 v 74.379 h 218.695 z"
         id="path2906" />
      <g
         id="Panel-shadows"
         serif:id="Panel shadows">
        <path
   d="M 19.177,149.839 H 237.723"
   style="fill:none;stroke:#5d1111;stroke-width:3px;stroke-miterlimit:1.5"
   id="path2908" />

        <path
   d="M 19.177,167.793 H 237.723"
   style="fill:none;stroke:#5d1111;stroke-width:3px;stroke-miterlimit:1.5"
   id="path2910" />

        <path
   d="M 19.177,185.747 H 237.723"
   style="fill:none;stroke:#5d1111;stroke-width:3px;stroke-miterlimit:1.5"
   id="path2912" />

        <path
   d="M 19.177,203.7 H 237.723"
   style="fill:none;stroke:#5d1111;stroke-width:3px;stroke-miterlimit:1.5"
   id="path2914" />

    </g>
      <path
         id="Right-buffer"
         serif:id="Right buffer"
         d="m 249.624,199.404 v 6.663 h -5.116 v -6.663 z m 2.987,-6.831 v 20.324 h -1.635 v -20.324 z" />
      <path
         d="m 247.976,196.404 v -3.831 c 0,-1.657 1.343,-3 3,-3 h 1.635 c 1.657,0 3,1.343 3,3 v 20.324 c 0,1.657 -1.343,3 -3,3 h -1.635 c -1.657,0 -3,-1.343 -3,-3 v -3.83 h -3.468 c -1.656,0 -3,-1.344 -3,-3 v -6.663 c 0,-1.657 1.344,-3 3,-3 z m 4.635,-3.831 h -1.635 v 20.324 h 1.635 z m -2.987,6.831 h -5.116 v 6.663 h 5.116 z"
         id="path2918" />
      <path
         id="Left-buffer"
         serif:id="Left buffer"
         d="m 6.405,199.404 v 6.663 h 5.116 v -6.663 z m -2.986,-6.831 v 20.324 h 1.635 v -20.324 z" />
      <path
         d="m 8.054,196.404 h 3.467 c 1.657,0 3,1.343 3,3 v 6.663 c 0,1.656 -1.343,3 -3,3 H 8.054 v 3.83 c 0,1.657 -1.344,3 -3,3 H 3.419 c -1.657,0 -3,-1.343 -3,-3 v -20.324 c 0,-1.657 1.343,-3 3,-3 h 1.635 c 1.656,0 3,1.343 3,3 z m -4.635,-3.831 v 20.324 h 1.635 v -20.324 z m 2.986,6.831 v 6.663 h 5.116 v -6.663 z"
         id="path2921" />
    </g>
  </g>
</svg>
