<?xml version="1.0" encoding="UTF-8" standalone="no"?>
<!DOCTYPE svg PUBLIC "-//W3C//DTD SVG 1.1//EN" "http://www.w3.org/Graphics/SVG/1.1/DTD/svg11.dtd">
<svg width="100%" height="100%" viewBox="0 0 256 256" version="1.1" xmlns="http://www.w3.org/2000/svg" xmlns:xlink="http://www.w3.org/1999/xlink" xml:space="preserve" xmlns:serif="http://www.serif.com/" style="fill-rule:evenodd;clip-rule:evenodd;stroke-linecap:round;stroke-linejoin:round;stroke-miterlimit:1.5;">
    <rect id="neodlr_woozy" x="0" y="0" width="256" height="256" style="fill:none;"/>
    <clipPath id="_clip1">
        <rect x="0" y="0" width="256" height="256"/>
    </clipPath>
    <g clip-path="url(#_clip1)">
        <g id="Body">
            <path id="Outline" d="M74.911,13.956L188.276,6.393C188.276,6.393 192.577,4.233 194.901,3.701C197.288,3.155 200.034,2.9 202.597,3.117C205.363,3.351 211.493,5.105 211.493,5.105L209.856,4.552L259.98,18.345C266.489,20.136 271,26.056 271,32.807L271,220.174C271,226.452 267.09,232.066 261.202,234.243C261.202,234.243 226.728,246.976 211.487,251.524C207.211,252.8 203.07,252.82 200.284,252.883C198.42,252.925 196.525,252.413 194.775,251.905C193.045,251.402 191.336,250.747 189.784,249.833C188.034,248.802 185.81,247.162 184.275,245.719C182.853,244.382 181.484,242.906 180.579,241.176C179.224,238.588 176.736,232.899 176.149,230.19L112.205,225.923C100.806,230.153 72.215,240.643 57.403,245.05C52.488,246.512 47.939,246.498 44.807,246.537C42.698,246.563 40.569,245.935 38.607,245.284C36.654,244.636 34.718,243.813 33.036,242.63C31.08,241.255 28.382,238.713 26.874,237.033C25.688,235.71 24.77,233.996 23.992,232.547C23.271,231.204 22.687,229.747 22.206,228.338C20.368,222.959 20.25,217.765 20.257,216.303C20.257,216.303 20.407,168.35 21.035,159.605C21.651,151.011 22.795,133.901 23.489,124.563C24.198,115.016 30.291,74.896 30.291,74.896L30.332,74.642C30.332,74.642 36.036,41.809 40.578,29.605C42.161,25.35 44.121,22.245 46.088,19.913C46.088,19.913 48.6,17.238 49.986,16.161C51.35,15.1 52.832,14.167 54.402,13.446C56.03,12.699 58.071,12.048 59.75,11.679C61.295,11.339 62.958,11.231 64.475,11.231C65.943,11.232 67.408,11.435 68.856,11.679C70.48,11.954 74.911,13.956 74.911,13.956L74.081,28.543L66.931,26.67C66.931,26.67 58.902,23.375 54.636,34.837C50.37,46.298 45.12,77.158 45.12,77.158C45.12,77.158 39.14,116.348 38.447,125.675C37.754,135.002 36.612,152.094 35.996,160.679C35.38,169.264 35.257,216.342 35.257,216.342C35.257,216.342 34.668,236.164 53.125,230.673C69.249,225.875 101.974,213.735 109.99,210.742L190.017,216.082C190.371,222.174 190.601,225.904 190.601,225.904C190.601,225.904 192.235,241.616 207.198,237.151C222.16,232.686 256,220.174 256,220.174L256,32.807L205.876,19.014C205.876,19.014 197.964,15.819 193.986,21.067L74.081,28.543L74.911,13.956Z"/>
            <path id="Left-panel" serif:id="Left panel" d="M74.574,28.647L66.931,26.67C66.931,26.67 58.902,23.375 54.636,34.837C50.37,46.298 45.12,77.158 45.12,77.158C45.12,77.158 39.14,116.348 38.447,125.675C37.754,135.002 36.612,152.094 35.996,160.679C35.38,169.264 35.257,216.342 35.257,216.342C35.257,216.342 34.668,236.164 53.125,230.673C71.583,225.181 111.793,210.067 111.793,210.067L96.869,27.078L74.574,28.647Z" style="fill:rgb(224,51,51);"/>
            <path id="Front" d="M194.047,21.064L67.177,28.945C67.177,28.945 62.327,29.175 60.913,34.414C59.499,39.652 50.744,93.367 48.095,107.957C41.666,143.369 43.219,206.287 43.219,206.287L190.976,216.146L194.047,21.064Z" style="fill:rgb(52,49,40);"/>
            <path id="Right-panel" serif:id="Right panel" d="M256,32.807L256,220.174C256,220.174 222.16,232.686 207.198,237.151C192.235,241.616 190.601,225.904 190.601,225.904C190.601,225.904 186.181,154.503 186.42,126.27C186.658,98.036 189.418,51.654 189.418,51.654C189.418,51.654 190.137,38.298 192.001,26.231C193.866,14.164 205.876,19.014 205.876,19.014L256,32.807Z" style="fill:rgb(224,51,51);"/>
        </g>
        <path id="Left-window" serif:id="Left window" d="M60.46,59.901C60.46,59.901 49.54,108.933 48.624,145.425C53.427,145.653 79.16,145.755 79.16,145.755C79.16,145.755 80.459,110.778 89.046,58.971C86.407,58.641 60.46,59.901 60.46,59.901Z" style="fill:rgb(167,227,244);"/>
        <path id="Middle-window" serif:id="Middle window" d="M103.793,58.128C103.793,58.128 96.079,110.619 95.164,147.111C99.967,147.339 127.321,147.459 127.321,147.459C127.321,147.459 128.103,108.763 134.617,56.782C131.977,56.452 103.793,58.128 103.793,58.128Z" style="fill:rgb(167,227,244);"/>
        <path id="Right-window" serif:id="Right window" d="M150.439,55.67C150.439,55.67 144.403,111.665 143.487,148.157C148.29,148.385 179.818,148.702 179.818,148.702C179.818,148.702 180.887,105.247 184.344,54.754C181.705,54.424 150.439,55.67 150.439,55.67Z" style="fill:rgb(167,227,244);"/>
        <g id="Face">
            <path id="Mouth" d="M72.768,163.969C74.217,171.367 77.648,181.356 84.817,181.432C92.727,181.515 97.772,167.603 105.682,167.634C114.846,167.67 119.571,186.805 130.847,186.344C143.41,185.831 146.518,174.72 150.174,164.005" style="fill:none;stroke:rgb(5,172,168);stroke-width:10px;"/>
            <g id="Eyes">
                <path id="Right-eye" serif:id="Right eye" d="M176.359,135.793C175.104,142.156 169.488,146.96 162.76,146.96C155.109,146.96 148.898,140.749 148.898,133.099L148.898,127.159C148.898,126.172 149.002,125.208 149.198,124.279L176.359,135.793Z"/>
                <path id="Left-eye" serif:id="Left eye" d="M77.571,118.454C78.481,120.319 78.991,122.414 78.991,124.627L78.991,130.675C78.991,138.465 72.667,144.789 64.878,144.789C57.088,144.789 50.764,138.465 50.764,130.675L50.764,125.637L77.571,118.454Z"/>
            </g>
            <g id="Eyebrows">
                <path id="Right-eyebrow" serif:id="Right eyebrow" d="M175.523,109.947C175.523,109.947 164.281,114.379 152.308,102.099" style="fill:none;stroke:black;stroke-width:7.44px;"/>
                <path id="Left-eyebrow" serif:id="Left eyebrow" d="M55.832,110.636C55.832,110.636 60.684,99.569 77.832,99.841" style="fill:none;stroke:black;stroke-width:7.44px;"/>
            </g>
        </g>
    </g>
</svg>
