<?xml version="1.0" encoding="UTF-8" standalone="no"?>
<!DOCTYPE svg PUBLIC "-//W3C//DTD SVG 1.1//EN" "http://www.w3.org/Graphics/SVG/1.1/DTD/svg11.dtd">
<svg width="100%" height="100%" viewBox="0 0 256 256" version="1.1" xmlns="http://www.w3.org/2000/svg" xmlns:xlink="http://www.w3.org/1999/xlink" xml:space="preserve" xmlns:serif="http://www.serif.com/" style="fill-rule:evenodd;clip-rule:evenodd;stroke-linecap:round;stroke-linejoin:round;stroke-miterlimit:1.5;">
    <rect id="neodlr_hug_fox_heart" x="0" y="0" width="256" height="256" style="fill:none;"/>
    <clipPath id="_clip1">
        <rect x="0" y="0" width="256" height="256"/>
    </clipPath>
    <g clip-path="url(#_clip1)">
        <g id="DLR">
            <g id="Body">
                <g id="Outline">
                    <path d="M125.269,105.138L194.802,100.818C197.108,97.775 201.697,99.628 201.697,99.628L270.737,118.652L270.737,202.365C270.737,202.365 211.139,223.526 202.463,226.115C193.787,228.704 192.84,219.594 192.84,219.594C192.84,219.594 192.706,217.431 192.501,213.898L146.097,210.802C141.448,212.537 122.473,219.577 113.123,222.359C102.421,225.543 102.762,214.049 102.762,214.049C102.762,214.049 102.834,186.75 103.191,181.773C103.548,176.795 104.21,166.884 104.612,161.475C105.014,156.067 108.481,133.343 108.481,133.343C108.481,133.343 111.526,115.449 113.999,108.802C116.473,102.156 121.129,104.067 121.129,104.067L125.269,105.138Z" style="fill:rgb(224,51,51);"/>
                    <path d="M190.323,86.068L193.901,84.611L200.227,84.122L207.314,85.719L205.681,85.166L274.722,104.191C281.229,105.984 285.737,111.903 285.737,118.652L285.737,202.365C285.737,208.714 281.74,214.376 275.756,216.5C275.756,216.5 215.52,237.872 206.752,240.489L202.512,241.391L198.017,241.524L193.489,240.719L189.328,238.991L184.749,235.574L181.744,231.884L179.823,228.086C167.03,227.232 148.306,225.982 148.307,225.982C140.962,228.697 125.591,234.299 117.401,236.736L112.743,237.724L107.782,237.839L102.718,236.812L98.075,234.599L94.007,231.184L90.342,225.759L88.483,220.411L87.769,213.603L87.762,214.01C87.762,214.01 87.861,185.837 88.229,180.699C88.587,175.712 89.251,165.782 89.653,160.364C90.072,154.735 93.653,131.08 93.653,131.08C93.666,130.996 93.679,130.911 93.694,130.827C93.694,130.827 97.191,110.959 99.941,103.57L104.226,96.085L107.443,92.991L111.173,90.7L115.731,89.194L119.753,88.813L126.823,90.19L124.885,89.545L126.718,90.019L190.323,86.068ZM125.269,105.138L121.129,104.067C121.129,104.067 116.473,102.156 113.999,108.802C111.526,115.449 108.481,133.343 108.481,133.343C108.481,133.343 105.014,156.067 104.612,161.475C104.21,166.884 103.548,176.795 103.191,181.773C102.834,186.75 102.762,214.049 102.762,214.049C102.762,214.049 102.421,225.543 113.123,222.359C122.473,219.577 141.448,212.537 146.097,210.802L192.501,213.898C192.706,217.431 192.84,219.594 192.84,219.594C192.84,219.594 193.787,228.704 202.463,226.115C211.139,223.526 270.737,202.365 270.737,202.365L270.737,118.652L201.697,99.628C201.697,99.628 197.108,97.775 194.802,100.818L125.269,105.138Z"/>
                </g>
                <path id="Left-panel" serif:id="Left panel" d="M125.56,105.213L121.129,104.067C121.129,104.067 116.473,102.156 113.999,108.802C111.526,115.449 108.481,133.343 108.481,133.343C108.481,133.343 105.014,156.067 104.612,161.475C104.21,166.884 103.548,176.795 103.191,181.773C102.834,186.75 102.762,214.049 102.762,214.049C102.762,214.049 102.421,225.543 113.123,222.359C123.826,219.174 147.142,210.411 147.142,210.411L138.488,104.303L125.56,105.213Z" style="fill:rgb(224,51,51);"/>
                <path id="Front" d="M194.837,100.816L121.271,105.386C121.271,105.386 118.459,105.519 117.639,108.557C116.819,111.595 111.743,142.742 110.207,151.201C106.479,171.736 107.379,208.218 107.379,208.218L193.056,213.935L194.837,100.816Z" style="fill:rgb(52,49,40);"/>
                <path id="Right-panel" serif:id="Right panel" d="M270.737,118.626L270.37,202.492C270.37,202.492 211.139,223.526 202.463,226.115C193.787,228.704 192.84,219.594 192.84,219.594C192.84,219.594 190.276,178.192 190.415,161.82C190.553,145.449 192.154,118.554 192.154,118.554C192.154,118.554 192.57,110.809 193.651,103.812C194.732,96.815 201.697,99.628 201.697,99.628L270.737,118.626Z" style="fill:rgb(224,51,51);"/>
            </g>
            <path id="Left-window" serif:id="Left window" d="M117.376,123.336C117.376,123.336 111.044,151.767 110.513,172.928C113.299,173.06 128.219,173.119 128.219,173.119C128.219,173.119 128.973,152.837 133.952,122.797C132.422,122.606 117.376,123.336 117.376,123.336Z" style="fill:rgb(167,227,244);"/>
            <path id="Middle-window" serif:id="Middle window" d="M142.503,122.308C142.503,122.308 138.03,152.745 137.499,173.905C140.285,174.037 156.146,174.107 156.146,174.107C156.146,174.107 156.599,151.669 160.377,121.527C158.846,121.336 142.503,122.308 142.503,122.308Z" style="fill:rgb(167,227,244);"/>
            <path id="Right-window" serif:id="Right window" d="M169.551,120.882C169.551,120.882 166.051,153.351 165.52,174.512C168.305,174.644 186.587,174.828 186.587,174.828C186.587,174.828 187.206,149.63 189.211,120.352C187.681,120.16 169.551,120.882 169.551,120.882Z" style="fill:rgb(167,227,244);"/>
            <path id="Mouth" d="M129.62,183.551L135.598,193.602L143.654,183.568L153.633,193.574L165.52,183.58" style="fill:none;stroke:rgb(5,172,168);stroke-width:5.21px;"/>
            <path id="Eye" d="M184.791,158.299L184.791,162.628C184.791,167.175 181.099,170.867 176.551,170.867C172.003,170.867 168.311,167.175 168.311,162.628L168.311,158.299C168.311,153.751 172.003,150.059 176.551,150.059C181.099,150.059 184.791,153.751 184.791,158.299Z"/>
        </g>
        <g id="Fox">
            <path id="Outline1" serif:id="Outline" d="M153.067,92.416L154.418,94.987L155.458,98.649C156.063,101.764 156.66,109.011 156.023,118.698C155.375,128.549 153.606,145.447 151.741,153.396C155.311,162.829 157.418,173.852 157.021,184.966C156.444,201.099 151.239,209.359 141.32,222.738C130.091,237.883 104.998,240.542 104.998,240.542C104.871,240.551 104.744,240.559 104.617,240.565C104.617,240.565 64.327,242.42 51.364,240.981C40.03,239.722 31.383,239.177 19.527,228.458C7.915,217.96 6.164,206.105 5.719,184.15C5.455,171.151 7.934,159.859 9.596,153.832C8.69,151.153 7.816,148.352 7.2,145.904C5.216,138.024 4.217,125.945 4.149,117.964C4.111,113.6 4.428,109.991 4.907,107.194C6.006,99.404 8.705,92.943 10.091,91.096L13.029,87.708L17.027,84.729L21.823,82.87L26.834,82.397L30.896,83.053L35.585,84.995C40.22,87.447 48.392,93.612 51.579,96.158C52.923,97.231 55.142,98.898 57.965,101.226L59.108,99.969C62.997,94.834 69.731,92.756 75.838,94.806C77.507,95.366 79.027,96.2 80.355,97.248C88.826,93.618 96.422,92.444 98.766,92.444C102.584,92.444 113.388,94.375 113.388,94.375C113.849,94.463 114.304,94.572 114.752,94.702C117.744,91.629 120.531,88.973 122.112,87.957C124.601,86.359 126.126,85.271 127.989,84.507L132.44,83.244L136.673,82.924L142.726,83.804L147.363,85.982L150.479,88.63L153.067,92.416ZM153.067,92.416L152.778,91.867C153.01,92.21 153.232,92.56 153.423,92.937L153.067,92.416ZM21.222,172.713C18.337,171.374 15.944,169.145 14.403,166.367C16.296,169.852 18.854,171.778 21.209,172.839C20.845,176.238 20.636,179.951 20.715,183.846C21.048,200.233 20.919,209.495 29.587,217.331C38.254,225.167 44.734,225.152 53.019,226.072C65.404,227.448 103.891,225.583 103.891,225.583C103.891,225.583 121.504,224.28 129.27,213.804C137.037,203.329 141.579,197.061 142.031,184.43C142.423,173.444 139.806,162.568 135.701,153.993C136.11,153.156 136.508,152.17 136.866,151.01C138.728,144.98 140.412,127.498 141.055,117.713C141.699,107.928 140.994,101.218 140.352,100.268C139.709,99.317 139.725,97.948 136.56,97.924C133.394,97.9 132.711,98.978 130.217,100.579C127.723,102.181 121.79,108.999 117.828,113.401C116.315,115.081 112.977,118.97 109.427,123.137C104.309,123.561 100.751,124.666 99.122,125.269C98.735,125.506 98.395,125.648 98.115,125.677C98.115,125.677 98.459,125.515 99.122,125.269C103.075,122.848 111.9,110.556 110.575,109.109C110.575,109.109 101.853,107.444 98.766,107.444C95.679,107.444 79.687,110.564 70.981,122.365C71.071,119.142 71.065,109.026 71.065,109.026C71.065,109.026 63.136,119.493 58.367,121.854C58.398,121.887 58.436,121.929 58.481,121.979C51.039,114.455 44.83,109.965 42.217,107.878C38.805,105.152 28.8,97.483 26.265,97.386C24.382,97.315 23.365,98.398 22.089,100.098C21.299,101.152 20.335,105.034 19.731,109.494C19.345,111.656 19.119,114.443 19.148,117.835C19.208,124.805 20.014,135.361 21.746,142.243C23.36,148.658 26.98,157.763 27.463,158.968L25.14,154.272C25.14,154.272 22.787,160.795 21.506,170.366L16.484,167.243C17.99,168.803 19.745,170.093 21.409,171.118C21.347,171.609 21.288,172.108 21.233,172.614C18.556,171.393 16.223,169.382 14.62,166.72C16.161,169.329 18.468,171.424 21.223,172.706C21.223,172.709 21.222,172.711 21.222,172.713ZM67.621,132.229L67.64,132.25L67.616,132.251C67.618,132.243 67.62,132.236 67.621,132.229ZM27.543,159.099L27.535,159.114L27.528,159.1L27.543,159.099Z"/>
            <g id="Left-ear" serif:id="Left ear">
                <path id="Outer" d="M27.517,159.102C27.517,159.102 23.478,149.124 21.746,142.243C20.014,135.361 19.208,124.805 19.148,117.835C19.088,110.865 20.813,101.798 22.089,100.098C23.365,98.398 24.382,97.315 26.265,97.386C28.8,97.483 38.805,105.152 42.217,107.878C45.85,110.78 56.439,118.328 67.623,132.222C66.65,135.974 41.821,157.644 27.517,159.102Z" style="fill:rgb(42,42,42);"/>
                <path id="Inner" d="M27.517,159.102C27.517,159.102 23.478,149.124 21.746,142.243C20.014,135.361 19.208,124.805 19.148,117.835C19.088,110.865 20.105,106.454 21.38,104.753C22.656,103.053 23.573,103.092 25.456,103.005C27.338,102.919 34.404,108.005 36.786,111.664C39.168,115.323 43.424,124.727 46.312,127.276C49.2,129.825 54.518,132.748 58.491,132.481C57.519,136.233 41.821,157.644 27.517,159.102Z" style="fill:rgb(235,220,204);"/>
            </g>
            <path id="Right-ear" serif:id="Right ear" d="M97.375,137.362C97.375,137.362 113.865,117.803 117.828,113.401C121.79,108.999 127.723,102.181 130.217,100.579C132.711,98.978 133.394,97.9 136.56,97.924C139.725,97.948 139.709,99.317 140.352,100.268C140.994,101.218 141.699,107.928 141.055,117.713C140.412,127.498 138.728,144.98 136.866,151.01C135.004,157.041 132.065,158.384 132.065,158.384L97.375,137.362Z" style="fill:rgb(42,42,42);"/>
            <path id="Body1" serif:id="Body" d="M53.019,226.072C65.404,227.448 103.891,225.583 103.891,225.583C103.891,225.583 121.504,224.28 129.27,213.804C137.037,203.329 141.579,197.061 142.031,184.43C142.482,171.799 138.955,159.312 133.762,150.302C128.568,141.291 118.647,132.195 112.05,132.493C115.855,131.16 125.974,128.475 130.891,128.951C129.583,128.077 122.423,122.858 113.016,122.969C103.609,123.08 98.115,125.677 98.115,125.677C101.252,125.356 112.03,110.698 110.575,109.109C110.575,109.109 101.853,107.444 98.766,107.444C95.679,107.444 79.687,110.564 70.981,122.365C71.071,119.142 71.065,109.026 71.065,109.026C71.065,109.026 63.136,119.493 58.367,121.854C59.303,122.876 67.64,132.25 67.64,132.25L47.669,132.629L47.64,145.765L34.233,145.814L27.535,159.114L25.14,154.272C25.14,154.272 20.383,167.459 20.715,183.846C21.048,200.233 20.919,209.495 29.587,217.331C38.254,225.167 44.734,225.152 53.019,226.072Z" style="fill:rgb(247,150,91);"/>
            <g id="Face">
                <path id="Mouth1" serif:id="Mouth" d="M67.461,192.618L80.865,206.341L94.523,192.679L104.511,206.342L111.548,192.737" style="fill:none;stroke:black;stroke-width:8px;stroke-miterlimit:5;"/>
                <path id="Nose" d="M101.36,177.64C101.36,180.442 99.085,182.717 96.283,182.717L92.565,182.717C89.763,182.717 87.488,180.442 87.488,177.64C87.488,174.838 89.763,172.563 92.565,172.563L96.283,172.563C99.085,172.563 101.36,174.838 101.36,177.64Z" style="fill:rgb(50,18,11);"/>
                <g id="Eyes">
                    <path id="Right-eye" serif:id="Right eye" d="M100.885,155.182C102.786,160.745 107.396,162.503 110.892,162.534C114.823,162.569 119.053,161.369 121.734,154.7" style="fill:none;stroke:black;stroke-width:10px;"/>
                    <path id="Left-eye" serif:id="Left eye" d="M59.131,155.182C61.032,160.745 65.642,162.503 69.138,162.534C73.069,162.569 77.299,161.369 79.98,154.7" style="fill:none;stroke:black;stroke-width:10px;"/>
                </g>
            </g>
        </g>
        <path id="Arm" d="M205.178,212.327L138.382,212.327C130.153,212.327 123.473,205.646 123.473,197.418C123.473,189.332 130.037,182.768 138.122,182.768L205.178,182.768" style="fill:rgb(5,172,168);stroke:black;stroke-width:10px;stroke-linecap:butt;"/>
        <path id="Heart" d="M100.241,60.968L90.15,50.877C80.47,41.197 80.47,25.478 90.15,15.797C99.831,6.116 115.55,6.116 125.231,15.797L128,18.566L130.769,15.797C140.45,6.116 156.169,6.116 165.85,15.797C175.53,25.478 175.53,41.197 165.85,50.877L155.759,60.968C155.367,61.518 154.923,62.043 154.43,62.536L136.889,80.076C134.439,82.527 131.215,83.737 128,83.706C124.785,83.737 121.561,82.527 119.111,80.076L101.57,62.536C101.077,62.043 100.633,61.518 100.241,60.968Z" style="fill:rgb(239,124,148);stroke:black;stroke-width:15px;stroke-linejoin:miter;stroke-miterlimit:5;"/>
    </g>
</svg>
