<?xml version="1.0" encoding="UTF-8" standalone="no"?>
<!DOCTYPE svg PUBLIC "-//W3C//DTD SVG 1.1//EN" "http://www.w3.org/Graphics/SVG/1.1/DTD/svg11.dtd">
<svg width="100%" height="100%" viewBox="0 0 256 256" version="1.1" xmlns="http://www.w3.org/2000/svg" xmlns:xlink="http://www.w3.org/1999/xlink" xml:space="preserve" xmlns:serif="http://www.serif.com/" style="fill-rule:evenodd;clip-rule:evenodd;stroke-linecap:round;stroke-linejoin:round;stroke-miterlimit:1.5;">
    <rect id="neodlr_hug_bread_heart" x="0" y="0" width="256" height="256" style="fill:none;"/>
    <clipPath id="_clip1">
        <rect x="0" y="0" width="256" height="256"/>
    </clipPath>
    <g clip-path="url(#_clip1)">
        <g id="DLR">
            <g id="Body">
                <g id="Outline">
                    <path d="M125.269,105.138L194.802,100.818C197.108,97.775 201.697,99.628 201.697,99.628L270.737,118.652L270.737,202.365C270.737,202.365 211.139,223.526 202.463,226.115C193.787,228.704 192.84,219.594 192.84,219.594C192.84,219.594 192.706,217.431 192.501,213.898L146.097,210.802C141.448,212.537 122.473,219.577 113.123,222.359C102.421,225.543 102.762,214.049 102.762,214.049C102.762,214.049 102.834,186.75 103.191,181.773C103.548,176.795 104.21,166.884 104.612,161.475C105.014,156.067 108.481,133.343 108.481,133.343C108.481,133.343 111.526,115.449 113.999,108.802C116.473,102.156 121.129,104.067 121.129,104.067L125.269,105.138Z" style="fill:rgb(224,51,51);"/>
                    <path d="M190.323,86.068L193.901,84.611L200.227,84.122L207.314,85.719L205.681,85.166L274.722,104.191C281.229,105.984 285.737,111.903 285.737,118.652L285.737,202.365C285.737,208.714 281.74,214.376 275.756,216.5C275.756,216.5 215.52,237.872 206.752,240.489L202.512,241.391L198.017,241.524L193.489,240.719L189.328,238.991L184.749,235.574L181.744,231.884L179.823,228.086C167.03,227.232 148.306,225.982 148.307,225.982C140.962,228.697 125.591,234.299 117.401,236.736L112.743,237.724L107.782,237.839L102.718,236.812L98.075,234.599L94.007,231.184L90.342,225.759L88.483,220.411L87.769,213.603L87.762,214.01C87.762,214.01 87.861,185.837 88.229,180.699C88.587,175.712 89.251,165.782 89.653,160.364C90.072,154.735 93.653,131.08 93.653,131.08C93.666,130.996 93.679,130.911 93.694,130.827C93.694,130.827 97.191,110.959 99.941,103.57L104.226,96.085L107.443,92.991L111.173,90.7L115.731,89.194L119.753,88.813L126.823,90.19L124.885,89.545L126.718,90.019L190.323,86.068ZM125.269,105.138L121.129,104.067C121.129,104.067 116.473,102.156 113.999,108.802C111.526,115.449 108.481,133.343 108.481,133.343C108.481,133.343 105.014,156.067 104.612,161.475C104.21,166.884 103.548,176.795 103.191,181.773C102.834,186.75 102.762,214.049 102.762,214.049C102.762,214.049 102.421,225.543 113.123,222.359C122.473,219.577 141.448,212.537 146.097,210.802L192.501,213.898C192.706,217.431 192.84,219.594 192.84,219.594C192.84,219.594 193.787,228.704 202.463,226.115C211.139,223.526 270.737,202.365 270.737,202.365L270.737,118.652L201.697,99.628C201.697,99.628 197.108,97.775 194.802,100.818L125.269,105.138Z"/>
                </g>
                <path id="Left-panel" serif:id="Left panel" d="M125.56,105.213L121.129,104.067C121.129,104.067 116.473,102.156 113.999,108.802C111.526,115.449 108.481,133.343 108.481,133.343C108.481,133.343 105.014,156.067 104.612,161.475C104.21,166.884 103.548,176.795 103.191,181.773C102.834,186.75 102.762,214.049 102.762,214.049C102.762,214.049 102.421,225.543 113.123,222.359C123.826,219.174 147.142,210.411 147.142,210.411L138.488,104.303L125.56,105.213Z" style="fill:rgb(224,51,51);"/>
                <path id="Front" d="M194.837,100.816L121.271,105.386C121.271,105.386 118.459,105.519 117.639,108.557C116.819,111.595 111.743,142.742 110.207,151.201C106.479,171.736 107.379,208.218 107.379,208.218L193.056,213.935L194.837,100.816Z" style="fill:rgb(52,49,40);"/>
                <path id="Right-panel" serif:id="Right panel" d="M270.737,118.626L270.37,202.492C270.37,202.492 211.139,223.526 202.463,226.115C193.787,228.704 192.84,219.594 192.84,219.594C192.84,219.594 190.276,178.192 190.415,161.82C190.553,145.449 192.154,118.554 192.154,118.554C192.154,118.554 192.57,110.809 193.651,103.812C194.732,96.815 201.697,99.628 201.697,99.628L270.737,118.626Z" style="fill:rgb(224,51,51);"/>
            </g>
            <path id="Left-window" serif:id="Left window" d="M117.376,123.336C117.376,123.336 111.044,151.767 110.513,172.928C113.299,173.06 128.219,173.119 128.219,173.119C128.219,173.119 128.973,152.837 133.952,122.797C132.422,122.606 117.376,123.336 117.376,123.336Z" style="fill:rgb(167,227,244);"/>
            <path id="Middle-window" serif:id="Middle window" d="M142.503,122.308C142.503,122.308 138.03,152.745 137.499,173.905C140.285,174.037 156.146,174.107 156.146,174.107C156.146,174.107 156.599,151.669 160.377,121.527C158.846,121.336 142.503,122.308 142.503,122.308Z" style="fill:rgb(167,227,244);"/>
            <path id="Right-window" serif:id="Right window" d="M169.551,120.882C169.551,120.882 166.051,153.351 165.52,174.512C168.305,174.644 186.587,174.828 186.587,174.828C186.587,174.828 187.206,149.63 189.211,120.352C187.681,120.16 169.551,120.882 169.551,120.882Z" style="fill:rgb(167,227,244);"/>
            <path id="Mouth" d="M129.62,183.551L135.598,193.602L143.654,183.568L153.633,193.574L165.52,183.58" style="fill:none;stroke:rgb(5,172,168);stroke-width:5.21px;"/>
            <path id="Eye" d="M184.791,158.299L184.791,162.628C184.791,167.175 181.099,170.867 176.551,170.867C172.003,170.867 168.311,167.175 168.311,162.628L168.311,158.299C168.311,153.751 172.003,150.059 176.551,150.059C181.099,150.059 184.791,153.751 184.791,158.299Z"/>
        </g>
        <g id="Bread">
            <path id="Crust" d="M42.704,107.444C23.439,107.444 7.799,123.084 7.799,142.349C7.799,150.538 10.625,158.073 15.355,164.029L15.355,218.129C15.355,228.213 23.542,236.399 33.625,236.399L134.504,236.399C144.588,236.399 152.774,228.213 152.774,218.129L152.774,163.821C157.405,157.898 160.167,150.443 160.167,142.349C160.167,123.084 144.526,107.444 125.261,107.444L42.704,107.444Z" style="fill:rgb(209,160,132);stroke:black;stroke-width:15px;"/>
            <rect id="Shadow" x="23.324" y="162.33" width="64.273" height="9.723" style="fill:rgb(186,133,109);"/>
            <path id="Slice" d="M136.788,162.695C142.076,158.481 145.468,151.986 145.468,144.705C145.468,132.016 135.166,121.714 122.477,121.714L80.337,121.714C67.648,121.714 57.346,132.016 57.346,144.705C57.346,151.742 60.514,158.044 65.5,162.263L65.5,213.38C65.5,218.344 69.531,222.374 74.495,222.374L127.793,222.374C132.757,222.374 136.788,218.344 136.788,213.38L136.788,162.695Z" style="fill:rgb(252,233,186);"/>
            <g id="Face">
                <path id="Mouth1" serif:id="Mouth" d="M123.776,189.598L116.904,201.15L107.645,189.618L96.175,201.118L82.512,189.631" style="fill:none;stroke:black;stroke-width:6.38px;"/>
                <g id="Eyes">
                    <path id="Right-eye" serif:id="Right eye" d="M113.511,162.702C114.913,166.807 118.315,168.104 120.894,168.127C123.795,168.153 126.916,167.268 128.895,162.347" style="fill:none;stroke:black;stroke-width:7px;"/>
                    <path id="Left-eye" serif:id="Left eye" d="M79.796,162.702C81.199,166.807 84.601,168.104 87.18,168.127C90.081,168.153 93.202,167.268 95.181,162.347" style="fill:none;stroke:black;stroke-width:7px;"/>
                </g>
            </g>
        </g>
        <path id="Heart" d="M100.241,60.968L90.15,50.877C80.47,41.197 80.47,25.478 90.15,15.797C99.831,6.116 115.55,6.116 125.231,15.797L128,18.566L130.769,15.797C140.45,6.116 156.169,6.116 165.85,15.797C175.53,25.478 175.53,41.197 165.85,50.877L155.759,60.968C155.367,61.518 154.923,62.043 154.43,62.536L136.889,80.076C134.439,82.527 131.215,83.737 128,83.706C124.785,83.737 121.561,82.527 119.111,80.076L101.57,62.536C101.077,62.043 100.633,61.518 100.241,60.968Z" style="fill:rgb(239,124,148);stroke:black;stroke-width:15px;stroke-linejoin:miter;stroke-miterlimit:5;"/>
        <path id="Arm" d="M205.178,212.327L138.382,212.327C130.153,212.327 123.473,205.646 123.473,197.418C123.473,189.332 130.037,182.768 138.122,182.768L205.178,182.768" style="fill:rgb(5,172,168);stroke:black;stroke-width:10px;stroke-linecap:butt;"/>
    </g>
</svg>
