<svg xmlns="http://www.w3.org/2000/svg" version="1.1" viewBox="0 0 2048 2048">
   <g id="g2971" stroke-linejoin="round" transform="scale(8)">
      <rect id="neodlr_train_wagon" width="256" height="256" x="0" y="0" fill="none"/>
      <path id="Wagon-outline" d="M206 224a23 23 0 1 1-44 0H93a23 23 0 1 1-44 0H20c-4 0-8-4-8-8v-78c0-5 4-8 8-8h216c4 0 8 3 8 8v78c0 4-4 8-8 8zm-22-8a15 15 0 1 0 0 29 15 15 0 0 0 0-29zm52 0v-78H20v78zm-165 0a15 15 0 1 0 0 29 15 15 0 0 0 0-29z"/>
      <path id="path2867" d="m208 226 1 4a25 25 0 1 1-49-4H95a25 25 0 1 1-48 0H20c-5 0-10-5-10-10v-78c0-6 5-10 10-10h216c5 0 10 4 10 10v78c0 5-5 10-10 10zm-24-10a15 15 0 1 0 0 29 15 15 0 0 0 0-29zm52 0v-78H20v78zm-165 0a15 15 0 1 0 0 29 15 15 0 0 0 0-29z"/>
      <g id="Right-wheel">
        <path id="path2869" d="M184 208a23 23 0 1 1 0 45 23 23 0 0 1 0-45zm0 8a15 15 0 1 0 0 29 15 15 0 0 0 0-29z"/>
        <circle id="circle2871" cx="183.9" cy="230.4" r="14.7" fill="none" stroke="#d42c00" stroke-width="5"/>
        <path id="path2873" fill="none" stroke="#d42c00" stroke-linecap="round" stroke-miterlimit="1.5" stroke-width="5" d="M184 216v29"/>
        <path id="path2875" fill="none" stroke="#d42c00" stroke-linecap="round" stroke-miterlimit="1.5" stroke-width="5" d="m171 223 26 15"/>
        <path id="path2877" fill="none" stroke="#d42c00" stroke-linecap="round" stroke-miterlimit="1.5" stroke-width="5" d="m171 238 26-15"/>
      </g>
      <g id="Left-wheel">
        <path id="path2880" d="M71 208a23 23 0 1 1 0 45 23 23 0 0 1 0-45zm0 8a15 15 0 1 0 0 29 15 15 0 0 0 0-29z"/>
        <circle id="circle2882" cx="71.1" cy="230.4" r="14.7" fill="none" stroke="#d42c00" stroke-width="5"/>
        <path id="path2884" fill="none" stroke="#d42c00" stroke-linecap="round" stroke-miterlimit="1.5" stroke-width="5" d="M71 216v29"/>
        <path id="path2886" fill="none" stroke="#d42c00" stroke-linecap="round" stroke-miterlimit="1.5" stroke-width="5" d="m58 223 26 15"/>
        <path id="path2888" fill="none" stroke="#d42c00" stroke-linecap="round" stroke-miterlimit="1.5" stroke-width="5" d="m58 238 26-15"/>
      </g>
      <path id="Coal" fill="#1f1e1e" stroke="#000" stroke-linecap="round" stroke-miterlimit="1.5" stroke-width="3" d="M18 144h1l-1-1a8 8 0 0 1 9-9l-2-6a10 10 0 0 1 15-8l1-2a10 10 0 0 1 18-8 10 10 0 0 1 2 0h1a10 10 0 0 1 14-4 8 8 0 0 1 11-5 10 10 0 0 1 14-4h0l6 2a8 8 0 0 1 11-5 10 10 0 0 1 11-5 10 10 0 0 1 19-2l3-1c4 0 7 2 8 6l5-2c5 0 9 4 10 8a10 10 0 0 1 15 3 8 8 0 0 1 12 5l5-2a10 10 0 0 1 8 16s0 0 0 0a8 8 0 0 1 8 10h2c5 0 9 4 9 8 0 3-5 18-7 19l-20 5-2 5s-47 14-63 1h0c-10 2-42 10-57 2l-5 1-1 2c-14 10-49 2-60-1z"/>
      <g id="g3173" fill-rule="evenodd" stroke-linecap="round" stroke-linejoin="round" stroke-miterlimit="1.5" clip-rule="evenodd" transform="translate(47 16) scale(.57447)">
      <g id="g3148" clip-path="url(#_clip1)">
         <g id="Body-6">
         <g id="Outline-7">
            <path id="path3133" fill="#e03333" d="m74 29 120-8c4-5 12-2 12-2l50 14v187s-34 13-49 17c-15 5-16-11-16-11l-1-10-80-5-57 20c-18 5-18-15-18-15l1-55 2-35 7-49s5-31 10-42c4-12 12-8 12-8z"/>
            <path id="path3135" d="m20 216 1-56 2-35 7-50s6-33 11-45c3-10 9-14 13-17 8-3 14-2 17-1l5 1 112-7c4-2 7-3 11-3l11 2 50 13c6 2 11 8 11 15v187c0 6-4 12-10 14l-50 18c-9 2-16 1-21-2-9-5-13-15-14-20l-64-4c-11 4-40 15-55 19-11 3-19 1-24-2-5-4-9-9-11-15-2-5-2-10-2-12zM74 29l-7-2s-8-4-12 8c-5 11-10 42-10 42l-7 49-2 35-1 55s0 20 18 15l57-20 80 5 1 10s1 16 16 11c15-4 49-17 49-17V33l-50-14s-8-3-12 2z"/>
         </g>
         <path id="Left-panel" fill="#e03333" d="m75 29-8-2s-8-4-12 8c-5 11-10 42-10 42l-7 49-2 35-1 55s0 20 18 15l59-21L97 27Z"/>
         <path id="Front" fill="#343128" d="M194 21 67 29s-5 0-6 5l-13 74c-6 35-5 98-5 98l148 10z"/>
         <path id="Right-panel" fill="#e03333" d="M256 33v187s-34 13-49 17c-15 5-16-11-16-11s-5-71-5-100l3-74 3-26c2-12 14-7 14-7z"/>
         </g>
         <path id="Left-window" fill="#a7e3f4" d="M60 60s-10 49-11 85l30 1s1-35 10-87l-29 1z"/>
         <path id="Middle-window" fill="#a7e3f4" d="M104 58s-8 53-9 89h32s1-38 8-90c-3-1-31 1-31 1z"/>
         <path id="Right-window" fill="#a7e3f4" d="M150 56s-6 56-7 92l37 1 4-94c-2-1-34 1-34 1z"/>
         <path id="Mouth-3" fill="none" stroke="#05aca8" stroke-width="9" d="m82 164 10 17 14-17 17 17 20-17"/>
         <path id="Right-eye-9" d="M172 125v5a10 10 0 0 1-20 0v-5a10 10 0 0 1 20 0z"/>
         <path id="Left-eye-8" d="M75 125v5a10 10 0 0 1-21 0v-5a10 10 0 0 1 21 0z"/>
      </g>
   </g>
   <rect id="Front-panel" width="218.7" height="74.4" x="19" y="139" fill="#9d1e1e"/>
   <path id="path2906" d="M243 139v74c0 3-3 5-5 5H19c-3 0-5-2-5-5v-74c0-3 2-5 5-5h219c2 0 5 2 5 5zm-5 0H19v74h219z"/>
   <g id="Panel-shadows" fill="none" stroke="#5d1111" stroke-miterlimit="1.5" stroke-width="3">
      <path id="path2908" d="M19 150h219"/>
      <path id="path2910" d="M19 168h219"/>
      <path id="path2912" d="M19 186h219"/>
      <path id="path2914" d="M19 204h219"/>
   </g>
   <path id="Right-buffer" d="M250 199v7h-5v-7zm3-6v20h-2v-20z"/>
   <path id="path2918" d="M248 196v-3c0-2 1-3 3-3h2c1 0 3 1 3 3v20c0 2-2 3-3 3h-2c-2 0-3-1-3-3v-4h-3c-2 0-3-1-3-3v-7c0-1 1-3 3-3zm5-3h-2v20h2zm-3 6h-5v7h5z"/>
   <path id="Left-buffer" d="M6 199v7h6v-7zm-3-6v20h2v-20z"/>
   <path id="path2921" d="M8 196h4l3 3v7c0 2-2 3-3 3H8v4c0 2-1 3-3 3H3c-1 0-3-1-3-3v-20c0-2 2-3 3-3h2c2 0 3 1 3 3zm-5-3v20h2v-20zm3 6v7h6v-7z"/>
   </g>
</svg>
