<?xml version="1.0" encoding="UTF-8" standalone="no"?>
<!DOCTYPE svg PUBLIC "-//W3C//DTD SVG 1.1//EN" "http://www.w3.org/Graphics/SVG/1.1/DTD/svg11.dtd">
<svg width="100%" height="100%" viewBox="0 0 256 256" version="1.1" xmlns="http://www.w3.org/2000/svg" xmlns:xlink="http://www.w3.org/1999/xlink" xml:space="preserve" xmlns:serif="http://www.serif.com/" style="fill-rule:evenodd;clip-rule:evenodd;stroke-linecap:round;stroke-linejoin:round;stroke-miterlimit:1.5;">
    <rect id="neodlr_hug_dog" x="0" y="0" width="256" height="256" style="fill:none;"/>
    <clipPath id="_clip1">
        <rect x="0" y="0" width="256" height="256"/>
    </clipPath>
    <g clip-path="url(#_clip1)">
        <g id="DLR">
            <g id="Body">
                <g id="Outline">
                    <path d="M125.269,105.138L194.802,100.818C197.108,97.775 201.697,99.628 201.697,99.628L270.737,118.652L270.737,202.365C270.737,202.365 211.139,223.526 202.463,226.115C193.787,228.704 192.84,219.594 192.84,219.594C192.84,219.594 192.706,217.431 192.501,213.898L146.097,210.802C141.448,212.537 122.473,219.577 113.123,222.359C102.421,225.543 102.762,214.049 102.762,214.049C102.762,214.049 102.834,186.75 103.191,181.773C103.548,176.795 104.21,166.884 104.612,161.475C105.014,156.067 108.481,133.343 108.481,133.343C108.481,133.343 111.526,115.449 113.999,108.802C116.473,102.156 121.129,104.067 121.129,104.067L125.269,105.138Z" style="fill:rgb(224,51,51);"/>
                    <path d="M190.323,86.068L193.901,84.611L200.227,84.122L207.314,85.719L205.681,85.166L274.722,104.191C281.229,105.984 285.737,111.903 285.737,118.652L285.737,202.365C285.737,208.714 281.74,214.376 275.756,216.5C275.756,216.5 215.52,237.872 206.752,240.489L202.512,241.391L198.017,241.524L193.489,240.719L189.328,238.991L184.749,235.574L181.744,231.884L179.823,228.086C167.03,227.232 148.306,225.982 148.307,225.982C140.962,228.697 125.591,234.299 117.401,236.736L112.743,237.724L107.782,237.839L102.718,236.812L98.075,234.599L94.007,231.184L90.342,225.759L88.483,220.411L87.769,213.603L87.762,214.01C87.762,214.01 87.861,185.837 88.229,180.699C88.587,175.712 89.251,165.782 89.653,160.364C90.072,154.735 93.653,131.08 93.653,131.08C93.666,130.996 93.679,130.911 93.694,130.827C93.694,130.827 97.191,110.959 99.941,103.57L104.226,96.085L107.443,92.991L111.173,90.7L115.731,89.194L119.753,88.813L126.823,90.19L124.885,89.545L126.718,90.019L190.323,86.068ZM125.269,105.138L121.129,104.067C121.129,104.067 116.473,102.156 113.999,108.802C111.526,115.449 108.481,133.343 108.481,133.343C108.481,133.343 105.014,156.067 104.612,161.475C104.21,166.884 103.548,176.795 103.191,181.773C102.834,186.75 102.762,214.049 102.762,214.049C102.762,214.049 102.421,225.543 113.123,222.359C122.473,219.577 141.448,212.537 146.097,210.802L192.501,213.898C192.706,217.431 192.84,219.594 192.84,219.594C192.84,219.594 193.787,228.704 202.463,226.115C211.139,223.526 270.737,202.365 270.737,202.365L270.737,118.652L201.697,99.628C201.697,99.628 197.108,97.775 194.802,100.818L125.269,105.138Z"/>
                </g>
                <path id="Left-panel" serif:id="Left panel" d="M125.56,105.213L121.129,104.067C121.129,104.067 116.473,102.156 113.999,108.802C111.526,115.449 108.481,133.343 108.481,133.343C108.481,133.343 105.014,156.067 104.612,161.475C104.21,166.884 103.548,176.795 103.191,181.773C102.834,186.75 102.762,214.049 102.762,214.049C102.762,214.049 102.421,225.543 113.123,222.359C123.826,219.174 147.142,210.411 147.142,210.411L138.488,104.303L125.56,105.213Z" style="fill:rgb(224,51,51);"/>
                <path id="Front" d="M194.837,100.816L121.271,105.386C121.271,105.386 118.459,105.519 117.639,108.557C116.819,111.595 111.743,142.742 110.207,151.201C106.479,171.736 107.379,208.218 107.379,208.218L193.056,213.935L194.837,100.816Z" style="fill:rgb(52,49,40);"/>
                <path id="Right-panel" serif:id="Right panel" d="M270.737,118.626L270.37,202.492C270.37,202.492 211.139,223.526 202.463,226.115C193.787,228.704 192.84,219.594 192.84,219.594C192.84,219.594 190.276,178.192 190.415,161.82C190.553,145.449 192.154,118.554 192.154,118.554C192.154,118.554 192.57,110.809 193.651,103.812C194.732,96.815 201.697,99.628 201.697,99.628L270.737,118.626Z" style="fill:rgb(224,51,51);"/>
            </g>
            <path id="Left-window" serif:id="Left window" d="M117.376,123.336C117.376,123.336 111.044,151.767 110.513,172.928C113.299,173.06 128.219,173.119 128.219,173.119C128.219,173.119 128.973,152.837 133.952,122.797C132.422,122.606 117.376,123.336 117.376,123.336Z" style="fill:rgb(167,227,244);"/>
            <path id="Middle-window" serif:id="Middle window" d="M142.503,122.308C142.503,122.308 138.03,152.745 137.499,173.905C140.285,174.037 156.146,174.107 156.146,174.107C156.146,174.107 156.599,151.669 160.377,121.527C158.846,121.336 142.503,122.308 142.503,122.308Z" style="fill:rgb(167,227,244);"/>
            <path id="Right-window" serif:id="Right window" d="M169.551,120.882C169.551,120.882 166.051,153.351 165.52,174.512C168.305,174.644 186.587,174.828 186.587,174.828C186.587,174.828 187.206,149.63 189.211,120.352C187.681,120.16 169.551,120.882 169.551,120.882Z" style="fill:rgb(167,227,244);"/>
            <path id="Mouth" d="M129.62,183.551L135.598,193.602L143.654,183.568L153.633,193.574L165.52,183.58" style="fill:none;stroke:rgb(5,172,168);stroke-width:5.21px;"/>
            <path id="Eye" d="M184.791,158.299L184.791,162.628C184.791,167.175 181.099,170.867 176.551,170.867C172.003,170.867 168.311,167.175 168.311,162.628L168.311,158.299C168.311,153.751 172.003,150.059 176.551,150.059C181.099,150.059 184.791,153.751 184.791,158.299Z"/>
        </g>
        <g id="Dog">
            <path id="Body1" serif:id="Body" d="M137.707,173.577L137.707,189.231C137.707,209.843 120.972,226.578 100.36,226.578L46.07,226.578C31.36,226.578 19.417,214.636 19.417,199.926L19.417,173.497C19.417,143.954 43.402,119.969 72.945,119.969L84.099,119.969C113.686,119.969 137.707,143.99 137.707,173.577Z" style="fill:rgb(243,192,123);"/>
            <path d="M152.707,173.577L152.707,189.231C152.707,218.122 129.251,241.578 100.36,241.578L46.07,241.578C23.081,241.578 4.417,222.914 4.417,199.926L4.417,173.497C4.417,135.676 35.124,104.969 72.945,104.969L84.099,104.969C121.965,104.969 152.707,135.712 152.707,173.577ZM137.707,173.577C137.707,143.99 113.686,119.969 84.099,119.969L72.945,119.969C43.402,119.969 19.417,143.954 19.417,173.497L19.417,199.926C19.417,214.636 31.36,226.578 46.07,226.578L100.36,226.578C120.972,226.578 137.707,209.843 137.707,189.231L137.707,173.577Z"/>
            <path id="Snoot" d="M116.47,191.696C116.47,202.429 107.756,211.142 97.024,211.142L77.89,211.142C67.157,211.142 58.444,202.429 58.444,191.696C58.444,180.963 67.157,172.249 77.89,172.249L97.024,172.249C107.756,172.249 116.47,180.963 116.47,191.696Z" style="fill:rgb(255,221,166);"/>
            <g id="Face">
                <path id="Mouth1" serif:id="Mouth" d="M64.793,192.595L78.771,206.906L91.499,193.39L101.462,206.06L107.933,193.064" style="fill:none;stroke:rgb(55,39,12);stroke-width:10px;stroke-miterlimit:5;"/>
                <path id="Nose" d="M88.378,182.834C85.974,181.952 84.322,180.127 84.322,178.02C84.322,175.052 87.604,172.642 91.646,172.642C95.688,172.642 98.97,175.052 98.97,178.02C98.97,180.122 97.325,181.944 94.929,182.828L94.929,192.595L88.378,192.595L88.378,182.834Z" style="fill:rgb(55,39,12);"/>
                <g id="Eyes">
                    <path id="Right-eye" serif:id="Right eye" d="M97.634,155.592C99.568,161.255 104.262,163.045 107.82,163.077C111.822,163.113 116.128,161.891 118.858,155.102" style="fill:none;stroke:black;stroke-width:12px;"/>
                    <path id="Left-eye" serif:id="Left eye" d="M55.041,156.068C57.208,162.41 62.464,164.414 66.449,164.45C70.931,164.49 75.754,163.122 78.811,155.519" style="fill:none;stroke:black;stroke-width:12px;"/>
                </g>
            </g>
            <path id="Right-ear" serif:id="Right ear" d="M145.639,109.099L145.639,162.376C145.639,162.376 143.154,168.97 139.86,164.067C136.566,159.164 103.253,109.489 103.253,109.489C103.253,109.489 99.94,103.165 106.447,104.009C112.955,104.853 118.313,107.5 124.448,107.462C130.583,107.425 140.422,105.382 140.422,105.382C140.422,105.382 145.936,104.315 145.639,109.099Z" style="fill:rgb(109,69,52);"/>
            <path d="M160.61,110.028L160.639,109.099L160.639,162.376C160.639,164.183 160.313,165.975 159.676,167.665L156.84,172.989L152.659,177.354L148.508,179.698L144.613,180.723L139.818,180.69L135.305,179.341L131.191,176.712L127.409,172.432C124.115,167.528 90.795,117.844 90.795,117.844C90.494,117.394 90.217,116.929 89.966,116.45L87.811,110.339L87.594,103.784L89.025,98.926L91.182,95.441L94.565,92.243L98.453,90.161L102.872,89.077L108.377,89.133C114.172,89.885 118.892,92.496 124.356,92.463C129.359,92.432 137.373,90.695 137.373,90.695C137.439,90.682 137.505,90.668 137.57,90.656L142.41,90.293L146.411,90.806L151.023,92.503L154.511,94.889L157.388,98.097L159.467,102.06L160.488,106.191L160.61,110.028ZM145.639,109.099C145.936,104.315 140.422,105.382 140.422,105.382C140.422,105.382 130.583,107.425 124.448,107.462C118.313,107.5 112.955,104.853 106.447,104.009C99.94,103.165 103.253,109.489 103.253,109.489C103.253,109.489 136.566,159.164 139.86,164.067C143.154,168.97 145.639,162.376 145.639,162.376L145.639,109.099Z"/>
            <path id="Left-ear" serif:id="Left ear" d="M18.321,109.099L18.321,162.376C18.321,162.376 20.806,168.97 24.1,164.067C27.394,159.164 60.707,109.489 60.707,109.489C60.707,109.489 64.02,103.165 57.513,104.009C51.006,104.853 45.648,107.5 39.512,107.462C33.377,107.425 23.539,105.382 23.539,105.382C23.539,105.382 18.024,104.315 18.321,109.099Z" style="fill:rgb(109,69,52);"/>
            <path d="M3.321,109.099L3.35,110.028L3.472,106.191L4.493,102.06L6.572,98.097L9.45,94.889L12.937,92.503L17.55,90.806L21.55,90.293L26.39,90.656C26.456,90.668 26.522,90.682 26.588,90.695C26.588,90.695 34.601,92.432 39.605,92.463C45.068,92.496 49.789,89.885 55.584,89.133L61.089,89.077L65.508,90.161L69.396,92.243L72.778,95.441L74.935,98.926L76.367,103.784L76.15,110.339L73.995,116.45C73.743,116.929 73.467,117.394 73.165,117.844C73.165,117.844 39.846,167.528 36.551,172.432L32.769,176.712L28.655,179.341L24.143,180.69L19.347,180.723L15.453,179.698L11.301,177.354L7.121,172.989L4.285,167.665C3.648,165.975 3.321,164.183 3.321,162.376L3.321,109.099ZM18.321,109.099L18.321,162.376C18.321,162.376 20.806,168.97 24.1,164.067C27.394,159.164 60.707,109.489 60.707,109.489C60.707,109.489 64.02,103.165 57.513,104.009C51.006,104.853 45.648,107.5 39.512,107.462C33.377,107.425 23.539,105.382 23.539,105.382C23.539,105.382 18.024,104.315 18.321,109.099Z"/>
        </g>
        <path id="Arm" d="M205.178,212.327L138.382,212.327C130.153,212.327 123.473,205.646 123.473,197.418C123.473,189.332 130.037,182.768 138.122,182.768L205.178,182.768" style="fill:rgb(5,172,168);stroke:black;stroke-width:10px;stroke-linecap:butt;"/>
    </g>
</svg>
