<?xml version="1.0" encoding="UTF-8" standalone="no"?>
<!DOCTYPE svg PUBLIC "-//W3C//DTD SVG 1.1//EN" "http://www.w3.org/Graphics/SVG/1.1/DTD/svg11.dtd">
<svg width="100%" height="100%" viewBox="0 0 256 256" version="1.1" xmlns="http://www.w3.org/2000/svg" xmlns:xlink="http://www.w3.org/1999/xlink" xml:space="preserve" xmlns:serif="http://www.serif.com/" style="fill-rule:evenodd;clip-rule:evenodd;stroke-linecap:round;stroke-linejoin:round;stroke-miterlimit:1.5;">
    <rect id="neodlr_hug_neomouse" x="0" y="0" width="256" height="256" style="fill:none;"/>
    <clipPath id="_clip1">
        <rect x="0" y="0" width="256" height="256"/>
    </clipPath>
    <g clip-path="url(#_clip1)">
        <g id="DLR">
            <g id="Body">
                <g id="Outline">
                    <path d="M125.269,105.138L194.802,100.818C197.108,97.775 201.697,99.628 201.697,99.628L270.737,118.652L270.737,202.365C270.737,202.365 211.139,223.526 202.463,226.115C193.787,228.704 192.84,219.594 192.84,219.594C192.84,219.594 192.706,217.431 192.501,213.898L146.097,210.802C141.448,212.537 122.473,219.577 113.123,222.359C102.421,225.543 102.762,214.049 102.762,214.049C102.762,214.049 102.834,186.75 103.191,181.773C103.548,176.795 104.21,166.884 104.612,161.475C105.014,156.067 108.481,133.343 108.481,133.343C108.481,133.343 111.526,115.449 113.999,108.802C116.473,102.156 121.129,104.067 121.129,104.067L125.269,105.138Z" style="fill:rgb(224,51,51);"/>
                    <path d="M190.323,86.068L193.901,84.611L200.227,84.122L207.314,85.719L205.681,85.166L274.722,104.191C281.229,105.984 285.737,111.903 285.737,118.652L285.737,202.365C285.737,208.714 281.74,214.376 275.756,216.5C275.756,216.5 215.52,237.872 206.752,240.489L202.512,241.391L198.017,241.524L193.489,240.719L189.328,238.991L184.749,235.574L181.744,231.884L179.823,228.086C167.03,227.232 148.306,225.982 148.307,225.982C140.962,228.697 125.591,234.299 117.401,236.736L112.743,237.724L107.782,237.839L102.718,236.812L98.075,234.599L94.007,231.184L90.342,225.759L88.483,220.411L87.769,213.603L87.762,214.01C87.762,214.01 87.861,185.837 88.229,180.699C88.587,175.712 89.251,165.782 89.653,160.364C90.072,154.735 93.653,131.08 93.653,131.08C93.666,130.996 93.679,130.911 93.694,130.827C93.694,130.827 97.191,110.959 99.941,103.57L104.226,96.085L107.443,92.991L111.173,90.7L115.731,89.194L119.753,88.813L126.823,90.19L124.885,89.545L126.718,90.019L190.323,86.068ZM125.269,105.138L121.129,104.067C121.129,104.067 116.473,102.156 113.999,108.802C111.526,115.449 108.481,133.343 108.481,133.343C108.481,133.343 105.014,156.067 104.612,161.475C104.21,166.884 103.548,176.795 103.191,181.773C102.834,186.75 102.762,214.049 102.762,214.049C102.762,214.049 102.421,225.543 113.123,222.359C122.473,219.577 141.448,212.537 146.097,210.802L192.501,213.898C192.706,217.431 192.84,219.594 192.84,219.594C192.84,219.594 193.787,228.704 202.463,226.115C211.139,223.526 270.737,202.365 270.737,202.365L270.737,118.652L201.697,99.628C201.697,99.628 197.108,97.775 194.802,100.818L125.269,105.138Z"/>
                </g>
                <path id="Left-panel" serif:id="Left panel" d="M125.56,105.213L121.129,104.067C121.129,104.067 116.473,102.156 113.999,108.802C111.526,115.449 108.481,133.343 108.481,133.343C108.481,133.343 105.014,156.067 104.612,161.475C104.21,166.884 103.548,176.795 103.191,181.773C102.834,186.75 102.762,214.049 102.762,214.049C102.762,214.049 102.421,225.543 113.123,222.359C123.826,219.174 147.142,210.411 147.142,210.411L138.488,104.303L125.56,105.213Z" style="fill:rgb(224,51,51);"/>
                <path id="Front" d="M194.837,100.816L121.271,105.386C121.271,105.386 118.459,105.519 117.639,108.557C116.819,111.595 111.743,142.742 110.207,151.201C106.479,171.736 107.379,208.218 107.379,208.218L193.056,213.935L194.837,100.816Z" style="fill:rgb(52,49,40);"/>
                <path id="Right-panel" serif:id="Right panel" d="M270.737,118.626L270.37,202.492C270.37,202.492 211.139,223.526 202.463,226.115C193.787,228.704 192.84,219.594 192.84,219.594C192.84,219.594 190.276,178.192 190.415,161.82C190.553,145.449 192.154,118.554 192.154,118.554C192.154,118.554 192.57,110.809 193.651,103.812C194.732,96.815 201.697,99.628 201.697,99.628L270.737,118.626Z" style="fill:rgb(224,51,51);"/>
            </g>
            <path id="Left-window" serif:id="Left window" d="M117.376,123.336C117.376,123.336 111.044,151.767 110.513,172.928C113.299,173.06 128.219,173.119 128.219,173.119C128.219,173.119 128.973,152.837 133.952,122.797C132.422,122.606 117.376,123.336 117.376,123.336Z" style="fill:rgb(167,227,244);"/>
            <path id="Middle-window" serif:id="Middle window" d="M142.503,122.308C142.503,122.308 138.03,152.745 137.499,173.905C140.285,174.037 156.146,174.107 156.146,174.107C156.146,174.107 156.599,151.669 160.377,121.527C158.846,121.336 142.503,122.308 142.503,122.308Z" style="fill:rgb(167,227,244);"/>
            <path id="Right-window" serif:id="Right window" d="M169.551,120.882C169.551,120.882 166.051,153.351 165.52,174.512C168.305,174.644 186.587,174.828 186.587,174.828C186.587,174.828 187.206,149.63 189.211,120.352C187.681,120.16 169.551,120.882 169.551,120.882Z" style="fill:rgb(167,227,244);"/>
            <path id="Mouth" d="M129.62,183.551L135.598,193.602L143.654,183.568L153.633,193.574L165.52,183.58" style="fill:none;stroke:rgb(5,172,168);stroke-width:5.21px;"/>
            <path id="Eye" d="M184.791,158.299L184.791,162.628C184.791,167.175 181.099,170.867 176.551,170.867C172.003,170.867 168.311,167.175 168.311,162.628L168.311,158.299C168.311,153.751 172.003,150.059 176.551,150.059C181.099,150.059 184.791,153.751 184.791,158.299Z"/>
        </g>
        <g id="Mouse">
            <path id="Body1" serif:id="Body" d="M151.091,182.202L151.091,189.992C151.091,193.712 150.574,197.307 149.628,200.718C149.628,200.721 149.628,200.723 149.627,200.726C149.522,201.103 149.422,201.483 149.307,201.856C144.57,218.577 130.794,231.419 113.535,234.803C112.941,234.926 112.339,235.033 111.732,235.123C109.358,235.493 106.925,235.687 104.444,235.687L83.19,235.687C81.734,235.687 79.483,235.819 78.062,235.69L56.309,235.69C38.364,235.69 24.731,221.035 24.731,203.09L24.731,174.582C24.637,146.545 41.035,124.041 93.986,124.041C130.49,124.041 150.346,156.407 151.091,182.202Z" style="fill:rgb(227,222,219);fill-rule:nonzero;stroke:black;stroke-width:13.26px;stroke-linejoin:miter;stroke-miterlimit:4;"/>
            <g id="Right-ear" serif:id="Right ear">
                <path id="Fill" d="M129.32,94.263C129.612,94.246 129.879,94.285 130.119,94.379C130.736,94.621 141.786,91.88 151.188,110.691C157.566,123.45 152.504,141.458 141.438,146.336C140.812,146.612 140.226,146.859 139.623,147.119C139.622,147.118 139.597,147.071 139.597,147.07C128.394,150.646 107.793,139.398 108.043,133.562C108.043,133.555 108.041,133.561 108.041,133.555C115.423,106.583 125.064,94.505 129.32,94.263Z" style="fill:rgb(233,175,175);fill-rule:nonzero;"/>
                <path id="Inner-line" serif:id="Inner line" d="M132.279,89.398C135.999,95.812 140.356,105.825 130.322,120.704C121.787,133.358 108.138,128.461 108.138,128.461" style="fill:none;fill-rule:nonzero;stroke:rgb(160,44,44);stroke-opacity:0.21;stroke-width:10px;stroke-linecap:butt;stroke-linejoin:miter;stroke-miterlimit:4;"/>
                <path id="Outline1" serif:id="Outline" d="M128.693,81.145C129.172,81.121 129.694,81.195 130.196,81.217C130.183,81.227 130.126,81.258 130.108,81.258C129.855,81.263 130.025,81.26 130.293,81.25C130.423,81.244 130.785,81.258 130.969,81.253C132.246,81.377 133.561,81.615 134.918,82.148C133.771,81.698 132.977,81.443 132.329,81.262C132.625,81.268 132.752,81.248 133.082,81.267C135.526,81.403 138.882,81.952 142.473,83.469C149.655,86.503 157.206,93.34 162.942,104.815C167.858,114.65 168.164,125.389 165.521,134.965C162.877,144.541 157.056,153.812 146.738,158.36C146.365,158.524 146.018,158.675 145.648,158.839C141.122,150.093 139.74,147.413 139.623,147.119C140.226,146.859 140.812,146.612 141.438,146.336C152.504,141.458 157.566,123.45 151.188,110.691C141.786,91.88 130.736,94.621 130.119,94.379C129.879,94.285 129.612,94.246 129.32,94.263C125.064,94.505 115.423,106.583 108.041,133.553C108.04,133.518 108.033,133.506 108.033,133.506C103.259,132.807 100.388,130.78 100.563,124.433C100.419,124.267 97.286,124.103 97.09,124.14C100.765,112.179 104.892,103.009 109.119,96.22C111.721,92.041 114.261,88.738 117.544,85.943C119.185,84.545 121.013,83.217 123.715,82.194C125.065,81.683 126.776,81.243 128.693,81.145Z" style="fill-rule:nonzero;"/>
            </g>
            <g id="Left-ear" serif:id="Left ear">
                <path id="Fill1" serif:id="Fill" d="M43.977,94.422C49.044,94.592 60.343,106.484 69.098,134.505C69.081,134.514 68.999,134.534 69,134.541C69,134.541 68.96,134.647 68.939,134.7C64.79,145.135 43.491,150.733 31.352,146.156C31.349,146.162 31.347,146.168 31.345,146.175C30.624,145.913 29.922,145.664 29.174,145.386C16.139,140.548 10.177,122.687 17.689,110.032C28.764,91.375 42.314,94.785 43.041,94.545C43.323,94.452 43.636,94.41 43.977,94.422L43.977,94.422Z" style="fill:rgb(233,175,175);fill-rule:nonzero;"/>
                <path id="Inner-line1" serif:id="Inner line" d="M40.255,89.756C35.863,95.798 31.646,108.913 43.673,122.828C55.942,137.022 70.309,128.642 70.309,128.642" style="fill:none;fill-rule:nonzero;stroke:rgb(160,44,44);stroke-opacity:0.21;stroke-width:10px;stroke-linecap:butt;stroke-linejoin:miter;stroke-miterlimit:4;"/>
                <path id="Outline2" serif:id="Outline" d="M44.216,81.131C49.05,81.066 52.556,83.321 55.284,85.236C58.922,87.79 61.916,91.013 64.939,95.106C70.119,102.12 75.182,111.786 79.69,124.689C78.353,124.741 76.511,125.011 76.191,125.026C78.51,132.687 69.623,134.222 69.098,134.505C60.343,106.484 49.044,94.592 43.977,94.422C43.636,94.41 43.323,94.452 43.041,94.545C42.314,94.785 28.764,91.375 17.689,110.032C10.177,122.687 16.139,140.548 29.174,145.386C29.922,145.664 30.624,145.913 31.345,146.175C29.857,150.295 28.003,154.314 26.845,158.524C26.086,158.242 25.379,157.993 24.602,157.705C2.902,149.651 -5.45,123.271 6.39,103.325C13.307,91.672 22.506,85.267 30.351,82.832C34.274,81.615 37.764,81.312 40.283,81.303C40.788,81.301 41.018,81.33 41.438,81.345C41.178,81.406 40.714,81.558 40.391,81.646C40.869,81.53 41.337,81.435 41.795,81.359C42.251,81.38 42.888,81.391 43.157,81.41C43.441,81.431 43.631,81.441 43.427,81.431C43.357,81.427 43.331,81.318 43.205,81.226C43.539,81.2 43.894,81.136 44.216,81.131Z" style="fill-rule:nonzero;"/>
            </g>
            <g id="Face">
                <path id="Mouth1" serif:id="Mouth" d="M121.944,198.13L113.374,211.799L102.151,197.637L88.393,212.05L71.487,197.931" style="fill:none;fill-rule:nonzero;stroke:rgb(105,104,102);stroke-width:7.02px;stroke-miterlimit:4;"/>
                <path id="Nose" d="M108.161,187.279L106.586,187.279" style="fill:none;fill-rule:nonzero;stroke:rgb(222,135,135);stroke-width:10.51px;stroke-miterlimit:4;"/>
                <g id="Eyes">
                    <path id="Right-eye" serif:id="Right eye" d="M131.534,159.908C126.345,169.84 115.595,170.793 109.718,160.521" style="fill:none;fill-rule:nonzero;stroke:black;stroke-opacity:0.8;stroke-width:10.51px;stroke-miterlimit:4;"/>
                    <path id="Left-eye" serif:id="Left eye" d="M63.807,160.177C69.919,171.416 82.581,172.411 89.505,160.755" style="fill:none;fill-rule:nonzero;stroke:black;stroke-opacity:0.8;stroke-width:10.51px;stroke-miterlimit:4;"/>
                </g>
            </g>
            <g id="Whiskers">
                <path id="path1591" d="M60.138,189.703C49.049,181.093 21.472,179.48 7.567,189.381" style="fill:none;fill-rule:nonzero;stroke:rgb(105,104,102);stroke-opacity:0.72;stroke-width:6.77px;stroke-miterlimit:4;"/>
                <path id="path1593" d="M52.525,199.865C40.364,196.659 21.672,196.859 6.503,207.669" style="fill:none;fill-rule:nonzero;stroke:rgb(105,104,102);stroke-opacity:0.72;stroke-width:6.77px;stroke-miterlimit:4;"/>
                <path id="path1595" d="M134.696,189.947C150.477,180.277 164.013,182.112 170.942,187.253" style="fill:none;fill-rule:nonzero;stroke:rgb(105,104,102);stroke-opacity:0.72;stroke-width:6.77px;stroke-miterlimit:4;"/>
                <path id="path1597" d="M137.416,202.798C145.69,197.693 156.806,194.814 167.197,202.659" style="fill:none;fill-rule:nonzero;stroke:rgb(105,104,102);stroke-opacity:0.72;stroke-width:6.77px;stroke-miterlimit:4;"/>
            </g>
        </g>
        <path id="Arm" d="M205.178,212.327L138.382,212.327C130.153,212.327 123.473,205.646 123.473,197.418C123.473,189.332 130.037,182.768 138.122,182.768L205.178,182.768" style="fill:rgb(5,172,168);stroke:black;stroke-width:10px;stroke-linecap:butt;"/>
    </g>
</svg>
