<?xml version="1.0" encoding="UTF-8" standalone="no"?>
<!DOCTYPE svg PUBLIC "-//W3C//DTD SVG 1.1//EN" "http://www.w3.org/Graphics/SVG/1.1/DTD/svg11.dtd">
<svg width="100%" height="100%" viewBox="0 0 256 256" version="1.1" xmlns="http://www.w3.org/2000/svg" xmlns:xlink="http://www.w3.org/1999/xlink" xml:space="preserve" xmlns:serif="http://www.serif.com/" style="fill-rule:evenodd;clip-rule:evenodd;stroke-linecap:round;stroke-linejoin:round;stroke-miterlimit:1.5;">
    <rect id="NeoDLR" x="0" y="0" width="256" height="256" style="fill:none;"/>
    <clipPath id="_clip1">
        <rect id="NeoDLR1" serif:id="NeoDLR" x="0" y="0" width="256" height="256"/>
    </clipPath>
    <g clip-path="url(#_clip1)">
        <g id="Body">
            <g id="Outline">
                <path d="M74.072,28.517L193.986,21.067C197.964,15.819 205.876,19.014 205.876,19.014L255.882,32.794L256,220.174C256,220.174 222.16,232.686 207.198,237.151C192.235,241.616 190.601,225.904 190.601,225.904C190.601,225.904 190.371,222.174 190.017,216.082L109.99,210.742C101.974,213.735 69.249,225.875 53.125,230.673C34.668,236.164 35.257,216.342 35.257,216.342C35.257,216.342 35.38,169.264 35.996,160.679C36.612,152.094 37.754,135.002 38.447,125.675C39.14,116.348 45.12,77.158 45.12,77.158C45.12,77.158 50.37,46.298 54.636,34.837C58.902,23.375 66.931,26.67 66.931,26.67L74.072,28.517Z" style="fill:rgb(224,51,51);"/>
                <path d="M20.257,216.303C20.257,216.303 20.407,168.35 21.035,159.605C21.651,151.011 22.795,133.901 23.489,124.563C24.198,115.016 30.291,74.896 30.291,74.896C30.304,74.811 30.318,74.727 30.332,74.642C30.332,74.642 36.036,41.809 40.578,29.605C44.219,19.822 49.802,15.618 54.402,13.446C61.721,9.991 68.457,11.418 71.241,12.291L75.52,13.398C75.52,13.398 188.178,6.399 188.177,6.4C191.548,4.341 195.25,3.358 198.872,3.112C203.621,2.789 208.054,3.956 210.166,4.637L259.867,18.333C266.371,20.125 270.878,26.038 270.882,32.784L271,220.165C271.004,226.446 267.094,232.065 261.202,234.243C261.202,234.243 226.728,246.976 211.487,251.524C201.901,254.385 194.921,252.659 189.784,249.833C181.01,245.006 177.494,235.03 176.262,230.197C154.424,228.74 112.205,225.923 112.205,225.923C100.806,230.153 72.215,240.643 57.403,245.05C46.121,248.407 38.413,246.074 33.036,242.63C27.546,239.114 24.059,233.76 22.206,228.338C20.368,222.959 20.25,217.765 20.257,216.303ZM74.072,28.517L66.931,26.67C66.931,26.67 58.902,23.375 54.636,34.837C50.37,46.298 45.12,77.158 45.12,77.158C45.12,77.158 39.14,116.348 38.447,125.675C37.754,135.002 36.612,152.094 35.996,160.679C35.38,169.264 35.257,216.342 35.257,216.342C35.257,216.342 34.668,236.164 53.125,230.673C69.249,225.875 101.974,213.735 109.99,210.742L190.017,216.082C190.371,222.174 190.601,225.904 190.601,225.904C190.601,225.904 192.235,241.616 207.198,237.151C222.16,232.686 256,220.174 256,220.174L255.882,32.794L205.876,19.014C205.876,19.014 197.964,15.819 193.986,21.067L74.072,28.517Z"/>
            </g>
            <path id="Left-panel" serif:id="Left panel" d="M74.574,28.647L66.931,26.67C66.931,26.67 58.902,23.375 54.636,34.837C50.37,46.298 45.12,77.158 45.12,77.158C45.12,77.158 39.14,116.348 38.447,125.675C37.754,135.002 36.612,152.094 35.996,160.679C35.38,169.264 35.257,216.342 35.257,216.342C35.257,216.342 34.668,236.164 53.125,230.673C71.583,225.181 111.793,210.067 111.793,210.067L96.869,27.078L74.574,28.647Z" style="fill:rgb(224,51,51);"/>
            <path id="Front" d="M194.047,21.064L67.177,28.945C67.177,28.945 62.327,29.175 60.913,34.414C59.499,39.652 50.744,93.367 48.095,107.957C41.666,143.369 43.219,206.287 43.219,206.287L190.976,216.146L194.047,21.064Z" style="fill:rgb(52,49,40);"/>
            <path id="Right-panel" serif:id="Right panel" d="M256,32.807L256,220.174C256,220.174 222.16,232.686 207.198,237.151C192.235,241.616 190.601,225.904 190.601,225.904C190.601,225.904 186.181,154.503 186.42,126.27C186.658,98.036 189.418,51.654 189.418,51.654C189.418,51.654 190.137,38.298 192.001,26.231C193.866,14.164 205.876,19.014 205.876,19.014L256,32.807Z" style="fill:rgb(224,51,51);"/>
        </g>
        <path id="Left-window" serif:id="Left window" d="M60.46,59.901C60.46,59.901 49.54,108.933 48.624,145.425C53.427,145.653 79.16,145.755 79.16,145.755C79.16,145.755 80.459,110.778 89.046,58.971C86.407,58.641 60.46,59.901 60.46,59.901Z" style="fill:rgb(167,227,244);"/>
        <path id="Middle-window" serif:id="Middle window" d="M103.793,58.128C103.793,58.128 96.079,110.619 95.164,147.111C99.967,147.339 127.321,147.459 127.321,147.459C127.321,147.459 128.103,108.763 134.617,56.782C131.977,56.452 103.793,58.128 103.793,58.128Z" style="fill:rgb(167,227,244);"/>
        <path id="Right-window" serif:id="Right window" d="M150.439,55.67C150.439,55.67 144.403,111.665 143.487,148.157C148.29,148.385 179.818,148.702 179.818,148.702C179.818,148.702 180.887,105.247 184.344,54.754C181.705,54.424 150.439,55.67 150.439,55.67Z" style="fill:rgb(167,227,244);"/>
        <path id="Mouth" d="M81.576,163.746L91.885,181.079L105.778,163.776L122.987,181.031L143.487,163.796" style="fill:none;stroke:rgb(5,172,168);stroke-width:8.98px;"/>
        <path id="Right-eye" serif:id="Right eye" d="M172.151,124.862L172.151,130.15C172.151,135.706 167.64,140.217 162.084,140.217C156.529,140.217 152.018,135.706 152.018,130.15L152.018,124.862C152.018,119.306 156.529,114.796 162.084,114.796C167.64,114.796 172.151,119.306 172.151,124.862Z"/>
        <path id="Left-eye" serif:id="Left eye" d="M74.549,124.862L74.549,130.15C74.549,135.706 70.038,140.217 64.483,140.217C58.927,140.217 54.417,135.706 54.417,130.15L54.417,124.862C54.417,119.306 58.927,114.796 64.483,114.796C70.038,114.796 74.549,119.306 74.549,124.862Z"/>
    </g>
</svg>
