<?xml version="1.0" encoding="UTF-8" standalone="no"?>
<!DOCTYPE svg PUBLIC "-//W3C//DTD SVG 1.1//EN" "http://www.w3.org/Graphics/SVG/1.1/DTD/svg11.dtd">
<svg width="100%" height="100%" viewBox="0 0 256 256" version="1.1" xmlns="http://www.w3.org/2000/svg" xmlns:xlink="http://www.w3.org/1999/xlink" xml:space="preserve" xmlns:serif="http://www.serif.com/" style="fill-rule:evenodd;clip-rule:evenodd;stroke-linecap:round;stroke-linejoin:round;stroke-miterlimit:1.5;">
    <rect id="NeoDLR_bottom" x="0" y="0" width="256" height="256" style="fill:none;"/>
    <clipPath id="_clip1">
        <rect x="0" y="0" width="256" height="256"/>
    </clipPath>
    <g clip-path="url(#_clip1)">
        <g id="Body">
            <g id="Outline">
                <path d="M74.072,28.517L94.093,27.273L96.869,27.078L96.871,27.1L193.986,21.067C197.964,15.819 205.876,19.014 205.876,19.014L256,32.808L256,220.174C256,220.174 222.16,232.686 207.198,237.151C192.235,241.616 190.601,225.904 190.601,225.904C190.601,225.904 190.371,222.174 190.017,216.082L109.99,210.742C101.974,213.735 69.249,225.875 53.125,230.673C34.668,236.164 35.257,216.342 35.257,216.342C35.257,216.342 35.38,169.264 35.996,160.679C36.612,152.094 37.754,135.002 38.447,125.675C39.14,116.348 45.12,77.158 45.12,77.158C45.12,77.158 50.37,46.298 54.636,34.837C58.902,23.375 66.931,26.67 66.931,26.67L74.072,28.517Z" style="fill:rgb(224,51,51);"/>
                <path d="M81.9,28.03C81.89,27.876 81.883,27.721 81.878,27.566C81.627,19.466 87.854,12.632 95.941,12.129C95.941,12.129 188.178,6.399 188.177,6.4C191.548,4.341 195.25,3.358 198.872,3.112C203.619,2.789 208.051,3.955 210.163,4.636L259.98,18.346C266.49,20.138 271,26.057 271,32.808L271,220.174C271,226.452 267.09,232.066 261.202,234.243C261.202,234.243 226.728,246.976 211.487,251.524C201.901,254.385 194.921,252.659 189.784,249.833C181.01,245.006 177.494,235.03 176.262,230.197C154.424,228.74 112.205,225.923 112.205,225.923C100.806,230.153 72.215,240.643 57.403,245.05C46.121,248.407 38.413,246.074 33.036,242.63C27.546,239.114 24.059,233.76 22.206,228.338C20.368,222.959 20.25,217.765 20.257,216.303C20.257,216.303 20.407,168.35 21.035,159.605C21.651,151.011 22.795,133.901 23.489,124.563C24.198,115.016 30.291,74.896 30.291,74.896C30.304,74.811 30.318,74.727 30.332,74.642C30.332,74.642 36.036,41.809 40.578,29.605C44.219,19.822 49.802,15.618 54.402,13.446C61.721,9.991 68.457,11.418 71.241,12.291L75.52,13.398L93.102,12.306L95.816,12.115C87.757,12.682 81.595,19.53 81.879,27.604C81.884,27.747 81.891,27.889 81.9,28.03L74.072,28.517L66.931,26.67C66.931,26.67 58.902,23.375 54.636,34.837C50.37,46.298 45.12,77.158 45.12,77.158C45.12,77.158 39.14,116.348 38.447,125.675C37.754,135.002 36.612,152.094 35.996,160.679C35.38,169.264 35.257,216.342 35.257,216.342C35.257,216.342 34.668,236.164 53.125,230.673C69.249,225.875 101.974,213.735 109.99,210.742L190.017,216.082C190.371,222.174 190.601,225.904 190.601,225.904C190.601,225.904 192.235,241.616 207.198,237.151C222.16,232.686 256,220.174 256,220.174L256,32.808L205.876,19.014C205.876,19.014 197.964,15.819 193.986,21.067L96.871,27.1L96.869,27.078L94.093,27.273L81.9,28.03Z"/>
            </g>
            <path id="Left-panel" serif:id="Left panel" d="M74.574,28.647L66.931,26.67C66.931,26.67 58.902,23.375 54.636,34.837C50.37,46.298 45.12,77.158 45.12,77.158C45.12,77.158 39.14,116.348 38.447,125.675C37.754,135.002 36.612,152.094 35.996,160.679C35.38,169.264 35.257,216.342 35.257,216.342C35.257,216.342 34.668,236.164 53.125,230.673C71.583,225.181 111.793,210.067 111.793,210.067L96.869,27.078L74.574,28.647Z" style="fill:rgb(224,51,51);"/>
            <path id="Front" d="M194.047,21.064L67.177,28.945C67.177,28.945 62.327,29.175 60.913,34.414C59.499,39.652 50.744,93.367 48.095,107.957C41.666,143.369 43.219,206.287 43.219,206.287L190.976,216.146L194.047,21.064Z" style="fill:rgb(52,49,40);"/>
            <path id="Right-panel" serif:id="Right panel" d="M256,32.804L256,220.174C256,220.174 222.16,232.686 207.198,237.151C192.235,241.616 190.601,225.904 190.601,225.904C190.601,225.904 186.181,154.503 186.42,126.27C186.658,98.036 189.418,51.654 189.418,51.654C189.418,51.654 190.137,38.298 192.001,26.231C193.866,14.164 205.876,19.014 205.876,19.014L256,32.804Z" style="fill:rgb(224,51,51);"/>
        </g>
        <path id="Left-window" serif:id="Left window" d="M60.46,59.901C60.46,59.901 49.54,108.933 48.624,145.425C53.427,145.653 79.16,145.755 79.16,145.755C79.16,145.755 80.459,110.778 89.046,58.971C86.407,58.641 60.46,59.901 60.46,59.901Z" style="fill:rgb(167,227,244);"/>
        <path id="Middle-window" serif:id="Middle window" d="M103.793,58.128C103.793,58.128 96.079,110.619 95.164,147.111C99.967,147.339 127.321,147.459 127.321,147.459C127.321,147.459 128.103,108.763 134.617,56.782C131.977,56.452 103.793,58.128 103.793,58.128Z" style="fill:rgb(167,227,244);"/>
        <path id="Right-window" serif:id="Right window" d="M150.439,55.67C150.439,55.67 144.403,111.665 143.487,148.157C148.29,148.385 179.818,148.702 179.818,148.702C179.818,148.702 180.887,105.247 184.344,54.754C181.705,54.424 150.439,55.67 150.439,55.67Z" style="fill:rgb(167,227,244);"/>
        <path id="Mouth" d="M90.065,179.231L105.981,163.746L125.715,179.641" style="fill:none;stroke:rgb(5,172,168);stroke-width:10px;"/>
        <path id="Right-eye" serif:id="Right eye" d="M172.151,124.862L172.151,130.15C172.151,135.706 167.64,140.217 162.084,140.217C156.529,140.217 152.018,135.706 152.018,130.15L152.018,124.862C152.018,119.306 156.529,114.796 162.084,114.796C167.64,114.796 172.151,119.306 172.151,124.862Z"/>
        <g id="Eyes">
            <g id="Right-eye1" serif:id="Right eye">
                <circle id="Eye-white" serif:id="Eye white" cx="162.084" cy="129.526" r="15.402" style="fill:white;"/>
                <circle id="Pupil" cx="160.101" cy="127.567" r="13.208"/>
                <path id="Eye-reflection-top" serif:id="Eye reflection top" d="M152.967,120.537C155.576,117.928 159.332,117.449 161.35,119.467C163.368,121.485 162.889,125.241 160.28,127.85C157.671,130.458 153.915,130.938 151.897,128.92C149.879,126.902 150.359,123.146 152.967,120.537Z" style="fill:white;"/>
                <path id="Eye-reflection-bottom" serif:id="Eye reflection bottom" d="M166.53,130.749C166.53,130.749 165.753,133.428 163.005,134.014" style="fill:none;stroke:rgb(151,151,151);stroke-width:8px;"/>
            </g>
            <g id="Left-eye" serif:id="Left eye">
                <circle id="Eye-white1" serif:id="Eye white" cx="65.009" cy="128.438" r="14.246" style="fill:white;"/>
                <circle id="Pupil1" serif:id="Pupil" cx="63.175" cy="126.626" r="12.217"/>
                <path id="Eye-reflection-top1" serif:id="Eye reflection top" d="M56.576,120.123C58.989,117.71 62.463,117.267 64.33,119.133C66.196,121 65.753,124.474 63.34,126.887C60.927,129.3 57.452,129.744 55.586,127.877C53.719,126.011 54.163,122.536 56.576,120.123Z" style="fill:white;"/>
                <path id="Eye-reflection-bottom1" serif:id="Eye reflection bottom" d="M69.12,129.569C69.12,129.569 68.402,132.047 65.86,132.589" style="fill:none;stroke:rgb(151,151,151);stroke-width:8px;"/>
            </g>
        </g>
        <g id="Eyebrows">
            <path id="Right-eyebrow" serif:id="Right eyebrow" d="M154.735,98.444C154.735,98.444 158.139,108.812 174.531,104.169" style="fill:none;stroke:black;stroke-width:10px;"/>
            <path id="Left-eyebrow" serif:id="Left eyebrow" d="M78.442,96.054C78.442,96.054 75.038,106.422 58.646,101.78" style="fill:none;stroke:black;stroke-width:10px;"/>
        </g>
        <path id="Right-hand" serif:id="Right hand" d="M198.264,234.48L198.264,188.011C198.264,184.082 195.075,180.893 191.146,180.893C187.217,180.893 184.027,184.082 184.027,188.011L184.027,200.884L125.907,200.884C122.071,200.884 118.956,203.998 118.956,207.835C118.956,211.671 122.071,214.786 125.907,214.786L154.873,214.786L154.873,234.48C154.873,239.568 159.004,243.7 164.092,243.7L189.044,243.7C194.133,243.7 198.264,239.568 198.264,234.48Z" style="fill:rgb(5,172,168);"/>
        <path d="M208.264,234.48C208.264,245.088 199.652,253.7 189.044,253.7L164.092,253.7C153.485,253.7 144.873,245.088 144.873,234.48L144.873,224.786L125.907,224.786C116.552,224.786 108.956,217.19 108.956,207.835C108.956,198.479 116.552,190.884 125.907,190.884L174.027,190.884L174.027,188.011C174.027,178.563 181.698,170.893 191.146,170.893C200.594,170.893 208.264,178.563 208.264,188.011L208.264,234.48ZM198.264,234.48L198.264,188.011C198.264,184.082 195.075,180.893 191.146,180.893C187.217,180.893 184.027,184.082 184.027,188.011L184.027,200.884L125.907,200.884C122.071,200.884 118.956,203.998 118.956,207.835C118.956,211.671 122.071,214.786 125.907,214.786L154.873,214.786L154.873,234.48C154.873,239.568 159.004,243.7 164.092,243.7L189.044,243.7C194.133,243.7 198.264,239.568 198.264,234.48Z"/>
        <path id="Left-hand" serif:id="Left hand" d="M20.566,234.48L20.566,188.011C20.566,184.082 23.755,180.893 27.684,180.893C31.613,180.893 34.803,184.082 34.803,188.011L34.803,200.884L92.923,200.884C96.759,200.884 99.874,203.998 99.874,207.835C99.874,211.671 96.759,214.786 92.923,214.786L63.958,214.786L63.958,234.48C63.958,239.568 59.826,243.7 54.738,243.7L29.786,243.7C24.697,243.7 20.566,239.568 20.566,234.48Z" style="fill:rgb(5,172,168);"/>
        <path d="M10.566,234.48L10.566,188.011C10.566,178.563 18.236,170.893 27.684,170.893C37.132,170.893 44.803,178.563 44.803,188.011C44.803,188.011 44.803,190.884 44.803,190.884L92.923,190.884C102.279,190.884 109.874,198.479 109.874,207.835C109.874,217.19 102.279,224.786 92.923,224.786L73.958,224.786L73.958,234.48C73.958,245.088 65.345,253.7 54.738,253.7L29.786,253.7C19.178,253.7 10.566,245.088 10.566,234.48ZM20.566,234.48C20.566,239.568 24.697,243.7 29.786,243.7L54.738,243.7C59.826,243.7 63.958,239.568 63.958,234.48L63.958,214.786L92.923,214.786C96.759,214.786 99.874,211.671 99.874,207.835C99.874,203.998 96.759,200.884 92.923,200.884L34.803,200.884L34.803,188.011C34.803,184.082 31.613,180.893 27.684,180.893C23.755,180.893 20.566,184.082 20.566,188.011L20.566,234.48Z"/>
    </g>
</svg>
