<?xml version="1.0" encoding="UTF-8" standalone="no"?>
<!DOCTYPE svg PUBLIC "-//W3C//DTD SVG 1.1//EN" "http://www.w3.org/Graphics/SVG/1.1/DTD/svg11.dtd">
<svg width="100%" height="100%" viewBox="0 0 256 256" version="1.1" xmlns="http://www.w3.org/2000/svg" xmlns:xlink="http://www.w3.org/1999/xlink" xml:space="preserve" xmlns:serif="http://www.serif.com/" style="fill-rule:evenodd;clip-rule:evenodd;stroke-linecap:round;stroke-linejoin:round;stroke-miterlimit:1.5;">
    <rect id="NeoDLR_pat" x="0" y="0" width="256" height="256" style="fill:none;"/>
    <clipPath id="_clip1">
        <rect x="0" y="0" width="256" height="256"/>
    </clipPath>
    <g clip-path="url(#_clip1)">
        <g id="Body">
            <g id="Outline">
                <path d="M74.072,57.606L193.986,51.191C197.964,46.671 205.876,49.423 205.876,49.423L255.882,61.289L256,222.643C256,222.643 222.16,233.417 207.198,237.262C192.235,241.106 190.601,227.577 190.601,227.577C190.601,227.577 190.371,224.365 190.017,219.119L109.99,214.521C101.974,217.098 69.249,227.552 53.125,231.683C34.668,236.412 35.257,219.343 35.257,219.343C35.257,219.343 35.38,178.804 35.996,171.411C36.612,164.019 37.754,149.301 38.447,141.269C39.14,133.237 45.12,99.491 45.12,99.491C45.12,99.491 50.37,72.918 54.636,63.048C58.902,53.178 66.931,56.015 66.931,56.015L74.072,57.606Z" style="fill:rgb(224,51,51);"/>
                <path d="M176.635,233.375C154.766,232.118 111.914,229.656 111.916,229.656C100.79,233.213 71.794,242.385 56.848,246.214C46.223,248.936 38.946,247.031 33.882,244.238C20.375,236.788 20.266,218.826 20.266,218.826L20.257,219.297C20.257,219.297 20.417,177.743 21.048,170.166C21.665,162.763 22.809,148.023 23.503,139.98C24.218,131.694 30.35,96.874 30.35,96.874C30.367,96.777 30.385,96.68 30.404,96.584C30.404,96.584 36.24,67.801 40.867,57.097C44.693,48.244 50.323,44.378 55.157,42.413C61.883,39.679 68.073,40.788 70.639,41.474L75.325,42.517C75.325,42.517 188.812,36.446 188.811,36.447C192.029,34.717 195.548,33.845 199.013,33.642C203.536,33.377 207.753,34.363 209.673,34.907L259.345,46.694C266.104,48.298 270.877,54.332 270.882,61.278L271,222.632C271.005,229.167 266.778,234.953 260.551,236.936C260.551,236.936 226.143,247.88 210.931,251.79C198.393,255.011 190.496,251.348 185.325,247.067C180.253,242.867 177.785,237.158 176.635,233.375ZM74.072,57.606L66.931,56.015C66.931,56.015 58.902,53.178 54.636,63.048C50.37,72.918 45.12,99.491 45.12,99.491C45.12,99.491 39.14,133.237 38.447,141.269C37.754,149.301 36.612,164.019 35.996,171.411C35.38,178.804 35.257,219.343 35.257,219.343C35.257,219.343 34.668,236.412 53.125,231.683C69.249,227.552 101.974,217.098 109.99,214.521L190.017,219.119C190.371,224.365 190.601,227.577 190.601,227.577C190.601,227.577 192.235,241.106 207.198,237.262C222.16,233.417 256,222.643 256,222.643L255.882,61.289L205.876,49.423C205.876,49.423 197.964,46.671 193.986,51.191L74.072,57.606Z"/>
            </g>
            <path id="Left-panel" serif:id="Left panel" d="M74.574,57.718L66.931,56.015C66.931,56.015 58.902,53.178 54.636,63.048C50.37,72.918 45.12,99.491 45.12,99.491C45.12,99.491 39.14,133.237 38.447,141.269C37.754,149.301 36.612,164.019 35.996,171.411C35.38,178.804 35.257,219.343 35.257,219.343C35.257,219.343 34.668,236.412 53.125,231.683C71.583,226.954 111.793,213.94 111.793,213.94L96.869,56.366L74.574,57.718Z" style="fill:rgb(224,51,51);"/>
            <path id="Front" d="M194.047,51.188L67.177,57.975C67.177,57.975 62.327,58.173 60.913,62.684C59.499,67.195 50.744,113.449 48.095,126.012C41.666,156.506 43.219,210.684 43.219,210.684L190.976,219.174L194.047,51.188Z" style="fill:rgb(52,49,40);"/>
            <path id="Right-panel" serif:id="Right panel" d="M256,61.3L256,222.643C256,222.643 222.16,233.417 207.198,237.262C192.235,241.106 190.601,227.577 190.601,227.577C190.601,227.577 186.181,166.093 186.42,141.781C186.658,117.469 189.418,77.529 189.418,77.529C189.418,77.529 190.137,66.028 192.001,55.637C193.866,45.246 205.876,49.423 205.876,49.423L256,61.3Z" style="fill:rgb(224,51,51);"/>
        </g>
        <path id="Left-window" serif:id="Left window" d="M60.46,84.63C60.46,84.63 49.54,126.853 48.624,158.276C53.427,158.473 79.16,158.561 79.16,158.561C79.16,158.561 80.459,128.441 89.046,83.83C86.407,83.546 60.46,84.63 60.46,84.63Z" style="fill:rgb(167,227,244);"/>
        <path id="Middle-window" serif:id="Middle window" d="M103.793,83.104C103.793,83.104 96.079,128.304 95.164,159.728C99.967,159.924 127.321,160.027 127.321,160.027C127.321,160.027 128.103,126.706 134.617,81.945C131.977,81.661 103.793,83.104 103.793,83.104Z" style="fill:rgb(167,227,244);"/>
        <path id="Right-window" serif:id="Right window" d="M150.439,80.987C150.439,80.987 144.403,129.205 143.487,160.629C148.29,160.825 179.818,161.098 179.818,161.098C179.818,161.098 180.887,123.679 184.344,80.199C181.705,79.915 150.439,80.987 150.439,80.987Z" style="fill:rgb(167,227,244);"/>
        <path id="Mouth" d="M81.576,179.746L91.885,197.079L105.778,179.776L122.987,197.031L143.487,179.796" style="fill:none;stroke:rgb(5,172,168);stroke-width:8.98px;"/>
        <path id="Right-eye" serif:id="Right eye" d="M172.032,133.345L152.018,144.922L172.151,153.667" style="fill:none;stroke:black;stroke-width:9.79px;"/>
        <path id="Left-eye" serif:id="Left eye" d="M55.742,134.578L73.327,144.75L55.638,152.434" style="fill:none;stroke:black;stroke-width:8.6px;"/>
        <g id="Hand">
            <path id="Main" d="M133.012,59.544L85.903,59.544C78.615,59.544 70.988,52.693 70.988,52.693L49.977,31.682L71.059,10.6L92.037,31.578L133.052,31.578L181.234,48.394C183.655,49.243 184.931,51.898 184.081,54.319C182.09,59.994 175.866,62.984 170.191,60.993L141.784,51.024C141.648,55.749 137.77,59.544 133.012,59.544Z" style="fill:white;"/>
            <path d="M133.012,69.544L85.903,69.544C75.442,69.544 64.306,60.133 64.306,60.133C64.173,60.014 64.043,59.891 63.916,59.764L42.905,38.753C39,34.848 39,28.516 42.905,24.611L63.988,3.529C67.893,-0.376 74.225,-0.376 78.13,3.529C78.13,3.529 96.179,21.578 96.179,21.578L133.052,21.578C134.174,21.578 135.288,21.767 136.347,22.136L184.53,38.952L184.546,38.958C192.174,41.635 196.194,50.002 193.517,57.631C189.698,68.513 177.762,74.248 166.88,70.429C166.88,70.429 146.886,63.412 146.886,63.412C143.451,67.178 138.506,69.544 133.012,69.544ZM133.012,59.544C137.77,59.544 141.648,55.749 141.784,51.024L170.191,60.993C175.866,62.984 182.09,59.994 184.081,54.319C184.931,51.898 183.655,49.243 181.234,48.394L133.052,31.578L92.037,31.578L71.059,10.6L49.977,31.682L70.988,52.693C70.988,52.693 78.615,59.544 85.903,59.544L133.012,59.544Z"/>
            <path id="Thumb" d="M98.127,62.628L135.213,62.628C139.26,62.628 142.546,58.555 142.546,53.538C142.546,48.522 139.26,44.449 135.213,44.449L98.127,44.449" style="fill:white;stroke:black;stroke-width:7px;"/>
        </g>
    </g>
</svg>
