<?xml version="1.0" encoding="UTF-8" standalone="no"?>
<!DOCTYPE svg PUBLIC "-//W3C//DTD SVG 1.1//EN" "http://www.w3.org/Graphics/SVG/1.1/DTD/svg11.dtd">
<svg width="100%" height="100%" viewBox="0 0 256 256" version="1.1" xmlns="http://www.w3.org/2000/svg" xmlns:xlink="http://www.w3.org/1999/xlink" xml:space="preserve" xmlns:serif="http://www.serif.com/" style="fill-rule:evenodd;clip-rule:evenodd;stroke-linecap:round;stroke-linejoin:round;stroke-miterlimit:1.5;">
    <rect id="neodlr_hug_bee_heart" x="0" y="0" width="256" height="256" style="fill:none;"/>
    <clipPath id="_clip1">
        <rect x="0" y="0" width="256" height="256"/>
    </clipPath>
    <g clip-path="url(#_clip1)">
        <g id="DLR">
            <g id="Body">
                <g id="Outline">
                    <path d="M125.269,105.138L194.802,100.818C197.108,97.775 201.697,99.628 201.697,99.628L270.737,118.652L270.737,202.365C270.737,202.365 211.139,223.526 202.463,226.115C193.787,228.704 192.84,219.594 192.84,219.594C192.84,219.594 192.706,217.431 192.501,213.898L146.097,210.802C141.448,212.537 122.473,219.577 113.123,222.359C102.421,225.543 102.762,214.049 102.762,214.049C102.762,214.049 102.834,186.75 103.191,181.773C103.548,176.795 104.21,166.884 104.612,161.475C105.014,156.067 108.481,133.343 108.481,133.343C108.481,133.343 111.526,115.449 113.999,108.802C116.473,102.156 121.129,104.067 121.129,104.067L125.269,105.138Z" style="fill:rgb(224,51,51);"/>
                    <path d="M190.323,86.068L193.901,84.611L200.227,84.122L207.314,85.719L205.681,85.166L274.722,104.191C281.229,105.984 285.737,111.903 285.737,118.652L285.737,202.365C285.737,208.714 281.74,214.376 275.756,216.5C275.756,216.5 215.52,237.872 206.752,240.489L202.512,241.391L198.017,241.524L193.489,240.719L189.328,238.991L184.749,235.574L181.744,231.884L179.823,228.086C167.03,227.232 148.306,225.982 148.307,225.982C140.962,228.697 125.591,234.299 117.401,236.736L112.743,237.724L107.782,237.839L102.718,236.812L98.075,234.599L94.007,231.184L90.342,225.759L88.483,220.411L87.769,213.603L87.762,214.01C87.762,214.01 87.861,185.837 88.229,180.699C88.587,175.712 89.251,165.782 89.653,160.364C90.072,154.735 93.653,131.08 93.653,131.08C93.666,130.996 93.679,130.911 93.694,130.827C93.694,130.827 97.191,110.959 99.941,103.57L104.226,96.085L107.443,92.991L111.173,90.7L115.731,89.194L119.753,88.813L126.823,90.19L124.885,89.545L126.718,90.019L190.323,86.068ZM125.269,105.138L121.129,104.067C121.129,104.067 116.473,102.156 113.999,108.802C111.526,115.449 108.481,133.343 108.481,133.343C108.481,133.343 105.014,156.067 104.612,161.475C104.21,166.884 103.548,176.795 103.191,181.773C102.834,186.75 102.762,214.049 102.762,214.049C102.762,214.049 102.421,225.543 113.123,222.359C122.473,219.577 141.448,212.537 146.097,210.802L192.501,213.898C192.706,217.431 192.84,219.594 192.84,219.594C192.84,219.594 193.787,228.704 202.463,226.115C211.139,223.526 270.737,202.365 270.737,202.365L270.737,118.652L201.697,99.628C201.697,99.628 197.108,97.775 194.802,100.818L125.269,105.138Z"/>
                </g>
                <path id="Left-panel" serif:id="Left panel" d="M125.56,105.213L121.129,104.067C121.129,104.067 116.473,102.156 113.999,108.802C111.526,115.449 108.481,133.343 108.481,133.343C108.481,133.343 105.014,156.067 104.612,161.475C104.21,166.884 103.548,176.795 103.191,181.773C102.834,186.75 102.762,214.049 102.762,214.049C102.762,214.049 102.421,225.543 113.123,222.359C123.826,219.174 147.142,210.411 147.142,210.411L138.488,104.303L125.56,105.213Z" style="fill:rgb(224,51,51);"/>
                <path id="Front" d="M194.837,100.816L121.271,105.386C121.271,105.386 118.459,105.519 117.639,108.557C116.819,111.595 111.743,142.742 110.207,151.201C106.479,171.736 107.379,208.218 107.379,208.218L193.056,213.935L194.837,100.816Z" style="fill:rgb(52,49,40);"/>
                <path id="Right-panel" serif:id="Right panel" d="M270.737,118.626L270.37,202.492C270.37,202.492 211.139,223.526 202.463,226.115C193.787,228.704 192.84,219.594 192.84,219.594C192.84,219.594 190.276,178.192 190.415,161.82C190.553,145.449 192.154,118.554 192.154,118.554C192.154,118.554 192.57,110.809 193.651,103.812C194.732,96.815 201.697,99.628 201.697,99.628L270.737,118.626Z" style="fill:rgb(224,51,51);"/>
            </g>
            <path id="Left-window" serif:id="Left window" d="M117.376,123.336C117.376,123.336 111.044,151.767 110.513,172.928C113.299,173.06 128.219,173.119 128.219,173.119C128.219,173.119 128.973,152.837 133.952,122.797C132.422,122.606 117.376,123.336 117.376,123.336Z" style="fill:rgb(167,227,244);"/>
            <path id="Middle-window" serif:id="Middle window" d="M142.503,122.308C142.503,122.308 138.03,152.745 137.499,173.905C140.285,174.037 156.146,174.107 156.146,174.107C156.146,174.107 156.599,151.669 160.377,121.527C158.846,121.336 142.503,122.308 142.503,122.308Z" style="fill:rgb(167,227,244);"/>
            <path id="Right-window" serif:id="Right window" d="M169.551,120.882C169.551,120.882 166.051,153.351 165.52,174.512C168.305,174.644 186.587,174.828 186.587,174.828C186.587,174.828 187.206,149.63 189.211,120.352C187.681,120.16 169.551,120.882 169.551,120.882Z" style="fill:rgb(167,227,244);"/>
            <path id="Mouth" d="M129.62,183.551L135.598,193.602L143.654,183.568L153.633,193.574L165.52,183.58" style="fill:none;stroke:rgb(5,172,168);stroke-width:5.21px;"/>
            <path id="Eye" d="M184.791,158.299L184.791,162.628C184.791,167.175 181.099,170.867 176.551,170.867C172.003,170.867 168.311,167.175 168.311,162.628L168.311,158.299C168.311,153.751 172.003,150.059 176.551,150.059C181.099,150.059 184.791,153.751 184.791,158.299Z"/>
        </g>
        <g id="Bee">
            <path id="Wings-outline" serif:id="Wings outline" d="M110.745,156.03C110.264,156.664 109.756,157.283 109.222,157.887C96.515,172.247 69.614,173.528 49.337,157.001C28.491,140.011 25.525,113.512 38.587,98.749C47.306,88.895 62.533,85.109 77.842,89.058C86.093,76.311 99.436,69.125 112.01,70.535C130.637,72.624 145.593,93.068 141.795,118.255C138.816,138.016 125.351,152.303 110.745,156.03ZM101.433,141.862C101.563,141.88 101.693,141.897 101.824,141.911C113.349,143.204 124.613,131.601 126.963,116.018C129.312,100.435 121.863,86.734 110.338,85.442C99.446,84.22 88.787,94.517 85.666,108.806C72.902,100.312 57.47,100.044 49.821,108.689C41.492,118.102 45.521,134.54 58.813,145.374C72.105,156.207 89.659,157.36 97.988,147.947C99.581,146.147 100.722,144.089 101.433,141.862Z"/>
            <path id="Body1" serif:id="Body" d="M101.632,122.19C60.216,108.805 19.078,120.269 9.822,147.774C0.566,175.28 26.676,208.478 68.091,221.864C109.507,235.249 150.646,223.785 159.902,196.279C169.157,168.774 143.048,135.575 101.632,122.19Z" style="fill:rgb(254,194,7);"/>
            <g id="Stripes">
                <path d="M72.106,119.922C73.042,120.387 14.092,130.209 21.345,190.838C-24.609,118.841 70.553,114.09 72.106,119.922Z" style="fill:rgb(85,85,85);"/>
                <path d="M21.477,191.456C12.69,133.339 70.544,119.532 69.861,117.897L93.248,121.28C93.248,121.28 22.807,135.228 34.786,203.364L23.488,192.104" style="fill:rgb(254,194,7);"/>
                <path d="M50.819,214.488L34.908,203.338C22.865,135.125 94.218,118.611 94.222,118.636L107.151,122.948C107.262,122.945 34.379,144.792 50.819,214.488Z" style="fill:rgb(85,85,85);"/>
                <path d="M106.191,123.208L120.64,130.216C120.64,130.216 50.985,152.546 66.54,221.474L51.255,215.377C31.618,147.909 107.068,123.626 108.347,124.254" style="fill:rgb(254,194,7);"/>
                <path d="M123.582,130.963L134.978,138.843C134.978,138.843 69.586,153.467 83.352,225.038L66.54,221.474C48.664,150.802 121.617,132.176 123.582,130.963Z" style="fill:rgb(85,85,85);"/>
            </g>
            <path id="Body-outline" serif:id="Body outline" d="M101.632,122.19C60.216,108.805 19.078,120.269 9.822,147.774C0.566,175.28 26.676,208.478 68.091,221.864C109.507,235.249 150.646,223.785 159.902,196.279C169.157,168.774 143.048,135.575 101.632,122.19Z" style="fill:none;stroke:black;stroke-width:15px;"/>
            <g id="Wings">
                <path id="Back-wing" serif:id="Back wing" d="M110.338,85.442C98.814,84.15 87.549,95.752 85.2,111.335C82.85,126.918 90.3,140.619 101.824,141.911C113.349,143.204 124.613,131.601 126.963,116.018C129.312,100.435 121.863,86.734 110.338,85.442Z" style="fill:rgb(167,167,167);"/>
                <path id="Front-wing" serif:id="Front wing" d="M49.821,108.689C41.492,118.102 45.521,134.54 58.813,145.374C72.105,156.207 89.659,157.36 97.988,147.947C106.317,138.534 102.287,122.096 88.995,111.263C75.703,100.429 58.15,99.276 49.821,108.689Z" style="fill:rgb(195,195,195);"/>
            </g>
            <g id="Face">
                <path id="Mouth1" serif:id="Mouth" d="M141.675,196.667L136.589,205.242L129.549,196.789L120.819,205.411L110.466,196.78" style="fill:none;stroke:black;stroke-width:6.5px;"/>
                <g id="Eyes">
                    <path id="Right-eye" serif:id="Right eye" d="M133.438,175.554C134.606,178.974 137.441,180.056 139.591,180.075C142.008,180.096 144.609,179.358 146.258,175.257" style="fill:none;stroke:black;stroke-width:7px;"/>
                    <path id="Left-eye" serif:id="Left eye" d="M105.341,175.554C106.509,178.974 109.344,180.056 111.494,180.075C113.911,180.096 116.513,179.358 118.161,175.257" style="fill:none;stroke:black;stroke-width:7px;"/>
                </g>
            </g>
        </g>
        <path id="Arm" d="M205.178,212.327L154.406,212.327C146.177,212.327 139.497,205.646 139.497,197.418C139.497,189.332 146.061,182.768 154.146,182.768L205.178,182.768" style="fill:rgb(5,172,168);stroke:black;stroke-width:10px;stroke-linecap:butt;"/>
        <path id="Heart" d="M100.241,60.968L90.15,50.877C80.47,41.197 80.47,25.478 90.15,15.797C99.831,6.116 115.55,6.116 125.231,15.797L128,18.566L130.769,15.797C140.45,6.116 156.169,6.116 165.85,15.797C175.53,25.478 175.53,41.197 165.85,50.877L155.759,60.968C155.367,61.518 154.923,62.043 154.43,62.536L136.889,80.076C134.439,82.527 131.215,83.737 128,83.706C124.785,83.737 121.561,82.527 119.111,80.076L101.57,62.536C101.077,62.043 100.633,61.518 100.241,60.968Z" style="fill:rgb(239,124,148);stroke:black;stroke-width:15px;stroke-linejoin:miter;stroke-miterlimit:5;"/>
    </g>
</svg>
