<?xml version="1.0" encoding="UTF-8" standalone="no"?>
<!DOCTYPE svg PUBLIC "-//W3C//DTD SVG 1.1//EN" "http://www.w3.org/Graphics/SVG/1.1/DTD/svg11.dtd">
<svg width="100%" height="100%" viewBox="0 0 256 256" version="1.1" xmlns="http://www.w3.org/2000/svg" xmlns:xlink="http://www.w3.org/1999/xlink" xml:space="preserve" xmlns:serif="http://www.serif.com/" style="fill-rule:evenodd;clip-rule:evenodd;stroke-linecap:round;stroke-linejoin:round;stroke-miterlimit:1.5;">
    <rect id="neodlr_hug_cat" x="0" y="0" width="256" height="256" style="fill:none;"/>
    <clipPath id="_clip1">
        <rect x="0" y="0" width="256" height="256"/>
    </clipPath>
    <g clip-path="url(#_clip1)">
        <g id="DLR">
            <g id="Body">
                <g id="Outline">
                    <path d="M125.269,105.138L194.802,100.818C197.108,97.775 201.697,99.628 201.697,99.628L270.737,118.652L270.737,202.365C270.737,202.365 211.139,223.526 202.463,226.115C193.787,228.704 192.84,219.594 192.84,219.594C192.84,219.594 192.706,217.431 192.501,213.898L146.097,210.802C141.448,212.537 122.473,219.577 113.123,222.359C102.421,225.543 102.762,214.049 102.762,214.049C102.762,214.049 102.834,186.75 103.191,181.773C103.548,176.795 104.21,166.884 104.612,161.475C105.014,156.067 108.481,133.343 108.481,133.343C108.481,133.343 111.526,115.449 113.999,108.802C116.473,102.156 121.129,104.067 121.129,104.067L125.269,105.138Z" style="fill:rgb(224,51,51);"/>
                    <path d="M190.323,86.068L193.901,84.611L200.227,84.122L207.314,85.719L205.681,85.166L274.722,104.191C281.229,105.984 285.737,111.903 285.737,118.652L285.737,202.365C285.737,208.714 281.74,214.376 275.756,216.5C275.756,216.5 215.52,237.872 206.752,240.489L202.512,241.391L198.017,241.524L193.489,240.719L189.328,238.991L184.749,235.574L181.744,231.884L179.823,228.086C167.03,227.232 148.306,225.982 148.307,225.982C140.962,228.697 125.591,234.299 117.401,236.736L112.743,237.724L107.782,237.839L102.718,236.812L98.075,234.599L94.007,231.184L90.342,225.759L88.483,220.411L87.769,213.603L87.762,214.01C87.762,214.01 87.861,185.837 88.229,180.699C88.587,175.712 89.251,165.782 89.653,160.364C90.072,154.735 93.653,131.08 93.653,131.08C93.666,130.996 93.679,130.911 93.694,130.827C93.694,130.827 97.191,110.959 99.941,103.57L104.226,96.085L107.443,92.991L111.173,90.7L115.731,89.194L119.753,88.813L126.823,90.19L124.885,89.545L126.718,90.019L190.323,86.068ZM125.269,105.138L121.129,104.067C121.129,104.067 116.473,102.156 113.999,108.802C111.526,115.449 108.481,133.343 108.481,133.343C108.481,133.343 105.014,156.067 104.612,161.475C104.21,166.884 103.548,176.795 103.191,181.773C102.834,186.75 102.762,214.049 102.762,214.049C102.762,214.049 102.421,225.543 113.123,222.359C122.473,219.577 141.448,212.537 146.097,210.802L192.501,213.898C192.706,217.431 192.84,219.594 192.84,219.594C192.84,219.594 193.787,228.704 202.463,226.115C211.139,223.526 270.737,202.365 270.737,202.365L270.737,118.652L201.697,99.628C201.697,99.628 197.108,97.775 194.802,100.818L125.269,105.138Z"/>
                </g>
                <path id="Left-panel" serif:id="Left panel" d="M125.56,105.213L121.129,104.067C121.129,104.067 116.473,102.156 113.999,108.802C111.526,115.449 108.481,133.343 108.481,133.343C108.481,133.343 105.014,156.067 104.612,161.475C104.21,166.884 103.548,176.795 103.191,181.773C102.834,186.75 102.762,214.049 102.762,214.049C102.762,214.049 102.421,225.543 113.123,222.359C123.826,219.174 147.142,210.411 147.142,210.411L138.488,104.303L125.56,105.213Z" style="fill:rgb(224,51,51);"/>
                <path id="Front" d="M194.837,100.816L121.271,105.386C121.271,105.386 118.459,105.519 117.639,108.557C116.819,111.595 111.743,142.742 110.207,151.201C106.479,171.736 107.379,208.218 107.379,208.218L193.056,213.935L194.837,100.816Z" style="fill:rgb(52,49,40);"/>
                <path id="Right-panel" serif:id="Right panel" d="M270.737,118.626L270.37,202.492C270.37,202.492 211.139,223.526 202.463,226.115C193.787,228.704 192.84,219.594 192.84,219.594C192.84,219.594 190.276,178.192 190.415,161.82C190.553,145.449 192.154,118.554 192.154,118.554C192.154,118.554 192.57,110.809 193.651,103.812C194.732,96.815 201.697,99.628 201.697,99.628L270.737,118.626Z" style="fill:rgb(224,51,51);"/>
            </g>
            <path id="Left-window" serif:id="Left window" d="M117.376,123.336C117.376,123.336 111.044,151.767 110.513,172.928C113.299,173.06 128.219,173.119 128.219,173.119C128.219,173.119 128.973,152.837 133.952,122.797C132.422,122.606 117.376,123.336 117.376,123.336Z" style="fill:rgb(167,227,244);"/>
            <path id="Middle-window" serif:id="Middle window" d="M142.503,122.308C142.503,122.308 138.03,152.745 137.499,173.905C140.285,174.037 156.146,174.107 156.146,174.107C156.146,174.107 156.599,151.669 160.377,121.527C158.846,121.336 142.503,122.308 142.503,122.308Z" style="fill:rgb(167,227,244);"/>
            <path id="Right-window" serif:id="Right window" d="M169.551,120.882C169.551,120.882 166.051,153.351 165.52,174.512C168.305,174.644 186.587,174.828 186.587,174.828C186.587,174.828 187.206,149.63 189.211,120.352C187.681,120.16 169.551,120.882 169.551,120.882Z" style="fill:rgb(167,227,244);"/>
            <path id="Mouth" d="M129.62,183.551L135.598,193.602L143.654,183.568L153.633,193.574L165.52,183.58" style="fill:none;stroke:rgb(5,172,168);stroke-width:5.21px;"/>
            <path id="Eye" d="M184.791,158.299L184.791,162.628C184.791,167.175 181.099,170.867 176.551,170.867C172.003,170.867 168.311,167.175 168.311,162.628L168.311,158.299C168.311,153.751 172.003,150.059 176.551,150.059C181.099,150.059 184.791,153.751 184.791,158.299Z"/>
        </g>
        <g id="Cat">
            <path d="M55.03,123.646C55.03,123.646 65.832,118.741 77.148,118.986C88.464,119.231 98.911,122.888 98.911,122.888C101.856,121.849 124.695,112.279 124.695,112.279C124.695,112.279 133.501,110.285 133.649,119.14C133.797,127.996 133.602,154.917 133.602,154.917C133.602,154.917 141.777,170.014 140.995,184.881C140.212,199.749 131.145,212.266 126.657,216.414C122.168,220.561 108.955,226.396 101.25,226.29C93.545,226.185 48.289,226.578 48.289,226.578C48.289,226.578 34.672,226.215 26.017,215.113C17.363,204.011 19.045,199.075 19.045,195.707C19.045,192.339 18.984,172.877 18.984,172.877C18.984,172.877 20.045,162.781 21.534,159.592C23.023,156.404 24.726,152.777 24.726,152.777L19.772,121.806C19.772,121.806 17.946,116.606 21.081,113.885C24.215,111.164 29.344,112.845 29.344,112.845L55.03,123.646Z" style="fill:rgb(255,201,92);"/>
            <path d="M55.435,107.544C60.889,105.806 69.073,103.808 77.473,103.99C85.516,104.164 93.198,105.762 98.179,107.055C105.459,104.088 118.898,98.444 118.898,98.444C119.701,98.108 120.533,97.842 121.382,97.649L127.636,97.103L132.684,97.817L138.089,99.993L141.857,102.761L144.817,106.2L146.987,110.28L148.228,114.601L148.647,118.89C148.764,125.889 148.67,144.058 148.623,151.632C151.503,158.156 156.693,172 155.974,185.67C154.936,205.386 142.789,221.93 136.837,227.43C130.517,233.27 111.893,241.438 101.044,241.289C93.388,241.184 48.42,241.578 48.42,241.578C48.243,241.579 48.066,241.577 47.889,241.573C47.889,241.573 27.266,241.112 14.187,224.335C1.44,207.983 4.045,200.668 4.045,195.707C4.045,192.346 3.984,172.924 3.984,172.924C3.983,172.385 4.01,171.846 4.066,171.31C4.066,171.31 5.909,157.6 7.943,153.245C8.354,152.364 8.782,151.45 9.185,150.589L4.96,124.176L5.619,126.775L4.273,119.701L4.762,113.592L6.82,108.057L11.248,102.557L15.585,99.664L21.734,97.673L27.331,97.374L34.015,98.591C34.402,98.718 34.783,98.86 35.158,99.018L55.435,107.544ZM55.03,123.646L29.344,112.845C29.344,112.845 24.215,111.164 21.081,113.885C17.946,116.606 19.772,121.806 19.772,121.806L24.726,152.777C24.726,152.777 23.023,156.404 21.534,159.592C20.045,162.781 18.984,172.877 18.984,172.877C18.984,172.877 19.045,192.339 19.045,195.707C19.045,199.075 17.363,204.011 26.017,215.113C34.672,226.215 48.289,226.578 48.289,226.578C48.289,226.578 93.545,226.185 101.25,226.29C108.955,226.396 122.168,220.561 126.657,216.414C131.145,212.266 140.212,199.749 140.995,184.881C141.777,170.014 133.602,154.917 133.602,154.917C133.602,154.917 133.797,127.996 133.649,119.14C133.501,110.285 124.695,112.279 124.695,112.279C124.695,112.279 101.856,121.849 98.911,122.888C98.911,122.888 88.464,119.231 77.148,118.986C65.832,118.741 55.03,123.646 55.03,123.646Z"/>
            <g id="Face">
                <g id="Whiskers">
                    <path d="M46.291,188.137C45.222,190.207 42.674,191.019 40.605,189.95L27.059,182.952C24.989,181.883 24.177,179.335 25.246,177.266C26.315,175.196 28.863,174.384 30.932,175.453L44.479,182.451C46.548,183.52 47.36,186.068 46.291,188.137Z" style="fill:rgb(142,94,49);"/>
                    <path d="M119.742,189.952C120.811,192.021 123.359,192.833 125.428,191.765L136.747,185.917C138.816,184.848 139.629,182.3 138.56,180.231C137.491,178.162 134.943,177.349 132.873,178.418L121.554,184.266C119.485,185.335 118.673,187.883 119.742,189.952Z" style="fill:rgb(142,94,49);"/>
                    <path d="M46.345,197.339C47.475,199.376 46.739,201.946 44.702,203.076L31.37,210.474C29.333,211.604 26.762,210.868 25.632,208.831C24.502,206.795 25.238,204.224 27.275,203.094L40.608,195.696C42.644,194.566 45.215,195.302 46.345,197.339Z" style="fill:rgb(142,94,49);"/>
                    <path d="M119.688,199.154C118.558,201.19 119.294,203.761 121.33,204.891L127.659,208.403C129.696,209.533 132.267,208.797 133.397,206.76C134.527,204.723 133.79,202.153 131.754,201.023L125.425,197.511C123.389,196.381 120.818,197.117 119.688,199.154Z" style="fill:rgb(142,94,49);"/>
                </g>
                <path id="Mouth1" serif:id="Mouth" d="M65.241,185.396L79.833,200.335L93.119,186.225L103.52,199.452L110.275,185.885" style="fill:none;stroke:black;stroke-width:8px;stroke-miterlimit:5;"/>
                <g id="Eyes">
                    <path id="Right-eye" serif:id="Right eye" d="M99.796,155.752C101.865,161.808 106.884,163.722 110.689,163.756C114.968,163.794 119.573,162.487 122.492,155.228" style="fill:none;stroke:black;stroke-width:10px;"/>
                    <path id="Left-eye" serif:id="Left eye" d="M54.342,155.752C56.411,161.808 61.43,163.722 65.235,163.756C69.515,163.794 74.12,162.487 77.039,155.228" style="fill:none;stroke:black;stroke-width:10px;"/>
                </g>
            </g>
        </g>
        <path id="Arm" d="M205.178,212.327L138.382,212.327C130.153,212.327 123.473,205.646 123.473,197.418C123.473,189.332 130.037,182.768 138.122,182.768L205.178,182.768" style="fill:rgb(5,172,168);stroke:black;stroke-width:10px;stroke-linecap:butt;"/>
    </g>
</svg>
