<?xml version="1.0" encoding="UTF-8" standalone="no"?>
<!DOCTYPE svg PUBLIC "-//W3C//DTD SVG 1.1//EN" "http://www.w3.org/Graphics/SVG/1.1/DTD/svg11.dtd">
<svg width="100%" height="100%" viewBox="0 0 256 256" version="1.1" xmlns="http://www.w3.org/2000/svg" xmlns:xlink="http://www.w3.org/1999/xlink" xml:space="preserve" xmlns:serif="http://www.serif.com/" style="fill-rule:evenodd;clip-rule:evenodd;stroke-linecap:round;stroke-linejoin:round;stroke-miterlimit:5;">
    <rect id="blobbee_snuggle_cat" x="-0" y="0" width="256" height="256" style="fill:none;"/>
    <clipPath id="_clip1">
        <rect x="-0" y="0" width="256" height="256"/>
    </clipPath>
    <g clip-path="url(#_clip1)">
        <g id="Cat">
            <path d="M101.293,99.635C101.293,99.635 90.491,94.731 79.175,94.976C67.859,95.221 57.411,98.877 57.411,98.877C54.467,97.839 31.628,88.268 31.628,88.268C31.628,88.268 22.821,86.274 22.673,95.13C22.526,103.985 22.721,130.906 22.721,130.906C22.721,130.906 14.546,146.003 15.328,160.871C16.111,175.738 25.178,188.256 29.666,192.403C34.154,196.551 47.368,202.386 55.073,202.28C62.778,202.174 108.033,202.568 108.033,202.568C108.033,202.568 121.651,202.204 130.305,191.102C138.96,180 137.278,175.064 137.278,171.696C137.278,168.329 137.338,148.866 137.338,148.866C137.338,148.866 136.278,138.77 134.789,135.582C133.3,132.394 131.597,128.767 131.597,128.767L136.551,97.796C136.551,97.796 138.377,92.595 135.242,89.875C132.108,87.154 126.979,88.835 126.979,88.835L101.293,99.635Z" style="fill:rgb(255,201,92);"/>
            <path d="M100.888,83.534L121.165,75.007C121.54,74.85 121.921,74.707 122.308,74.581L128.991,73.363L134.589,73.662L140.738,75.653L145.075,78.547L149.503,84.047L151.561,89.581L152.049,95.69L150.704,102.765L151.363,100.165L147.137,126.578L148.38,129.234C150.414,133.589 152.256,147.3 152.256,147.3C152.313,147.836 152.34,148.374 152.338,148.913C152.338,148.913 152.278,168.335 152.278,171.696C152.278,176.657 154.883,183.972 142.135,200.324C129.057,217.101 108.434,217.562 108.434,217.562C108.257,217.567 108.08,217.569 107.903,217.567C107.903,217.567 62.935,217.174 55.279,217.279C44.43,217.427 25.806,209.26 19.486,203.42C13.534,197.92 1.387,181.376 0.349,161.659C-0.371,147.989 4.82,134.146 7.699,127.622C7.653,120.048 7.559,101.878 7.676,94.88L8.095,90.591L9.336,86.27L11.506,82.19L14.466,78.75L18.233,75.982L23.639,73.807L28.686,73.093L34.941,73.639C35.79,73.831 36.621,74.097 37.425,74.434C37.425,74.434 50.864,80.078 58.144,83.045C63.125,81.752 70.806,80.153 78.85,79.979C87.25,79.798 95.433,81.796 100.888,83.534ZM101.293,99.635C101.293,99.635 90.491,94.731 79.175,94.976C67.859,95.221 57.411,98.877 57.411,98.877C54.467,97.839 31.628,88.268 31.628,88.268C31.628,88.268 22.821,86.274 22.673,95.13C22.526,103.985 22.721,130.906 22.721,130.906C22.721,130.906 14.546,146.003 15.328,160.871C16.111,175.738 25.178,188.256 29.666,192.403C34.154,196.551 47.368,202.386 55.073,202.28C62.778,202.174 108.033,202.568 108.033,202.568C108.033,202.568 121.651,202.204 130.305,191.102C138.96,180 137.278,175.064 137.278,171.696C137.278,168.329 137.338,148.866 137.338,148.866C137.338,148.866 136.278,138.77 134.789,135.582C133.3,132.394 131.597,128.767 131.597,128.767L136.551,97.796C136.551,97.796 138.377,92.595 135.242,89.875C132.108,87.154 126.979,88.835 126.979,88.835L101.293,99.635Z"/>
            <g id="Face">
                <g id="Whiskers">
                    <path d="M110.032,164.127C111.101,166.196 113.649,167.008 115.718,165.939L129.264,158.941C131.333,157.872 132.146,155.324 131.077,153.255C130.008,151.186 127.46,150.374 125.391,151.443L111.844,158.441C109.775,159.51 108.963,162.058 110.032,164.127Z" style="fill:rgb(142,94,49);"/>
                    <path d="M36.581,165.942C35.512,168.011 32.964,168.823 30.895,167.754L19.576,161.906C17.506,160.837 16.694,158.29 17.763,156.22C18.832,154.151 21.38,153.339 23.449,154.408L34.769,160.256C36.838,161.324 37.65,163.872 36.581,165.942Z" style="fill:rgb(142,94,49);"/>
                    <path d="M109.978,173.329C108.848,175.365 109.584,177.936 111.62,179.066L124.953,186.463C126.989,187.593 129.56,186.857 130.69,184.821C131.82,182.784 131.084,180.213 129.048,179.083L115.715,171.686C113.679,170.556 111.108,171.292 109.978,173.329Z" style="fill:rgb(142,94,49);"/>
                    <path d="M36.635,175.143C37.765,177.18 37.029,179.751 34.992,180.881L28.664,184.392C26.627,185.522 24.056,184.786 22.926,182.749C21.796,180.713 22.532,178.142 24.569,177.012L30.898,173.501C32.934,172.371 35.505,173.107 36.635,175.143Z" style="fill:rgb(142,94,49);"/>
                </g>
                <path id="Mouth" d="M91.081,161.385L76.49,176.325L63.204,162.215L52.803,175.442L46.048,161.875" style="fill:none;stroke:black;stroke-width:8px;"/>
                <g id="Eyes">
                    <path id="Right-eye" serif:id="Right eye" d="M56.527,131.742C54.458,137.797 49.439,139.711 45.634,139.745C41.354,139.784 36.75,138.477 33.831,131.217" style="fill:none;stroke:black;stroke-width:10px;stroke-miterlimit:1.5;"/>
                    <path id="Left-eye" serif:id="Left eye" d="M101.98,131.742C99.912,137.797 94.893,139.711 91.087,139.745C86.808,139.784 82.203,138.477 79.284,131.217" style="fill:none;stroke:black;stroke-width:10px;stroke-miterlimit:1.5;"/>
                </g>
            </g>
        </g>
        <g id="Bee">
            <path id="Wings-outline" serif:id="Wings outline" d="M140.966,168.291C125.389,167.812 108.616,156.263 101.311,136.893C92.069,112.387 102.613,88.579 120.892,82.468C133.353,78.301 148.469,82.813 159.533,94.109C174.192,86.603 190.523,87.025 201.524,95.138C217.851,107.178 220.477,134.486 203.162,156.076C186.306,177.094 158.958,181.696 143.064,169.975C142.336,169.438 141.637,168.876 140.966,168.291ZM147.112,152.435C148.326,154.556 149.943,156.41 151.967,157.903C162.545,165.704 180.242,160.68 191.461,146.691C202.68,132.702 203.2,115.012 192.622,107.211C182.906,100.046 167.185,103.699 155.994,115.181C149.673,101.253 136.519,93.059 125.649,96.694C114.147,100.539 109.531,116.18 115.346,131.6C121.162,147.02 135.221,156.417 146.722,152.571C146.853,152.527 146.983,152.482 147.112,152.435Z"/>
            <path id="Body" d="M142.599,132.363C182.017,109.605 226.593,112.318 242.082,138.416C257.57,164.514 238.143,204.179 198.726,226.937C159.309,249.695 114.732,246.982 99.243,220.884C83.755,194.785 103.182,155.121 142.599,132.363Z" style="fill:rgb(254,194,7);"/>
            <g id="Stripes">
                <path d="M172.294,123.577C171.439,124.258 233.868,121.39 239.731,184.974C270.951,101.29 172.605,117.274 172.294,123.577Z" style="fill:rgb(85,85,85);"/>
                <path d="M239.731,185.635C235.988,124.283 173.806,122.836 174.146,121.015L150.973,129.597C150.973,129.597 226.056,128.431 228.73,200.726L237.816,186.738" style="fill:rgb(254,194,7);"/>
                <path d="M214.772,215.612L228.6,200.726C225.975,128.339 149.397,127.079 149.398,127.106L137.122,134.347C137.008,134.368 216.318,140.745 214.772,215.612Z" style="fill:rgb(85,85,85);"/>
                <path d="M138.161,134.403L124.92,144.733C124.92,144.733 201.036,152.311 200.227,226.198L214.522,216.617C219.824,143.327 137.355,135.022 136.185,135.944" style="fill:rgb(254,194,7);"/>
                <path d="M122.077,146.141L112.15,156.694C112.15,156.694 182.218,157.327 183.816,233.525L200.227,226.198C203.027,150.019 124.352,146.951 122.077,146.141Z" style="fill:rgb(85,85,85);"/>
            </g>
            <path id="Body-outline" serif:id="Body outline" d="M142.599,132.363C182.017,109.605 226.593,112.318 242.082,138.416C257.57,164.514 238.143,204.179 198.726,226.937C159.309,249.695 114.732,246.982 99.243,220.884C83.755,194.785 103.182,155.121 142.599,132.363Z" style="fill:none;stroke:black;stroke-width:15px;stroke-miterlimit:1.5;"/>
            <g id="Wings">
                <path id="Back-wing" serif:id="Back wing" d="M125.649,96.694C137.15,92.848 151.209,102.245 157.024,117.665C162.84,133.084 158.224,148.725 146.722,152.571C135.221,156.417 121.162,147.02 115.346,131.6C109.531,116.18 114.147,100.539 125.649,96.694Z" style="fill:rgb(167,167,167);"/>
                <path id="Front-wing" serif:id="Front wing" d="M192.622,107.211C203.2,115.012 202.68,132.702 191.461,146.691C180.242,160.68 162.545,165.704 151.967,157.903C141.389,150.101 141.909,132.411 153.128,118.422C164.347,104.433 182.043,99.409 192.622,107.211Z" style="fill:rgb(195,195,195);"/>
            </g>
            <g id="Face1" serif:id="Face">
                <path id="Mouth1" serif:id="Mouth" d="M112.799,213.521L118.074,222.391L125.184,213.537L133.99,222.367L144.481,213.547" style="fill:none;stroke:black;stroke-width:4.6px;stroke-miterlimit:1.5;"/>
                <path id="Right-eye1" serif:id="Right eye" d="M138.209,197.827C138.209,197.827 141.715,191.781 149.37,194.599" style="fill:none;stroke:black;stroke-width:7px;stroke-miterlimit:1.5;"/>
                <path id="Left-eye1" serif:id="Left eye" d="M120.019,197.827C120.019,197.827 116.513,191.781 108.858,194.599" style="fill:none;stroke:black;stroke-width:7px;stroke-miterlimit:1.5;"/>
            </g>
        </g>
        <path id="Heart" d="M100.241,60.968L90.15,50.877C80.47,41.197 80.47,25.478 90.15,15.797C99.831,6.116 115.55,6.116 125.231,15.797L128,18.566L130.769,15.797C140.45,6.116 156.169,6.116 165.85,15.797C175.53,25.478 175.53,41.197 165.85,50.877L155.759,60.968C155.367,61.518 154.923,62.043 154.43,62.536L136.889,80.076C134.439,82.527 131.215,83.737 128,83.706C124.785,83.737 121.561,82.527 119.111,80.076L101.57,62.536C101.077,62.043 100.633,61.518 100.241,60.968Z" style="fill:rgb(239,124,148);stroke:black;stroke-width:15px;stroke-linejoin:miter;"/>
    </g>
</svg>
