<?xml version="1.0" encoding="UTF-8" standalone="no"?>
<!DOCTYPE svg PUBLIC "-//W3C//DTD SVG 1.1//EN" "http://www.w3.org/Graphics/SVG/1.1/DTD/svg11.dtd">
<svg width="100%" height="100%" viewBox="0 0 256 256" version="1.1" xmlns="http://www.w3.org/2000/svg" xmlns:xlink="http://www.w3.org/1999/xlink" xml:space="preserve" xmlns:serif="http://www.serif.com/" style="fill-rule:evenodd;clip-rule:evenodd;stroke-linecap:round;stroke-linejoin:round;stroke-miterlimit:1.5;">
    <rect id="blobbee_hold" x="-0" y="0" width="256" height="256" style="fill:none;"/>
    <path id="Hand" d="M153.811,159.603L77.103,159.603C65.236,159.603 52.816,170.758 52.816,170.758L18.604,204.97L52.932,239.299L87.091,205.14L153.877,205.14L232.332,177.759C236.274,176.375 238.351,172.052 236.968,168.11C233.725,158.87 223.591,154.001 214.351,157.244L168.095,173.477C167.874,165.782 161.559,159.603 153.811,159.603Z" style="fill:white;"/>
    <path d="M175.697,155.56L209.586,143.667C226.319,137.795 244.672,146.613 250.544,163.346L251.584,167.657L251.741,171.991L251.065,176.185L249.616,180.125L247.446,183.718L244.594,186.867L241.112,189.453L237.097,191.335L237.074,191.343L158.618,218.725C157.094,219.257 155.491,219.528 153.877,219.528L93.051,219.528L63.106,249.473C57.487,255.092 48.377,255.092 42.758,249.473L8.43,215.144C2.811,209.525 2.811,200.415 8.43,194.796L42.642,160.584C42.824,160.402 43.011,160.225 43.202,160.053C43.202,160.053 60.671,145.215 77.103,145.215L153.811,145.215L159.478,145.778L164.797,147.4L169.612,149.962L173.812,153.345L175.697,155.56ZM153.811,159.603L77.103,159.603C65.236,159.603 52.816,170.758 52.816,170.758L18.604,204.97L52.932,239.299L87.091,205.14L153.877,205.14L232.332,177.759C236.274,176.375 238.351,172.052 236.968,168.11C233.725,158.87 223.591,154.001 214.351,157.244L168.095,173.477C167.874,165.782 161.559,159.603 153.811,159.603Z"/>
    <g id="Bee">
        <path id="Wings-outline" serif:id="Wings outline" d="M105.248,95.997C88.698,93.663 72.274,79.05 67.095,57.368C60.64,30.346 74.732,6.606 94.783,2.615C108.726,-0.161 124.314,7.001 134.422,20.926C151.161,14.495 168.767,16.942 179.479,27.156C195.079,42.031 193.983,71.146 172.844,91.59C152.231,111.525 122.759,112.916 107.548,98.411C106.736,97.637 105.969,96.831 105.248,95.997ZM113.371,80.936C114.399,83.412 115.903,85.652 117.899,87.555C128.332,97.503 148.279,94.479 162.416,80.807C176.553,67.136 179.561,47.96 169.128,38.012C159.546,28.875 141.938,30.681 128.176,41.629C123.222,25.603 110.04,14.872 97.711,17.326C84.667,19.923 77.485,36.304 81.685,53.883C85.884,71.463 99.884,83.627 112.928,81.03C113.077,81.001 113.224,80.969 113.371,80.936Z"/>
        <path id="Body" d="M111.231,58.475C157.259,39.154 205.385,48.257 218.635,78.79C231.885,109.324 205.274,149.799 159.246,169.12C113.218,188.44 65.092,179.337 51.842,148.804C38.592,118.27 65.204,77.795 111.231,58.475Z" style="fill:rgb(254,194,7);"/>
        <g id="Stripes">
            <path d="M144.753,53.014C143.728,53.636 212.049,59.132 209.652,129.122C255.17,42.381 145.96,46.198 144.753,53.014Z" style="fill:rgb(85,85,85);"/>
            <path d="M209.561,129.841C213.955,62.573 146.5,52.416 147.121,50.481L120.724,56.621C120.724,56.621 202.577,65.714 195.509,144.742L207.325,130.777" style="fill:rgb(254,194,7);"/>
            <path d="M178.268,159.012L195.367,144.724C202.501,65.603 119.356,53.664 119.354,53.693L104.998,59.878C104.872,59.885 190.282,77.768 178.268,159.012Z" style="fill:rgb(85,85,85);"/>
            <path d="M106.12,60.081L90.289,69.493C90.289,69.493 172.059,88.243 160.982,168.523L177.856,160.071C193.741,81.062 105.159,60.644 103.759,61.485" style="fill:rgb(254,194,7);"/>
            <path d="M87.001,70.633L74.743,80.745C74.743,80.745 150.892,91.104 142.115,174.23L160.982,168.523C174.541,86.024 89.364,71.828 87.001,70.633Z" style="fill:rgb(85,85,85);"/>
        </g>
        <path id="Body-outline" serif:id="Body outline" d="M111.231,58.475C157.259,39.154 205.385,48.257 218.635,78.79C231.885,109.324 205.274,149.799 159.246,169.12C113.218,188.44 65.092,179.337 51.842,148.804C38.592,118.27 65.204,77.795 111.231,58.475Z" style="fill:none;stroke:black;stroke-width:15px;"/>
        <g id="Wings">
            <path id="Back-wing" serif:id="Back wing" d="M97.711,17.326C110.756,14.729 124.756,26.894 128.955,44.473C133.154,62.053 125.973,78.434 112.928,81.03C99.884,83.627 85.884,71.463 81.685,53.883C77.485,36.304 84.667,19.923 97.711,17.326Z" style="fill:rgb(167,167,167);"/>
            <path id="Front-wing" serif:id="Front wing" d="M169.128,38.012C179.561,47.96 176.553,67.136 162.416,80.807C148.279,94.479 128.332,97.503 117.899,87.555C107.466,77.607 110.473,58.431 124.611,44.76C138.748,31.088 158.695,28.064 169.128,38.012Z" style="fill:rgb(195,195,195);"/>
        </g>
        <g id="Face">
            <path id="Mouth" d="M67.607,142.664L72.123,153.043L81.08,144.39L89.443,155.213L102.074,147.065" style="fill:none;stroke:black;stroke-width:5.04px;"/>
            <path id="Right-eye" serif:id="Right eye" d="M112.635,126.73L112.112,130.857C111.562,135.193 107.595,138.266 103.26,137.716C98.924,137.167 95.851,133.2 96.401,128.865L96.924,124.737C97.474,120.402 101.441,117.328 105.776,117.878C110.112,118.428 113.185,122.395 112.635,126.73Z"/>
            <path id="Left-eye" serif:id="Left eye" d="M78.164,122.358L77.641,126.485C77.091,130.821 73.124,133.894 68.789,133.344C64.453,132.794 61.38,128.828 61.93,124.492L62.453,120.365C63.003,116.029 66.97,112.956 71.305,113.506C75.641,114.056 78.714,118.022 78.164,122.358Z"/>
        </g>
    </g>
    <g id="Hand-coverup" serif:id="Hand coverup">
        <path id="Main" d="M87.091,205.14L52.804,170.77L52.816,170.758C52.816,170.758 65.236,159.603 77.103,159.603L153.811,159.603C161.559,159.603 167.874,165.782 168.095,173.477L153.877,205.14L87.091,205.14Z" style="fill:white;"/>
        <path d="M42.642,160.584C42.824,160.402 43.011,160.225 43.202,160.053C43.202,160.053 60.671,145.215 77.103,145.215L153.811,145.215L159.478,145.778L164.797,147.4L169.612,149.962L173.812,153.345L175.697,155.56L209.586,143.667C226.319,137.795 223.591,154.001 214.351,157.244L168.095,173.477C167.874,165.782 161.559,159.603 153.811,159.603L77.103,159.603C65.236,159.603 52.816,170.758 52.816,170.758L52.804,170.77L42.642,160.584Z"/>
    </g>
    <path id="Thumb" d="M97.008,154.581L157.395,154.581C163.985,154.581 169.336,161.213 169.336,169.382C169.336,177.551 163.985,184.182 157.395,184.182L97.008,184.182" style="fill:white;stroke:black;stroke-width:10.07px;"/>
</svg>
