<?xml version="1.0" encoding="UTF-8" standalone="no"?>
<!DOCTYPE svg PUBLIC "-//W3C//DTD SVG 1.1//EN" "http://www.w3.org/Graphics/SVG/1.1/DTD/svg11.dtd">
<svg width="100%" height="100%" viewBox="0 0 256 256" version="1.1" xmlns="http://www.w3.org/2000/svg" xmlns:xlink="http://www.w3.org/1999/xlink" xml:space="preserve" xmlns:serif="http://www.serif.com/" style="fill-rule:evenodd;clip-rule:evenodd;stroke-linecap:round;stroke-linejoin:round;stroke-miterlimit:1.5;">
    <defs>
        <filter id="eye_glow" width="10" height="10" x="-5" y="-5">
            <feGaussianBlur in="SourceGraphic" result="blur1" stdDeviation="10"/>
            <feGaussianBlur in="SourceGraphic" result="blur2" stdDeviation="5"/>
            <feComposite in="SourceGraphic" in2="blur1" result="comp1"/>
            <feComposite in="comp1" in2="blur2"/>
        </filter>
    </defs>
    <rect id="blobbee_bot" x="0" y="-0" width="256" height="256" style="fill:none;"/>
    <path id="Wings-outline" serif:id="Wings outline" d="M85.911,118.96C64.22,119.951 40.081,103.608 29.74,76.187C17.462,43.633 30.423,11.638 54.705,3.519C72.712,-2.502 94.597,5.565 109.433,23.705C130.196,10.768 154.388,9.924 170.338,21.686C192.186,37.798 194.54,74.364 171.369,103.256C148.655,131.579 112.048,138.809 90.631,123.014C88.938,121.766 87.365,120.412 85.911,118.96ZM92.141,102.617C93.99,105.847 96.453,108.67 99.534,110.942C115.64,122.82 142.585,115.171 159.667,93.871C176.749,72.572 177.541,45.636 161.435,33.758C146.642,22.849 122.705,28.412 105.665,45.894C96.041,24.687 76.012,12.211 59.461,17.745C41.949,23.6 34.92,47.416 43.775,70.894C52.629,94.372 74.036,108.68 91.548,102.824C91.747,102.758 91.945,102.689 92.141,102.617Z"/>
    <path id="Antenna-outline" serif:id="Antenna outline" d="M36.337,79.5C36.337,77.858 37.67,76.525 39.312,76.525L45.763,76.525C47.405,76.525 48.738,77.858 48.738,79.5L48.738,84.683C48.738,86.325 47.405,87.658 45.763,87.658L39.312,87.658C37.67,87.658 36.337,86.325 36.337,84.683L36.337,79.5ZM36.258,91.515C36.258,89.714 37.719,88.252 39.52,88.252L45.396,88.252C47.197,88.252 48.659,89.714 48.659,91.515L48.659,127.106C48.659,128.907 47.197,130.369 45.396,130.369L39.52,130.369C37.719,130.369 36.258,128.907 36.258,127.106L36.258,91.515Z" style="fill:rgb(88,211,215);"/>
    <path d="M21.99,87.904L21.337,84.683L21.337,79.5L22.757,72.495L26.602,66.79L32.307,62.945L39.312,61.525L45.763,61.525L52.767,62.945L58.473,66.79L62.317,72.495L63.738,79.5L63.738,84.683L63.006,88.294L63.659,91.515L63.659,127.106L62.216,134.222L58.309,140.019L52.512,143.926L45.396,145.369L39.52,145.369L32.404,143.926L26.607,140.019L22.7,134.222L21.258,127.106L21.258,91.515L21.99,87.904ZM42.022,73.252L43.053,73.252C42.883,73.197 42.711,73.145 42.537,73.096C42.364,73.145 42.192,73.197 42.022,73.252ZM36.337,79.5L36.337,84.683C36.337,86.325 37.67,87.658 39.312,87.658L45.763,87.658C47.405,87.658 48.738,86.325 48.738,84.683L48.738,79.5C48.738,77.858 47.405,76.525 45.763,76.525L39.312,76.525C37.67,76.525 36.337,77.858 36.337,79.5ZM36.258,91.515L36.258,127.106C36.258,128.907 37.719,130.369 39.52,130.369L45.396,130.369C47.197,130.369 48.659,128.907 48.659,127.106L48.659,91.515C48.659,89.714 47.197,88.252 45.396,88.252L39.52,88.252C37.719,88.252 36.258,89.714 36.258,91.515Z"/>
    <path id="Body" d="M85.271,72.055C145.288,37.404 213.16,41.534 236.743,81.272C260.326,121.009 230.747,181.404 170.729,216.054C110.712,250.705 42.84,246.576 19.257,206.838C-4.326,167.1 25.253,106.706 85.271,72.055Z" style="fill:rgb(254,194,7);"/>
    <g id="Stripes">
        <path d="M130.484,58.678C129.182,59.714 224.237,55.348 233.164,152.161C280.7,24.744 130.957,49.08 130.484,58.678Z" style="fill:rgb(85,85,85);"/>
        <path d="M233.164,153.168C227.465,59.753 132.786,57.55 133.303,54.776L98.021,67.843C98.021,67.843 212.342,66.068 216.414,176.145L230.249,154.847" style="fill:rgb(254,194,7);"/>
        <path d="M195.162,198.811L216.216,176.145C212.218,65.928 95.621,64.01 95.622,64.051L76.931,75.077C76.758,75.108 197.515,84.817 195.162,198.811Z" style="fill:rgb(85,85,85);"/>
        <path d="M78.512,75.161L58.353,90.89C58.353,90.89 174.247,102.428 173.015,214.93L194.78,200.34C202.854,88.75 77.286,76.105 75.505,77.508" style="fill:rgb(254,194,7);"/>
        <path d="M54.023,93.034L38.908,109.103C38.908,109.103 145.595,110.065 148.028,226.085L173.015,214.93C177.278,98.938 57.487,94.267 54.023,93.034Z" style="fill:rgb(85,85,85);"/>
    </g>
    <path id="Body-outline" serif:id="Body outline" d="M85.271,72.055C145.288,37.404 213.16,41.534 236.743,81.272C260.326,121.009 230.747,181.404 170.729,216.054C110.712,250.705 42.84,246.576 19.257,206.838C-4.326,167.1 25.253,106.706 85.271,72.055Z" style="fill:none;stroke:black;stroke-width:15px;"/>
    <g id="Wings">
        <path id="Back-wing" serif:id="Back wing" d="M59.461,17.745C76.973,11.89 98.38,26.197 107.234,49.675C116.089,73.154 109.06,96.969 91.548,102.824C74.036,108.68 52.629,94.372 43.775,70.894C34.92,47.416 41.949,23.6 59.461,17.745Z" style="fill:rgb(167,167,167);"/>
        <path id="Front-wing" serif:id="Front wing" d="M161.435,33.758C177.541,45.636 176.749,72.572 159.667,93.871C142.585,115.171 115.64,122.82 99.534,110.942C83.427,99.064 84.219,72.128 101.301,50.829C118.383,29.529 145.328,21.88 161.435,33.758Z" style="fill:rgb(195,195,195);"/>
    </g>
    <g id="Face">
        <path id="Mouth" d="M39.896,195.627L47.929,209.133L58.753,195.651L72.162,209.096L88.135,195.667" style="fill:none;stroke:black;stroke-width:7px;"/>
        <path id="Visor" d="M87.471,187.977L91.082,187.576C93.892,187.175 96.139,186.533 98.226,185.489C102.48,183.322 105.209,179.791 106.091,175.055C106.413,173.53 106.493,172.808 106.493,171.283C106.493,165.343 104.406,159.885 100.313,154.668C95.015,148.007 87.792,143.993 78.642,142.629C68.562,141.47 58.382,141.47 48.302,142.629C39.152,143.993 31.929,148.007 26.632,154.668C22.538,159.885 20.451,165.343 20.451,171.283C20.451,172.808 20.532,173.53 20.853,175.055C22.217,181.958 27.274,186.212 35.541,187.576C38.35,188.058 36.584,187.977 62.91,188.058L87.471,187.977Z" style="fill:rgb(53,53,53);fill-rule:nonzero;"/>
        <g id="Eyes">
            <path id="Right-eye" serif:id="Right eye" filter="url(#eye_glow)" d="M93.399,163.826L93.399,169.602C93.399,175.669 88.473,180.595 82.405,180.595C76.338,180.595 71.412,175.669 71.412,169.602L71.412,163.826C71.412,157.759 76.338,152.833 82.405,152.833C88.473,152.833 93.399,157.759 93.399,163.826Z" style="fill:rgb(88,211,215);"/>
            <path id="Left-eye" serif:id="Left eye" filter="url(#eye_glow)" d="M55.403,163.826L55.403,169.602C55.403,175.669 50.477,180.595 44.41,180.595C38.342,180.595 33.416,175.669 33.416,169.602L33.416,163.826C33.416,157.759 38.342,152.833 44.41,152.833C50.477,152.833 55.403,157.759 55.403,163.826Z" style="fill:rgb(88,211,215);"/>
        </g>
    </g>
    <g id="Antenna">
        <path id="light" d="M36.337,79.5L36.337,84.683C36.337,86.325 37.67,87.658 39.312,87.658L45.763,87.658C47.405,87.658 48.738,86.325 48.738,84.683L48.738,79.5C48.738,77.858 47.405,76.525 45.763,76.525L39.312,76.525C37.67,76.525 36.337,77.858 36.337,79.5Z" style="fill:rgb(88,211,215);"/>
        <path id="stem" d="M36.258,91.515L36.258,127.106C36.258,128.907 37.719,130.369 39.52,130.369L45.396,130.369C47.197,130.369 48.659,128.907 48.659,127.106L48.659,91.515C48.659,89.714 47.197,88.252 45.396,88.252L39.52,88.252C37.719,88.252 36.258,89.714 36.258,91.515Z" style="fill:rgb(160,160,160);"/>
    </g>
</svg>
