<?xml version="1.0" encoding="UTF-8" standalone="no"?>
<!DOCTYPE svg PUBLIC "-//W3C//DTD SVG 1.1//EN" "http://www.w3.org/Graphics/SVG/1.1/DTD/svg11.dtd">
<svg width="100%" height="100%" viewBox="0 0 256 256" version="1.1" xmlns="http://www.w3.org/2000/svg" xmlns:xlink="http://www.w3.org/1999/xlink" xml:space="preserve" xmlns:serif="http://www.serif.com/" style="fill-rule:evenodd;clip-rule:evenodd;stroke-linecap:round;stroke-linejoin:round;stroke-miterlimit:1.5;">
    <rect id="blobbee_hug_ssb" x="0" y="0" width="256" height="256" style="fill:none;"/>
    <clipPath id="_clip1">
        <rect x="0" y="0" width="256" height="256"/>
    </clipPath>
    <g clip-path="url(#_clip1)">
        <g id="Bee">
            <path id="Wings-outline" serif:id="Wings outline" d="M148.346,135.121C134.249,134.344 119.24,123.938 112.662,106.497C104.15,83.926 114.112,62.089 130.948,56.459C142.085,52.736 155.58,56.452 165.699,66.148C178.871,59.892 193.341,60.565 203.162,67.808C218.161,78.869 220.853,103.948 204.946,123.783C189.498,143.045 164.378,147.014 149.812,136.273C149.309,135.902 148.82,135.518 148.346,135.121ZM154.47,119.42C155.531,121.274 156.945,122.896 158.715,124.2C167.963,131.021 183.435,126.629 193.244,114.398C203.053,102.168 203.508,86.701 194.259,79.88C185.765,73.616 172.02,76.81 162.236,86.849C156.709,74.672 145.208,67.508 135.704,70.685C125.649,74.048 121.613,87.723 126.697,101.204C131.782,114.685 144.073,122.901 154.129,119.539C154.243,119.501 154.357,119.461 154.47,119.42Z"/>
            <path id="Body" d="M152.322,98.199C188.339,75.441 229.071,78.153 243.223,104.252C257.376,130.35 239.624,170.015 203.607,192.773C167.59,215.53 126.858,212.818 112.706,186.72C98.553,160.621 116.305,120.956 152.322,98.199Z" style="fill:rgb(254,194,7);"/>
            <g id="Stripes">
                <path d="M179.455,89.413C178.674,90.093 235.718,87.226 241.075,150.81C269.602,67.126 179.739,83.109 179.455,89.413Z" style="fill:rgb(85,85,85);"/>
                <path d="M241.075,151.471C237.655,90.119 180.837,88.672 181.147,86.85L159.973,95.432C159.973,95.432 228.579,94.267 231.023,166.562L239.325,152.573" style="fill:rgb(254,194,7);"/>
                <path d="M218.269,181.448L230.904,166.562C228.505,94.174 158.533,92.915 158.534,92.942L147.317,100.183C147.213,100.204 219.681,106.58 218.269,181.448Z" style="fill:rgb(85,85,85);"/>
                <path d="M148.266,100.238L136.168,110.568C136.168,110.568 205.718,118.147 204.979,192.034L218.04,182.452C222.885,109.163 147.53,100.858 146.461,101.779" style="fill:rgb(254,194,7);"/>
                <path d="M133.57,111.977L124.499,122.53C124.499,122.53 188.523,123.162 189.983,199.361L204.979,192.034C207.537,115.854 135.648,112.787 133.57,111.977Z" style="fill:rgb(85,85,85);"/>
            </g>
            <path id="Body-outline" serif:id="Body outline" d="M152.322,98.199C188.339,75.441 229.071,78.153 243.223,104.252C257.376,130.35 239.624,170.015 203.607,192.773C167.59,215.53 126.858,212.818 112.706,186.72C98.553,160.621 116.305,120.956 152.322,98.199Z" style="fill:none;stroke:black;stroke-width:15px;"/>
            <g id="Wings">
                <path id="Back-wing" serif:id="Back wing" d="M135.704,70.685C145.76,67.323 158.052,75.539 163.136,89.02C168.221,102.502 164.185,116.177 154.129,119.539C144.073,122.901 131.782,114.685 126.697,101.204C121.613,87.723 125.649,74.048 135.704,70.685Z" style="fill:rgb(167,167,167);"/>
                <path id="Front-wing" serif:id="Front wing" d="M194.259,79.88C203.508,86.701 203.053,102.168 193.244,114.398C183.435,126.629 167.963,131.021 158.715,124.2C149.466,117.38 149.921,101.913 159.73,89.682C169.538,77.452 185.01,73.06 194.259,79.88Z" style="fill:rgb(195,195,195);"/>
            </g>
            <g id="Face">
                <path id="Mouth" d="M128.439,178.362L133.715,187.232L140.824,178.377L149.631,187.207L160.122,178.388" style="fill:none;stroke:black;stroke-width:4.6px;"/>
                <path id="Eye" d="M166.682,158.774L166.682,162.584C166.682,166.586 163.433,169.835 159.431,169.835C155.428,169.835 152.179,166.586 152.179,162.584L152.179,158.774C152.179,154.772 155.428,151.523 159.431,151.523C163.433,151.523 166.682,154.772 166.682,158.774Z"/>
            </g>
        </g>
        <g id="SSB">
            <path id="Outline" d="M120.962,89.242L117.024,85.736C116.701,85.449 116.361,85.184 116.005,84.94C116.005,84.94 110.541,81.099 102.627,79.837C97.064,78.949 77.08,76.024 70.902,75.38C64.057,74.667 59.169,73.838 50.695,74.88C41.625,75.996 33.289,80.344 26.341,84.812C20.526,88.55 -11.015,110.774 -11.015,110.774C-13.703,112.669 -15.301,115.751 -15.301,119.039L-15.301,227.924C-15.301,231.932 -12.935,235.562 -9.267,237.178C-9.267,237.178 -8.572,237.489 4.032,242.555C17.063,247.79 18.863,247.814 34.477,251.132C50.144,254.462 57.814,253.802 69.535,253.872C83.333,253.956 103.559,252.768 118.843,251.83C135.343,250.816 149.509,245.96 149.509,245.96C153.413,244.628 156.116,241.056 156.339,236.938C156.339,236.938 157.223,220.487 157.125,211.296C157.029,202.359 153.127,187.286 152.573,183.675C152.432,182.742 145.559,115.378 144.722,111.365C144.052,108.15 143.309,104.505 140.451,100.685C137.885,97.255 133.42,93.355 124.19,90.233C123.163,89.885 122.084,89.557 120.962,89.242ZM-5.19,122.866L-4.959,122.713L-5.19,122.761L-5.19,119.039C-5.19,119.039 26.051,97.02 31.81,93.316C37.57,89.613 44.41,85.841 51.929,84.915C59.447,83.991 63.781,84.804 69.853,85.438C75.926,86.071 95.567,88.95 101.035,89.822C106.503,90.694 110.3,93.289 110.3,93.289L115.62,98.026L115.037,98.144C117.152,98.664 119.143,99.2 120.951,99.812C133.695,104.122 133.993,109.444 134.823,113.429C135.654,117.412 142.44,184.299 142.578,185.204C143.103,188.627 146.923,202.919 147.014,211.403C147.108,220.361 146.242,236.392 146.242,236.392C146.242,236.392 133.298,240.811 118.224,241.737C103.15,242.663 83.203,243.843 69.596,243.76C58.559,243.694 51.332,244.377 36.579,241.242C21.826,238.106 20.115,238.12 7.803,233.172C-4.509,228.225 -5.19,227.924 -5.19,227.924L-5.19,122.866ZM-5.19,132.978L-5.296,132.871C-5.271,132.872 -5.246,132.872 -5.22,132.872L-5.19,132.978Z"/>
            <path id="Roof-unit" serif:id="Roof unit" d="M115.62,98.026L110.3,93.289C110.3,93.289 106.503,90.694 101.035,89.822C95.567,88.95 75.926,86.071 69.853,85.438C63.781,84.804 59.447,83.991 51.929,84.915C44.41,85.841 37.57,89.613 31.81,93.316C26.051,97.02 -5.19,119.039 -5.19,119.039L-5.19,122.761L115.62,98.026Z" style="fill:rgb(177,176,178);stroke:black;stroke-width:0.67px;"/>
            <path id="Body1" serif:id="Body" d="M-5.19,122.866L17.128,108.105C17.128,108.105 25.436,102.209 30.232,100.3C35.029,98.391 47.522,91.735 64.1,92.188C80.678,92.641 106.282,95.181 120.951,99.812C133.127,103.654 133.993,109.444 134.823,113.429C135.654,117.412 142.44,184.299 142.578,185.204C143.103,188.627 146.923,202.919 147.014,211.403C147.108,220.361 146.242,236.392 146.242,236.392C146.242,236.392 133.298,240.811 118.224,241.737C103.15,242.663 83.203,243.843 69.596,243.76C58.559,243.694 51.332,244.377 36.579,241.242C21.826,238.106 20.115,238.12 7.803,233.172C-4.509,228.225 -5.19,227.924 -5.19,227.924L-5.19,122.866Z" style="fill:rgb(254,218,24);"/>
            <path id="Coupling-surround" serif:id="Coupling surround" d="M74.525,243.69L74.234,219.612C74.234,219.612 102.475,219.934 115.62,219.216C128.764,218.498 140.762,216.796 140.762,216.796L140.831,237.492L138.897,238.143L138.824,219.064C138.824,219.064 123.659,220.606 115.62,221.104C107.581,221.603 76.202,222.036 76.202,222.036L76.202,243.71" style="stroke:black;stroke-width:0.67px;"/>
            <path id="Front-window" serif:id="Front window" d="M57.469,97.573C57.469,97.573 48.818,97.469 50.699,108.347C52.581,119.223 62.029,177.835 62.029,177.835C62.029,177.835 63.45,187.553 69.976,188.095C76.469,188.635 92.732,190.13 107.661,189.972C122.589,189.814 133.031,188.811 133.031,188.811C133.031,188.811 137.311,188.34 136.553,181.191C135.707,173.219 130.524,115.224 130.524,115.224C130.524,115.224 129.909,107.821 122.977,105.575C114.63,102.869 114.059,102.449 96.823,99.742C89.184,98.542 64.451,96.869 57.469,97.573Z" style="fill:rgb(167,227,244);stroke:black;stroke-width:4.04px;"/>
            <path id="Coupling" d="M96.665,228.422L96.665,240.432C96.665,241.821 97.789,242.886 99.173,242.809L120.47,241.635C121.853,241.557 122.977,240.369 122.977,238.981L122.977,226.97C122.977,225.582 121.853,224.517 120.47,224.593L99.173,225.768C97.789,225.845 96.665,227.033 96.665,228.422Z" style="fill:rgb(165,165,165);"/>
            <path id="Side-window" serif:id="Side window" d="M1.233,181.785L9.53,181.746L23.135,183.522L48.433,186.806L35.472,121.472C35.472,121.472 34.144,113.459 23.384,119.31C13.452,124.71 0.831,131.413 0.831,131.413L1.233,181.785Z" style="fill:rgb(167,227,244);stroke:black;stroke-width:4.04px;"/>
            <path id="Destination-sign" serif:id="Destination sign" d="M128.868,118.935C128.626,116.374 128.442,114.859 128.442,114.859C128.442,114.859 127.783,107.856 121.227,105.731C113.333,103.174 112.792,102.776 96.489,100.214C89.266,99.079 65.872,97.497 59.268,98.164C59.268,98.164 50.365,98.163 52.725,108.41C52.771,108.615 53.416,112.418 53.458,112.661L128.868,118.935Z" style="fill:rgb(53,53,53);"/>
            <g id="Face1" serif:id="Face">
                <path id="Mouth1" serif:id="Mouth" d="M117.028,169.144L111.613,178.249L104.317,169.16L95.278,178.223L84.51,169.171" style="fill:none;stroke:black;stroke-width:4.72px;"/>
                <path id="Right-eye" serif:id="Right eye" d="M111.066,152.219C112.221,155.602 115.025,156.67 117.15,156.689C119.54,156.711 122.112,155.981 123.742,151.926" style="fill:none;stroke:black;stroke-width:7px;"/>
                <path id="Left-eye" serif:id="Left eye" d="M77.273,151.288C78.564,155.067 81.696,156.261 84.07,156.282C86.74,156.306 89.613,155.491 91.435,150.961" style="fill:none;stroke:black;stroke-width:7px;"/>
            </g>
        </g>
        <path id="Arm" d="M201.081,205.964C200.385,209.183 197.967,211.917 194.574,212.851L149.577,225.233C144.716,226.57 139.684,223.71 138.347,218.849C137.01,213.989 139.87,208.957 144.73,207.619L181.305,197.555L178.809,186.65C177.685,181.736 180.761,176.834 185.675,175.709C190.59,174.584 195.492,177.661 196.617,182.575L201.059,201.984C201.368,203.338 201.359,204.69 201.081,205.964Z" style="fill:rgb(151,151,151);"/>
        <path d="M210.852,208.086L209.114,212.892L206.17,217.065L202.149,220.36L197.227,222.493L152.23,234.874L148.418,235.52L144.645,235.396L141.04,234.556L137.699,233.059L134.704,230.955L132.138,228.287L130.101,225.108L128.705,221.502L128.06,217.69L128.184,213.917L129.023,210.312L130.521,206.972L132.625,203.976L135.293,201.41L138.472,199.374L142.077,197.978L169.421,190.454L169.061,188.881L168.583,185.045L168.87,181.28L169.866,177.715L171.508,174.443L173.74,171.542L176.517,169.094L179.782,167.198L183.445,165.961L187.281,165.482L191.045,165.77L194.61,166.766L197.883,168.407L200.784,170.64L203.231,173.417L205.127,176.681L206.365,180.344L210.807,199.753L211.29,203.979L210.852,208.086ZM201.081,205.964C201.359,204.69 201.368,203.338 201.059,201.984L196.617,182.575C195.492,177.661 190.59,174.584 185.675,175.709C180.761,176.834 177.685,181.736 178.809,186.65L181.305,197.555L144.73,207.619C139.87,208.957 137.01,213.989 138.347,218.849C139.684,223.71 144.716,226.57 149.577,225.233L194.574,212.851C197.967,211.917 200.385,209.183 201.081,205.964Z"/>
    </g>
</svg>
