<?xml version="1.0" encoding="UTF-8" standalone="no"?>
<!DOCTYPE svg PUBLIC "-//W3C//DTD SVG 1.1//EN" "http://www.w3.org/Graphics/SVG/1.1/DTD/svg11.dtd">
<svg width="100%" height="100%" viewBox="0 0 256 256" version="1.1" xmlns="http://www.w3.org/2000/svg" xmlns:xlink="http://www.w3.org/1999/xlink" xml:space="preserve" xmlns:serif="http://www.serif.com/" style="fill-rule:evenodd;clip-rule:evenodd;stroke-linecap:round;stroke-linejoin:round;stroke-miterlimit:1.5;">
    <rect id="blobbee_no_spoons" x="-0" y="0" width="256" height="256" style="fill:none;"/>
    <clipPath id="_clip1">
        <rect x="-0" y="0" width="256" height="256"/>
    </clipPath>
    <g clip-path="url(#_clip1)">
        <path id="Wings-outline" serif:id="Wings outline" d="M130.856,59.756C103.019,62.47 71.403,41.235 57.982,5.65C42.637,-35.039 58.037,-75.299 88.386,-85.447C112.041,-93.356 140.798,-81.45 159.283,-56.218C186.131,-74.864 218.386,-77.209 239.378,-61.728C266.807,-41.5 268.887,4.414 239.797,40.686C211.162,76.39 165.207,86.274 138.208,66.364C135.509,64.373 133.058,62.162 130.856,59.756ZM137.155,43.08C139.645,47.429 142.961,51.231 147.111,54.291C168.802,70.288 205.09,59.987 228.095,31.302C251.1,2.617 252.167,-33.659 230.475,-49.656C210.553,-64.348 178.317,-56.856 155.368,-33.312C142.407,-61.872 115.433,-78.674 93.143,-71.221C69.559,-63.336 60.093,-31.263 72.017,0.357C83.942,31.976 112.771,51.244 136.356,43.359C136.624,43.269 136.89,43.176 137.155,43.08Z"/>
        <path id="Body" d="M127.902,1.921C208.729,-44.745 300.137,-39.183 331.897,14.333C363.657,67.85 323.82,149.185 242.993,195.851C162.165,242.517 70.758,236.955 38.998,183.439C7.237,129.922 47.074,48.587 127.902,1.921Z" style="fill:rgb(254,194,7);"/>
        <g id="Stripes">
            <path d="M188.793,-16.095C187.039,-14.699 315.054,-20.58 327.076,109.803C391.095,-61.796 189.429,-29.021 188.793,-16.095Z" style="fill:rgb(85,85,85);"/>
            <path d="M327.076,111.159C319.401,-14.647 191.893,-17.614 192.59,-21.35L145.073,-3.751C145.073,-3.751 299.034,-6.142 304.518,142.104L323.15,113.42" style="fill:rgb(254,194,7);"/>
            <path d="M275.897,172.628L304.252,142.104C298.868,-6.332 141.84,-8.914 141.842,-8.859L116.671,5.99C116.437,6.032 279.066,19.108 275.897,172.628Z" style="fill:rgb(85,85,85);"/>
            <path d="M118.8,6.104L91.65,27.286C91.65,27.286 247.73,42.825 246.071,194.336L275.383,174.688C286.256,24.404 117.148,7.374 114.749,9.264" style="fill:rgb(254,194,7);"/>
            <path d="M85.819,30.174L65.463,51.814C65.463,51.814 209.143,53.111 212.42,209.36L246.071,194.336C251.812,38.125 90.484,31.835 85.819,30.174Z" style="fill:rgb(85,85,85);"/>
        </g>
        <path id="Body-outline" serif:id="Body outline" d="M127.902,1.921C208.729,-44.745 300.137,-39.183 331.897,14.333C363.657,67.85 323.82,149.185 242.993,195.851C162.165,242.517 70.758,236.955 38.998,183.439C7.237,129.922 47.074,48.587 127.902,1.921Z" style="fill:none;stroke:black;stroke-width:15px;"/>
        <g id="Wings">
            <path id="Back-wing" serif:id="Back wing" d="M93.143,-71.221C116.727,-79.107 145.556,-59.838 157.481,-28.219C169.406,3.4 159.94,35.473 136.356,43.359C112.771,51.244 83.942,31.976 72.017,0.357C60.093,-31.263 69.559,-63.336 93.143,-71.221Z" style="fill:rgb(167,167,167);"/>
            <path id="Front-wing" serif:id="Front wing" d="M230.475,-49.656C252.167,-33.659 251.1,2.617 228.095,31.302C205.09,59.987 168.802,70.288 147.111,54.291C125.419,38.295 126.486,2.019 149.491,-26.666C172.496,-55.351 208.784,-65.652 230.475,-49.656Z" style="fill:rgb(195,195,195);"/>
        </g>
        <g id="Face">
            <path id="Mouth" d="M84.403,178.961L99.983,163.802L119.301,179.362" style="fill:none;stroke:black;stroke-width:10px;"/>
            <g id="Eyes">
                <path id="Right-eye" serif:id="Right eye" d="M148.248,126.936L148.248,130.372C148.248,140.19 140.277,148.162 130.459,148.162C120.64,148.162 112.669,140.19 112.669,130.372L112.669,122.749C112.669,119.847 113.366,117.105 114.601,114.684L148.248,126.936Z"/>
                <path id="Left-eye" serif:id="Left eye" d="M86.899,114.872C87.994,117.227 88.605,119.851 88.605,122.617L88.605,130.505C88.605,140.665 80.357,148.913 70.197,148.913C60.037,148.913 51.789,140.665 51.789,130.505L51.789,127.715L86.899,114.872Z"/>
            </g>
        </g>
        <path id="Left-spoon" serif:id="Left spoon" d="M10.942,129.617L1.232,132.007C-0.43,125.253 -0.357,115.834 1.74,106.824L11.48,109.091C9.77,116.437 9.588,124.112 10.942,129.617ZM12.899,104.115L3.435,100.885C6.836,90.92 12.945,82.65 20.721,78.949L25.019,87.978C19.4,90.653 15.356,96.915 12.899,104.115ZM29.989,86.64L29.173,76.674C37.763,75.97 47.199,80.066 55.138,86.995L48.563,94.529C42.829,89.525 36.193,86.132 29.989,86.64ZM52.282,98.126L59.579,91.288C65.9,98.033 70.677,106.146 72.625,112.825L63.025,115.626C61.436,110.179 57.437,103.627 52.282,98.126ZM64.16,120.673L74.02,119.008C75.702,128.964 74.46,137.829 71.254,145.042L62.116,140.981C64.615,135.358 65.471,128.435 64.16,120.673ZM59.577,145.482L67.762,151.227C66.468,153.069 65.02,154.763 63.433,156.295L64.722,161.106L55.063,163.695L52.06,152.488C55.018,150.722 57.56,148.354 59.577,145.482ZM56.564,169.298L66.224,166.71L72.229,189.123L62.57,191.711L56.564,169.298ZM64.071,197.314L73.73,194.726L79.736,217.139L70.077,219.727L64.071,197.314ZM71.578,225.331L81.237,222.742L84.24,233.949L84.73,236.876L84.645,239.824L83.96,242.747L82.597,245.59L79.52,248.998L77.408,250.332L74.987,251.253L68.388,253.021L65.831,253.434L63.335,253.335L58.966,251.922L56.364,250.141L54.309,247.952L52.762,245.442L51.722,242.662L48.72,231.458L58.38,228.87L61.382,240.074C61.999,242.377 63.978,243.85 65.8,243.362L72.399,241.594C74.22,241.106 75.198,238.84 74.581,236.537L71.578,225.331ZM56.879,223.268L47.219,225.856L41.215,203.449L50.875,200.861L56.879,223.268ZM49.374,195.259L39.714,197.847L33.71,175.44L43.37,172.852L49.374,195.259ZM41.869,167.25L32.209,169.838C32.209,169.838 30.925,165.045 30.925,165.045C28.783,164.514 26.682,163.773 24.64,162.826L28.851,153.755C32.032,155.232 35.418,156.006 38.867,156.046L41.869,167.25ZM24.401,151.128L18.515,159.212C12.141,154.571 6.639,147.513 3.114,138.045L12.485,134.556C15.234,141.938 19.431,147.509 24.401,151.128Z" style="fill:rgb(255,92,92);"/>
        <path id="Right-spoon" serif:id="Right spoon" d="M148.732,228.87L158.391,231.458L155.389,242.662L154.349,245.442L152.802,247.952L150.747,250.141L148.145,251.922L143.777,253.335L141.28,253.434L138.724,253.021L132.124,251.253L129.704,250.332L127.591,248.998L124.515,245.59L123.152,242.747L122.467,239.824L122.382,236.876L122.871,233.949L125.874,222.742L135.533,225.331L132.531,236.537C131.914,238.84 132.891,241.106 134.712,241.594L141.312,243.362C143.133,243.85 145.113,242.377 145.73,240.074L148.732,228.87ZM137.035,219.727L127.375,217.139L133.381,194.726L143.04,197.314L137.035,219.727ZM144.542,191.711L134.882,189.123L140.888,166.71L150.547,169.298L144.542,191.711ZM152.049,163.695L142.389,161.106C142.389,161.106 143.678,156.295 143.679,156.296C142.091,154.763 140.643,153.069 139.35,151.227L147.535,145.482C149.551,148.354 152.093,150.722 155.051,152.488L152.049,163.695ZM144.995,140.981L135.857,145.042C132.652,137.829 131.409,128.964 133.091,119.008L142.951,120.673C141.64,128.435 142.496,135.358 144.995,140.981ZM144.086,115.626L134.487,112.825C136.435,106.146 141.212,98.033 147.533,91.288L154.83,98.126C149.675,103.627 145.675,110.179 144.086,115.626ZM158.549,94.529L151.973,86.995C159.912,80.066 169.348,75.97 177.939,76.674L177.122,86.64C170.918,86.132 164.282,89.525 158.549,94.529ZM182.093,87.978L186.39,78.949C194.166,82.65 200.276,90.92 203.677,100.885L194.213,104.115C191.755,96.915 187.712,90.653 182.093,87.978ZM195.632,109.091L205.371,106.824C207.469,115.834 207.541,125.253 205.88,132.007L196.169,129.617C197.524,124.112 197.342,116.437 195.632,109.091ZM194.626,134.556L203.998,138.045C200.473,147.513 194.97,154.571 188.597,159.212L182.711,151.128C187.681,147.509 191.878,141.938 194.626,134.556ZM178.261,153.755L182.471,162.826C180.43,163.773 178.328,164.514 176.187,165.045L174.902,169.838L165.243,167.25L168.245,156.046C171.693,156.006 175.079,155.232 178.261,153.755ZM163.742,172.852L173.401,175.44L167.397,197.847L157.738,195.259L163.742,172.852ZM156.237,200.861L165.896,203.449L159.892,225.856L150.233,223.268L156.237,200.861Z" style="fill:rgb(255,92,92);"/>
        <g id="Left-hand" serif:id="Left hand">
            <path id="Outline" d="M31.899,188.359L12.007,208.251L38.689,234.932L58.58,215.04C65.943,207.677 65.943,195.722 58.58,188.359C51.217,180.996 39.262,180.996 31.899,188.359Z" style="fill:rgb(151,151,151);"/>
            <path d="M24.828,181.288C36.093,170.022 54.386,170.022 65.651,181.288C76.917,192.553 76.917,210.846 65.651,222.111L45.76,242.003C41.854,245.909 35.523,245.909 31.617,242.003L4.936,215.322C1.031,211.417 1.031,205.085 4.936,201.18L24.828,181.288ZM31.899,188.359L12.007,208.251L38.689,234.932L58.58,215.04C65.943,207.677 65.943,195.722 58.58,188.359C51.217,180.996 39.262,180.996 31.899,188.359Z"/>
            <path id="Fill" d="M31.899,188.359L4.926,215.332L31.607,242.013L58.58,215.04C65.943,207.677 65.943,195.722 58.58,188.359C51.217,180.996 39.262,180.996 31.899,188.359Z" style="fill:rgb(151,151,151);"/>
        </g>
        <path id="Right-arm" serif:id="Right arm" d="M158.906,239.434L134.294,215.013C126.926,207.645 126.926,195.682 134.294,188.314C141.662,180.947 153.625,180.947 160.993,188.314L175.221,202.543L191.221,186.543C196.227,181.537 204.355,181.537 209.361,186.543C214.367,191.549 214.367,199.677 209.361,204.683L175.728,238.316C171.14,242.904 163.922,243.277 158.906,239.434Z" style="fill:rgb(151,151,151);"/>
        <path d="M151.863,246.532L127.251,222.112C127.241,222.103 127.232,222.093 127.223,222.084C115.953,210.814 115.953,192.514 127.223,181.243C138.493,169.973 156.793,169.973 168.064,181.243C168.064,181.243 175.221,188.401 175.221,188.401L184.15,179.472C193.059,170.564 207.524,170.564 216.432,179.472C225.341,188.38 225.341,202.846 216.432,211.754L182.799,245.387C174.623,253.563 161.761,254.22 152.824,247.371C152.486,247.113 152.165,246.832 151.863,246.532ZM158.906,239.434C163.922,243.277 171.14,242.904 175.728,238.316L209.361,204.683C214.367,199.677 214.367,191.549 209.361,186.543C204.355,181.537 196.227,181.537 191.221,186.543L175.221,202.543L160.993,188.314C153.625,180.947 141.662,180.947 134.294,188.314C126.926,195.682 126.926,207.645 134.294,215.013L158.906,239.434Z"/>
    </g>
</svg>
