<?xml version="1.0" encoding="UTF-8" standalone="no"?>
<!DOCTYPE svg PUBLIC "-//W3C//DTD SVG 1.1//EN" "http://www.w3.org/Graphics/SVG/1.1/DTD/svg11.dtd">
<svg width="100%" height="100%" viewBox="0 0 256 256" version="1.1" xmlns="http://www.w3.org/2000/svg" xmlns:xlink="http://www.w3.org/1999/xlink" xml:space="preserve" xmlns:serif="http://www.serif.com/" style="fill-rule:evenodd;clip-rule:evenodd;stroke-linecap:round;stroke-linejoin:round;stroke-miterlimit:1.5;">
    <rect id="blobbee_bandaid" x="-0" y="0" width="256" height="256" style="fill:none;"/>
    <clipPath id="_clip1">
        <rect x="-0" y="0" width="256" height="256"/>
    </clipPath>
    <g clip-path="url(#_clip1)">
        <path id="Wings-outline" serif:id="Wings outline" d="M129.457,71.439C101.62,74.152 70.004,52.917 56.583,17.332C41.238,-23.356 56.638,-63.617 86.987,-73.764C110.642,-81.673 139.399,-69.767 157.884,-44.535C184.732,-63.181 216.987,-65.526 237.979,-50.045C265.408,-29.818 267.488,16.097 238.398,52.369C209.763,88.073 163.808,97.957 136.809,78.046C134.11,76.056 131.659,73.845 129.457,71.439ZM135.756,54.763C138.246,59.112 141.562,62.914 145.712,65.974C167.403,81.971 203.691,71.669 226.696,42.984C249.701,14.299 250.768,-21.976 229.076,-37.973C209.154,-52.665 176.918,-45.173 153.969,-21.629C141.008,-50.189 114.034,-66.991 91.744,-59.538C68.16,-51.653 58.694,-19.58 70.618,12.039C82.543,43.658 111.372,62.927 134.957,55.041C135.225,54.952 135.491,54.859 135.756,54.763Z"/>
        <path id="Body" d="M127.902,1.921C208.729,-44.745 300.137,-39.183 331.897,14.333C363.657,67.85 323.82,149.185 242.993,195.851C162.165,242.517 70.758,236.955 38.998,183.439C7.237,129.922 47.074,48.587 127.902,1.921Z" style="fill:rgb(254,194,7);"/>
        <g id="Stripes">
            <path d="M188.793,-16.095C187.039,-14.699 315.054,-20.58 327.076,109.803C391.095,-61.796 189.429,-29.021 188.793,-16.095Z" style="fill:rgb(85,85,85);"/>
            <path d="M327.076,111.159C319.401,-14.647 191.893,-17.614 192.59,-21.35L145.073,-3.751C145.073,-3.751 299.034,-6.142 304.518,142.104L323.15,113.42" style="fill:rgb(254,194,7);"/>
            <path d="M275.897,172.628L304.252,142.104C298.868,-6.332 141.84,-8.914 141.842,-8.859L116.671,5.99C116.437,6.032 279.066,19.108 275.897,172.628Z" style="fill:rgb(85,85,85);"/>
            <path d="M118.8,6.104L91.65,27.286C91.65,27.286 247.73,42.825 246.071,194.336L275.383,174.688C286.256,24.404 117.148,7.374 114.749,9.264" style="fill:rgb(254,194,7);"/>
            <path d="M85.819,30.174L65.463,51.814C65.463,51.814 209.143,53.111 212.42,209.36L246.071,194.336C251.812,38.125 90.484,31.835 85.819,30.174Z" style="fill:rgb(85,85,85);"/>
        </g>
        <path id="Body-outline" serif:id="Body outline" d="M127.902,1.921C208.729,-44.745 300.137,-39.183 331.897,14.333C363.657,67.85 323.82,149.185 242.993,195.851C162.165,242.517 70.758,236.955 38.998,183.439C7.237,129.922 47.074,48.587 127.902,1.921Z" style="fill:none;stroke:black;stroke-width:15px;"/>
        <g id="Wings">
            <path id="Back-wing" serif:id="Back wing" d="M91.744,-59.538C115.328,-67.424 144.157,-48.156 156.082,-16.536C168.007,15.083 158.541,47.156 134.957,55.041C111.372,62.927 82.543,43.658 70.618,12.039C58.694,-19.58 68.16,-51.653 91.744,-59.538Z" style="fill:rgb(167,167,167);"/>
            <path id="Front-wing" serif:id="Front wing" d="M229.076,-37.973C250.768,-21.976 249.701,14.299 226.696,42.984C203.691,71.669 167.403,81.971 145.712,65.974C124.02,49.977 125.087,13.702 148.092,-14.983C171.097,-43.668 207.385,-53.97 229.076,-37.973Z" style="fill:rgb(195,195,195);"/>
        </g>
        <g id="Face">
            <path id="Mouth" d="M76.481,183.531L92.061,168.373L111.379,183.932" style="fill:none;stroke:black;stroke-width:10px;"/>
            <g id="Eyes">
                <path id="Right-eye" serif:id="Right eye" d="M140.326,131.507L140.326,134.943C140.326,144.761 132.355,152.732 122.537,152.732C112.718,152.732 104.747,144.761 104.747,134.943L104.747,127.32C104.747,124.417 105.444,121.676 106.679,119.254L140.326,131.507Z"/>
                <path id="Left-eye" serif:id="Left eye" d="M78.977,119.442C80.072,121.797 80.683,124.421 80.683,127.187L80.683,135.076C80.683,145.235 72.435,153.484 62.275,153.484C52.115,153.484 43.867,145.235 43.867,135.076L43.867,132.285L78.977,119.442Z"/>
            </g>
        </g>
        <path id="Plasters-outline" serif:id="Plasters outline" d="M154.369,133.317L148.634,127.581C136.854,115.801 136.854,96.673 148.634,84.892C160.414,73.112 179.543,73.112 191.323,84.892L197.059,90.628L202.794,84.892C214.575,73.112 233.703,73.112 245.483,84.892C257.264,96.673 257.264,115.801 245.483,127.581L239.748,133.317L245.483,139.052C257.264,150.833 257.264,169.961 245.483,181.742C233.703,193.522 214.575,193.522 202.794,181.742L197.059,176.006L191.323,181.742C179.543,193.522 160.414,193.522 148.634,181.742C136.854,169.961 136.854,150.833 148.634,139.052L154.369,133.317ZM168.512,133.317L155.705,146.123C147.827,154.001 147.827,166.793 155.705,174.67C163.583,182.548 176.374,182.548 184.252,174.67L197.059,161.864L209.865,174.67C217.743,182.548 230.535,182.548 238.412,174.67C246.29,166.793 246.29,154.001 238.412,146.123L225.606,133.317L238.412,120.51C246.29,112.632 246.29,99.841 238.412,91.963C230.535,84.085 217.743,84.085 209.865,91.963L197.059,104.77L184.252,91.963C176.374,84.085 163.583,84.085 155.705,91.963C147.827,99.841 147.827,112.632 155.705,120.51L168.512,133.317Z"/>
        <g id="Bottom-plaster" serif:id="Bottom plaster">
            <path id="Sticky" d="M238.412,174.67C230.535,182.548 217.743,182.548 209.865,174.67L155.705,120.51C147.827,112.632 147.827,99.841 155.705,91.963C163.583,84.085 176.374,84.085 184.252,91.963L238.412,146.123C246.29,154.001 246.29,166.793 238.412,174.67Z" style="fill:rgb(220,160,104);"/>
            <path id="Lump" d="M214.878,141.676L205.417,151.136C202.807,153.747 198.568,153.747 195.957,151.136L179.239,134.418C176.629,131.808 176.629,127.569 179.239,124.958L188.7,115.498C191.311,112.887 195.55,112.887 198.16,115.498L214.878,132.215C217.489,134.826 217.489,139.065 214.878,141.676Z" style="fill:rgb(255,233,202);"/>
            <g id="Bottom-spots" serif:id="Bottom spots">
                <circle cx="234.199" cy="165.753" r="3.312" style="fill:rgb(255,233,202);"/>
                <circle cx="231.43" cy="155.818" r="3.312" style="fill:rgb(255,233,202);"/>
                <circle cx="228.66" cy="145.883" r="3.312" style="fill:rgb(255,233,202);"/>
                <circle cx="218.725" cy="168.339" r="3.312" style="fill:rgb(255,233,202);"/>
                <circle cx="227.576" cy="172.376" r="3.312" style="fill:rgb(255,233,202);"/>
                <circle cx="224.806" cy="162.441" r="3.312" style="fill:rgb(255,233,202);"/>
                <circle cx="222.037" cy="152.506" r="3.312" style="fill:rgb(255,233,202);"/>
                <circle cx="215.414" cy="159.13" r="3.312" style="fill:rgb(255,233,202);"/>
                <circle cx="208.791" cy="165.027" r="3.312" style="fill:rgb(255,233,202);"/>
            </g>
            <g id="Top-spots" serif:id="Top spots">
                <circle cx="159.649" cy="100.682" r="3.31" style="fill:rgb(255,233,202);"/>
                <circle cx="162.417" cy="110.612" r="3.31" style="fill:rgb(255,233,202);"/>
                <circle cx="165.186" cy="120.543" r="3.31" style="fill:rgb(255,233,202);"/>
                <circle cx="175.116" cy="98.097" r="3.31" style="fill:rgb(255,233,202);"/>
                <circle cx="166.27" cy="94.061" r="3.31" style="fill:rgb(255,233,202);"/>
                <circle cx="169.038" cy="103.992" r="3.31" style="fill:rgb(255,233,202);"/>
                <circle cx="171.806" cy="113.923" r="3.31" style="fill:rgb(255,233,202);"/>
                <circle cx="178.427" cy="107.302" r="3.31" style="fill:rgb(255,233,202);"/>
                <circle cx="185.047" cy="101.407" r="3.31" style="fill:rgb(255,233,202);"/>
            </g>
        </g>
        <g id="Top-plaster" serif:id="Top plaster">
            <path id="Sticky1" serif:id="Sticky" d="M155.705,174.67C147.827,166.793 147.827,154.001 155.705,146.123L209.865,91.963C217.743,84.085 230.535,84.085 238.412,91.963C246.29,99.841 246.29,112.632 238.412,120.51L184.252,174.67C176.374,182.548 163.583,182.548 155.705,174.67Z" style="fill:rgb(240,191,142);"/>
            <path id="Lump1" serif:id="Lump" d="M185.859,153.977L176.399,144.516C173.788,141.905 173.788,137.666 176.399,135.056L198.798,112.657C201.408,110.046 205.647,110.046 208.258,112.657L217.718,122.118C220.329,124.728 220.329,128.967 217.718,131.578L195.32,153.977C192.709,156.587 188.47,156.587 185.859,153.977Z" style="fill:rgb(255,233,202);"/>
            <g id="Bottom-spots1" serif:id="Bottom spots">
                <path d="M161.311,170.457C161.311,168.629 162.795,167.146 164.623,167.146C166.45,167.146 167.934,168.629 167.934,170.457C167.934,172.285 166.45,173.769 164.623,173.769C162.795,173.769 161.311,172.285 161.311,170.457Z" style="fill:rgb(255,233,202);"/>
                <path d="M171.246,167.688C171.246,165.86 172.73,164.376 174.557,164.376C176.385,164.376 177.869,165.86 177.869,167.688C177.869,169.515 176.385,170.999 174.557,170.999C172.73,170.999 171.246,169.515 171.246,167.688Z" style="fill:rgb(255,233,202);"/>
                <path d="M181.181,164.918C181.181,163.091 182.664,161.607 184.492,161.607C186.32,161.607 187.804,163.091 187.804,164.918C187.804,166.746 186.32,168.23 184.492,168.23C182.664,168.23 181.181,166.746 181.181,164.918Z" style="fill:rgb(255,233,202);"/>
                <path d="M158.725,154.984C158.725,153.156 160.209,151.672 162.037,151.672C163.864,151.672 165.348,153.156 165.348,154.984C165.348,156.811 163.864,158.295 162.037,158.295C160.209,158.295 158.725,156.811 158.725,154.984Z" style="fill:rgb(255,233,202);"/>
                <path d="M154.688,163.834C154.688,162.006 156.172,160.522 158,160.522C159.827,160.522 161.311,162.006 161.311,163.834C161.311,165.662 159.827,167.146 158,167.146C156.172,167.146 154.688,165.662 154.688,163.834Z" style="fill:rgb(255,233,202);"/>
                <path d="M164.623,161.065C164.623,159.237 166.107,157.753 167.934,157.753C169.762,157.753 171.246,159.237 171.246,161.065C171.246,162.892 169.762,164.376 167.934,164.376C166.107,164.376 164.623,162.892 164.623,161.065Z" style="fill:rgb(255,233,202);"/>
                <path d="M174.557,158.295C174.557,156.467 176.041,154.984 177.869,154.984C179.697,154.984 181.181,156.467 181.181,158.295C181.181,160.123 179.697,161.607 177.869,161.607C176.041,161.607 174.557,160.123 174.557,158.295Z" style="fill:rgb(255,233,202);"/>
                <path d="M167.934,151.672C167.934,149.844 169.418,148.36 171.246,148.36C173.074,148.36 174.557,149.844 174.557,151.672C174.557,153.5 173.074,154.984 171.246,154.984C169.418,154.984 167.934,153.5 167.934,151.672Z" style="fill:rgb(255,233,202);"/>
                <path d="M162.037,145.049C162.037,143.221 163.521,141.737 165.348,141.737C167.176,141.737 168.66,143.221 168.66,145.049C168.66,146.877 167.176,148.36 165.348,148.36C163.521,148.36 162.037,146.877 162.037,145.049Z" style="fill:rgb(255,233,202);"/>
            </g>
            <g id="Top-spots1" serif:id="Top spots">
                <path d="M233.004,95.907C233.004,97.734 231.521,99.217 229.694,99.217C227.867,99.217 226.384,97.734 226.384,95.907C226.384,94.08 227.867,92.597 229.694,92.597C231.521,92.597 233.004,94.08 233.004,95.907Z" style="fill:rgb(255,233,202);"/>
                <path d="M223.073,98.675C223.073,100.502 221.59,101.986 219.763,101.986C217.936,101.986 216.453,100.502 216.453,98.675C216.453,96.848 217.936,95.365 219.763,95.365C221.59,95.365 223.073,96.848 223.073,98.675Z" style="fill:rgb(255,233,202);"/>
                <path d="M213.142,101.444C213.142,103.271 211.659,104.754 209.832,104.754C208.005,104.754 206.522,103.271 206.522,101.444C206.522,99.617 208.005,98.133 209.832,98.133C211.659,98.133 213.142,99.617 213.142,101.444Z" style="fill:rgb(255,233,202);"/>
                <path d="M235.589,111.375C235.589,113.202 234.106,114.685 232.279,114.685C230.452,114.685 228.969,113.202 228.969,111.375C228.969,109.548 230.452,108.064 232.279,108.064C234.106,108.064 235.589,109.548 235.589,111.375Z" style="fill:rgb(255,233,202);"/>
                <path d="M239.625,102.528C239.625,104.355 238.141,105.838 236.314,105.838C234.487,105.838 233.004,104.355 233.004,102.528C233.004,100.701 234.487,99.217 236.314,99.217C238.141,99.217 239.625,100.701 239.625,102.528Z" style="fill:rgb(255,233,202);"/>
                <path d="M229.694,105.296C229.694,107.123 228.211,108.606 226.384,108.606C224.557,108.606 223.073,107.123 223.073,105.296C223.073,103.469 224.557,101.986 226.384,101.986C228.211,101.986 229.694,103.469 229.694,105.296Z" style="fill:rgb(255,233,202);"/>
                <path d="M219.763,108.064C219.763,109.891 218.28,111.375 216.453,111.375C214.626,111.375 213.142,109.891 213.142,108.064C213.142,106.237 214.626,104.754 216.453,104.754C218.28,104.754 219.763,106.237 219.763,108.064Z" style="fill:rgb(255,233,202);"/>
                <path d="M226.384,114.685C226.384,116.512 224.9,117.995 223.073,117.995C221.246,117.995 219.763,116.512 219.763,114.685C219.763,112.858 221.246,111.375 223.073,111.375C224.9,111.375 226.384,112.858 226.384,114.685Z" style="fill:rgb(255,233,202);"/>
                <path d="M232.279,121.306C232.279,123.133 230.796,124.616 228.969,124.616C227.142,124.616 225.658,123.133 225.658,121.306C225.658,119.479 227.142,117.995 228.969,117.995C230.796,117.995 232.279,119.479 232.279,121.306Z" style="fill:rgb(255,233,202);"/>
            </g>
        </g>
    </g>
</svg>
