<?xml version="1.0" encoding="UTF-8" standalone="no"?>
<!DOCTYPE svg PUBLIC "-//W3C//DTD SVG 1.1//EN" "http://www.w3.org/Graphics/SVG/1.1/DTD/svg11.dtd">
<svg width="100%" height="100%" viewBox="0 0 256 256" version="1.1" xmlns="http://www.w3.org/2000/svg" xmlns:xlink="http://www.w3.org/1999/xlink" xml:space="preserve" xmlns:serif="http://www.serif.com/" style="fill-rule:evenodd;clip-rule:evenodd;stroke-linecap:round;stroke-linejoin:round;stroke-miterlimit:1.5;">
    <rect id="blobbee_spoons" x="-0" y="0" width="256" height="256" style="fill:none;"/>
    <clipPath id="_clip1">
        <rect x="-0" y="0" width="256" height="256"/>
    </clipPath>
    <g clip-path="url(#_clip1)">
        <path id="Wings-outline" serif:id="Wings outline" d="M130.856,59.756C103.019,62.47 71.403,41.235 57.982,5.65C42.637,-35.039 58.037,-75.299 88.386,-85.447C112.041,-93.356 140.798,-81.45 159.283,-56.218C186.131,-74.864 218.386,-77.209 239.378,-61.728C266.807,-41.5 268.887,4.414 239.797,40.686C211.162,76.39 165.207,86.274 138.208,66.364C135.509,64.373 133.058,62.162 130.856,59.756ZM137.155,43.08C139.645,47.429 142.961,51.231 147.111,54.291C168.802,70.288 205.09,59.987 228.095,31.302C251.1,2.617 252.167,-33.659 230.475,-49.656C210.553,-64.348 178.317,-56.856 155.368,-33.312C142.407,-61.872 115.433,-78.674 93.143,-71.221C69.559,-63.336 60.093,-31.263 72.017,0.357C83.942,31.976 112.771,51.244 136.356,43.359C136.624,43.269 136.89,43.176 137.155,43.08Z"/>
        <path id="Body" d="M127.902,1.921C208.729,-44.745 300.137,-39.183 331.897,14.333C363.657,67.85 323.82,149.185 242.993,195.851C162.165,242.517 70.758,236.955 38.998,183.439C7.237,129.922 47.074,48.587 127.902,1.921Z" style="fill:rgb(254,194,7);"/>
        <g id="Stripes">
            <path d="M188.793,-16.095C187.039,-14.699 315.054,-20.58 327.076,109.803C391.095,-61.796 189.429,-29.021 188.793,-16.095Z" style="fill:rgb(85,85,85);"/>
            <path d="M327.076,111.159C319.401,-14.647 191.893,-17.614 192.59,-21.35L145.073,-3.751C145.073,-3.751 299.034,-6.142 304.518,142.104L323.15,113.42" style="fill:rgb(254,194,7);"/>
            <path d="M275.897,172.628L304.252,142.104C298.868,-6.332 141.84,-8.914 141.842,-8.859L116.671,5.99C116.437,6.032 279.066,19.108 275.897,172.628Z" style="fill:rgb(85,85,85);"/>
            <path d="M118.8,6.104L91.65,27.286C91.65,27.286 247.73,42.825 246.071,194.336L275.383,174.688C286.256,24.404 117.148,7.374 114.749,9.264" style="fill:rgb(254,194,7);"/>
            <path d="M85.819,30.174L65.463,51.814C65.463,51.814 209.143,53.111 212.42,209.36L246.071,194.336C251.812,38.125 90.484,31.835 85.819,30.174Z" style="fill:rgb(85,85,85);"/>
        </g>
        <path id="Mouth" d="M67.391,168.037L78.167,186.154L92.687,168.069L110.674,186.104L132.101,168.09" style="fill:none;stroke:black;stroke-width:10px;"/>
        <path id="Body-outline" serif:id="Body outline" d="M127.902,1.921C208.729,-44.745 300.137,-39.183 331.897,14.333C363.657,67.85 323.82,149.185 242.993,195.851C162.165,242.517 70.758,236.955 38.998,183.439C7.237,129.922 47.074,48.587 127.902,1.921Z" style="fill:none;stroke:black;stroke-width:15px;"/>
        <g id="Wings">
            <path id="Back-wing" serif:id="Back wing" d="M93.143,-71.221C116.727,-79.107 145.556,-59.838 157.481,-28.219C169.406,3.4 159.94,35.473 136.356,43.359C112.771,51.244 83.942,31.976 72.017,0.357C60.093,-31.263 69.559,-63.336 93.143,-71.221Z" style="fill:rgb(167,167,167);"/>
            <path id="Front-wing" serif:id="Front wing" d="M230.475,-49.656C252.167,-33.659 251.1,2.617 228.095,31.302C205.09,59.987 168.802,70.288 147.111,54.291C125.419,38.295 126.486,2.019 149.491,-26.666C172.496,-55.351 208.784,-65.652 230.475,-49.656Z" style="fill:rgb(195,195,195);"/>
        </g>
        <g id="Eyes">
            <path id="Right-eye" serif:id="Right eye" d="M144.47,124.059L144.47,132.005C144.47,140.353 137.693,147.129 129.346,147.129C120.998,147.129 114.222,140.353 114.222,132.005L114.222,124.059C114.222,115.712 120.998,108.935 129.346,108.935C137.693,108.935 144.47,115.712 144.47,124.059Z"/>
            <path id="Left-eye" serif:id="Left eye" d="M84.365,123.995L84.365,131.941C84.365,140.288 77.588,147.065 69.241,147.065C60.894,147.065 54.117,140.288 54.117,131.941L54.117,123.995C54.117,115.647 60.894,108.871 69.241,108.871C77.588,108.871 84.365,115.647 84.365,123.995Z"/>
        </g>
        <path id="Left-spoon" serif:id="Left spoon" d="M38.867,156.046C26.828,155.904 15.549,146.829 11.061,130.08C7.573,117.062 13.083,90.929 27.46,87.077C41.836,83.224 59.675,103.101 63.163,116.119C67.641,132.83 62.387,146.322 52.06,152.488L74.581,236.537C75.198,238.84 74.22,241.106 72.399,241.594L65.8,243.362C63.978,243.85 61.999,242.377 61.382,240.074L38.867,156.046Z" style="fill:rgb(185,185,185);"/>
        <path d="M31.332,164.632C18.441,161.573 6.792,150.855 1.885,132.539C-0.653,123.07 0.537,107.854 5.82,96.205C10.003,86.982 16.72,80.119 25.001,77.9C33.281,75.682 42.53,78.266 50.764,84.162C61.164,91.609 69.802,104.191 72.34,113.661C77.237,131.937 72.495,147.035 62.874,156.142L83.757,234.078L84.231,236.91L84.149,239.76L83.487,242.583L82.174,245.324L79.213,248.603L77.183,249.885L74.858,250.77L68.258,252.538L65.802,252.935L63.403,252.84L59.2,251.479L56.691,249.763L54.707,247.649L53.211,245.222L52.205,242.533L31.332,164.632ZM38.867,156.046L61.382,240.074C61.999,242.377 63.978,243.85 65.8,243.362L72.399,241.594C74.22,241.106 75.198,238.84 74.581,236.537L52.06,152.488C62.387,146.322 67.641,132.83 63.163,116.119C59.675,103.101 41.836,83.224 27.46,87.077C13.083,90.929 7.573,117.062 11.061,130.08C15.549,146.829 26.828,155.904 38.867,156.046Z"/>
        <path id="Right-spoon" serif:id="Right spoon" d="M168.245,156.046C180.284,155.904 191.563,146.829 196.051,130.08C199.539,117.062 194.028,90.929 179.652,87.077C165.275,83.224 147.436,103.101 143.948,116.119C139.471,132.83 144.725,146.322 155.051,152.488L132.531,236.537C131.914,238.84 132.891,241.106 134.712,241.594L141.312,243.362C143.133,243.85 145.113,242.377 145.73,240.074L168.245,156.046Z" style="fill:rgb(185,185,185);"/>
        <path d="M175.779,164.632L154.906,242.533L153.9,245.222L152.404,247.649L150.42,249.763L147.912,251.479L143.708,252.84L141.309,252.935L138.853,252.538L132.254,250.77L129.928,249.885L127.898,248.603L124.938,245.324L123.624,242.583L122.963,239.76L122.881,236.91L123.354,234.078C123.354,234.078 144.237,156.142 144.237,156.142C134.617,147.034 129.875,131.937 134.772,113.661C137.309,104.191 145.948,91.609 156.347,84.162C164.582,78.266 173.83,75.682 182.111,77.9C190.391,80.119 197.108,86.982 201.291,96.205C206.574,107.854 207.764,123.07 205.227,132.539C200.319,150.855 188.671,161.573 175.779,164.632ZM168.245,156.046C180.284,155.904 191.563,146.829 196.051,130.08C199.539,117.062 194.028,90.929 179.652,87.077C165.275,83.224 147.436,103.101 143.948,116.119C139.471,132.83 144.725,146.322 155.051,152.488L132.531,236.537C131.914,238.84 132.891,241.106 134.712,241.594L141.312,243.362C143.133,243.85 145.113,242.377 145.73,240.074L168.245,156.046Z"/>
        <g id="Left-hand" serif:id="Left hand">
            <path id="Outline" d="M31.899,188.359L12.007,208.251L38.689,234.932L58.58,215.04C65.943,207.677 65.943,195.722 58.58,188.359C51.217,180.996 39.262,180.996 31.899,188.359Z" style="fill:rgb(151,151,151);"/>
            <path d="M24.828,181.288C36.093,170.022 54.386,170.022 65.651,181.288C76.917,192.553 76.917,210.846 65.651,222.111L45.76,242.003C41.854,245.909 35.523,245.909 31.617,242.003L4.936,215.322C1.031,211.417 1.031,205.085 4.936,201.18L24.828,181.288ZM31.899,188.359L12.007,208.251L38.689,234.932L58.58,215.04C65.943,207.677 65.943,195.722 58.58,188.359C51.217,180.996 39.262,180.996 31.899,188.359Z"/>
            <path id="Fill" d="M31.899,188.359L4.926,215.332L31.607,242.013L58.58,215.04C65.943,207.677 65.943,195.722 58.58,188.359C51.217,180.996 39.262,180.996 31.899,188.359Z" style="fill:rgb(151,151,151);"/>
        </g>
        <path id="Right-arm" serif:id="Right arm" d="M158.906,239.434L134.294,215.013C126.926,207.645 126.926,195.682 134.294,188.314C141.662,180.947 153.625,180.947 160.993,188.314L175.221,202.543L191.221,186.543C196.227,181.537 204.355,181.537 209.361,186.543C214.367,191.549 214.367,199.677 209.361,204.683L175.728,238.316C171.14,242.904 163.922,243.277 158.906,239.434Z" style="fill:rgb(151,151,151);"/>
        <path d="M151.863,246.532L127.251,222.112C127.241,222.103 127.232,222.093 127.223,222.084C115.953,210.814 115.953,192.514 127.223,181.243C138.493,169.973 156.793,169.973 168.064,181.243C168.064,181.243 175.221,188.401 175.221,188.401L184.15,179.472C193.059,170.564 207.524,170.564 216.432,179.472C225.341,188.38 225.341,202.846 216.432,211.754L182.799,245.387C174.623,253.563 161.761,254.22 152.824,247.371C152.486,247.113 152.165,246.832 151.863,246.532ZM158.906,239.434C163.922,243.277 171.14,242.904 175.728,238.316L209.361,204.683C214.367,199.677 214.367,191.549 209.361,186.543C204.355,181.537 196.227,181.537 191.221,186.543L175.221,202.543L160.993,188.314C153.625,180.947 141.662,180.947 134.294,188.314C126.926,195.682 126.926,207.645 134.294,215.013L158.906,239.434Z"/>
    </g>
</svg>
