<?xml version="1.0" encoding="UTF-8" standalone="no"?>
<!DOCTYPE svg PUBLIC "-//W3C//DTD SVG 1.1//EN" "http://www.w3.org/Graphics/SVG/1.1/DTD/svg11.dtd">
<svg width="100%" height="100%" viewBox="0 0 256 256" version="1.1" xmlns="http://www.w3.org/2000/svg" xmlns:xlink="http://www.w3.org/1999/xlink" xml:space="preserve" xmlns:serif="http://www.serif.com/" style="fill-rule:evenodd;clip-rule:evenodd;stroke-linecap:round;stroke-linejoin:round;stroke-miterlimit:1.5;">
    <rect id="blobbee_bellhop" x="-0" y="0" width="256" height="256" style="fill:none;"/>
    <path id="Wings-outline" serif:id="Wings outline" d="M96.279,120.487C75.708,121.185 52.927,105.728 43.145,79.789C31.425,48.715 43.942,18.224 67.12,10.474C84.104,4.796 104.741,12.186 118.9,29.051C138.547,17.134 161.284,16.542 176.32,27.631C197.153,42.994 199.558,77.859 177.463,105.409C155.825,132.389 120.92,139.136 100.518,124.09C99.006,122.975 97.593,121.771 96.279,120.487ZM102.495,104.219C104.227,107.244 106.535,109.889 109.421,112.018C124.512,123.147 149.757,115.98 165.761,96.024C181.766,76.068 182.508,50.832 167.417,39.703C153.557,29.482 131.131,34.694 115.166,51.073C106.149,31.204 87.383,19.515 71.876,24.7C55.469,30.186 48.884,52.499 57.18,74.496C65.476,96.493 85.532,109.898 101.939,104.412C102.126,104.35 102.311,104.285 102.495,104.219Z"/>
    <path id="Body" d="M96.058,75.584C152.289,43.119 215.88,46.989 237.975,84.22C260.071,121.45 232.357,178.035 176.126,210.5C119.894,242.965 56.303,239.096 34.208,201.865C12.113,164.634 39.827,108.049 96.058,75.584Z" style="fill:rgb(254,194,7);"/>
    <g id="Stripes">
        <path d="M138.419,63.051C137.199,64.022 226.258,59.931 234.622,150.637C279.159,31.257 138.862,54.058 138.419,63.051Z" style="fill:rgb(85,85,85);"/>
        <path d="M234.622,151.58C229.282,64.059 140.576,61.994 141.061,59.395L108.004,71.638C108.004,71.638 215.113,69.975 218.928,173.108L231.89,153.153" style="fill:rgb(254,194,7);"/>
        <path d="M199.017,194.344L218.743,173.108C214.997,69.843 105.755,68.047 105.756,68.085L88.245,78.415C88.082,78.445 201.222,87.541 199.017,194.344Z" style="fill:rgb(85,85,85);"/>
        <path d="M89.726,78.494L70.838,93.231C70.838,93.231 179.421,104.041 178.267,209.446L198.659,195.777C206.223,91.226 88.577,79.378 86.908,80.693" style="fill:rgb(254,194,7);"/>
        <path d="M66.781,95.24L52.62,110.295C52.62,110.295 152.576,111.197 154.856,219.898L178.267,209.446C182.261,100.771 70.026,96.395 66.781,95.24Z" style="fill:rgb(85,85,85);"/>
    </g>
    <path id="Body-outline" serif:id="Body outline" d="M96.058,75.584C152.289,43.119 215.88,46.989 237.975,84.22C260.071,121.45 232.357,178.035 176.126,210.5C119.894,242.965 56.303,239.096 34.208,201.865C12.113,164.634 39.827,108.049 96.058,75.584Z" style="fill:none;stroke:black;stroke-width:15px;"/>
    <g id="Wings">
        <path id="Back-wing" serif:id="Back wing" d="M71.876,24.7C88.284,19.214 108.34,32.619 116.636,54.616C124.932,76.613 118.347,98.926 101.939,104.412C85.532,109.898 65.476,96.493 57.18,74.496C48.884,52.499 55.469,30.186 71.876,24.7Z" style="fill:rgb(167,167,167);"/>
        <path id="Front-wing" serif:id="Front wing" d="M167.417,39.703C182.508,50.832 181.766,76.068 165.761,96.024C149.757,115.98 124.512,123.147 109.421,112.018C94.331,100.889 95.073,75.653 111.077,55.697C127.082,35.741 152.327,28.574 167.417,39.703Z" style="fill:rgb(195,195,195);"/>
    </g>
    <g id="Face">
        <path id="Mouth" d="M53.545,191.361L61.071,204.015L71.213,191.384L83.776,203.98L98.742,191.398" style="fill:none;stroke:black;stroke-width:6.56px;"/>
        <path id="Right-eye" serif:id="Right eye" d="M109.041,163.431L109.041,168.842C109.041,174.527 104.426,179.142 98.742,179.142C93.057,179.142 88.442,174.527 88.442,168.842L88.442,163.431C88.442,157.746 93.057,153.131 98.742,153.131C104.426,153.131 109.041,157.746 109.041,163.431Z"/>
        <path id="Left-eye" serif:id="Left eye" d="M63.845,163.431L63.845,168.842C63.845,174.527 59.23,179.142 53.545,179.142C47.861,179.142 43.246,174.527 43.246,168.842L43.246,163.431C43.246,157.746 47.861,153.131 53.545,153.131C59.23,153.131 63.845,157.746 63.845,163.431Z"/>
    </g>
    <g id="Cap">
        <g>
            <path id="Visor" d="M128.459,121.373C122.629,129.161 100.536,154.53 64.539,147.436C36.626,141.936 38.088,124.351 42.334,112.994C47.938,118.116 61.611,125.749 93.367,125.813C109.094,125.781 120.386,123.893 128.459,121.373Z" style="fill:rgb(53,53,53);"/>
            <path id="Hat-body" serif:id="Hat body" d="M38.737,108.156C38.737,107.868 38.758,107.582 38.8,107.298L41.785,66.877C41.785,59.938 64.869,54.304 93.302,54.304C121.734,54.304 144.818,59.938 144.818,66.877L147.803,107.298C147.845,107.582 147.866,107.868 147.866,108.156C147.866,117.901 123.417,125.813 93.302,125.813C63.186,125.813 38.737,117.901 38.737,108.156Z" style="fill:rgb(120,3,24);"/>
            <ellipse id="Top-highlight" serif:id="Top highlight" cx="93.327" cy="66.29" rx="51.505" ry="11.986" style="fill:rgb(183,5,38);"/>
            <path id="Brim" d="M147.248,99.873L147.803,107.298C147.845,107.582 147.866,107.868 147.866,108.156C147.866,117.901 123.417,125.813 93.302,125.813C63.186,125.813 38.737,117.901 38.737,108.156C38.737,107.868 38.758,107.582 38.8,107.298L39.349,100.463C42.571,108.397 63.528,117.402 93.302,117.402C123.075,117.402 144.655,109.851 147.248,99.873Z" style="fill:rgb(81,81,81);"/>
            <path id="Badge" d="M89.486,94.735L89.094,107.617C89.076,108.183 88.604,108.598 88.039,108.544C79.547,109.097 71.081,107.62 62.589,105.256C62.024,105.202 61.58,104.698 61.597,104.132L61.972,92.017C61.99,91.451 62.462,91.036 63.027,91.091C71.452,92.668 79.94,93.489 88.495,93.61C89.059,93.665 89.504,94.169 89.486,94.735Z" style="fill:rgb(217,171,87);"/>
        </g>
        <g>
            <path id="Visor1" serif:id="Visor" d="M128.459,121.373C122.629,129.161 100.536,154.53 64.539,147.436C36.626,141.936 38.088,124.351 42.334,112.994C47.938,118.116 61.611,125.749 93.367,125.813C109.094,125.781 120.386,123.893 128.459,121.373Z" style="fill:rgb(53,53,53);"/>
            <path id="Hat-body1" serif:id="Hat body" d="M38.737,108.156C38.737,107.868 38.758,107.582 38.8,107.298L41.785,66.877C41.785,59.938 64.869,54.304 93.302,54.304C121.734,54.304 144.818,59.938 144.818,66.877L147.803,107.298C147.845,107.582 147.866,107.868 147.866,108.156C147.866,117.901 123.417,125.813 93.302,125.813C63.186,125.813 38.737,117.901 38.737,108.156Z" style="fill:rgb(120,3,24);"/>
            <ellipse id="Top-highlight1" serif:id="Top highlight" cx="93.327" cy="66.29" rx="51.505" ry="11.986" style="fill:rgb(183,5,38);"/>
            <path id="Brim1" serif:id="Brim" d="M147.248,99.873L147.803,107.298C147.845,107.582 147.866,107.868 147.866,108.156C147.866,117.901 123.417,125.813 93.302,125.813C63.186,125.813 38.737,117.901 38.737,108.156C38.737,107.868 38.758,107.582 38.8,107.298L39.349,100.463C42.571,108.397 63.528,117.402 93.302,117.402C123.075,117.402 144.655,109.851 147.248,99.873Z" style="fill:rgb(81,81,81);"/>
            <path id="Badge1" serif:id="Badge" d="M89.486,94.735L89.094,107.617C89.076,108.183 88.604,108.598 88.039,108.544C79.547,109.097 71.081,107.62 62.589,105.256C62.024,105.202 61.58,104.698 61.597,104.132L61.972,92.017C61.99,91.451 62.462,91.036 63.027,91.091C71.452,92.668 79.94,93.489 88.495,93.61C89.059,93.665 89.504,94.169 89.486,94.735Z" style="fill:rgb(217,171,87);"/>
        </g>
    </g>
</svg>
