<?xml version="1.0" encoding="UTF-8" standalone="no"?>
<!DOCTYPE svg PUBLIC "-//W3C//DTD SVG 1.1//EN" "http://www.w3.org/Graphics/SVG/1.1/DTD/svg11.dtd">
<svg width="100%" height="100%" viewBox="0 0 256 256" version="1.1" xmlns="http://www.w3.org/2000/svg" xmlns:xlink="http://www.w3.org/1999/xlink" xml:space="preserve" xmlns:serif="http://www.serif.com/" style="fill-rule:evenodd;clip-rule:evenodd;stroke-linecap:round;stroke-linejoin:round;stroke-miterlimit:1.5;">
    <rect id="blobbee_hug_dagn" x="-0" y="0" width="256" height="256" style="fill:none;"/>
    <clipPath id="_clip1">
        <rect x="-0" y="0" width="256" height="256"/>
    </clipPath>
    <g clip-path="url(#_clip1)">
        <g id="Bee">
            <path id="Wings-outline" serif:id="Wings outline" d="M114.663,156.413C100.566,155.636 85.557,145.229 78.979,127.788C70.467,105.217 80.43,83.38 97.265,77.751C108.402,74.027 121.898,77.743 132.016,87.439C145.189,81.183 159.658,81.857 169.479,89.099C184.478,100.16 187.17,125.239 171.263,145.074C155.815,164.336 130.695,168.306 116.129,157.564C115.626,157.193 115.137,156.809 114.663,156.413ZM120.787,140.711C121.849,142.566 123.263,144.187 125.032,145.492C134.281,152.312 149.753,147.92 159.561,135.689C169.37,123.459 169.825,107.992 160.576,101.172C152.082,94.907 138.338,98.102 128.553,108.14C123.027,95.963 111.526,88.799 102.022,91.977C91.966,95.339 87.93,109.014 93.014,122.495C98.099,135.977 110.391,144.192 120.446,140.83C120.561,140.792 120.674,140.752 120.787,140.711Z"/>
            <path id="Body" d="M118.639,119.49C154.656,96.732 195.388,99.445 209.54,125.543C223.693,151.641 205.942,191.306 169.924,214.064C133.907,236.822 93.176,234.109 79.023,208.011C64.871,181.912 82.622,142.248 118.639,119.49Z" style="fill:rgb(254,194,7);"/>
            <g id="Stripes">
                <path d="M145.773,110.704C144.991,111.385 202.035,108.517 207.392,172.101C235.919,88.417 146.056,104.4 145.773,110.704Z" style="fill:rgb(85,85,85);"/>
                <path d="M207.392,172.762C203.972,111.41 147.154,109.963 147.465,108.142L126.291,116.724C126.291,116.724 194.897,115.558 197.34,187.853L205.643,173.865" style="fill:rgb(254,194,7);"/>
                <path d="M184.587,202.739L197.221,187.853C194.822,115.465 124.85,114.206 124.851,114.233L113.635,121.474C113.531,121.495 185.999,127.872 184.587,202.739Z" style="fill:rgb(85,85,85);"/>
                <path d="M114.583,121.53L102.485,131.86C102.485,131.86 172.035,139.438 171.296,213.325L184.357,203.744C189.203,130.454 113.848,122.149 112.779,123.071" style="fill:rgb(254,194,7);"/>
                <path d="M99.887,133.268L90.816,143.821C90.816,143.821 154.841,144.454 156.301,220.652L171.296,213.325C173.854,137.146 101.966,134.078 99.887,133.268Z" style="fill:rgb(85,85,85);"/>
            </g>
            <path id="Body-outline" serif:id="Body outline" d="M118.639,119.49C154.656,96.732 195.388,99.445 209.54,125.543C223.693,151.641 205.942,191.306 169.924,214.064C133.907,236.822 93.176,234.109 79.023,208.011C64.871,181.912 82.622,142.248 118.639,119.49Z" style="fill:none;stroke:black;stroke-width:15px;"/>
            <g id="Wings">
                <path id="Back-wing" serif:id="Back wing" d="M102.022,91.977C112.078,88.614 124.369,96.83 129.454,110.311C134.538,123.793 130.502,137.468 120.446,140.83C110.391,144.192 98.099,135.977 93.014,122.495C87.93,109.014 91.966,95.339 102.022,91.977Z" style="fill:rgb(167,167,167);"/>
                <path id="Front-wing" serif:id="Front wing" d="M160.576,101.172C169.825,107.992 169.37,123.459 159.561,135.689C149.753,147.92 134.281,152.312 125.032,145.492C115.783,138.671 116.238,123.204 126.047,110.974C135.856,98.743 151.328,94.351 160.576,101.172Z" style="fill:rgb(195,195,195);"/>
            </g>
            <g id="Face">
                <path id="Mouth" d="M94.757,199.653L100.033,208.523L107.142,199.668L115.948,208.498L126.439,199.679" style="fill:none;stroke:black;stroke-width:4.6px;"/>
                <g id="Eyes">
                    <path id="Right-eye" serif:id="Right eye" d="M132.999,180.066L132.999,183.875C132.999,187.877 129.75,191.127 125.748,191.127C121.746,191.127 118.497,187.877 118.497,183.875L118.497,180.066C118.497,176.063 121.746,172.814 125.748,172.814C129.75,172.814 132.999,176.063 132.999,180.066Z"/>
                    <path id="Left-eye" serif:id="Left eye" d="M105.981,180.066L105.981,183.875C105.981,187.877 102.732,191.127 98.729,191.127C94.727,191.127 91.478,187.877 91.478,183.875L91.478,180.066C91.478,176.063 94.727,172.814 98.729,172.814C102.732,172.814 105.981,176.063 105.981,180.066Z"/>
                </g>
            </g>
        </g>
        <g id="Dagn">
            <path id="Body1" serif:id="Body" d="M120.136,256.866L25.801,256.866C25.801,256.866 16.673,229.723 16.744,189.127C16.815,148.531 24.541,96.976 67.274,76.513C61.633,71.701 32.145,52.247 33.983,24.661C35.821,22.707 40.42,25.674 40.42,25.674C40.42,25.674 82.763,51.374 89.504,54.195C87.246,51.07 75.129,35.791 77.089,17.076C79.371,14.672 83.625,17.532 83.625,17.532C83.625,17.532 106.427,38.102 120.067,44.508C133.707,50.915 165.046,54.783 171.638,66.183C176.274,74.199 174.493,74.703 178.21,76.015C186.906,79.085 223.812,84.603 223.812,84.603C223.812,84.603 233.116,85.937 233.178,95.714C233.24,105.49 228.075,116.321 224.002,122.189C219.928,128.056 210.942,136.401 204.193,136.45C197.443,136.498 126.249,136.717 126.249,136.717C126.249,136.717 114.356,134.538 103.066,146.2C91.776,157.863 94.9,164.78 94.672,170.614C94.444,176.449 96.017,194.867 103.31,212.896C110.604,230.925 120.136,256.866 120.136,256.866Z" style="fill:rgb(255,201,92);"/>
            <path d="M186.892,62.917C198.357,65.724 224.246,69.508 225.943,69.755L230.856,71.024L236.473,73.801L239.888,76.428L243.209,80.111L246.848,87.204L248.178,95.618C248.26,108.553 241.713,122.98 236.323,130.743C233.006,135.522 227.289,141.513 221.266,145.555C215.576,149.372 209.494,151.412 204.301,151.449C197.546,151.498 126.295,151.717 126.295,151.717C126.279,151.717 126.264,151.717 126.249,151.717L123.698,151.498C123.725,151.503 124.11,151.561 124.11,151.561C124.11,151.561 118.175,152.159 113.843,156.634C107.215,163.48 109.794,167.775 109.66,171.201C109.465,176.183 110.987,191.874 117.216,207.271C124.584,225.486 134.215,251.692 134.215,251.692C135.906,256.293 135.242,261.431 132.436,265.45C129.63,269.47 125.038,271.866 120.136,271.866L25.801,271.866C19.359,271.866 13.636,267.753 11.583,261.647C11.583,261.647 1.668,232.589 1.744,189.101C1.813,149.885 9.71,102.291 42.242,74.925C38.471,71.278 34.555,67.005 31.1,62.195C23.413,51.494 18.035,38.395 19.016,23.664C19.247,20.195 20.676,16.915 23.057,14.383L28.424,10.549L33.664,9.112L37.567,9.082L41.681,9.896L48.553,13.07L48.203,12.851C48.203,12.851 54.167,16.492 61.889,21.136C61.882,19.292 61.971,17.416 62.171,15.513C62.515,12.226 63.935,9.145 66.21,6.748L71.586,2.857L75.868,1.458L79.629,1.115L85.85,2.136L91.996,5.085C92.585,5.481 93.145,5.919 93.673,6.395C93.673,6.395 114.128,25.147 126.444,30.931C135.915,35.38 153.999,38.558 166.233,43.965C174.954,47.819 181.361,53.032 184.624,58.674C185.507,60.202 186.268,61.654 186.892,62.917ZM120.136,256.866C120.136,256.866 110.604,230.925 103.31,212.896C96.017,194.867 94.444,176.449 94.672,170.614C94.9,164.78 91.776,157.863 103.066,146.2C114.356,134.538 126.249,136.717 126.249,136.717C126.249,136.717 197.443,136.498 204.193,136.45C210.942,136.401 219.928,128.056 224.002,122.189C228.075,116.321 233.24,105.49 233.178,95.714C233.116,85.937 223.812,84.603 223.812,84.603C223.812,84.603 186.906,79.085 178.21,76.015C174.493,74.703 176.274,74.199 171.638,66.183C165.046,54.783 133.707,50.915 120.067,44.508C106.427,38.102 83.625,17.532 83.625,17.532C83.625,17.532 79.371,14.672 77.089,17.076C75.129,35.791 87.246,51.07 89.504,54.195C82.763,51.374 40.42,25.674 40.42,25.674C40.42,25.674 35.821,22.707 33.983,24.661C32.145,52.247 61.633,71.701 67.274,76.513C24.541,96.976 16.815,148.531 16.744,189.127C16.673,229.723 25.801,256.866 25.801,256.866L120.136,256.866Z"/>
            <g id="Face1" serif:id="Face">
                <path id="Mouth1" serif:id="Mouth" d="M170.241,113.85L185.236,129.202L198.89,114.702L209.578,128.295L216.521,114.353" style="fill:none;stroke:rgb(70,41,26);stroke-width:10px;stroke-miterlimit:5;"/>
                <path id="Snout" d="M226.686,97.913C226.686,100.16 224.862,101.984 222.616,101.984L217.385,101.984C215.138,101.984 213.314,100.16 213.314,97.913C213.314,95.667 215.138,93.843 217.385,93.843L222.616,93.843C224.862,93.843 226.686,95.667 226.686,97.913Z" style="fill:rgb(142,94,49);"/>
                <path id="Eye" d="M118.432,80.387C121.281,88.725 128.192,91.361 133.431,91.408C139.324,91.46 145.664,89.661 149.684,79.665" style="fill:none;stroke:black;stroke-width:12px;"/>
            </g>
        </g>
        <path id="Arm" d="M166.973,220.327C166.277,223.546 163.859,226.28 160.465,227.214L115.469,239.596C110.608,240.933 105.576,238.073 104.239,233.213C102.901,228.352 105.762,223.32 110.622,221.983L147.197,211.918L144.701,201.013C143.577,196.099 146.653,191.197 151.567,190.072C156.481,188.947 161.384,192.024 162.509,196.938L166.95,216.347C167.26,217.701 167.251,219.054 166.973,220.327Z" style="fill:rgb(151,151,151);"/>
        <path d="M176.743,222.449L175.005,227.256L172.062,231.428L168.04,234.724L163.119,236.856L118.122,249.237L114.31,249.883L110.537,249.759L106.932,248.919L103.591,247.422L100.595,245.318L98.029,242.65L95.993,239.471L94.597,235.866L93.952,232.054L94.075,228.28L94.915,224.675L96.413,221.335L98.517,218.339L101.185,215.773L104.364,213.737L107.969,212.341C107.969,212.341 135.313,204.817 135.313,204.817L134.953,203.244L134.474,199.408L134.762,195.644L135.758,192.079L137.399,188.806L139.632,185.905L142.409,183.458L145.673,181.562L149.336,180.324L153.173,179.845L156.937,180.133L160.502,181.129L163.774,182.77L166.676,185.003L169.123,187.78L171.019,191.044L172.257,194.707L176.698,214.116L177.182,218.342L176.743,222.449ZM166.973,220.327C167.251,219.054 167.26,217.701 166.95,216.347L162.509,196.938C161.384,192.024 156.481,188.947 151.567,190.072C146.653,191.197 143.577,196.099 144.701,201.013L147.197,211.918L110.622,221.983C105.762,223.32 102.901,228.352 104.239,233.213C105.576,238.073 110.608,240.933 115.469,239.596L160.465,227.214C163.859,226.28 166.277,223.546 166.973,220.327Z"/>
    </g>
</svg>
