<?xml version="1.0" encoding="UTF-8" standalone="no"?>
<!DOCTYPE svg PUBLIC "-//W3C//DTD SVG 1.1//EN" "http://www.w3.org/Graphics/SVG/1.1/DTD/svg11.dtd">
<svg width="100%" height="100%" viewBox="0 0 256 256" version="1.1" xmlns="http://www.w3.org/2000/svg" xmlns:xlink="http://www.w3.org/1999/xlink" xml:space="preserve" xmlns:serif="http://www.serif.com/" style="fill-rule:evenodd;clip-rule:evenodd;stroke-linecap:round;stroke-linejoin:round;stroke-miterlimit:1.5;">
    <rect id="blobbee_in_mug" x="-0" y="0" width="256" height="256" style="fill:none;"/>
    <g id="Mug">
        <path id="Outer-mug" serif:id="Outer mug" d="M12.512,193.018L12.512,78.872L196.414,78.872L196.414,79.084C221.574,79.084 242,99.618 242,133.908C242,168.086 221.709,189.946 196.664,190.13L196.664,188.945C196.664,219.321 155.35,243.982 104.463,243.982C55.872,243.982 16.009,221.495 12.512,193.018ZM196.414,167.169C212.276,167.169 225.153,155.526 225.153,133.908C225.153,112.291 212.276,102.046 196.414,102.046L196.414,167.169Z" style="fill:#dbdbdb;"/>
        <ellipse id="Rim" cx="104.463" cy="78.872" rx="92.2" ry="55.037" style="fill:#eee;"/>
        <ellipse id="Inner-mug" serif:id="Inner mug" cx="104.463" cy="78.872" rx="83.469" ry="49.825" style="fill:#999;"/>
        <path id="Coffee" d="M25.858,95.659C37.411,76.408 68.261,62.621 104.463,62.621C140.665,62.621 171.515,76.408 183.069,95.659C171.515,114.909 140.665,128.697 104.463,128.697C68.261,128.697 37.411,114.909 25.858,95.659Z" style="fill:#813a06;"/>
        <path id="Mug-outline" serif:id="Mug outline" d="M205.719,69.862C231.602,74.263 252,97.15 252,133.908C252,170.714 231.383,194.811 205.401,199.351C202.693,210.382 195.709,220.622 185.178,229.195C166.949,244.035 137.624,253.982 104.463,253.982C72.858,253.982 44.731,244.959 26.41,231.27C12.701,221.028 4.288,208.096 2.587,194.237C2.537,193.833 2.512,193.426 2.512,193.018L2.512,83.521L2.512,83.516C2.347,81.981 2.263,80.432 2.263,78.872C2.263,63.909 9.97,49.839 23.749,38.622C41.977,23.781 71.302,13.835 104.463,13.835C137.624,13.835 166.949,23.781 185.178,38.622C196.152,47.555 203.274,58.299 205.719,69.862ZM196.664,188.945L196.664,190.13C221.709,189.946 242,168.086 242,133.908C242,99.731 221.708,79.22 196.663,79.085L196.664,78.872C196.664,48.496 155.35,23.835 104.463,23.835C53.577,23.835 12.263,48.496 12.263,78.872C12.263,80.242 12.347,81.6 12.512,82.945L12.512,193.018C16.009,221.495 55.872,243.982 104.463,243.982C155.35,243.982 196.664,219.321 196.664,188.945ZM196.414,167.169L196.414,102.046C212.276,102.046 225.153,112.291 225.153,133.908C225.153,155.526 212.276,167.169 196.414,167.169ZM206.414,154.166C211.764,150.473 215.153,143.493 215.153,133.908C215.153,126.318 213.272,120.596 209.619,116.9C208.655,115.925 207.579,115.109 206.414,114.443L206.414,154.166Z"/>
    </g>
    <g id="Bee">
        <clipPath id="_clip1">
            <path d="M16.574,74.655L16.92,-6.565L188.829,-5.833L188.483,75.387C188.362,103.705 149.75,126.532 102.31,126.33C54.87,126.127 16.454,102.973 16.574,74.655Z"/>
        </clipPath>
        <g clip-path="url(#_clip1)">
            <path id="Wings-outline" serif:id="Wings outline" d="M84.706,66.932C73.281,64.239 62.953,52.509 61.235,36.835C59.154,17.847 70.58,2.713 84.6,1.713C94.724,0.992 105.045,7.815 110.589,18.934C123.048,15.363 135.523,18.366 142.21,26.569C151.604,38.094 148.066,57.86 131.837,70.029C115.962,81.931 95.605,80.596 86.417,69.324C85.79,68.555 85.22,67.756 84.706,66.932ZM90.793,58.358C91.313,60.247 92.199,62.01 93.473,63.572C100.13,71.74 114.874,71.37 126.376,62.746C137.878,54.121 141.811,40.489 135.154,32.321C129.039,24.819 116.103,24.52 105.123,31.203C102.993,19.127 94.413,10.14 85.248,10.794C75.55,11.485 68.845,22.709 70.284,35.843C71.724,48.976 80.766,59.077 90.464,58.386C90.574,58.378 90.684,58.369 90.793,58.358Z"/>
            <path id="Body" d="M91.294,41.872C126.441,32.065 160.513,43.064 167.334,66.419C174.154,89.774 151.156,116.698 116.008,126.505C80.861,136.313 46.789,125.314 39.969,101.958C33.148,78.603 56.147,51.679 91.294,41.872Z" style="fill:#fec207;"/>
            <g id="Stripes">
                <path d="M116.104,40.974C115.304,41.332 164.352,51.56 156.22,102.102C197.157,43.35 117.603,36.141 116.104,40.974Z" style="fill:#555;"/>
                <path d="M156.088,102.615C165.421,54.229 117.426,40.7 118.053,39.354L98.348,41.395C98.348,41.395 156.882,55.468 144.535,112.138L154.381,103.089" style="fill:#fec207;"/>
                <path d="M130.728,120.913L144.434,112.112C156.837,55.38 97.626,39.125 97.621,39.146L86.645,42.32C86.552,42.314 146.864,63.087 130.728,120.913Z" style="fill:#555;"/>
                <path d="M87.44,42.57L75.099,47.95C75.099,47.95 132.69,69.02 117.321,126.231L130.332,121.643C149.071,65.792 86.691,42.891 85.599,43.373" style="fill:#fec207;"/>
                <path d="M72.61,48.477L62.796,54.691C62.796,54.691 117.077,69.16 103.117,128.646L117.321,126.231C134.693,67.637 74.214,49.559 72.61,48.477Z" style="fill:#555;"/>
            </g>
            <path id="Body-outline" serif:id="Body outline" d="M91.294,41.872C126.441,32.065 160.513,43.064 167.334,66.419C174.154,89.774 151.156,116.698 116.008,126.505C80.861,136.313 46.789,125.314 39.969,101.958C33.148,78.603 56.147,51.679 91.294,41.872Z" style="fill:none;stroke:#000;stroke-width:9.1px;"/>
            <g id="Wings">
                <path id="Back-wing" serif:id="Back wing" d="M85.248,10.794C94.946,10.102 103.988,20.203 105.427,33.337C106.867,46.47 100.162,57.694 90.464,58.386C80.766,59.077 71.724,48.976 70.284,35.843C68.845,22.709 75.55,11.485 85.248,10.794Z" style="fill:#a7a7a7;"/>
                <path id="Front-wing" serif:id="Front wing" d="M135.154,32.321C141.811,40.489 137.878,54.121 126.376,62.746C114.874,71.37 100.13,71.74 93.473,63.572C86.815,55.404 90.748,41.772 102.25,33.147C113.752,24.523 128.496,24.153 135.154,32.321Z" style="fill:#c3c3c3;"/>
            </g>
            <g id="Face">
                <path id="Right-eye" serif:id="Right eye" d="M86.076,91.503L85.319,94.449C84.524,97.543 81.367,99.41 78.273,98.615C75.178,97.82 73.312,94.662 74.107,91.568L74.864,88.623C75.658,85.529 78.816,83.662 81.91,84.457C85.004,85.252 86.871,88.409 86.076,91.503Z"/>
                <path id="Left-eye" serif:id="Left eye" d="M61.475,85.183L60.718,88.128C59.923,91.223 56.766,93.089 53.672,92.294C50.578,91.499 48.711,88.342 49.506,85.248L50.263,82.302C51.058,79.208 54.215,77.341 57.309,78.136C60.403,78.931 62.27,82.089 61.475,85.183Z"/>
            </g>
        </g>
    </g>
    <path id="Coffee-front" serif:id="Coffee front" d="M175.405,86.001C178.489,89.047 181.068,92.305 183.069,95.731C171.515,115.522 140.665,129.697 104.463,129.697C68.261,129.697 37.411,115.522 25.858,95.731C27.858,92.305 30.437,89.047 33.522,86.001C48.254,100.545 74.529,114.587 104.463,114.587C134.397,114.587 160.672,100.545 175.405,86.001Z" style="fill:#813a06;"/>
</svg>
