<?xml version="1.0" encoding="UTF-8" standalone="no"?>
<!DOCTYPE svg PUBLIC "-//W3C//DTD SVG 1.1//EN" "http://www.w3.org/Graphics/SVG/1.1/DTD/svg11.dtd">
<svg width="100%" height="100%" viewBox="0 0 256 256" version="1.1" xmlns="http://www.w3.org/2000/svg" xmlns:xlink="http://www.w3.org/1999/xlink" xml:space="preserve" xmlns:serif="http://www.serif.com/" style="fill-rule:evenodd;clip-rule:evenodd;stroke-linecap:round;stroke-linejoin:round;stroke-miterlimit:1.5;">
    <rect id="blobbee_nom_cookie" x="-0" y="0" width="256" height="256" style="fill:none;"/>
    <clipPath id="_clip1">
        <rect x="-0" y="0" width="256" height="256"/>
    </clipPath>
    <g clip-path="url(#_clip1)">
        <path id="Wings-outline" serif:id="Wings outline" d="M129.457,58.622C101.62,61.336 70.004,40.1 56.583,4.516C41.238,-36.173 56.638,-76.434 86.987,-86.581C110.642,-94.49 139.399,-82.584 157.884,-57.352C184.732,-75.998 216.987,-78.343 237.979,-62.862C265.408,-42.634 267.488,3.28 238.398,39.552C209.763,75.256 163.808,85.14 136.809,65.23C134.11,63.239 131.659,61.028 129.457,58.622ZM135.756,41.946C138.246,46.295 141.562,50.097 145.712,53.157C167.403,69.154 203.691,58.853 226.696,30.168C249.701,1.483 250.768,-34.793 229.076,-50.79C209.154,-65.482 176.918,-57.99 153.969,-34.446C141.008,-63.006 114.034,-79.808 91.744,-72.355C68.16,-64.47 58.694,-32.397 70.618,-0.777C82.543,30.842 111.372,50.11 134.957,42.225C135.225,42.135 135.491,42.042 135.756,41.946Z"/>
        <path id="Body" d="M127.902,-10.896C208.729,-57.562 300.137,-52 331.897,1.516C363.657,55.033 323.82,136.368 242.993,183.034C162.165,229.7 70.758,224.138 38.998,170.622C7.237,117.105 47.074,35.77 127.902,-10.896Z" style="fill:rgb(254,194,7);"/>
        <g id="Stripes">
            <path d="M188.793,-28.912C187.039,-27.516 315.054,-33.396 327.076,96.986C391.095,-74.613 189.429,-41.838 188.793,-28.912Z" style="fill:rgb(85,85,85);"/>
            <path d="M327.076,98.342C319.401,-27.463 191.893,-30.431 192.59,-34.166L145.073,-16.568C145.073,-16.568 299.034,-18.959 304.518,129.287L323.15,100.603" style="fill:rgb(254,194,7);"/>
            <path d="M275.897,159.811L304.252,129.287C298.868,-19.148 141.84,-21.73 141.842,-21.675L116.671,-6.827C116.437,-6.784 279.066,6.291 275.897,159.811Z" style="fill:rgb(85,85,85);"/>
            <path d="M118.8,-6.713L91.65,14.469C91.65,14.469 247.73,30.009 246.071,181.519L275.383,161.871C286.256,11.587 117.148,-5.442 114.749,-3.553" style="fill:rgb(254,194,7);"/>
            <path d="M85.819,17.358L65.463,38.997C65.463,38.997 209.143,40.294 212.42,196.543L246.071,181.519C251.812,25.308 90.484,19.018 85.819,17.358Z" style="fill:rgb(85,85,85);"/>
        </g>
        <path id="Body-outline" serif:id="Body outline" d="M127.902,-10.896C208.729,-57.562 300.137,-52 331.897,1.516C363.657,55.033 323.82,136.368 242.993,183.034C162.165,229.7 70.758,224.138 38.998,170.622C7.237,117.105 47.074,35.77 127.902,-10.896Z" style="fill:none;stroke:black;stroke-width:15px;"/>
        <g id="Wings">
            <path id="Back-wing" serif:id="Back wing" d="M91.744,-72.355C115.328,-80.241 144.157,-60.972 156.082,-29.353C168.007,2.266 158.541,34.339 134.957,42.225C111.372,50.11 82.543,30.842 70.618,-0.777C58.694,-32.397 68.16,-64.47 91.744,-72.355Z" style="fill:rgb(167,167,167);"/>
            <path id="Front-wing" serif:id="Front wing" d="M229.076,-50.79C250.768,-34.793 249.701,1.483 226.696,30.168C203.691,58.853 167.403,69.154 145.712,53.157C124.02,37.161 125.087,0.885 148.092,-27.8C171.097,-56.485 207.385,-66.786 229.076,-50.79Z" style="fill:rgb(195,195,195);"/>
        </g>
        <g id="Face">
            <g id="Eyes">
                <path id="Right-eye" serif:id="Right eye" d="M141.384,111.243L141.384,119.189C141.384,127.536 134.608,134.313 126.26,134.313C117.913,134.313 111.136,127.536 111.136,119.189L111.136,111.243C111.136,102.895 117.913,96.118 126.26,96.118C134.608,96.118 141.384,102.895 141.384,111.243Z"/>
                <path id="Left-eye" serif:id="Left eye" d="M81.28,111.178L81.28,119.124C81.28,127.471 74.503,134.248 66.156,134.248C57.808,134.248 51.032,127.471 51.032,119.124L51.032,111.178C51.032,102.831 57.808,96.054 66.156,96.054C74.503,96.054 81.28,102.831 81.28,111.178Z"/>
            </g>
        </g>
        <g id="Eyes1" serif:id="Eyes">
            <g id="Right-eye1" serif:id="Right eye">
                <circle id="Eye-white" serif:id="Eye white" cx="127.189" cy="115.183" r="23.779" style="fill:white;"/>
                <circle id="Pupil" cx="124.127" cy="112.159" r="20.392"/>
                <path id="Eye-reflection-top" serif:id="Eye reflection top" d="M113.113,101.305C117.141,97.278 122.94,96.537 126.055,99.653C129.171,102.768 128.43,108.568 124.403,112.595C120.375,116.623 114.576,117.364 111.46,114.248C108.344,111.133 109.085,105.333 113.113,101.305Z" style="fill:white;"/>
                <path id="Eye-reflection-bottom" serif:id="Eye reflection bottom" d="M134.052,117.071C134.052,117.071 132.852,121.207 128.61,122.112" style="fill:none;stroke:rgb(151,151,151);stroke-width:8px;"/>
            </g>
            <g id="Left-eye1" serif:id="Left eye">
                <circle id="Eye-white1" serif:id="Eye white" cx="66.602" cy="115.183" r="23.779" style="fill:white;"/>
                <circle id="Pupil1" serif:id="Pupil" cx="63.541" cy="112.159" r="20.392"/>
                <path id="Eye-reflection-top1" serif:id="Eye reflection top" d="M52.526,101.305C56.554,97.278 62.354,96.537 65.469,99.653C68.585,102.768 67.844,108.568 63.816,112.595C59.789,116.623 53.989,117.364 50.874,114.248C47.758,111.133 48.499,105.333 52.526,101.305Z" style="fill:white;"/>
                <path id="Eye-reflection-bottom1" serif:id="Eye reflection bottom" d="M73.465,117.071C73.465,117.071 72.266,121.207 68.024,122.112" style="fill:none;stroke:rgb(151,151,151);stroke-width:8px;"/>
            </g>
        </g>
        <g id="Cookie">
            <circle id="Cookie-base" serif:id="Cookie base" cx="94.365" cy="201.633" r="41.263" style="fill:rgb(160,121,77);"/>
            <path d="M94.365,150.371C122.657,150.371 145.627,173.341 145.627,201.633C145.627,229.926 122.657,252.896 94.365,252.896C66.072,252.896 43.102,229.926 43.102,201.633C43.102,173.341 66.072,150.371 94.365,150.371ZM94.365,160.371C71.591,160.371 53.102,178.86 53.102,201.633C53.102,224.407 71.591,242.896 94.365,242.896C117.138,242.896 135.627,224.407 135.627,201.633C135.627,178.86 117.138,160.371 94.365,160.371Z"/>
            <g id="Chocolate-chips" serif:id="Chocolate chips">
                <path d="M69.875,198.368L69.875,208.213C69.875,210.685 67.868,212.691 65.396,212.691C62.924,212.691 60.917,210.685 60.917,208.213L60.917,198.368C60.917,195.896 62.924,193.889 65.396,193.889C67.868,193.889 69.875,195.896 69.875,198.368Z" style="fill:rgb(73,51,35);"/>
                <path d="M121.617,209.776L121.617,219.62C121.617,222.092 119.61,224.099 117.138,224.099C114.666,224.099 112.66,222.092 112.66,219.62L112.66,209.776C112.66,207.304 114.666,205.297 117.138,205.297C119.61,205.297 121.617,207.304 121.617,209.776Z" style="fill:rgb(73,51,35);"/>
                <path d="M95.542,206.044L85.698,206.044C83.226,206.044 81.219,204.038 81.219,201.566C81.219,199.094 83.226,197.087 85.698,197.087L95.542,197.087C98.014,197.087 100.021,199.094 100.021,201.566C100.021,204.038 98.014,206.044 95.542,206.044Z" style="fill:rgb(73,51,35);"/>
                <path d="M100.021,223.681L100.021,229.194C100.021,231.723 97.968,233.776 95.438,233.776L91.157,233.776C85.672,233.776 81.219,229.323 81.219,223.838C81.219,219.206 84.98,215.446 89.611,215.446L91.786,215.446C96.331,215.446 100.021,219.136 100.021,223.681Z" style="fill:rgb(73,51,35);"/>
                <path d="M117.024,195.65L111.511,195.65C108.982,195.65 106.928,193.596 106.928,191.067L106.928,186.786C106.928,181.301 111.382,176.848 116.867,176.848C121.499,176.848 125.259,180.608 125.259,185.24L125.259,187.414C125.259,191.96 121.569,195.65 117.024,195.65Z" style="fill:rgb(73,51,35);"/>
                <path d="M74.292,181.229L74.292,175.717C74.292,173.187 76.346,171.134 78.875,171.134L83.156,171.134C88.641,171.134 93.094,175.587 93.094,181.072C93.094,185.704 89.334,189.465 84.702,189.465L82.528,189.465C77.982,189.465 74.292,185.775 74.292,181.229Z" style="fill:rgb(73,51,35);"/>
            </g>
        </g>
        <path id="Food-hider" serif:id="Food hider" d="M65.921,150.22L130.631,150.273C132.731,150.275 134.607,151.589 135.325,153.563C136.044,155.537 135.452,157.749 133.844,159.101L112.418,177.114C110.43,178.785 107.494,178.656 105.66,176.818C105.66,176.818 91.616,162.737 91.616,162.737L80.591,176.468C79.565,177.746 77.978,178.44 76.343,178.325C74.708,178.21 73.233,177.302 72.395,175.893L61.62,157.776C60.7,156.23 60.682,154.31 61.572,152.747C62.462,151.184 64.122,150.219 65.921,150.22Z" style="fill:rgb(254,194,7);"/>
        <path id="Mouth" d="M65.917,155.22L76.693,173.337L91.213,155.252L109.2,173.287L130.627,155.273" style="fill:none;stroke:black;stroke-width:10px;"/>
    </g>
</svg>
