<?xml version="1.0" encoding="UTF-8" standalone="no"?>
<!DOCTYPE svg PUBLIC "-//W3C//DTD SVG 1.1//EN" "http://www.w3.org/Graphics/SVG/1.1/DTD/svg11.dtd">
<svg width="100%" height="100%" viewBox="0 0 256 256" version="1.1" xmlns="http://www.w3.org/2000/svg" xmlns:xlink="http://www.w3.org/1999/xlink" xml:space="preserve" xmlns:serif="http://www.serif.com/" style="fill-rule:evenodd;clip-rule:evenodd;stroke-linecap:round;stroke-linejoin:round;stroke-miterlimit:1.5;">
    <rect id="blobbee_hug_blue_dagn" x="-0" y="0" width="256" height="256" style="fill:none;"/>
    <clipPath id="_clip1">
        <rect x="-0" y="0" width="256" height="256"/>
    </clipPath>
    <g clip-path="url(#_clip1)">
        <g id="Bee">
            <path id="Wings-outline" serif:id="Wings outline" d="M114.709,156.389C100.612,155.612 85.603,145.206 79.025,127.765C70.513,105.194 80.475,83.356 97.311,77.727C108.448,74.003 121.943,77.719 132.062,87.415C145.235,81.159 159.704,81.833 169.525,89.076C184.524,100.137 187.216,125.216 171.309,145.05C155.861,164.313 130.741,168.282 116.175,157.54C115.672,157.169 115.183,156.785 114.709,156.389ZM120.833,140.688C121.894,142.542 123.309,144.163 125.078,145.468C134.326,152.288 149.798,147.896 159.607,135.666C169.416,123.435 169.871,107.968 160.622,101.148C152.128,94.883 138.383,98.078 128.599,108.116C123.072,95.939 111.571,88.775 102.068,91.953C92.012,95.315 87.976,108.99 93.06,122.472C98.145,135.953 110.437,144.169 120.492,140.806C120.607,140.768 120.72,140.729 120.833,140.688Z"/>
            <path id="Body" d="M118.685,119.466C154.702,96.709 195.434,99.421 209.586,125.519C223.739,151.618 205.987,191.283 169.97,214.04C133.953,236.798 93.222,234.086 79.069,207.987C64.917,181.889 82.668,142.224 118.685,119.466Z" style="fill:rgb(254,194,7);"/>
            <g id="Stripes">
                <path d="M145.818,110.68C145.037,111.361 202.081,108.493 207.438,172.077C235.965,88.393 146.102,104.377 145.818,110.68Z" style="fill:rgb(85,85,85);"/>
                <path d="M207.438,172.738C204.018,111.387 147.2,109.939 147.51,108.118L126.337,116.7C126.337,116.7 194.942,115.534 197.386,187.829L205.688,173.841" style="fill:rgb(254,194,7);"/>
                <path d="M184.632,202.715L197.267,187.829C194.868,115.442 124.896,114.183 124.897,114.209L113.681,121.45C113.576,121.471 186.045,127.848 184.632,202.715Z" style="fill:rgb(85,85,85);"/>
                <path d="M114.629,121.506L102.531,131.836C102.531,131.836 172.081,139.414 171.342,213.301L184.403,203.72C189.248,130.431 113.893,122.126 112.824,123.047" style="fill:rgb(254,194,7);"/>
                <path d="M99.933,133.245L90.862,143.798C90.862,143.798 154.886,144.43 156.347,220.628L171.342,213.301C173.9,137.122 102.011,134.054 99.933,133.245Z" style="fill:rgb(85,85,85);"/>
            </g>
            <path id="Body-outline" serif:id="Body outline" d="M118.685,119.466C154.702,96.709 195.434,99.421 209.586,125.519C223.739,151.618 205.987,191.283 169.97,214.04C133.953,236.798 93.222,234.086 79.069,207.987C64.917,181.889 82.668,142.224 118.685,119.466Z" style="fill:none;stroke:black;stroke-width:15px;"/>
            <g id="Wings">
                <path id="Back-wing" serif:id="Back wing" d="M102.068,91.953C112.123,88.591 124.415,96.806 129.5,110.288C134.584,123.769 130.548,137.444 120.492,140.806C110.437,144.169 98.145,135.953 93.06,122.472C87.976,108.99 92.012,95.315 102.068,91.953Z" style="fill:rgb(167,167,167);"/>
                <path id="Front-wing" serif:id="Front wing" d="M160.622,101.148C169.871,107.968 169.416,123.435 159.607,135.666C149.798,147.896 134.326,152.288 125.078,145.468C115.829,138.647 116.284,123.18 126.093,110.95C135.901,98.719 151.374,94.327 160.622,101.148Z" style="fill:rgb(195,195,195);"/>
            </g>
            <g id="Face">
                <path id="Mouth" d="M94.803,199.629L100.078,208.499L107.188,199.645L115.994,208.475L126.485,199.655" style="fill:none;stroke:black;stroke-width:4.6px;"/>
                <g id="Eyes">
                    <path id="Right-eye" serif:id="Right eye" d="M133.045,180.042L133.045,183.852C133.045,187.854 129.796,191.103 125.794,191.103C121.792,191.103 118.542,187.854 118.542,183.852L118.542,180.042C118.542,176.04 121.792,172.79 125.794,172.79C129.796,172.79 133.045,176.04 133.045,180.042Z"/>
                    <path id="Left-eye" serif:id="Left eye" d="M106.026,180.042L106.026,183.852C106.026,187.854 102.777,191.103 98.775,191.103C94.773,191.103 91.524,187.854 91.524,183.852L91.524,180.042C91.524,176.04 94.773,172.79 98.775,172.79C102.777,172.79 106.026,176.04 106.026,180.042Z"/>
                </g>
            </g>
        </g>
        <g id="Dagn">
            <path id="Body1" serif:id="Body" d="M120.136,256.866L25.801,256.866C25.801,256.866 16.673,229.723 16.744,189.127C16.815,148.531 24.541,96.976 67.274,76.513C61.633,71.701 32.145,52.247 33.983,24.661C35.821,22.707 40.42,25.674 40.42,25.674C40.42,25.674 82.763,51.374 89.504,54.195C87.246,51.07 75.129,35.791 77.089,17.076C79.371,14.672 83.625,17.532 83.625,17.532C83.625,17.532 106.427,38.102 120.067,44.508C133.707,50.915 165.046,54.783 171.638,66.183C176.274,74.199 174.493,74.703 178.21,76.015C186.906,79.085 223.812,84.603 223.812,84.603C223.812,84.603 233.116,85.937 233.178,95.714C233.24,105.49 228.075,116.321 224.002,122.189C219.928,128.056 210.942,136.401 204.193,136.45C197.443,136.498 126.249,136.717 126.249,136.717C126.249,136.717 114.356,134.538 103.066,146.2C91.776,157.863 94.9,164.78 94.672,170.614C94.444,176.449 96.017,194.867 103.31,212.896C110.604,230.925 120.136,256.866 120.136,256.866Z" style="fill:rgb(28,83,196);"/>
            <path d="M186.892,62.917C198.357,65.724 224.246,69.508 225.943,69.755L230.856,71.024L236.473,73.801L239.888,76.428L243.209,80.111L246.848,87.204L248.178,95.618C248.26,108.553 241.713,122.98 236.323,130.743C233.006,135.522 227.289,141.513 221.266,145.555C215.576,149.372 209.494,151.412 204.301,151.449C197.546,151.498 126.295,151.717 126.295,151.717C126.279,151.717 126.264,151.717 126.249,151.717L123.698,151.498C123.725,151.503 124.11,151.561 124.11,151.561C124.11,151.561 118.175,152.159 113.843,156.634C107.215,163.48 109.794,167.775 109.66,171.201C109.465,176.183 110.987,191.874 117.216,207.271C124.584,225.486 134.215,251.692 134.215,251.692C135.906,256.293 135.242,261.431 132.436,265.45C129.63,269.47 125.038,271.866 120.136,271.866L25.801,271.866C19.359,271.866 13.636,267.753 11.583,261.647C11.583,261.647 1.668,232.589 1.744,189.101C1.813,149.885 9.71,102.291 42.242,74.925C38.471,71.278 34.555,67.005 31.1,62.195C23.413,51.494 18.035,38.395 19.016,23.664C19.247,20.195 20.676,16.915 23.057,14.383L28.424,10.549L33.664,9.112L37.567,9.082L41.681,9.896L48.553,13.07L48.203,12.851C48.203,12.851 54.167,16.492 61.889,21.136C61.882,19.292 61.971,17.416 62.171,15.513C62.515,12.226 63.935,9.145 66.21,6.748L71.586,2.857L75.868,1.458L79.629,1.115L85.85,2.136L91.996,5.085C92.585,5.481 93.145,5.919 93.673,6.395C93.673,6.395 114.128,25.147 126.444,30.931C135.915,35.38 153.999,38.558 166.233,43.965C174.954,47.819 181.361,53.032 184.624,58.674C185.507,60.202 186.268,61.654 186.892,62.917ZM120.136,256.866C120.136,256.866 110.604,230.925 103.31,212.896C96.017,194.867 94.444,176.449 94.672,170.614C94.9,164.78 91.776,157.863 103.066,146.2C114.356,134.538 126.249,136.717 126.249,136.717C126.249,136.717 197.443,136.498 204.193,136.45C210.942,136.401 219.928,128.056 224.002,122.189C228.075,116.321 233.24,105.49 233.178,95.714C233.116,85.937 223.812,84.603 223.812,84.603C223.812,84.603 186.906,79.085 178.21,76.015C174.493,74.703 176.274,74.199 171.638,66.183C165.046,54.783 133.707,50.915 120.067,44.508C106.427,38.102 83.625,17.532 83.625,17.532C83.625,17.532 79.371,14.672 77.089,17.076C75.129,35.791 87.246,51.07 89.504,54.195C82.763,51.374 40.42,25.674 40.42,25.674C40.42,25.674 35.821,22.707 33.983,24.661C32.145,52.247 61.633,71.701 67.274,76.513C24.541,96.976 16.815,148.531 16.744,189.127C16.673,229.723 25.801,256.866 25.801,256.866L120.136,256.866Z"/>
            <g id="Face1" serif:id="Face">
                <path id="Mouth1" serif:id="Mouth" d="M170.513,113.426L185.444,128.712L199.038,114.275L209.68,127.809L216.593,113.927" style="fill:none;stroke:rgb(0,11,37);stroke-width:10px;stroke-miterlimit:5;"/>
                <path id="Snout" d="M226.714,97.559C226.714,99.796 224.898,101.612 222.662,101.612L217.453,101.612C215.216,101.612 213.4,99.796 213.4,97.559C213.4,95.322 215.216,93.506 217.453,93.506L222.662,93.506C224.898,93.506 226.714,95.322 226.714,97.559Z" style="fill:rgb(0,21,71);"/>
                <path id="Eye" d="M118.929,80.108C121.765,88.411 128.646,91.035 133.863,91.081C139.73,91.134 146.043,89.342 150.045,79.389" style="fill:none;stroke:rgb(0,11,37);stroke-width:12px;"/>
            </g>
        </g>
        <path id="Arm" d="M167.019,220.303C166.323,223.522 163.904,226.257 160.511,227.19L115.515,239.572C110.654,240.91 105.622,238.049 104.285,233.189C102.947,228.328 105.807,223.296 110.668,221.959L147.243,211.895L144.747,200.99C143.622,196.076 146.699,191.173 151.613,190.048C156.527,188.924 161.43,192 162.554,196.914L166.996,216.323C167.306,217.677 167.297,219.03 167.019,220.303Z" style="fill:rgb(151,151,151);"/>
        <path d="M176.789,222.426L175.051,227.232L172.108,231.405L168.086,234.7L163.164,236.832L118.168,249.214L114.356,249.859L110.582,249.736L106.977,248.896L103.637,247.398L100.641,245.294L98.075,242.626L96.039,239.447L94.643,235.842L93.998,232.03L94.121,228.257L94.961,224.652L96.458,221.311L98.563,218.315L101.231,215.749L104.409,213.713L108.015,212.317C108.015,212.317 135.359,204.793 135.359,204.793L134.999,203.221L134.52,199.384L134.808,195.62L135.804,192.055L137.445,188.783L139.678,185.881L142.455,183.434L145.719,181.538L149.382,180.3L153.219,179.822L156.983,180.109L160.548,181.105L163.82,182.747L166.721,184.979L169.169,187.756L171.065,191.021L172.302,194.684L176.744,214.093L177.228,218.318L176.789,222.426ZM167.019,220.303C167.297,219.03 167.306,217.677 166.996,216.323L162.554,196.914C161.43,192 156.527,188.924 151.613,190.048C146.699,191.173 143.622,196.076 144.747,200.99L147.243,211.895L110.668,221.959C105.807,223.296 102.947,228.328 104.285,233.189C105.622,238.049 110.654,240.91 115.515,239.572L160.511,227.19C163.904,226.257 166.323,223.522 167.019,220.303Z"/>
    </g>
</svg>
