<?xml version="1.0" encoding="UTF-8" standalone="no"?>
<!DOCTYPE svg PUBLIC "-//W3C//DTD SVG 1.1//EN" "http://www.w3.org/Graphics/SVG/1.1/DTD/svg11.dtd">
<svg width="100%" height="100%" viewBox="0 0 256 256" version="1.1" xmlns="http://www.w3.org/2000/svg" xmlns:xlink="http://www.w3.org/1999/xlink" xml:space="preserve" xmlns:serif="http://www.serif.com/" style="fill-rule:evenodd;clip-rule:evenodd;stroke-linecap:round;stroke-linejoin:round;stroke-miterlimit:1.5;">
    <rect id="blobbee_nom_homework" x="0" y="0" width="256" height="256" style="fill:none;"/>
    <clipPath id="_clip1">
        <rect x="0" y="0" width="256" height="256"/>
    </clipPath>
    <g clip-path="url(#_clip1)">
        <path id="Wings-outline" serif:id="Wings outline" d="M129.457,58.622C101.62,61.336 70.004,40.1 56.583,4.516C41.238,-36.173 56.638,-76.434 86.987,-86.581C110.642,-94.49 139.399,-82.584 157.884,-57.352C184.732,-75.998 216.987,-78.343 237.979,-62.862C265.408,-42.634 267.488,3.28 238.398,39.552C209.763,75.256 163.808,85.14 136.809,65.23C134.11,63.239 131.659,61.028 129.457,58.622ZM135.756,41.946C138.246,46.295 141.562,50.097 145.712,53.157C167.403,69.154 203.691,58.853 226.696,30.168C249.701,1.483 250.768,-34.793 229.076,-50.79C209.154,-65.482 176.918,-57.99 153.969,-34.446C141.008,-63.006 114.034,-79.808 91.744,-72.355C68.16,-64.47 58.694,-32.397 70.618,-0.777C82.543,30.842 111.372,50.11 134.957,42.225C135.225,42.135 135.491,42.042 135.756,41.946Z"/>
        <path id="Body" d="M127.902,-10.896C208.729,-57.562 300.137,-52 331.897,1.516C363.657,55.033 323.82,136.368 242.993,183.034C162.165,229.7 70.758,224.138 38.998,170.622C7.237,117.105 47.074,35.77 127.902,-10.896Z" style="fill:rgb(254,194,7);"/>
        <g id="Stripes">
            <path d="M188.793,-28.912C187.039,-27.516 315.054,-33.396 327.076,96.986C391.095,-74.613 189.429,-41.838 188.793,-28.912Z" style="fill:rgb(85,85,85);"/>
            <path d="M327.076,98.342C319.401,-27.463 191.893,-30.431 192.59,-34.166L145.073,-16.568C145.073,-16.568 299.034,-18.959 304.518,129.287L323.15,100.603" style="fill:rgb(254,194,7);"/>
            <path d="M275.897,159.811L304.252,129.287C298.868,-19.148 141.84,-21.73 141.842,-21.675L116.671,-6.827C116.437,-6.784 279.066,6.291 275.897,159.811Z" style="fill:rgb(85,85,85);"/>
            <path d="M118.8,-6.713L91.65,14.469C91.65,14.469 247.73,30.009 246.071,181.519L275.383,161.871C286.256,11.587 117.148,-5.442 114.749,-3.553" style="fill:rgb(254,194,7);"/>
            <path d="M85.819,17.358L65.463,38.997C65.463,38.997 209.143,40.294 212.42,196.543L246.071,181.519C251.812,25.308 90.484,19.018 85.819,17.358Z" style="fill:rgb(85,85,85);"/>
        </g>
        <path id="Body-outline" serif:id="Body outline" d="M127.902,-10.896C208.729,-57.562 300.137,-52 331.897,1.516C363.657,55.033 323.82,136.368 242.993,183.034C162.165,229.7 70.758,224.138 38.998,170.622C7.237,117.105 47.074,35.77 127.902,-10.896Z" style="fill:none;stroke:black;stroke-width:15px;"/>
        <g id="Wings">
            <path id="Back-wing" serif:id="Back wing" d="M91.744,-72.355C115.328,-80.241 144.157,-60.972 156.082,-29.353C168.007,2.266 158.541,34.339 134.957,42.225C111.372,50.11 82.543,30.842 70.618,-0.777C58.694,-32.397 68.16,-64.47 91.744,-72.355Z" style="fill:rgb(167,167,167);"/>
            <path id="Front-wing" serif:id="Front wing" d="M229.076,-50.79C250.768,-34.793 249.701,1.483 226.696,30.168C203.691,58.853 167.403,69.154 145.712,53.157C124.02,37.161 125.087,0.885 148.092,-27.8C171.097,-56.485 207.385,-66.786 229.076,-50.79Z" style="fill:rgb(195,195,195);"/>
        </g>
        <g id="Face">
            <g id="Eyes">
                <path id="Right-eye" serif:id="Right eye" d="M141.384,111.243L141.384,119.189C141.384,127.536 134.608,134.313 126.26,134.313C117.913,134.313 111.136,127.536 111.136,119.189L111.136,111.243C111.136,102.895 117.913,96.118 126.26,96.118C134.608,96.118 141.384,102.895 141.384,111.243Z"/>
                <path id="Left-eye" serif:id="Left eye" d="M81.28,111.178L81.28,119.124C81.28,127.471 74.503,134.248 66.156,134.248C57.808,134.248 51.032,127.471 51.032,119.124L51.032,111.178C51.032,102.831 57.808,96.054 66.156,96.054C74.503,96.054 81.28,102.831 81.28,111.178Z"/>
            </g>
        </g>
        <g id="Eyes1" serif:id="Eyes">
            <g id="Right-eye1" serif:id="Right eye">
                <circle id="Eye-white" serif:id="Eye white" cx="127.189" cy="115.183" r="23.779" style="fill:white;"/>
                <circle id="Pupil" cx="124.127" cy="112.159" r="20.392"/>
                <path id="Eye-reflection-top" serif:id="Eye reflection top" d="M113.113,101.305C117.141,97.278 122.94,96.537 126.055,99.653C129.171,102.768 128.43,108.568 124.403,112.595C120.375,116.623 114.576,117.364 111.46,114.248C108.344,111.133 109.085,105.333 113.113,101.305Z" style="fill:white;"/>
                <path id="Eye-reflection-bottom" serif:id="Eye reflection bottom" d="M134.052,117.071C134.052,117.071 132.852,121.207 128.61,122.112" style="fill:none;stroke:rgb(151,151,151);stroke-width:8px;"/>
            </g>
            <g id="Left-eye1" serif:id="Left eye">
                <circle id="Eye-white1" serif:id="Eye white" cx="66.602" cy="115.183" r="23.779" style="fill:white;"/>
                <circle id="Pupil1" serif:id="Pupil" cx="63.541" cy="112.159" r="20.392"/>
                <path id="Eye-reflection-top1" serif:id="Eye reflection top" d="M52.526,101.305C56.554,97.278 62.354,96.537 65.469,99.653C68.585,102.768 67.844,108.568 63.816,112.595C59.789,116.623 53.989,117.364 50.874,114.248C47.758,111.133 48.499,105.333 52.526,101.305Z" style="fill:white;"/>
                <path id="Eye-reflection-bottom1" serif:id="Eye reflection bottom" d="M73.465,117.071C73.465,117.071 72.266,121.207 68.024,122.112" style="fill:none;stroke:rgb(151,151,151);stroke-width:8px;"/>
            </g>
        </g>
        <g id="Homework">
            <path id="Paper" d="M147.061,169.597L147.061,280.631C147.061,284.368 144.027,287.402 140.29,287.402L53.623,287.402C49.886,287.402 46.852,284.368 46.852,280.631L46.852,169.597C46.852,165.86 49.886,162.826 53.623,162.826L140.29,162.826C144.027,162.826 147.061,165.86 147.061,169.597Z" style="fill:rgb(251,251,251);"/>
            <path d="M157.061,169.597L157.061,280.631L156.72,284.002L155.738,287.163L154.19,290.015L152.148,292.489L149.674,294.53L146.823,296.078L143.661,297.061L140.29,297.402L53.623,297.402L50.252,297.061L47.09,296.078L44.239,294.53L41.765,292.489L39.724,290.015L38.175,287.163L37.193,284.002L36.852,280.631L36.852,169.597L37.193,166.227L38.175,163.065L39.724,160.213L41.765,157.739L44.239,155.698L47.09,154.15L50.252,153.167L53.623,152.826L140.29,152.826L143.661,153.167L146.823,154.15L149.674,155.698L152.148,157.739L154.19,160.213L155.738,163.065L156.72,166.227L157.061,169.597ZM147.061,169.597C147.061,165.86 144.027,162.826 140.29,162.826L53.623,162.826C49.886,162.826 46.852,165.86 46.852,169.597L46.852,280.631C46.852,284.368 49.886,287.402 53.623,287.402L140.29,287.402C144.027,287.402 147.061,284.368 147.061,280.631L147.061,169.597Z"/>
            <g id="Writing">
                <path d="M96.957,177.509C96.957,179.595 95.264,181.287 93.179,181.287L58.271,181.287C56.186,181.287 54.493,179.595 54.493,177.509C54.493,175.424 56.186,173.732 58.271,173.732L93.179,173.732C95.264,173.732 96.957,175.424 96.957,177.509Z" style="fill:rgb(17,70,175);"/>
                <path d="M141.951,192.756C141.951,194.422 140.599,195.774 138.933,195.774L57.511,195.774C55.846,195.774 54.493,194.422 54.493,192.756C54.493,191.091 55.846,189.739 57.511,189.739L138.933,189.739C140.599,189.739 141.951,191.091 141.951,192.756Z" style="fill:rgb(17,70,175);"/>
                <path d="M141.951,202.782C141.951,204.427 140.615,205.764 138.969,205.764L57.475,205.764C55.829,205.764 54.493,204.427 54.493,202.782C54.493,201.136 55.829,199.8 57.475,199.8L138.969,199.8C140.615,199.8 141.951,201.136 141.951,202.782Z" style="fill:rgb(17,70,175);"/>
                <path d="M141.951,228.489C141.951,230.138 140.612,231.477 138.962,231.477L57.482,231.477C55.832,231.477 54.493,230.138 54.493,228.489C54.493,226.839 55.832,225.5 57.482,225.5L138.962,225.5C140.612,225.5 141.951,226.839 141.951,228.489Z" style="fill:rgb(17,70,175);"/>
                <path d="M141.951,238.496C141.951,240.149 140.609,241.491 138.955,241.491L57.489,241.491C55.836,241.491 54.493,240.149 54.493,238.496C54.493,236.842 55.836,235.5 57.489,235.5L138.955,235.5C140.609,235.5 141.951,236.842 141.951,238.496Z" style="fill:rgb(17,70,175);"/>
                <path d="M120.295,248.49C120.295,250.14 118.955,251.479 117.305,251.479L57.483,251.479C55.833,251.479 54.493,250.14 54.493,248.49C54.493,246.84 55.833,245.5 57.483,245.5L117.305,245.5C118.955,245.5 120.295,246.84 120.295,248.49Z" style="fill:rgb(17,70,175);"/>
                <path d="M81.068,213.985C81.068,215.643 79.721,216.99 78.063,216.99L57.498,216.99C55.84,216.99 54.493,215.643 54.493,213.985C54.493,212.326 55.84,210.98 57.498,210.98L78.063,210.98C79.721,210.98 81.068,212.326 81.068,213.985Z" style="fill:rgb(17,70,175);"/>
                <path d="M141.951,177.509C141.951,179.595 140.258,181.287 138.173,181.287L122.41,181.287C120.325,181.287 118.632,179.595 118.632,177.509C118.632,175.424 120.325,173.732 122.41,173.732L138.173,173.732C140.258,173.732 141.951,175.424 141.951,177.509Z" style="fill:rgb(17,70,175);"/>
            </g>
        </g>
        <path id="Food-hider" serif:id="Food hider" d="M65.921,150.22L130.631,150.273C132.731,150.275 134.607,151.589 135.325,153.563C136.044,155.537 135.452,157.749 133.844,159.101L112.418,177.114C110.43,178.785 107.494,178.656 105.66,176.818C105.66,176.818 91.616,162.737 91.616,162.737L80.591,176.468C79.565,177.746 77.978,178.44 76.343,178.325C74.708,178.21 73.233,177.302 72.395,175.893L61.62,157.776C60.7,156.23 60.682,154.31 61.572,152.747C62.462,151.184 64.122,150.219 65.921,150.22Z" style="fill:rgb(254,194,7);"/>
        <path id="Mouth" d="M65.917,155.22L76.693,173.337L91.213,155.252L109.2,173.287L130.627,155.273" style="fill:none;stroke:black;stroke-width:10px;"/>
    </g>
</svg>
