<?xml version="1.0" encoding="UTF-8" standalone="no"?>
<!DOCTYPE svg PUBLIC "-//W3C//DTD SVG 1.1//EN" "http://www.w3.org/Graphics/SVG/1.1/DTD/svg11.dtd">
<svg width="100%" height="100%" viewBox="0 0 256 256" version="1.1" xmlns="http://www.w3.org/2000/svg" xmlns:xlink="http://www.w3.org/1999/xlink" xml:space="preserve" xmlns:serif="http://www.serif.com/" style="fill-rule:evenodd;clip-rule:evenodd;stroke-linecap:round;stroke-linejoin:round;stroke-miterlimit:1.5;">
    <rect id="blobbee_hug_neomouse" x="-0" y="0" width="256" height="256" style="fill:none;"/>
    <clipPath id="_clip1">
        <rect x="-0" y="0" width="256" height="256"/>
    </clipPath>
    <g clip-path="url(#_clip1)">
        <g id="Bee">
            <path id="Wings-outline" serif:id="Wings outline" d="M148.346,135.121C134.249,134.344 119.24,123.938 112.662,106.497C104.15,83.926 114.112,62.089 130.948,56.459C142.085,52.736 155.58,56.452 165.699,66.148C178.871,59.892 193.341,60.565 203.162,67.808C218.161,78.869 220.853,103.948 204.946,123.783C189.498,143.045 164.378,147.014 149.812,136.273C149.309,135.902 148.82,135.518 148.346,135.121ZM154.47,119.42C155.531,121.274 156.945,122.896 158.715,124.2C167.963,131.021 183.435,126.629 193.244,114.398C203.053,102.168 203.508,86.701 194.259,79.88C185.765,73.616 172.02,76.81 162.236,86.849C156.709,74.672 145.208,67.508 135.704,70.685C125.649,74.048 121.613,87.723 126.697,101.204C131.782,114.685 144.073,122.901 154.129,119.539C154.243,119.501 154.357,119.461 154.47,119.42Z"/>
            <path id="Body" d="M152.322,98.199C188.339,75.441 229.071,78.153 243.223,104.252C257.376,130.35 239.624,170.015 203.607,192.773C167.59,215.53 126.858,212.818 112.706,186.72C98.553,160.621 116.305,120.956 152.322,98.199Z" style="fill:rgb(254,194,7);"/>
            <g id="Stripes">
                <path d="M179.455,89.413C178.674,90.093 235.718,87.226 241.075,150.81C269.602,67.126 179.739,83.109 179.455,89.413Z" style="fill:rgb(85,85,85);"/>
                <path d="M241.075,151.471C237.655,90.119 180.837,88.672 181.147,86.85L159.973,95.432C159.973,95.432 228.579,94.267 231.023,166.562L239.325,152.573" style="fill:rgb(254,194,7);"/>
                <path d="M218.269,181.448L230.904,166.562C228.505,94.174 158.533,92.915 158.534,92.942L147.317,100.183C147.213,100.204 219.681,106.58 218.269,181.448Z" style="fill:rgb(85,85,85);"/>
                <path d="M148.266,100.238L136.168,110.568C136.168,110.568 205.718,118.147 204.979,192.034L218.04,182.452C222.885,109.163 147.53,100.858 146.461,101.779" style="fill:rgb(254,194,7);"/>
                <path d="M133.57,111.977L124.499,122.53C124.499,122.53 188.523,123.162 189.983,199.361L204.979,192.034C207.537,115.854 135.648,112.787 133.57,111.977Z" style="fill:rgb(85,85,85);"/>
            </g>
            <path id="Body-outline" serif:id="Body outline" d="M152.322,98.199C188.339,75.441 229.071,78.153 243.223,104.252C257.376,130.35 239.624,170.015 203.607,192.773C167.59,215.53 126.858,212.818 112.706,186.72C98.553,160.621 116.305,120.956 152.322,98.199Z" style="fill:none;stroke:black;stroke-width:15px;"/>
            <g id="Wings">
                <path id="Back-wing" serif:id="Back wing" d="M135.704,70.685C145.76,67.323 158.052,75.539 163.136,89.02C168.221,102.502 164.185,116.177 154.129,119.539C144.073,122.901 131.782,114.685 126.697,101.204C121.613,87.723 125.649,74.048 135.704,70.685Z" style="fill:rgb(167,167,167);"/>
                <path id="Front-wing" serif:id="Front wing" d="M194.259,79.88C203.508,86.701 203.053,102.168 193.244,114.398C183.435,126.629 167.963,131.021 158.715,124.2C149.466,117.38 149.921,101.913 159.73,89.682C169.538,77.452 185.01,73.06 194.259,79.88Z" style="fill:rgb(195,195,195);"/>
            </g>
            <g id="Face">
                <path id="Mouth" d="M128.439,178.362L133.715,187.232L140.824,178.377L149.631,187.207L160.122,178.388" style="fill:none;stroke:black;stroke-width:4.6px;"/>
                <path id="Eye" d="M166.682,158.774L166.682,162.584C166.682,166.586 163.433,169.835 159.431,169.835C155.428,169.835 152.179,166.586 152.179,162.584L152.179,158.774C152.179,154.772 155.428,151.523 159.431,151.523C163.433,151.523 166.682,154.772 166.682,158.774Z"/>
            </g>
        </g>
        <g id="Mouse">
            <path id="Body1" serif:id="Body" d="M151.907,189.107L151.907,196.896C151.907,200.617 151.39,204.211 150.444,207.622C150.444,207.625 150.444,207.628 150.443,207.63C150.338,208.007 150.238,208.387 150.123,208.76C145.386,225.481 131.61,238.323 114.351,241.707C113.757,241.83 113.155,241.937 112.548,242.027C110.174,242.397 107.741,242.592 105.26,242.592L84.006,242.592C82.55,242.592 80.299,242.723 78.878,242.594L57.125,242.594C39.18,242.594 25.547,227.939 25.547,209.994L25.547,181.487C25.453,153.449 41.851,130.945 94.802,130.945C131.306,130.945 151.162,163.311 151.907,189.107Z" style="fill:rgb(227,222,219);fill-rule:nonzero;stroke:black;stroke-width:13.26px;stroke-linejoin:miter;stroke-miterlimit:4;"/>
            <g id="Right-ear" serif:id="Right ear">
                <path id="Fill" d="M130.136,101.167C130.428,101.15 130.695,101.189 130.935,101.283C131.552,101.525 142.602,98.784 152.004,117.595C158.382,130.354 153.32,148.362 142.254,153.24C141.628,153.516 141.042,153.763 140.439,154.023C140.438,154.022 140.413,153.975 140.413,153.974C129.21,157.55 108.609,146.303 108.859,140.466C108.859,140.459 108.857,140.465 108.857,140.459C116.239,113.487 125.88,101.409 130.136,101.167Z" style="fill:rgb(233,175,175);fill-rule:nonzero;"/>
                <path id="Inner-line" serif:id="Inner line" d="M133.095,96.303C136.815,102.717 141.172,112.73 131.138,127.608C122.603,140.262 108.954,135.365 108.954,135.365" style="fill:none;fill-rule:nonzero;stroke:rgb(160,44,44);stroke-opacity:0.21;stroke-width:10px;stroke-linecap:butt;stroke-linejoin:miter;stroke-miterlimit:4;"/>
                <path id="Outline" d="M129.509,88.049C129.988,88.025 130.51,88.099 131.012,88.121C130.999,88.131 130.942,88.162 130.924,88.162C130.671,88.167 130.841,88.164 131.109,88.154C131.239,88.149 131.601,88.162 131.785,88.157C133.062,88.281 134.377,88.52 135.734,89.052C134.587,88.602 133.793,88.347 133.145,88.166C133.441,88.172 133.568,88.152 133.898,88.171C136.342,88.307 139.698,88.856 143.289,90.373C150.471,93.407 158.022,100.244 163.758,111.72C168.674,121.554 168.98,132.293 166.337,141.869C163.693,151.445 157.872,160.716 147.554,165.264C147.181,165.428 146.834,165.579 146.464,165.743C141.938,156.997 140.556,154.317 140.439,154.023C141.042,153.763 141.628,153.516 142.254,153.24C153.32,148.362 158.382,130.354 152.004,117.595C142.602,98.784 131.552,101.525 130.935,101.283C130.695,101.189 130.428,101.15 130.136,101.167C125.88,101.409 116.239,113.487 108.857,140.458C108.856,140.422 108.849,140.41 108.849,140.41C104.075,139.711 101.204,137.684 101.379,131.337C101.235,131.171 98.102,131.007 97.906,131.044C101.581,119.083 105.708,109.913 109.935,103.124C112.537,98.945 115.077,95.642 118.36,92.847C120.001,91.449 121.829,90.121 124.531,89.098C125.881,88.587 127.592,88.147 129.509,88.049Z" style="fill-rule:nonzero;"/>
            </g>
            <g id="Left-ear" serif:id="Left ear">
                <path id="Fill1" serif:id="Fill" d="M44.793,101.326C49.86,101.496 61.159,113.388 69.914,141.409C69.897,141.418 69.815,141.438 69.816,141.445C69.816,141.445 69.776,141.551 69.755,141.604C65.606,152.04 44.307,157.637 32.168,153.06C32.165,153.066 32.163,153.073 32.161,153.079C31.44,152.817 30.738,152.568 29.99,152.29C16.955,147.452 10.993,129.591 18.505,116.936C29.58,98.279 43.13,101.689 43.857,101.449C44.138,101.356 44.452,101.315 44.793,101.326L44.793,101.326Z" style="fill:rgb(233,175,175);fill-rule:nonzero;"/>
                <path id="Inner-line1" serif:id="Inner line" d="M41.071,96.661C36.679,102.702 32.462,115.817 44.489,129.732C56.758,143.926 71.125,135.546 71.125,135.546" style="fill:none;fill-rule:nonzero;stroke:rgb(160,44,44);stroke-opacity:0.21;stroke-width:10px;stroke-linecap:butt;stroke-linejoin:miter;stroke-miterlimit:4;"/>
                <path id="Outline1" serif:id="Outline" d="M45.032,88.036C49.866,87.97 53.372,90.225 56.1,92.14C59.738,94.694 62.732,97.917 65.755,102.01C70.935,109.024 75.998,118.69 80.506,131.593C79.169,131.645 77.327,131.916 77.007,131.931C79.326,139.591 70.439,141.127 69.914,141.409C61.159,113.388 49.86,101.496 44.793,101.326C44.452,101.315 44.139,101.356 43.857,101.449C43.13,101.689 29.58,98.279 18.505,116.936C10.993,129.591 16.955,147.452 29.99,152.29C30.738,152.568 31.44,152.817 32.161,153.079C30.673,157.199 28.819,161.218 27.661,165.428C26.902,165.146 26.195,164.897 25.418,164.609C3.718,156.555 -4.634,130.175 7.206,110.229C14.123,98.576 23.322,92.172 31.167,89.736C35.09,88.519 38.58,88.216 41.099,88.207C41.604,88.205 41.834,88.234 42.254,88.25C41.994,88.31 41.53,88.462 41.207,88.551C41.685,88.434 42.153,88.339 42.611,88.263C43.067,88.285 43.704,88.295 43.973,88.315C44.257,88.335 44.447,88.345 44.243,88.335C44.173,88.331 44.147,88.222 44.021,88.13C44.355,88.104 44.71,88.04 45.032,88.036Z" style="fill-rule:nonzero;"/>
            </g>
            <g id="Face1" serif:id="Face">
                <path id="Mouth1" serif:id="Mouth" d="M122.76,205.034L114.19,218.704L102.967,204.542L89.209,218.954L72.303,204.835" style="fill:none;fill-rule:nonzero;stroke:rgb(105,104,102);stroke-width:7.02px;stroke-miterlimit:4;"/>
                <path id="Nose" d="M108.977,194.183L107.402,194.183" style="fill:none;fill-rule:nonzero;stroke:rgb(222,135,135);stroke-width:10.51px;stroke-miterlimit:4;"/>
                <g id="Eyes">
                    <path id="Right-eye" serif:id="Right eye" d="M132.35,166.812C127.161,176.744 116.411,177.697 110.534,167.425" style="fill:none;fill-rule:nonzero;stroke:black;stroke-opacity:0.8;stroke-width:10.51px;stroke-miterlimit:4;"/>
                    <path id="Left-eye" serif:id="Left eye" d="M64.623,167.081C70.735,178.32 83.397,179.315 90.321,167.659" style="fill:none;fill-rule:nonzero;stroke:black;stroke-opacity:0.8;stroke-width:10.51px;stroke-miterlimit:4;"/>
                </g>
            </g>
            <g id="Whiskers">
                <path id="path1591" d="M60.954,196.608C49.865,187.998 22.288,186.384 8.383,196.286" style="fill:none;fill-rule:nonzero;stroke:rgb(105,104,102);stroke-opacity:0.72;stroke-width:6.77px;stroke-miterlimit:4;"/>
                <path id="path1593" d="M53.341,206.769C41.18,203.563 22.488,203.763 7.319,214.573" style="fill:none;fill-rule:nonzero;stroke:rgb(105,104,102);stroke-opacity:0.72;stroke-width:6.77px;stroke-miterlimit:4;"/>
                <path id="path1595" d="M135.512,196.851C151.293,187.181 164.829,189.016 171.758,194.157" style="fill:none;fill-rule:nonzero;stroke:rgb(105,104,102);stroke-opacity:0.72;stroke-width:6.77px;stroke-miterlimit:4;"/>
                <path id="path1597" d="M138.232,209.703C146.506,204.597 157.622,201.718 168.013,209.563" style="fill:none;fill-rule:nonzero;stroke:rgb(105,104,102);stroke-opacity:0.72;stroke-width:6.77px;stroke-miterlimit:4;"/>
            </g>
        </g>
        <path id="Arm" d="M201.081,205.964C200.385,209.183 197.967,211.917 194.574,212.851L149.577,225.233C144.716,226.57 139.684,223.71 138.347,218.849C137.01,213.989 139.87,208.957 144.73,207.619L181.305,197.555L178.809,186.65C177.685,181.736 180.761,176.834 185.675,175.709C190.59,174.584 195.492,177.661 196.617,182.575L201.059,201.984C201.368,203.338 201.359,204.69 201.081,205.964Z" style="fill:rgb(151,151,151);"/>
        <path d="M210.852,208.086L209.114,212.892L206.17,217.065L202.149,220.36L197.227,222.493L152.23,234.874L148.418,235.52L144.645,235.396L141.04,234.556L137.699,233.059L134.704,230.955L132.138,228.287L130.101,225.108L128.705,221.502L128.06,217.69L128.184,213.917L129.023,210.312L130.521,206.972L132.625,203.976L135.293,201.41L138.472,199.374L142.077,197.978C142.077,197.978 169.421,190.454 169.421,190.454L169.061,188.881L168.583,185.045L168.87,181.28L169.866,177.715L171.508,174.443L173.74,171.542L176.517,169.094L179.782,167.198L183.445,165.961L187.281,165.482L191.045,165.77L194.61,166.766L197.883,168.407L200.784,170.64L203.231,173.417L205.127,176.681L206.365,180.344L210.807,199.753L211.29,203.979L210.852,208.086ZM201.081,205.964C201.359,204.69 201.368,203.338 201.059,201.984L196.617,182.575C195.492,177.661 190.59,174.584 185.675,175.709C180.761,176.834 177.685,181.736 178.809,186.65L181.305,197.555L144.73,207.619C139.87,208.957 137.01,213.989 138.347,218.849C139.684,223.71 144.716,226.57 149.577,225.233L194.574,212.851C197.967,211.917 200.385,209.183 201.081,205.964Z"/>
    </g>
</svg>
