<?xml version="1.0" encoding="UTF-8" standalone="no"?>
<!DOCTYPE svg PUBLIC "-//W3C//DTD SVG 1.1//EN" "http://www.w3.org/Graphics/SVG/1.1/DTD/svg11.dtd">
<svg width="100%" height="100%" viewBox="0 0 256 256" version="1.1" xmlns="http://www.w3.org/2000/svg" xmlns:xlink="http://www.w3.org/1999/xlink" xml:space="preserve" xmlns:serif="http://www.serif.com/" style="fill-rule:evenodd;clip-rule:evenodd;stroke-linecap:round;stroke-linejoin:round;stroke-miterlimit:1.5;">
    <rect id="blobbee_referee" x="-0" y="0" width="256" height="256" style="fill:none;"/>
    <clipPath id="_clip1">
        <rect x="-0" y="0" width="256" height="256"/>
    </clipPath>
    <g clip-path="url(#_clip1)">
        <path id="Wings-outline" serif:id="Wings outline" d="M129.457,71.439C101.62,74.152 70.004,52.917 56.583,17.332C41.238,-23.356 56.638,-63.617 86.987,-73.764C110.642,-81.673 139.399,-69.767 157.884,-44.535C184.732,-63.181 216.987,-65.526 237.979,-50.045C265.408,-29.818 267.488,16.097 238.398,52.369C209.763,88.073 163.808,97.957 136.809,78.046C134.11,76.056 131.659,73.845 129.457,71.439ZM135.756,54.763C138.246,59.112 141.562,62.914 145.712,65.974C167.403,81.971 203.691,71.669 226.696,42.984C249.701,14.299 250.768,-21.976 229.076,-37.973C209.154,-52.665 176.918,-45.173 153.969,-21.629C141.008,-50.189 114.034,-66.991 91.744,-59.538C68.16,-51.653 58.694,-19.58 70.618,12.039C82.543,43.658 111.372,62.927 134.957,55.041C135.225,54.952 135.491,54.859 135.756,54.763Z"/>
        <path id="Body" d="M127.902,1.921C208.729,-44.745 300.137,-39.183 331.897,14.333C363.657,67.85 323.82,149.185 242.993,195.851C162.165,242.517 70.758,236.955 38.998,183.439C7.237,129.922 47.074,48.587 127.902,1.921Z" style="fill:rgb(254,194,7);"/>
        <g id="Stripes">
            <path d="M188.793,-16.095C187.039,-14.699 315.054,-20.58 327.076,109.803C391.095,-61.796 189.429,-29.021 188.793,-16.095Z" style="fill:rgb(42,42,42);"/>
            <path d="M327.076,111.159C319.401,-14.647 191.893,-17.614 192.59,-21.35L145.073,-3.751C145.073,-3.751 299.034,-6.142 304.518,142.104L323.15,113.42" style="fill:white;"/>
            <path d="M275.897,172.628L304.252,142.104C298.868,-6.332 141.84,-8.914 141.842,-8.859L116.671,5.99C116.437,6.032 279.066,19.108 275.897,172.628Z" style="fill:rgb(42,42,42);"/>
            <path d="M118.8,6.104L91.65,27.286C91.65,27.286 247.73,42.825 246.071,194.336L275.383,174.688C286.256,24.404 117.148,7.374 114.749,9.264" style="fill:white;"/>
            <path d="M85.819,30.174L65.463,51.814C65.463,51.814 209.143,53.111 212.42,209.36L246.071,194.336C251.812,38.125 90.484,31.835 85.819,30.174Z" style="fill:rgb(42,42,42);"/>
        </g>
        <path id="Body-outline" serif:id="Body outline" d="M127.902,1.921C208.729,-44.745 300.137,-39.183 331.897,14.333C363.657,67.85 323.82,149.185 242.993,195.851C162.165,242.517 70.758,236.955 38.998,183.439C7.237,129.922 47.074,48.587 127.902,1.921Z" style="fill:none;stroke:black;stroke-width:15px;"/>
        <g id="Wings">
            <path id="Back-wing" serif:id="Back wing" d="M91.744,-59.538C115.328,-67.424 144.157,-48.156 156.082,-16.536C168.007,15.083 158.541,47.156 134.957,55.041C111.372,62.927 82.543,43.658 70.618,12.039C58.694,-19.58 68.16,-51.653 91.744,-59.538Z" style="fill:rgb(167,167,167);"/>
            <path id="Front-wing" serif:id="Front wing" d="M229.076,-37.973C250.768,-21.976 249.701,14.299 226.696,42.984C203.691,71.669 167.403,81.971 145.712,65.974C124.02,49.977 125.087,13.702 148.092,-14.983C171.097,-43.668 207.385,-53.97 229.076,-37.973Z" style="fill:rgb(195,195,195);"/>
        </g>
        <g id="Whistle">
            <path id="Outline" d="M44.976,245.55L44.961,245.54C39.854,242.407 30.466,235.926 27.483,231.777C22.074,224.251 22.843,215.329 24.779,208.346C27.437,198.756 34.776,191.711 43.647,189.011C43.943,188.921 44.244,188.845 44.547,188.782L91.867,179.064C96.205,178.173 100.613,180.242 102.699,184.148L108.305,194.64C110.661,199.051 109.397,204.525 105.345,207.455C105.345,207.455 89.113,219.195 89.113,219.194C89.569,222.774 89.338,226.501 88.315,230.195C84.189,245.1 68.739,253.851 53.834,249.725C50.47,248.794 47.51,247.357 44.976,245.55ZM50.523,237.22C52.212,238.475 54.216,239.455 56.502,240.087C66.088,242.741 76.024,237.113 78.678,227.527C79.864,223.24 79.395,218.884 77.656,215.14L99.485,199.352L93.879,188.86L46.559,198.578C40.85,200.315 36.126,204.846 34.416,211.017C33.187,215.449 32.17,221.164 35.603,225.94C38.124,229.447 46.395,234.718 50.523,237.22Z"/>
            <path id="Top" d="M35.603,225.94C32.17,221.164 33.187,215.449 34.416,211.017C36.126,204.846 40.85,200.315 46.559,198.578L93.879,188.86L96.233,193.368L68.13,208.245C69.869,211.989 52.911,238.636 52.911,238.636C52.911,238.636 39.009,230.679 35.603,225.94Z" style="fill:rgb(153,153,153);"/>
            <path id="Front" d="M77.656,215.14C79.395,218.884 79.864,223.24 78.678,227.527C76.024,237.113 66.088,242.741 56.502,240.087C46.916,237.434 42.298,228.682 44.952,219.096C46.66,212.926 51.386,208.395 57.095,206.658L96.219,193.365L99.485,199.352L77.656,215.14Z" style="fill:rgb(115,115,115);"/>
            <path id="Hole" d="M56.788,204.955L49.081,199.826L55.136,198.441L62.251,203.176L56.788,204.955Z" style="fill:rgb(42,42,42);"/>
        </g>
        <path id="Hider" d="M98.091,174.958C98.033,172.998 98.957,165.641 98.957,165.641C118.662,149.042 143.018,177.369 132.5,199.373C131.657,201.137 116.409,199.143 114.569,198.557C98.679,193.493 98.091,174.958 98.091,174.958Z" style="fill:rgb(254,194,7);"/>
        <g id="Face">
            <path id="Mouth" d="M93.141,175.328C93.141,175.328 93.803,197.271 113.267,203.373" style="fill:none;stroke:black;stroke-width:10px;stroke-miterlimit:10;"/>
            <g id="Eyes">
                <path id="Right-eye" serif:id="Right eye" d="M141.384,124.059L141.384,132.005C141.384,140.353 134.608,147.129 126.26,147.129C117.913,147.129 111.136,140.353 111.136,132.005L111.136,124.059C111.136,115.712 117.913,108.935 126.26,108.935C134.608,108.935 141.384,115.712 141.384,124.059Z"/>
                <path id="Left-eye" serif:id="Left eye" d="M81.28,123.995L81.28,131.941C81.28,140.288 74.503,147.065 66.156,147.065C57.808,147.065 51.032,140.288 51.032,131.941L51.032,123.995C51.032,115.647 57.808,108.871 66.156,108.871C74.503,108.871 81.28,115.647 81.28,123.995Z"/>
            </g>
        </g>
        <path id="Arm" d="M226.52,192.877L244.819,107.448C246.719,97.203 241.813,87.85 231.568,85.95C221.324,84.049 213.099,90.879 211.199,101.124L195.687,172.273L176.945,168.884C169.984,167.593 163.285,172.196 161.994,179.156C160.703,186.117 165.305,192.816 172.266,194.107L212.022,201.482C218.402,202.665 224.562,198.885 226.52,192.877Z" style="fill:rgb(151,151,151);"/>
        <path d="M236.028,195.975C232.54,206.68 221.567,213.423 210.198,211.314L170.442,203.94C158.055,201.642 149.864,189.72 152.161,177.332C154.457,164.957 166.359,156.769 178.734,159.045C178.734,159.045 187.971,160.715 187.971,160.715C187.971,160.715 201.398,99.133 201.395,99.149C204.408,83.29 217.496,73.169 233.392,76.117C249.369,79.081 257.615,93.294 254.651,109.272C254.634,109.362 254.616,109.452 254.597,109.542L236.298,194.971C236.225,195.31 236.135,195.645 236.028,195.975ZM226.52,192.877L244.819,107.448C246.719,97.203 241.813,87.85 231.568,85.95C221.324,84.049 213.099,90.879 211.199,101.124L195.687,172.273L176.945,168.884C169.984,167.593 163.285,172.196 161.994,179.156C160.703,186.117 165.305,192.816 172.266,194.107L212.022,201.482C218.402,202.665 224.562,198.885 226.52,192.877Z"/>
    </g>
</svg>
