<?xml version="1.0" encoding="UTF-8" standalone="no"?>
<!DOCTYPE svg PUBLIC "-//W3C//DTD SVG 1.1//EN" "http://www.w3.org/Graphics/SVG/1.1/DTD/svg11.dtd">
<svg width="100%" height="100%" viewBox="0 0 256 256" version="1.1" xmlns="http://www.w3.org/2000/svg" xmlns:xlink="http://www.w3.org/1999/xlink" xml:space="preserve" xmlns:serif="http://www.serif.com/" style="fill-rule:evenodd;clip-rule:evenodd;stroke-linecap:round;stroke-linejoin:round;stroke-miterlimit:1.5;">
    <rect id="blobbee_zipped_mouth" x="-0" y="0" width="256" height="256" style="fill:none;"/>
    <clipPath id="_clip1">
        <rect x="-0" y="0" width="256" height="256"/>
    </clipPath>
    <g clip-path="url(#_clip1)">
        <path id="Wings-outline" serif:id="Wings outline" d="M129.457,71.439C101.62,74.152 70.004,52.917 56.583,17.332C41.238,-23.356 56.638,-63.617 86.987,-73.764C110.642,-81.673 139.399,-69.767 157.884,-44.535C184.732,-63.181 216.987,-65.526 237.979,-50.045C265.408,-29.818 267.488,16.097 238.398,52.369C209.763,88.073 163.808,97.957 136.809,78.046C134.11,76.056 131.659,73.845 129.457,71.439ZM135.756,54.763C138.246,59.112 141.562,62.914 145.712,65.974C167.403,81.971 203.691,71.669 226.696,42.984C249.701,14.299 250.768,-21.976 229.076,-37.973C209.154,-52.665 176.918,-45.173 153.969,-21.629C141.008,-50.189 114.034,-66.991 91.744,-59.538C68.16,-51.653 58.694,-19.58 70.618,12.039C82.543,43.658 111.372,62.927 134.957,55.041C135.225,54.952 135.491,54.859 135.756,54.763Z"/>
        <path id="Body" d="M127.902,1.921C208.729,-44.745 300.137,-39.183 331.897,14.333C363.657,67.85 323.82,149.185 242.993,195.851C162.165,242.517 70.758,236.955 38.998,183.439C7.237,129.922 47.074,48.587 127.902,1.921Z" style="fill:rgb(254,194,7);"/>
        <g id="Stripes">
            <path d="M188.793,-16.095C187.039,-14.699 315.054,-20.58 327.076,109.803C391.095,-61.796 189.429,-29.021 188.793,-16.095Z" style="fill:rgb(85,85,85);"/>
            <path d="M327.076,111.159C319.401,-14.647 191.893,-17.614 192.59,-21.35L145.073,-3.751C145.073,-3.751 299.034,-6.142 304.518,142.104L323.15,113.42" style="fill:rgb(254,194,7);"/>
            <path d="M275.897,172.628L304.252,142.104C298.868,-6.332 141.84,-8.914 141.842,-8.859L116.671,5.99C116.437,6.032 279.066,19.108 275.897,172.628Z" style="fill:rgb(85,85,85);"/>
            <path d="M118.8,6.104L91.65,27.286C91.65,27.286 247.73,42.825 246.071,194.336L275.383,174.688C286.256,24.404 117.148,7.374 114.749,9.264" style="fill:rgb(254,194,7);"/>
            <path d="M85.819,30.174L65.463,51.814C65.463,51.814 209.143,53.111 212.42,209.36L246.071,194.336C251.812,38.125 90.484,31.835 85.819,30.174Z" style="fill:rgb(85,85,85);"/>
        </g>
        <path id="Body-outline" serif:id="Body outline" d="M127.902,1.921C208.729,-44.745 300.137,-39.183 331.897,14.333C363.657,67.85 323.82,149.185 242.993,195.851C162.165,242.517 70.758,236.955 38.998,183.439C7.237,129.922 47.074,48.587 127.902,1.921Z" style="fill:none;stroke:black;stroke-width:15px;"/>
        <g id="Wings">
            <path id="Back-wing" serif:id="Back wing" d="M91.744,-59.538C115.328,-67.424 144.157,-48.156 156.082,-16.536C168.007,15.083 158.541,47.156 134.957,55.041C111.372,62.927 82.543,43.658 70.618,12.039C58.694,-19.58 68.16,-51.653 91.744,-59.538Z" style="fill:rgb(167,167,167);"/>
            <path id="Front-wing" serif:id="Front wing" d="M229.076,-37.973C250.768,-21.976 249.701,14.299 226.696,42.984C203.691,71.669 167.403,81.971 145.712,65.974C124.02,49.977 125.087,13.702 148.092,-14.983C171.097,-43.668 207.385,-53.97 229.076,-37.973Z" style="fill:rgb(195,195,195);"/>
        </g>
        <g id="Zip">
            <g id="Teeth">
                <path d="M62.087,165.895L62.087,177.139C62.087,178.809 60.731,180.164 59.062,180.164L53.012,180.164C51.343,180.164 49.988,178.809 49.988,177.139L49.988,165.895C49.988,164.226 51.343,162.871 53.012,162.871L59.062,162.871C60.731,162.871 62.087,164.226 62.087,165.895Z" style="fill:rgb(85,85,85);"/>
                <path d="M73.186,174.542L73.186,185.786C73.186,187.455 71.831,188.811 70.161,188.811L64.112,188.811C62.442,188.811 61.087,187.455 61.087,185.786L61.087,174.542C61.087,172.873 62.442,171.517 64.112,171.517L70.161,171.517C71.831,171.517 73.186,172.873 73.186,174.542Z" style="fill:rgb(85,85,85);"/>
                <path d="M84.285,165.895L84.285,177.139C84.285,178.809 82.93,180.164 81.26,180.164L75.211,180.164C73.541,180.164 72.186,178.809 72.186,177.139L72.186,165.895C72.186,164.226 73.541,162.871 75.211,162.871L81.26,162.871C82.93,162.871 84.285,164.226 84.285,165.895Z" style="fill:rgb(85,85,85);"/>
                <path d="M95.384,174.542L95.384,185.786C95.384,187.455 94.029,188.811 92.359,188.811L86.31,188.811C84.64,188.811 83.285,187.455 83.285,185.786L83.285,174.542C83.285,172.873 84.64,171.517 86.31,171.517L92.359,171.517C94.029,171.517 95.384,172.873 95.384,174.542Z" style="fill:rgb(85,85,85);"/>
                <path d="M106.483,165.895L106.483,177.139C106.483,178.809 105.128,180.164 103.459,180.164L97.409,180.164C95.74,180.164 94.384,178.809 94.384,177.139L94.384,165.895C94.384,164.226 95.74,162.871 97.409,162.871L103.459,162.871C105.128,162.871 106.483,164.226 106.483,165.895Z" style="fill:rgb(85,85,85);"/>
                <path d="M117.583,174.542L117.583,185.786C117.583,187.455 116.227,188.811 114.558,188.811L108.508,188.811C106.839,188.811 105.483,187.455 105.483,185.786L105.483,174.542C105.483,172.873 106.839,171.517 108.508,171.517L114.558,171.517C116.227,171.517 117.583,172.873 117.583,174.542Z" style="fill:rgb(85,85,85);"/>
                <path d="M128.682,165.895L128.682,177.139C128.682,178.809 127.326,180.164 125.657,180.164L119.607,180.164C117.938,180.164 116.583,178.809 116.583,177.139L116.583,165.895C116.583,164.226 117.938,162.871 119.607,162.871L125.657,162.871C127.326,162.871 128.682,164.226 128.682,165.895Z" style="fill:rgb(85,85,85);"/>
                <path d="M139.781,174.542L139.781,185.786C139.781,187.455 138.426,188.811 136.756,188.811L130.707,188.811C129.037,188.811 127.682,187.455 127.682,185.786L127.682,174.542C127.682,172.873 129.037,171.517 130.707,171.517L136.756,171.517C138.426,171.517 139.781,172.873 139.781,174.542Z" style="fill:rgb(85,85,85);"/>
            </g>
            <path id="Puller" d="M163.168,207.355L144.018,195.992C135.921,191.188 133.249,180.714 138.053,172.618C142.857,164.522 153.33,161.849 161.427,166.653L180.577,178.016C188.673,182.82 191.346,193.294 186.542,201.39C181.737,209.486 171.264,212.159 163.168,207.355ZM180.242,197.652C182.829,193.293 181.39,187.655 177.031,185.068C172.672,182.482 167.034,183.921 164.447,188.28C161.861,192.638 163.3,198.277 167.658,200.864C172.017,203.45 177.656,202.011 180.242,197.652Z" style="fill:rgb(85,85,85);"/>
        </g>
        <g id="Eyes">
            <path id="Right-eye" serif:id="Right eye" d="M141.384,124.059L141.384,132.005C141.384,140.353 134.608,147.129 126.26,147.129C117.913,147.129 111.136,140.353 111.136,132.005L111.136,124.059C111.136,115.712 117.913,108.935 126.26,108.935C134.608,108.935 141.384,115.712 141.384,124.059Z"/>
            <path id="Left-eye" serif:id="Left eye" d="M81.28,123.995L81.28,131.941C81.28,140.288 74.503,147.065 66.156,147.065C57.808,147.065 51.032,140.288 51.032,131.941L51.032,123.995C51.032,115.647 57.808,108.871 66.156,108.871C74.503,108.871 81.28,115.647 81.28,123.995Z"/>
        </g>
    </g>
</svg>
