<?xml version="1.0" encoding="UTF-8" standalone="no"?>
<!DOCTYPE svg PUBLIC "-//W3C//DTD SVG 1.1//EN" "http://www.w3.org/Graphics/SVG/1.1/DTD/svg11.dtd">
<svg width="100%" height="100%" viewBox="0 0 256 256" version="1.1" xmlns="http://www.w3.org/2000/svg" xmlns:xlink="http://www.w3.org/1999/xlink" xml:space="preserve" xmlns:serif="http://www.serif.com/" style="fill-rule:evenodd;clip-rule:evenodd;stroke-linecap:round;stroke-linejoin:round;stroke-miterlimit:1.5;">
    <defs>
        <filter id="eye_glow" width="10" height="10" x="-5" y="-5">
            <feGaussianBlur in="SourceGraphic" result="blur1" stdDeviation="25"/>
            <feGaussianBlur in="SourceGraphic" result="blur2" stdDeviation="12.5"/>
            <feGaussianBlur in="SourceGraphic" result="blur3" stdDeviation="6.25"/>
            <feComposite in="SourceGraphic" in2="blur1" result="comp1"/>
            <feComposite in="comp1" in2="blur2" result="comp2"/>
            <feComposite in="comp2" in2="blur3"/>
        </filter>
    </defs>

    <rect id="blobbee_hug_bot_heart" x="-0" y="0" width="256" height="256" style="fill:none;"/>
    <clipPath id="_clip1">
        <rect x="-0" y="0" width="256" height="256"/>
    </clipPath>
    <g clip-path="url(#_clip1)">
        <g>
            <g id="Bee">
                <path id="Wings-outline" serif:id="Wings outline" d="M148.346,135.121C134.249,134.344 119.24,123.938 112.662,106.497C104.15,83.926 114.112,62.089 130.948,56.459C142.085,52.736 155.58,56.452 165.699,66.148C178.871,59.892 193.341,60.565 203.162,67.808C218.161,78.869 220.853,103.948 204.946,123.783C189.498,143.045 164.378,147.014 149.812,136.273C149.309,135.902 148.82,135.518 148.346,135.121ZM154.47,119.42C155.531,121.274 156.945,122.896 158.715,124.2C167.963,131.021 183.435,126.629 193.244,114.398C203.053,102.168 203.508,86.701 194.259,79.88C185.765,73.616 172.02,76.81 162.236,86.849C156.709,74.672 145.208,67.508 135.704,70.685C125.649,74.048 121.613,87.723 126.697,101.204C131.782,114.685 144.073,122.901 154.129,119.539C154.243,119.501 154.357,119.461 154.47,119.42Z"/>
                <path id="Body" d="M152.322,98.199C188.339,75.441 229.071,78.153 243.223,104.252C257.376,130.35 239.624,170.015 203.607,192.773C167.59,215.53 126.858,212.818 112.706,186.72C98.553,160.621 116.305,120.956 152.322,98.199Z" style="fill:rgb(254,194,7);"/>
                <g id="Stripes">
                    <path d="M179.455,89.413C178.674,90.093 235.718,87.226 241.075,150.81C269.602,67.126 179.739,83.109 179.455,89.413Z" style="fill:rgb(85,85,85);"/>
                    <path d="M241.075,151.471C237.655,90.119 180.837,88.672 181.147,86.85L159.973,95.432C159.973,95.432 228.579,94.267 231.023,166.562L239.325,152.573" style="fill:rgb(254,194,7);"/>
                    <path d="M218.269,181.448L230.904,166.562C228.505,94.174 158.533,92.915 158.534,92.942L147.317,100.183C147.213,100.204 219.681,106.58 218.269,181.448Z" style="fill:rgb(85,85,85);"/>
                    <path d="M148.266,100.238L136.168,110.568C136.168,110.568 205.718,118.147 204.979,192.034L218.04,182.452C222.885,109.163 147.53,100.858 146.461,101.779" style="fill:rgb(254,194,7);"/>
                    <path d="M133.57,111.977L124.499,122.53C124.499,122.53 188.523,123.162 189.983,199.361L204.979,192.034C207.537,115.854 135.648,112.787 133.57,111.977Z" style="fill:rgb(85,85,85);"/>
                </g>
                <path id="Body-outline" serif:id="Body outline" d="M152.322,98.199C188.339,75.441 229.071,78.153 243.223,104.252C257.376,130.35 239.624,170.015 203.607,192.773C167.59,215.53 126.858,212.818 112.706,186.72C98.553,160.621 116.305,120.956 152.322,98.199Z" style="fill:none;stroke:black;stroke-width:15px;"/>
                <g id="Wings">
                    <path id="Back-wing" serif:id="Back wing" d="M135.704,70.685C145.76,67.323 158.052,75.539 163.136,89.02C168.221,102.502 164.185,116.177 154.129,119.539C144.073,122.901 131.782,114.685 126.697,101.204C121.613,87.723 125.649,74.048 135.704,70.685Z" style="fill:rgb(167,167,167);"/>
                    <path id="Front-wing" serif:id="Front wing" d="M194.259,79.88C203.508,86.701 203.053,102.168 193.244,114.398C183.435,126.629 167.963,131.021 158.715,124.2C149.466,117.38 149.921,101.913 159.73,89.682C169.538,77.452 185.01,73.06 194.259,79.88Z" style="fill:rgb(195,195,195);"/>
                </g>
                <g id="Face">
                    <path id="Mouth" d="M128.439,178.362L133.715,187.232L140.824,178.377L149.631,187.207L160.122,178.388" style="fill:none;stroke:black;stroke-width:4.6px;"/>
                    <path id="Eye" d="M166.682,158.774L166.682,162.584C166.682,166.586 163.433,169.835 159.431,169.835C155.428,169.835 152.179,166.586 152.179,162.584L152.179,158.774C152.179,154.772 155.428,151.523 159.431,151.523C163.433,151.523 166.682,154.772 166.682,158.774Z"/>
                </g>
            </g>
            <g id="Bot">
                <path id="Outline" d="M42.206,137.573C45.918,134.826 47.932,134.192 49.654,133.331C57.42,129.448 66.216,127.863 74.932,128.022C85.788,127.942 96.485,131.112 106.153,135.866C119.15,142.352 129.633,152.975 135.947,166.057C139.814,174.993 141.577,184.7 141.098,194.425C141.018,204.092 139.513,214.314 133.728,222.317C128.113,230.56 119.593,236.391 109.877,238.641C103.538,240.067 96.961,239.592 90.542,239.75C74.615,239.83 58.767,239.909 42.84,239.671C38.085,239.275 33.331,237.611 29.369,234.917C22,229.845 18.355,220.97 16.77,212.492C15.106,204.568 15.74,196.485 15.66,188.403C15.581,180.716 16.691,172.951 19.385,165.661C21.301,160.77 23.549,155.824 29.805,148.984L29.805,117.647C29.805,115.938 31.192,114.551 32.901,114.551L39.109,114.551C40.818,114.551 42.206,115.938 42.206,117.647L42.206,137.573ZM29.884,105.647C29.884,104.089 31.149,102.823 32.708,102.823L39.461,102.823C41.02,102.823 42.285,104.089 42.285,105.647L42.285,111.133C42.285,112.691 41.02,113.957 39.461,113.957L32.708,113.957C31.149,113.957 29.884,112.691 29.884,111.133L29.884,105.647Z" style="fill:none;stroke:black;stroke-width:30px;stroke-linecap:butt;stroke-miterlimit:2;"/>
                <path id="body" d="M74.932,128.022C85.788,127.942 96.485,131.112 106.153,135.866C119.15,142.352 129.633,152.975 135.947,166.057C139.814,174.993 141.577,184.7 141.098,194.425C141.018,204.092 139.513,214.314 133.728,222.317C128.113,230.56 119.593,236.391 109.877,238.641C103.538,240.067 96.961,239.592 90.542,239.75C74.615,239.83 58.767,239.909 42.84,239.671C38.085,239.275 33.331,237.611 29.369,234.917C22,229.845 18.355,220.97 16.77,212.492C15.106,204.568 15.74,196.485 15.66,188.403C15.581,180.716 16.691,172.951 19.385,165.661C21.683,159.797 24.456,153.854 34.044,144.662C43.553,135.47 46.96,134.678 49.654,133.331C57.42,129.448 66.216,127.863 74.932,128.022Z" style="fill:rgb(203,203,203);fill-rule:nonzero;"/>
                <path id="visor" d="M107.183,188.403L110.749,188.006C113.522,187.61 115.741,186.976 117.801,185.946C122.001,183.807 124.695,180.32 125.566,175.645C125.883,174.139 125.963,173.426 125.963,171.921C125.963,166.057 123.902,160.669 119.861,155.518C114.631,148.941 107.5,144.979 98.466,143.632C88.515,142.488 78.465,142.488 68.514,143.632C59.48,144.979 52.349,148.941 47.119,155.518C43.077,160.669 41.017,166.057 41.017,171.921C41.017,173.426 41.096,174.139 41.413,175.645C42.761,182.46 47.753,186.659 55.914,188.006C58.688,188.482 56.945,188.403 82.935,188.482L107.183,188.403Z" style="fill:rgb(53,53,53);fill-rule:nonzero;"/>
                <path id="light" d="M29.884,105.798L29.884,110.982C29.884,112.624 31.217,113.957 32.859,113.957L39.31,113.957C40.952,113.957 42.285,112.624 42.285,110.982L42.285,105.798C42.285,104.156 40.952,102.823 39.31,102.823L32.859,102.823C31.217,102.823 29.884,104.156 29.884,105.798Z" style="fill:rgb(88,211,215);"/>
                <path id="stem" d="M29.805,117.813L29.805,153.404C29.805,155.205 31.267,156.667 33.067,156.667L38.943,156.667C40.744,156.667 42.206,155.205 42.206,153.404L42.206,117.813C42.206,116.013 40.744,114.551 38.943,114.551L33.067,114.551C31.267,114.551 29.805,116.013 29.805,117.813Z" style="fill:rgb(160,160,160);"/>
                <path id="mouth" d="M107.737,196.961L100.051,209.322L89.988,196.564L77.547,209.56L62.333,196.802" style="fill:none;fill-rule:nonzero;stroke:rgb(53,53,53);stroke-width:8px;stroke-miterlimit:4;"/>
                <g id="Eyes">
                    <path id="Right-eye" serif:id="Right eye" d="M96.086,167.939C98.155,173.995 103.174,175.909 106.979,175.943C111.259,175.981 115.864,174.674 118.783,167.415" style="fill:none;stroke:rgb(88,211,215);stroke-width:10px;" filter="url(#eye_glow)"/>
                    <path id="Left-eye" serif:id="Left eye" d="M50.633,167.939C52.702,173.995 57.721,175.909 61.526,175.943C65.805,175.981 70.41,174.674 73.329,167.415" style="fill:none;stroke:rgb(88,211,215);stroke-width:10px;" filter="url(#eye_glow)"/>
                </g>
            </g>
        </g>
        <path id="Heart" d="M100.241,70.661L90.15,60.571C80.47,50.89 80.47,35.171 90.15,25.491C99.831,15.81 115.55,15.81 125.231,25.491L128,28.26L130.769,25.491C140.45,15.81 156.169,15.81 165.85,25.491C175.53,35.171 175.53,50.89 165.85,60.571L155.759,70.661C155.367,71.211 154.923,71.736 154.43,72.23L136.889,89.77C134.439,92.221 131.215,93.43 128,93.4C124.785,93.43 121.561,92.221 119.111,89.77L101.57,72.23C101.077,71.736 100.633,71.211 100.241,70.661Z" style="fill:rgb(239,124,148);stroke:black;stroke-width:15px;stroke-linejoin:miter;stroke-miterlimit:5;"/>
        <path id="Arm" d="M201.081,205.964C200.385,209.183 197.967,211.917 194.574,212.851L149.577,225.233C144.716,226.57 139.684,223.71 138.347,218.849C137.01,213.989 139.87,208.957 144.73,207.619L181.305,197.555L178.809,186.65C177.685,181.736 180.761,176.834 185.675,175.709C190.59,174.584 195.492,177.661 196.617,182.575L201.059,201.984C201.368,203.338 201.359,204.69 201.081,205.964Z" style="fill:rgb(151,151,151);"/>
        <path d="M210.852,208.086L209.114,212.892L206.17,217.065L202.149,220.36L197.227,222.493L152.23,234.874L148.418,235.52L144.645,235.396L141.04,234.556L137.699,233.059L134.704,230.955L132.138,228.287L130.101,225.108L128.705,221.502L128.06,217.69L128.184,213.917L129.023,210.312L130.521,206.972L132.625,203.976L135.293,201.41L138.472,199.374L142.077,197.978C142.077,197.978 169.421,190.454 169.421,190.454L169.061,188.881L168.583,185.045L168.87,181.28L169.866,177.715L171.508,174.443L173.74,171.542L176.517,169.094L179.782,167.198L183.445,165.961L187.281,165.482L191.045,165.77L194.61,166.766L197.883,168.407L200.784,170.64L203.231,173.417L205.127,176.681L206.365,180.344L210.807,199.753L211.29,203.979L210.852,208.086ZM201.081,205.964C201.359,204.69 201.368,203.338 201.059,201.984L196.617,182.575C195.492,177.661 190.59,174.584 185.675,175.709C180.761,176.834 177.685,181.736 178.809,186.65L181.305,197.555L144.73,207.619C139.87,208.957 137.01,213.989 138.347,218.849C139.684,223.71 144.716,226.57 149.577,225.233L194.574,212.851C197.967,211.917 200.385,209.183 201.081,205.964Z"/>
    </g>
</svg>
