<?xml version="1.0" encoding="UTF-8" standalone="no"?>
<!DOCTYPE svg PUBLIC "-//W3C//DTD SVG 1.1//EN" "http://www.w3.org/Graphics/SVG/1.1/DTD/svg11.dtd">
<svg width="100%" height="100%" viewBox="0 0 256 256" version="1.1" xmlns="http://www.w3.org/2000/svg" xmlns:xlink="http://www.w3.org/1999/xlink" xml:space="preserve" xmlns:serif="http://www.serif.com/" style="fill-rule:evenodd;clip-rule:evenodd;stroke-linecap:round;stroke-linejoin:round;stroke-miterlimit:1.5;">
    <rect id="blobbee_thought_bubble" x="-0" y="-0" width="256" height="256" style="fill:none;"/>
    <clipPath id="_clip1">
        <rect x="-0" y="-0" width="256" height="256"/>
    </clipPath>
    <g clip-path="url(#_clip1)">
        <path id="Wings-outline" serif:id="Wings outline" d="M85.911,118.96C64.22,119.951 40.081,103.608 29.74,76.187C17.462,43.633 30.423,11.638 54.705,3.519C72.712,-2.502 94.597,5.565 109.433,23.705C130.196,10.768 154.388,9.924 170.338,21.686C192.186,37.798 194.54,74.364 171.369,103.256C148.655,131.579 112.048,138.809 90.631,123.014C88.938,121.766 87.365,120.412 85.911,118.96ZM92.141,102.617C93.99,105.847 96.453,108.67 99.534,110.942C115.64,122.82 142.585,115.171 159.667,93.871C176.749,72.572 177.541,45.636 161.435,33.758C146.642,22.849 122.705,28.412 105.665,45.894C96.041,24.687 76.012,12.211 59.461,17.745C41.949,23.6 34.92,47.416 43.775,70.894C52.629,94.372 74.036,108.68 91.548,102.824C91.747,102.758 91.945,102.689 92.141,102.617Z"/>
        <path id="Body" d="M85.271,72.055C145.288,37.404 213.16,41.534 236.743,81.272C260.326,121.009 230.747,181.404 170.729,216.054C110.712,250.705 42.84,246.576 19.257,206.838C-4.326,167.1 25.253,106.706 85.271,72.055Z" style="fill:rgb(254,194,7);"/>
        <g id="Stripes">
            <path d="M130.484,58.678C129.182,59.714 224.237,55.348 233.164,152.161C280.7,24.744 130.957,49.08 130.484,58.678Z" style="fill:rgb(85,85,85);"/>
            <path d="M233.164,153.168C227.465,59.753 132.786,57.55 133.303,54.776L98.021,67.843C98.021,67.843 212.342,66.068 216.414,176.145L230.249,154.847" style="fill:rgb(254,194,7);"/>
            <path d="M195.162,198.811L216.216,176.145C212.218,65.928 95.621,64.01 95.622,64.051L76.931,75.077C76.758,75.108 197.515,84.817 195.162,198.811Z" style="fill:rgb(85,85,85);"/>
            <path d="M78.512,75.161L58.353,90.89C58.353,90.89 174.247,102.428 173.015,214.93L194.78,200.34C202.854,88.75 77.286,76.105 75.505,77.508" style="fill:rgb(254,194,7);"/>
            <path d="M54.023,93.034L38.908,109.103C38.908,109.103 145.595,110.065 148.028,226.085L173.015,214.93C177.278,98.938 57.487,94.267 54.023,93.034Z" style="fill:rgb(85,85,85);"/>
        </g>
        <path id="Body-outline" serif:id="Body outline" d="M85.271,72.055C145.288,37.404 213.16,41.534 236.743,81.272C260.326,121.009 230.747,181.404 170.729,216.054C110.712,250.705 42.84,246.576 19.257,206.838C-4.326,167.1 25.253,106.706 85.271,72.055Z" style="fill:none;stroke:black;stroke-width:15px;"/>
        <g id="Wings">
            <path id="Back-wing" serif:id="Back wing" d="M59.461,17.745C76.973,11.89 98.38,26.197 107.234,49.675C116.089,73.154 109.06,96.969 91.548,102.824C74.036,108.68 52.629,94.372 43.775,70.894C34.92,47.416 41.949,23.6 59.461,17.745Z" style="fill:rgb(167,167,167);"/>
            <path id="Front-wing" serif:id="Front wing" d="M161.435,33.758C177.541,45.636 176.749,72.572 159.667,93.871C142.585,115.171 115.64,122.82 99.534,110.942C83.427,99.064 84.219,72.128 101.301,50.829C118.383,29.529 145.328,21.88 161.435,33.758Z" style="fill:rgb(195,195,195);"/>
        </g>
        <g id="Face">
            <path id="Mouth" d="M50.889,199.125L60.819,189.464L73.131,199.38" style="fill:none;stroke:black;stroke-width:10px;"/>
            <path id="Right-eye" serif:id="Right eye" d="M99.128,162.816L99.128,168.592C99.128,174.659 94.202,179.585 88.135,179.585C82.068,179.585 77.142,174.659 77.142,168.592L77.142,162.816C77.142,156.749 82.068,151.823 88.135,151.823C94.202,151.823 99.128,156.749 99.128,162.816Z"/>
            <path id="Left-eye" serif:id="Left eye" d="M50.889,162.816L50.889,168.592C50.889,174.659 45.963,179.585 39.896,179.585C33.828,179.585 28.903,174.659 28.903,168.592L28.903,162.816C28.903,156.749 33.828,151.823 39.896,151.823C45.963,151.823 50.889,156.749 50.889,162.816Z"/>
        </g>
        <path id="Hand" d="M11.143,239.026L11.143,207.248C11.143,204.562 13.324,202.38 16.011,202.38C18.698,202.38 20.879,204.562 20.879,207.248L20.879,216.051L60.624,216.051C63.248,216.051 65.378,218.181 65.378,220.805C65.378,223.428 63.248,225.558 60.624,225.558L40.816,225.558L40.816,239.026C40.816,242.506 37.991,245.331 34.511,245.331L17.448,245.331C13.968,245.331 11.143,242.506 11.143,239.026Z" style="fill:rgb(151,151,151);"/>
        <path d="M30.758,206.051L60.624,206.051L63.589,206.351L66.372,207.216L68.881,208.578L71.056,210.373L72.851,212.548L74.213,215.057L75.078,217.84L75.378,220.805L75.078,223.769L74.213,226.552L72.851,229.061L71.056,231.236L68.881,233.031L66.372,234.393L63.589,235.258L60.624,235.558L50.816,235.558L50.816,239.026L50.485,242.303L49.53,245.377L48.024,248.149L46.04,250.554L43.635,252.539L40.863,254.044L37.788,254.999L34.511,255.331L17.448,255.331L14.171,254.999L11.097,254.044L8.324,252.539L5.92,250.554L3.935,248.149L2.43,245.377L1.475,242.303L1.143,239.026L1.143,207.248L1.445,204.261L2.317,201.456L3.69,198.928L5.498,196.736L7.691,194.927L10.219,193.554L13.024,192.683L16.011,192.38L18.998,192.683L21.803,193.554L24.331,194.927L26.524,196.736L28.332,198.928L29.705,201.456L30.577,204.261L30.758,206.051ZM11.143,239.026C11.143,242.506 13.968,245.331 17.448,245.331L34.511,245.331C37.991,245.331 40.816,242.506 40.816,239.026L40.816,225.558L60.624,225.558C63.248,225.558 65.378,223.428 65.378,220.805C65.378,218.181 63.248,216.051 60.624,216.051L20.879,216.051L20.879,207.248C20.879,204.562 18.698,202.38 16.011,202.38C13.324,202.38 11.143,204.562 11.143,207.248L11.143,239.026Z"/>
        <path d="M262.466,27.05C262.466,12.121 274.587,0 289.516,0C304.445,0 316.566,12.121 316.566,27.05C324.03,14.121 340.587,9.684 353.516,17.149C366.445,24.613 370.881,41.17 363.417,54.099C376.346,46.635 392.903,51.071 400.367,64C407.832,76.929 403.395,93.486 390.467,100.95C405.396,100.95 417.516,113.071 417.516,128C417.516,142.929 405.396,155.05 390.467,155.05C403.395,162.514 407.832,179.071 400.367,192C392.903,204.929 376.346,209.365 363.417,201.901C370.881,214.83 366.445,231.387 353.516,238.851C340.587,246.316 324.03,241.879 316.566,228.95C316.566,243.879 304.445,256 289.516,256C274.587,256 262.466,243.879 262.466,228.95C255.002,241.879 238.445,246.316 225.516,238.851C212.587,231.387 208.151,214.83 215.615,201.901C202.686,209.365 186.129,204.929 178.665,192C171.2,179.071 175.637,162.514 188.566,155.05C173.637,155.05 161.516,142.929 161.516,128C161.516,113.071 173.637,100.95 188.566,100.95C175.637,93.486 171.2,76.929 178.665,64C186.129,51.071 202.686,46.635 215.615,54.099C208.151,41.17 212.587,24.613 225.516,17.149C238.445,9.684 255.002,14.121 262.466,27.05Z" style="fill:white;"/>
        <path d="M257.48,8.439C263.902,-2.585 275.85,-10 289.516,-10C303.182,-10 315.13,-2.585 321.552,8.439C332.626,2.103 346.681,1.655 358.516,8.488C370.351,15.322 376.991,27.718 377.041,40.475C389.799,40.525 402.194,47.165 409.028,59C415.861,70.835 415.413,84.89 409.078,95.964C420.101,102.386 427.516,114.334 427.516,128C427.516,141.666 420.101,153.614 409.078,160.036C415.413,171.11 415.861,185.165 409.028,197C402.194,208.835 389.799,215.475 377.041,215.525C376.991,228.282 370.351,240.678 358.516,247.512C346.681,254.345 332.626,253.897 321.552,247.561C315.13,258.585 303.182,266 289.516,266C275.85,266 263.902,258.585 257.48,247.561C246.406,253.897 232.351,254.345 220.516,247.512C208.681,240.678 202.041,228.282 201.991,215.525C189.234,215.475 176.838,208.835 170.005,197C163.171,185.165 163.619,171.11 169.955,160.036C158.931,153.614 151.516,141.666 151.516,128C151.516,114.334 158.931,102.386 169.955,95.964C163.619,84.89 163.171,70.835 170.005,59C176.838,47.165 189.234,40.525 201.991,40.475C202.041,27.718 208.681,15.322 220.516,8.488C232.351,1.655 246.406,2.103 257.48,8.439ZM262.466,27.05C255.002,14.121 238.445,9.684 225.516,17.149C212.587,24.613 208.151,41.17 215.615,54.099C202.686,46.635 186.129,51.071 178.665,64C171.2,76.929 175.637,93.486 188.566,100.95C173.637,100.95 161.516,113.071 161.516,128C161.516,142.929 173.637,155.05 188.566,155.05C175.637,162.514 171.2,179.071 178.665,192C186.129,204.929 202.686,209.365 215.615,201.901C208.151,214.83 212.587,231.387 225.516,238.851C238.445,246.316 255.002,241.879 262.466,228.95C262.466,243.879 274.587,256 289.516,256C304.445,256 316.566,243.879 316.566,228.95C324.03,241.879 340.587,246.316 353.516,238.851C366.445,231.387 370.881,214.83 363.417,201.901C376.346,209.365 392.903,204.929 400.367,192C407.832,179.071 403.395,162.514 390.467,155.05C405.396,155.05 417.516,142.929 417.516,128C417.516,113.071 405.396,100.95 390.467,100.95C403.395,93.486 407.832,76.929 400.367,64C392.903,51.071 376.346,46.635 363.417,54.099C370.881,41.17 366.445,24.613 353.516,17.149C340.587,9.684 324.03,14.121 316.566,27.05C316.566,12.121 304.445,-0 289.516,-0C274.587,-0 262.466,12.121 262.466,27.05Z"/>
        <path d="M128.725,68.616C129.217,66.063 131.651,64.051 134.533,64.051C137.415,64.051 139.849,66.063 140.34,68.616C142.493,67.158 145.638,67.457 147.675,69.494C149.713,71.532 150.011,74.676 148.553,76.829C151.106,77.321 153.119,79.755 153.119,82.637C153.119,85.518 151.106,87.953 148.553,88.444C150.011,90.597 149.713,93.741 147.675,95.779C145.638,97.817 142.493,98.115 140.34,96.657C139.849,99.21 137.415,101.223 134.533,101.223C131.651,101.223 129.217,99.21 128.725,96.657C126.573,98.115 123.428,97.817 121.391,95.779C119.353,93.741 119.055,90.597 120.513,88.444C117.959,87.953 115.947,85.518 115.947,82.637C115.947,79.755 117.959,77.321 120.513,76.829C119.055,74.676 119.353,71.532 121.391,69.494C123.428,67.457 126.573,67.158 128.725,68.616Z" style="fill:white;"/>
        <path d="M109.723,72.36L109.703,72.003L111.154,66.911L114.319,62.423L118.808,59.258L123.899,57.807L124.256,57.827L124.495,57.56L129.121,54.986L134.533,54.051L139.945,54.986L144.571,57.56L144.809,57.827L145.166,57.807L150.258,59.258L154.746,62.423L157.912,66.911L159.363,72.003L159.342,72.36L159.609,72.599L162.184,77.225L163.119,82.637L162.184,88.049L159.609,92.675L159.342,92.913L159.363,93.27L157.912,98.362L154.746,102.85L150.258,106.016L145.166,107.467L144.809,107.446L144.571,107.713L139.945,110.288L134.533,111.223L129.121,110.288L124.495,107.713L124.256,107.446L123.899,107.467L118.808,106.016L114.319,102.85L111.154,98.362L109.703,93.27L109.723,92.913L109.457,92.675L106.882,88.049L105.947,82.637L106.882,77.225L109.457,72.599L109.723,72.36ZM128.725,68.616C126.573,67.158 123.428,67.457 121.391,69.494C119.353,71.532 119.055,74.676 120.513,76.829C117.959,77.321 115.947,79.755 115.947,82.637C115.947,85.518 117.959,87.953 120.513,88.444C119.055,90.597 119.353,93.741 121.391,95.779C123.428,97.817 126.573,98.115 128.725,96.657C129.217,99.21 131.651,101.223 134.533,101.223C137.415,101.223 139.849,99.21 140.34,96.657C142.493,98.115 145.638,97.817 147.675,95.779C149.713,93.741 150.011,90.597 148.553,88.444C151.106,87.953 153.119,85.518 153.119,82.637C153.119,79.755 151.106,77.321 148.553,76.829C150.011,74.676 149.713,71.532 147.675,69.494C145.638,67.457 142.493,67.158 140.34,68.616C139.849,66.063 137.415,64.051 134.533,64.051C131.651,64.051 129.217,66.063 128.725,68.616Z"/>
        <path d="M89.248,109.016C89.586,107.261 91.26,105.878 93.24,105.878C95.221,105.878 96.895,107.261 97.233,109.016C98.713,108.014 100.874,108.219 102.275,109.62C103.676,111.02 103.881,113.182 102.878,114.662C104.634,115 106.017,116.673 106.017,118.654C106.017,120.635 104.634,122.308 102.878,122.646C103.881,124.126 103.676,126.288 102.275,127.689C100.874,129.089 98.713,129.294 97.233,128.292C96.895,130.047 95.221,131.431 93.24,131.431C91.26,131.431 89.586,130.047 89.248,128.292C87.768,129.294 85.607,129.089 84.206,127.689C82.805,126.288 82.6,124.126 83.603,122.646C81.847,122.308 80.464,120.635 80.464,118.654C80.464,116.673 81.847,115 83.603,114.662C82.6,113.182 82.805,111.02 84.206,109.62C85.607,108.219 87.768,108.014 89.248,109.016Z" style="fill:white;"/>
        <path d="M73.243,110.371L74.345,106.504L77.135,102.549L81.091,99.759L84.957,98.657L88.47,96.702L93.24,95.878L98.01,96.702L101.523,98.657L105.39,99.759L109.346,102.549L112.136,106.504L113.237,110.371L115.193,113.884L116.017,118.654L115.193,123.424L113.237,126.937L112.136,130.804L109.346,134.76L105.39,137.55L101.523,138.651L98.01,140.606L93.24,141.431L88.47,140.606L84.957,138.651L81.091,137.55L77.135,134.76L74.345,130.804L73.243,126.937L71.288,123.424L70.464,118.654L71.288,113.884L73.243,110.371ZM89.248,109.016C87.768,108.014 85.607,108.219 84.206,109.62C82.805,111.02 82.6,113.182 83.603,114.662C81.847,115 80.464,116.673 80.464,118.654C80.464,120.635 81.847,122.308 83.603,122.646C82.6,124.126 82.805,126.288 84.206,127.689C85.607,129.089 87.768,129.294 89.248,128.292C89.586,130.047 91.26,131.431 93.24,131.431C95.221,131.431 96.895,130.047 97.233,128.292C98.713,129.294 100.874,129.089 102.275,127.689C103.676,126.288 103.881,124.126 102.878,122.646C104.634,122.308 106.017,120.635 106.017,118.654C106.017,116.673 104.634,115 102.878,114.662C103.881,113.182 103.676,111.02 102.275,109.62C100.874,108.219 98.713,108.014 97.233,109.016C96.895,107.261 95.221,105.878 93.24,105.878C91.26,105.878 89.586,107.261 89.248,109.016Z"/>
    </g>
</svg>
