<?xml version="1.0" encoding="UTF-8" standalone="no"?>
<!DOCTYPE svg PUBLIC "-//W3C//DTD SVG 1.1//EN" "http://www.w3.org/Graphics/SVG/1.1/DTD/svg11.dtd">
<svg width="100%" height="100%" viewBox="0 0 256 256" version="1.1" xmlns="http://www.w3.org/2000/svg" xmlns:xlink="http://www.w3.org/1999/xlink" xml:space="preserve" xmlns:serif="http://www.serif.com/" style="fill-rule:evenodd;clip-rule:evenodd;stroke-linecap:round;stroke-linejoin:round;stroke-miterlimit:10;">
    <rect id="blobbee_meeting" x="0" y="0" width="256" height="256" style="fill:none;"/>
    <g id="Buttons">
        <g id="More-button" serif:id="More button">
            <circle id="Background" cx="216.401" cy="237.509" r="13.001" style="fill:white;stroke:black;stroke-width:1px;"/>
            <g id="Icon">
                <circle cx="216.401" cy="237.509" r="1.978"/>
                <circle cx="221.458" cy="237.509" r="1.978"/>
                <circle cx="211.345" cy="237.509" r="1.978"/>
            </g>
        </g>
        <g id="Share-screen-button" serif:id="Share screen button">
            <circle id="Background1" serif:id="Background" cx="178.201" cy="237.509" r="13.001" style="fill:white;stroke:black;stroke-width:1px;"/>
            <g id="Icon1" serif:id="Icon">
                <path id="Screen" d="M184.997,232.753L184.997,240.264C184.997,240.736 184.614,241.119 184.142,241.119L172.261,241.119C171.789,241.119 171.406,240.736 171.406,240.264L171.406,232.753C171.406,232.281 171.789,231.898 172.261,231.898L184.142,231.898C184.614,231.898 184.997,232.281 184.997,232.753Z" style="fill:none;stroke:black;stroke-width:2px;"/>
                <path id="Arrow" d="M177.217,237.755L175.39,237.755L178.201,234.944L181.013,237.755L179.185,237.755L179.185,244.499L177.217,244.499L177.217,237.755Z"/>
            </g>
        </g>
        <g id="Leave-button" serif:id="Leave button">
            <path id="Background2" serif:id="Background" d="M152.999,237.448C152.999,244.624 147.173,250.45 139.998,250.45L116.002,250.45C108.827,250.45 103.001,244.624 103.001,237.448C103.001,230.273 108.827,224.447 116.002,224.447L139.998,224.447C147.173,224.447 152.999,230.273 152.999,237.448Z" style="fill:rgb(255,92,92);stroke:black;stroke-width:1px;"/>
            <path id="Icon2" serif:id="Icon" d="M118.453,243.609C118.453,243.609 112.727,239.004 112.728,238.985C112.788,234.798 119.605,231.408 127.993,231.408C136.381,231.408 143.198,234.798 143.258,238.985C143.258,239.004 137.533,243.609 137.533,243.609L132.949,240.963L133.782,235.656C131.971,235.384 130.017,235.231 127.993,235.231C125.968,235.231 124.015,235.384 122.203,235.656L123.037,240.963L118.453,243.609Z" style="fill:white;"/>
        </g>
        <g id="Video-button" serif:id="Video button">
            <circle id="Background3" serif:id="Background" cx="77.816" cy="237.509" r="13.001" style="fill:white;stroke:black;stroke-width:1px;"/>
            <g id="Icon3" serif:id="Icon">
                <path id="Lens" d="M81.56,237.509L85.3,233.948L85.3,241.069L81.56,237.509Z"/>
                <path id="Camera" d="M81.856,233.753L81.856,241.264C81.856,241.736 81.473,242.119 81.002,242.119L73.284,242.119C72.813,242.119 72.43,241.736 72.43,241.264L72.43,233.753C72.43,233.281 72.813,232.898 73.284,232.898L81.002,232.898C81.473,232.898 81.856,233.281 81.856,233.753Z" style="fill:none;stroke:black;stroke-width:2px;"/>
            </g>
        </g>
        <g id="Mic-button" serif:id="Mic button">
            <circle id="Background4" serif:id="Background" cx="39.601" cy="237.001" r="13.001" style="fill:white;stroke:black;stroke-width:1px;"/>
            <g id="Icon4" serif:id="Icon">
                <path id="Base" d="M38.882,241.431C36.883,241.09 35.363,239.349 35.363,237.253L36.422,237.253C36.422,239.009 37.846,240.433 39.601,240.433C41.357,240.433 42.781,239.009 42.781,237.253L43.84,237.253C43.84,239.325 42.355,241.049 40.391,241.419L40.391,243.564L38.882,243.564L38.882,241.431Z"/>
                <path id="Mic" d="M41.341,233.192L41.341,237.402C41.341,238.362 40.561,239.142 39.601,239.142C38.641,239.142 37.862,238.362 37.862,237.402L37.862,233.192C37.862,232.232 38.641,231.453 39.601,231.453C40.561,231.453 41.341,232.232 41.341,233.192Z"/>
            </g>
        </g>
    </g>
    <g id="Bee">
        <clipPath id="_clip1">
            <path d="M251,17.834L251,206.063C251,213.146 245.249,218.896 238.166,218.896L17.834,218.896C10.751,218.896 5,213.146 5,206.063L5,17.834C5,10.751 10.751,5 17.834,5L238.166,5C245.249,5 251,10.751 251,17.834Z"/>
        </clipPath>
        <g clip-path="url(#_clip1)">
            <path id="Wings-outline" serif:id="Wings outline" d="M118.162,60.875C94.213,62.476 67.334,44.342 55.864,13.928C42.46,-21.611 56.317,-56.64 82.825,-65.503C102.901,-72.215 127.304,-62.761 143.494,-42.032C166.497,-57.046 193.638,-58.423 211.434,-45.298C235.33,-27.676 237.583,12.321 212.24,43.921C187.353,74.952 147.316,83.157 123.85,65.852C121.791,64.333 119.895,62.669 118.162,60.875ZM124.42,44.395C126.504,48.036 129.28,51.218 132.753,53.779C150.909,67.169 181.283,58.546 200.539,34.537C219.794,10.527 220.687,-19.837 202.531,-33.226C185.855,-45.524 158.873,-39.253 139.665,-19.546C128.816,-43.451 106.238,-57.515 87.581,-51.277C67.841,-44.676 59.917,-17.831 69.899,8.635C79.88,35.101 104.01,51.229 123.751,44.629C123.976,44.553 124.199,44.476 124.42,44.395Z"/>
            <path id="Body" d="M116.675,9.944C184.329,-29.116 260.839,-24.461 287.423,20.334C314.007,65.128 280.663,133.207 213.008,172.267C145.354,211.328 68.844,206.672 42.26,161.878C15.677,117.084 49.021,49.005 116.675,9.944Z" style="fill:rgb(254,194,7);"/>
            <g id="Stripes">
                <path d="M167.642,-5.135C166.174,-3.967 273.325,-8.889 283.388,100.244C336.973,-43.388 168.175,-15.955 167.642,-5.135Z" style="fill:rgb(85,85,85);"/>
                <path d="M283.388,101.379C276.963,-3.923 170.237,-6.407 170.82,-9.534L131.048,5.196C131.048,5.196 259.916,3.196 264.506,127.28L280.101,103.271" style="fill:rgb(254,194,7);"/>
                <path d="M240.55,152.829L264.283,127.28C259.777,3.037 128.342,0.876 128.343,0.922L107.274,13.35C107.079,13.386 243.202,24.33 240.55,152.829Z" style="fill:rgb(85,85,85);"/>
                <path d="M109.056,13.445L86.332,31.175C86.332,31.175 216.974,44.182 215.585,170.999L240.119,154.554C249.22,28.763 107.674,14.509 105.666,16.09" style="fill:rgb(254,194,7);"/>
                <path d="M81.451,33.593L64.412,51.706C64.412,51.706 184.675,52.791 187.418,183.575L215.585,170.999C220.39,40.248 85.355,34.983 81.451,33.593Z" style="fill:rgb(85,85,85);"/>
            </g>
            <path id="Body-outline" serif:id="Body outline" d="M116.675,9.944C184.329,-29.116 260.839,-24.461 287.423,20.334C314.007,65.128 280.663,133.207 213.008,172.267C145.354,211.328 68.844,206.672 42.26,161.878C15.677,117.084 49.021,49.005 116.675,9.944Z" style="fill:none;stroke:black;stroke-width:15px;stroke-miterlimit:1.5;"/>
            <g id="Wings">
                <path id="Back-wing" serif:id="Back wing" d="M87.581,-51.277C107.322,-57.877 131.452,-41.749 141.434,-15.283C151.415,11.182 143.492,38.028 123.751,44.629C104.01,51.229 79.88,35.101 69.899,8.635C59.917,-17.831 67.841,-44.676 87.581,-51.277Z" style="fill:rgb(167,167,167);"/>
                <path id="Front-wing" serif:id="Front wing" d="M202.531,-33.226C220.687,-19.837 219.794,10.527 200.539,34.537C181.283,58.546 150.909,67.169 132.753,53.779C114.597,40.39 115.49,10.027 134.745,-13.983C154.001,-37.993 184.375,-46.616 202.531,-33.226Z" style="fill:rgb(195,195,195);"/>
            </g>
            <g id="Face">
                <path id="Mouth" d="M62.754,152.358L71.774,167.522L83.928,152.384L98.983,167.48L116.918,152.402" style="fill:none;stroke:black;stroke-width:8.37px;stroke-miterlimit:1.5;"/>
                <g id="Eyes">
                    <path id="Right-eye" serif:id="Right eye" d="M127.65,112.177L127.65,118.828C127.65,125.814 121.977,131.487 114.991,131.487C108.004,131.487 102.331,125.814 102.331,118.828L102.331,112.177C102.331,105.19 108.004,99.517 114.991,99.517C121.977,99.517 127.65,105.19 127.65,112.177Z"/>
                    <path id="Left-eye" serif:id="Left eye" d="M77.341,112.122L77.341,118.773C77.341,125.76 71.668,131.433 64.682,131.433C57.695,131.433 52.023,125.76 52.023,118.773L52.023,112.122C52.023,105.136 57.695,99.463 64.682,99.463C71.668,99.463 77.341,105.136 77.341,112.122Z"/>
                </g>
            </g>
        </g>
    </g>
    <path id="Camera-outline" serif:id="Camera outline" d="M251,17.834L251,206.063C251,213.146 245.249,218.896 238.166,218.896L17.834,218.896C10.751,218.896 5,213.146 5,206.063L5,17.834C5,10.751 10.751,5 17.834,5L238.166,5C245.249,5 251,10.751 251,17.834Z" style="fill:none;stroke:black;stroke-width:2px;"/>
    <g id="Name">
        <path d="M85.812,198.047L85.812,208.627C85.812,211.546 83.442,213.917 80.522,213.917L14.666,213.917C11.747,213.917 9.376,211.546 9.376,208.627L9.376,198.047C9.376,195.127 11.747,192.757 14.666,192.757L80.522,192.757C83.442,192.757 85.812,195.127 85.812,198.047Z" style="fill-opacity:0.5;"/>
        <path d="M16.47,197.427L21.118,197.427C22.038,197.427 22.725,197.465 23.177,197.542C23.629,197.619 24.033,197.779 24.39,198.022C24.747,198.265 25.045,198.589 25.283,198.994C25.521,199.398 25.64,199.852 25.64,200.354C25.64,200.899 25.493,201.399 25.2,201.853C24.906,202.308 24.508,202.649 24.006,202.877C24.714,203.083 25.259,203.435 25.64,203.932C26.021,204.429 26.211,205.013 26.211,205.685C26.211,206.214 26.088,206.728 25.842,207.228C25.596,207.727 25.26,208.127 24.835,208.425C24.409,208.724 23.884,208.908 23.26,208.977C22.869,209.019 21.925,209.046 20.428,209.056L16.47,209.056L16.47,197.427ZM18.818,199.362L18.818,202.052L20.357,202.052C21.272,202.052 21.84,202.038 22.062,202.012C22.464,201.964 22.78,201.826 23.01,201.596C23.24,201.365 23.355,201.063 23.355,200.687C23.355,200.328 23.256,200.035 23.058,199.811C22.859,199.586 22.565,199.45 22.173,199.402C21.941,199.376 21.272,199.362 20.166,199.362L18.818,199.362ZM18.818,203.987L18.818,207.097L20.991,207.097C21.837,207.097 22.374,207.073 22.602,207.025C22.951,206.962 23.235,206.807 23.454,206.561C23.674,206.315 23.784,205.986 23.784,205.574C23.784,205.225 23.699,204.929 23.53,204.685C23.361,204.442 23.116,204.265 22.796,204.154C22.476,204.043 21.782,203.987 20.714,203.987L18.818,203.987Z" style="fill:white;fill-rule:nonzero;"/>
        <rect x="28.178" y="197.427" width="2.229" height="11.629" style="fill:white;fill-rule:nonzero;"/>
        <path d="M32.176,204.725C32.176,203.985 32.359,203.268 32.724,202.575C33.088,201.882 33.605,201.354 34.274,200.989C34.943,200.624 35.69,200.441 36.515,200.441C37.79,200.441 38.834,200.855 39.649,201.683C40.463,202.51 40.87,203.556 40.87,204.82C40.87,206.095 40.459,207.151 39.637,207.989C38.814,208.827 37.779,209.246 36.531,209.246C35.759,209.246 35.023,209.072 34.322,208.723C33.621,208.374 33.088,207.862 32.724,207.188C32.359,206.514 32.176,205.693 32.176,204.725ZM34.461,204.844C34.461,205.679 34.659,206.319 35.056,206.764C35.452,207.208 35.942,207.43 36.523,207.43C37.105,207.43 37.593,207.208 37.987,206.764C38.381,206.319 38.578,205.674 38.578,204.828C38.578,204.003 38.381,203.368 37.987,202.924C37.593,202.48 37.105,202.258 36.523,202.258C35.942,202.258 35.452,202.48 35.056,202.924C34.659,203.368 34.461,204.008 34.461,204.844Z" style="fill:white;fill-rule:nonzero;"/>
        <path d="M42.52,209.056L42.52,197.427L44.749,197.427L44.749,201.615C45.437,200.833 46.251,200.441 47.193,200.441C48.218,200.441 49.067,200.813 49.739,201.556C50.411,202.299 50.746,203.366 50.746,204.757C50.746,206.195 50.404,207.303 49.719,208.08C49.034,208.858 48.203,209.246 47.224,209.246C46.743,209.246 46.268,209.126 45.8,208.886C45.332,208.645 44.929,208.289 44.591,207.819L44.591,209.056L42.52,209.056ZM44.733,204.661C44.733,205.534 44.871,206.179 45.146,206.597C45.532,207.189 46.045,207.485 46.685,207.485C47.177,207.485 47.596,207.275 47.942,206.855C48.289,206.434 48.462,205.772 48.462,204.868C48.462,203.905 48.287,203.211 47.938,202.785C47.589,202.36 47.142,202.147 46.598,202.147C46.063,202.147 45.619,202.354 45.265,202.77C44.911,203.185 44.733,203.815 44.733,204.661Z" style="fill:white;fill-rule:nonzero;"/>
        <path d="M52.444,209.056L52.444,197.427L54.673,197.427L54.673,201.615C55.36,200.833 56.175,200.441 57.116,200.441C58.142,200.441 58.991,200.813 59.663,201.556C60.334,202.299 60.67,203.366 60.67,204.757C60.67,206.195 60.328,207.303 59.643,208.08C58.958,208.858 58.126,209.246 57.148,209.246C56.667,209.246 56.192,209.126 55.724,208.886C55.256,208.645 54.853,208.289 54.514,207.819L54.514,209.056L52.444,209.056ZM54.657,204.661C54.657,205.534 54.795,206.179 55.07,206.597C55.456,207.189 55.969,207.485 56.608,207.485C57.1,207.485 57.519,207.275 57.866,206.855C58.212,206.434 58.385,205.772 58.385,204.868C58.385,203.905 58.211,203.211 57.862,202.785C57.513,202.36 57.066,202.147 56.521,202.147C55.987,202.147 55.543,202.354 55.189,202.77C54.834,203.185 54.657,203.815 54.657,204.661Z" style="fill:white;fill-rule:nonzero;"/>
        <path d="M67.341,206.375L69.562,206.748C69.277,207.562 68.826,208.182 68.21,208.608C67.594,209.034 66.823,209.246 65.898,209.246C64.433,209.246 63.349,208.768 62.645,207.811C62.09,207.044 61.812,206.076 61.812,204.907C61.812,203.511 62.177,202.418 62.907,201.627C63.637,200.837 64.56,200.441 65.675,200.441C66.929,200.441 67.918,200.855 68.642,201.683C69.367,202.51 69.713,203.778 69.681,205.486L64.097,205.486C64.113,206.147 64.292,206.662 64.636,207.029C64.98,207.397 65.408,207.581 65.921,207.581C66.27,207.581 66.564,207.485 66.802,207.295C67.04,207.105 67.22,206.798 67.341,206.375ZM67.468,204.122C67.452,203.477 67.286,202.986 66.968,202.651C66.651,202.315 66.265,202.147 65.81,202.147C65.324,202.147 64.922,202.324 64.605,202.678C64.287,203.033 64.131,203.514 64.136,204.122L67.468,204.122Z" style="fill:white;fill-rule:nonzero;"/>
        <path d="M76.376,206.375L78.598,206.748C78.312,207.562 77.861,208.182 77.245,208.608C76.629,209.034 75.858,209.246 74.933,209.246C73.468,209.246 72.384,208.768 71.68,207.811C71.125,207.044 70.847,206.076 70.847,204.907C70.847,203.511 71.212,202.418 71.942,201.627C72.672,200.837 73.595,200.441 74.711,200.441C75.964,200.441 76.953,200.855 77.677,201.683C78.402,202.51 78.748,203.778 78.717,205.486L73.132,205.486C73.148,206.147 73.328,206.662 73.671,207.029C74.015,207.397 74.444,207.581 74.956,207.581C75.306,207.581 75.599,207.485 75.837,207.295C76.075,207.105 76.255,206.798 76.376,206.375ZM76.503,204.122C76.487,203.477 76.321,202.986 76.004,202.651C75.686,202.315 75.3,202.147 74.845,202.147C74.359,202.147 73.957,202.324 73.64,202.678C73.322,203.033 73.166,203.514 73.172,204.122L76.503,204.122Z" style="fill:white;fill-rule:nonzero;"/>
    </g>
</svg>
